G04 Layer_Color=16711935*
%FSLAX25Y25*%
%MOIN*%
G70*
G01*
G75*
%ADD91C,0.02172*%
%ADD92C,0.05321*%
%ADD93P,0.07525X4X360.0*%
%ADD94C,0.00400*%
%ADD95C,0.05518*%
%ADD96C,0.08274*%
%ADD97C,0.02762*%
%ADD98C,0.02762*%
%ADD99C,0.02565*%
%ADD100C,0.02565*%
%ADD101R,0.10636X0.04337*%
D91*
X219019Y182362D02*
D03*
X242641Y184331D02*
D03*
X241460Y180394D02*
D03*
X236736D02*
D03*
X231618D02*
D03*
X226893D02*
D03*
X150350Y113268D02*
D03*
D92*
X118130Y139386D02*
D03*
X103988D02*
D03*
D93*
Y153528D02*
D03*
D94*
X142378Y115138D02*
D03*
X79740Y177775D02*
D03*
Y115138D02*
D03*
X142378Y177775D02*
D03*
D95*
X107437Y213386D02*
D03*
D96*
X126020Y128957D02*
D03*
Y163957D02*
D03*
X333028Y128957D02*
D03*
Y163957D02*
D03*
X321020Y146457D02*
D03*
X138028D02*
D03*
X308539Y110020D02*
D03*
Y75020D02*
D03*
X101532Y110020D02*
D03*
Y75020D02*
D03*
X113539Y92520D02*
D03*
X296532D02*
D03*
D97*
X105744Y90039D02*
D03*
X100429Y98701D02*
D03*
X295232Y123110D02*
D03*
X116177Y72480D02*
D03*
X122988Y64095D02*
D03*
X149406Y69606D02*
D03*
X176728Y69055D02*
D03*
X173972Y139449D02*
D03*
X172831Y133780D02*
D03*
X183579Y150079D02*
D03*
X138264Y133819D02*
D03*
X130902Y97323D02*
D03*
X133185Y90118D02*
D03*
X162279Y113110D02*
D03*
X294917Y138583D02*
D03*
X267004Y118976D02*
D03*
X243894Y129606D02*
D03*
X269917Y65512D02*
D03*
X264248Y91102D02*
D03*
X277673Y105748D02*
D03*
X252988D02*
D03*
X229248Y105630D02*
D03*
X253500Y74882D02*
D03*
X229720Y74803D02*
D03*
X333894Y187441D02*
D03*
X334209Y206850D02*
D03*
X341098Y198071D02*
D03*
X322358Y197756D02*
D03*
X313815Y206968D02*
D03*
X324248Y210118D02*
D03*
X313815Y188465D02*
D03*
Y225472D02*
D03*
X175127Y76917D02*
D03*
X133146Y102317D02*
D03*
X139091Y79011D02*
D03*
X122752Y89291D02*
D03*
X298854Y178307D02*
D03*
X132358Y82992D02*
D03*
X128539Y84252D02*
D03*
X129051Y72913D02*
D03*
X145823Y130748D02*
D03*
X184500Y163500D02*
D03*
X260641Y144734D02*
D03*
X258447Y157702D02*
D03*
X238099Y149522D02*
D03*
X275803Y151318D02*
D03*
X206080Y135558D02*
D03*
X199397Y158400D02*
D03*
X250567Y173063D02*
D03*
D98*
X283185Y129606D02*
D03*
X188303Y121221D02*
D03*
X239642Y119095D02*
D03*
X241453Y64882D02*
D03*
X280114Y74528D02*
D03*
X139130Y65236D02*
D03*
X161098Y65197D02*
D03*
X191453Y65315D02*
D03*
X139209Y73740D02*
D03*
X214602Y64646D02*
D03*
X239524Y90827D02*
D03*
X304720Y129764D02*
D03*
X294091Y154409D02*
D03*
X304563Y162835D02*
D03*
X342201Y134488D02*
D03*
X341768Y158346D02*
D03*
X171343Y113164D02*
D03*
X290519Y192761D02*
D03*
Y196737D02*
D03*
Y200714D02*
D03*
Y204690D02*
D03*
Y208667D02*
D03*
Y212643D02*
D03*
Y216619D02*
D03*
X307135Y216693D02*
D03*
Y212716D02*
D03*
Y208740D02*
D03*
Y204764D02*
D03*
Y200787D02*
D03*
Y196811D02*
D03*
Y192834D02*
D03*
D99*
X263101Y201880D02*
D03*
X245397Y182756D02*
D03*
X276500Y180000D02*
D03*
X255396Y226591D02*
D03*
X258481Y226454D02*
D03*
X262167Y225526D02*
D03*
X252090Y226457D02*
D03*
X262759Y222526D02*
D03*
X212720Y210315D02*
D03*
X242248Y209331D02*
D03*
X263115Y209810D02*
D03*
X219019Y206772D02*
D03*
X222956D02*
D03*
X219019Y202835D02*
D03*
Y198504D02*
D03*
Y194173D02*
D03*
X222956Y198504D02*
D03*
Y194173D02*
D03*
Y202835D02*
D03*
X227287Y206772D02*
D03*
Y202835D02*
D03*
Y198504D02*
D03*
Y194173D02*
D03*
X231618Y206772D02*
D03*
X235948D02*
D03*
X231618Y202835D02*
D03*
X235948D02*
D03*
X231618Y198504D02*
D03*
X235948D02*
D03*
X231618Y194173D02*
D03*
X235555D02*
D03*
X133389Y191614D02*
D03*
X136342D02*
D03*
X139295D02*
D03*
X142248D02*
D03*
X145200D02*
D03*
X148153D02*
D03*
X151106D02*
D03*
Y189055D02*
D03*
X163507Y181969D02*
D03*
X155830Y182953D02*
D03*
X189098Y190827D02*
D03*
X174728Y198307D02*
D03*
X177484Y198898D02*
D03*
X174334Y195158D02*
D03*
X172956Y192795D02*
D03*
X170988Y190630D02*
D03*
X186539Y184331D02*
D03*
X196972Y191418D02*
D03*
X206815Y192008D02*
D03*
X212917Y190630D02*
D03*
X194610Y200670D02*
D03*
X191854Y198504D02*
D03*
X191460Y185709D02*
D03*
X186539Y203622D02*
D03*
X161539Y204213D02*
D03*
Y200670D02*
D03*
X159177D02*
D03*
X156815D02*
D03*
X149334Y193780D02*
D03*
X146185Y199488D02*
D03*
Y196536D02*
D03*
X149137Y208150D02*
D03*
X147366Y214449D02*
D03*
X146185Y193977D02*
D03*
X141066Y194567D02*
D03*
X142051Y208740D02*
D03*
X146578Y207362D02*
D03*
X143429Y212284D02*
D03*
X144413Y208544D02*
D03*
X139689Y208740D02*
D03*
X134767D02*
D03*
X144413Y218189D02*
D03*
X221254Y150250D02*
D03*
X132602Y208740D02*
D03*
X137129D02*
D03*
X140476Y214646D02*
D03*
X136539Y211693D02*
D03*
X130633Y218977D02*
D03*
X117248Y215433D02*
D03*
X162129Y221732D02*
D03*
X177681Y216221D02*
D03*
X208783Y212677D02*
D03*
X164295Y225473D02*
D03*
X154452D02*
D03*
X168232Y190040D02*
D03*
X194413Y191614D02*
D03*
X224531Y221339D02*
D03*
X129999Y193334D02*
D03*
X113683Y197130D02*
D03*
X117146Y193734D02*
D03*
X122940Y196065D02*
D03*
X124538Y191335D02*
D03*
X218754Y145750D02*
D03*
X216254Y153750D02*
D03*
X148500Y188500D02*
D03*
X165082Y195551D02*
D03*
X167051Y181772D02*
D03*
X165279Y183544D02*
D03*
X218754Y159750D02*
D03*
X177484Y192795D02*
D03*
X165673Y190040D02*
D03*
X159177Y204213D02*
D03*
X199728Y189449D02*
D03*
X202484D02*
D03*
X204846Y189843D02*
D03*
X197366Y198110D02*
D03*
X200122D02*
D03*
X202878D02*
D03*
X205633D02*
D03*
X207602Y200079D02*
D03*
X194610Y198110D02*
D03*
X191854Y191418D02*
D03*
X191657Y212677D02*
D03*
X189098Y198898D02*
D03*
X192051Y200866D02*
D03*
X193035Y210709D02*
D03*
X194413Y212677D02*
D03*
X197759D02*
D03*
X200515D02*
D03*
X203271D02*
D03*
X206027D02*
D03*
X174925Y210906D02*
D03*
X186539Y201063D02*
D03*
X174137Y220945D02*
D03*
X152287Y196339D02*
D03*
Y193780D02*
D03*
X273350Y179803D02*
D03*
X269216D02*
D03*
X263901D02*
D03*
X259746Y179288D02*
D03*
X244610Y180000D02*
D03*
X200122Y184725D02*
D03*
X200515Y187087D02*
D03*
X192641Y181969D02*
D03*
X136342Y194567D02*
D03*
X115476Y224882D02*
D03*
X134177Y215040D02*
D03*
X196775Y186103D02*
D03*
X242248Y219567D02*
D03*
X234767Y221536D02*
D03*
X220200Y221732D02*
D03*
X186539Y221339D02*
D03*
X180633Y221142D02*
D03*
X183389Y220748D02*
D03*
X171972Y215236D02*
D03*
X158586Y225670D02*
D03*
X258103Y186436D02*
D03*
X261049D02*
D03*
X161342Y213268D02*
D03*
X136933Y225276D02*
D03*
X180240Y191614D02*
D03*
X181618Y184725D02*
D03*
X195397Y181969D02*
D03*
X198153D02*
D03*
X200909D02*
D03*
X122563Y222323D02*
D03*
X139689Y219370D02*
D03*
X144807Y224882D02*
D03*
X129255Y224685D02*
D03*
X125712Y213071D02*
D03*
X187129Y216221D02*
D03*
X184177D02*
D03*
X181027D02*
D03*
X156815Y204213D02*
D03*
X189492Y202638D02*
D03*
X183783Y209528D02*
D03*
X169216Y212481D02*
D03*
X187129Y189252D02*
D03*
X174728Y216221D02*
D03*
X177484Y220945D02*
D03*
X159374Y216811D02*
D03*
X169019Y209725D02*
D03*
X179059Y211496D02*
D03*
X182011D02*
D03*
X181224Y208937D02*
D03*
X184570Y207166D02*
D03*
X169019Y206969D02*
D03*
X174925Y189843D02*
D03*
X216067Y221732D02*
D03*
X248585Y194321D02*
D03*
X248792Y201643D02*
D03*
X263205Y190245D02*
D03*
X217444Y215630D02*
D03*
X194610Y216221D02*
D03*
X238311Y226457D02*
D03*
X203271Y185512D02*
D03*
X242248Y226457D02*
D03*
X224531Y217795D02*
D03*
X156027Y190040D02*
D03*
X176696Y182559D02*
D03*
X234570Y213268D02*
D03*
X167641Y200866D02*
D03*
X169216Y217402D02*
D03*
X165673Y220945D02*
D03*
X226500Y214843D02*
D03*
X167641Y198110D02*
D03*
X158192Y192992D02*
D03*
X188114Y212284D02*
D03*
X158389Y189252D02*
D03*
X160752Y190040D02*
D03*
X153468Y217205D02*
D03*
X155240Y215630D02*
D03*
X151696D02*
D03*
X218791Y163809D02*
D03*
X214655Y159698D02*
D03*
X152090Y184134D02*
D03*
X135763Y170318D02*
D03*
X126574Y178816D02*
D03*
X248668Y209256D02*
D03*
X263107Y213969D02*
D03*
X274391Y217818D02*
D03*
X248941Y219370D02*
D03*
X254317Y182308D02*
D03*
X262947Y205967D02*
D03*
X272029Y217818D02*
D03*
X269273D02*
D03*
X266517D02*
D03*
X263050Y197520D02*
D03*
X279156Y193831D02*
D03*
X267086Y184725D02*
D03*
X252212Y186436D02*
D03*
X255158D02*
D03*
D100*
X111765Y215174D02*
D03*
X112100Y212933D02*
D03*
X112728Y210757D02*
D03*
X114330Y209155D02*
D03*
X115931Y207553D02*
D03*
X117703Y206141D02*
D03*
X119811Y205312D02*
D03*
X122073Y205180D02*
D03*
X124338D02*
D03*
X126603D02*
D03*
X128869D02*
D03*
X131039Y205830D02*
D03*
X131132Y197991D02*
D03*
X129647Y199702D02*
D03*
X127382D02*
D03*
X125116D02*
D03*
X122851D02*
D03*
X120587Y199766D02*
D03*
X118346Y200100D02*
D03*
X116198Y200821D02*
D03*
X114210Y201906D02*
D03*
X112443Y203324D02*
D03*
X110826Y204910D02*
D03*
X227493Y168557D02*
D03*
X192045D02*
D03*
X227481Y172632D02*
D03*
X195330D02*
D03*
X161845D02*
D03*
X125752Y173742D02*
D03*
D101*
X270988Y221732D02*
D03*
X255240D02*
D03*
X270988Y213858D02*
D03*
X255240D02*
D03*
X270988Y205984D02*
D03*
X255240D02*
D03*
X270988Y198110D02*
D03*
X255240D02*
D03*
X270988Y190236D02*
D03*
X255240D02*
D03*
M02*
