G04 Layer_Color=8421504*
%FSLAX25Y25*%
%MOIN*%
G70*
G01*
G75*
%ADD11R,0.01417X0.02598*%
%ADD12R,0.02598X0.01417*%
G04:AMPARAMS|DCode=13|XSize=14.17mil|YSize=25.98mil|CornerRadius=0mil|HoleSize=0mil|Usage=FLASHONLY|Rotation=315.000|XOffset=0mil|YOffset=0mil|HoleType=Round|Shape=Rectangle|*
%AMROTATEDRECTD13*
4,1,4,-0.01420,-0.00418,0.00418,0.01420,0.01420,0.00418,-0.00418,-0.01420,-0.01420,-0.00418,0.0*
%
%ADD13ROTATEDRECTD13*%

%ADD14R,0.03150X0.03150*%
%ADD15R,0.01969X0.01575*%
%ADD16R,0.01575X0.01969*%
G04:AMPARAMS|DCode=17|XSize=14.17mil|YSize=25.98mil|CornerRadius=0mil|HoleSize=0mil|Usage=FLASHONLY|Rotation=225.000|XOffset=0mil|YOffset=0mil|HoleType=Round|Shape=Rectangle|*
%AMROTATEDRECTD17*
4,1,4,-0.00418,0.01420,0.01420,-0.00418,0.00418,-0.01420,-0.01420,0.00418,-0.00418,0.01420,0.0*
%
%ADD17ROTATEDRECTD17*%

G04:AMPARAMS|DCode=18|XSize=15.75mil|YSize=19.69mil|CornerRadius=0mil|HoleSize=0mil|Usage=FLASHONLY|Rotation=45.000|XOffset=0mil|YOffset=0mil|HoleType=Round|Shape=Rectangle|*
%AMROTATEDRECTD18*
4,1,4,0.00139,-0.01253,-0.01253,0.00139,-0.00139,0.01253,0.01253,-0.00139,0.00139,-0.01253,0.0*
%
%ADD18ROTATEDRECTD18*%

%ADD19R,0.03150X0.02559*%
%ADD20R,0.02362X0.00984*%
%ADD21R,0.00984X0.02362*%
%ADD22R,0.06693X0.06693*%
%ADD23R,0.01280X0.01673*%
%ADD24R,0.01673X0.00984*%
G04:AMPARAMS|DCode=25|XSize=15.75mil|YSize=19.69mil|CornerRadius=0mil|HoleSize=0mil|Usage=FLASHONLY|Rotation=315.000|XOffset=0mil|YOffset=0mil|HoleType=Round|Shape=Rectangle|*
%AMROTATEDRECTD25*
4,1,4,-0.01253,-0.00139,0.00139,0.01253,0.01253,0.00139,-0.00139,-0.01253,-0.01253,-0.00139,0.0*
%
%ADD25ROTATEDRECTD25*%

G04:AMPARAMS|DCode=26|XSize=19.69mil|YSize=11.81mil|CornerRadius=1.77mil|HoleSize=0mil|Usage=FLASHONLY|Rotation=0.000|XOffset=0mil|YOffset=0mil|HoleType=Round|Shape=RoundedRectangle|*
%AMROUNDEDRECTD26*
21,1,0.01969,0.00827,0,0,0.0*
21,1,0.01615,0.01181,0,0,0.0*
1,1,0.00354,0.00807,-0.00413*
1,1,0.00354,-0.00807,-0.00413*
1,1,0.00354,-0.00807,0.00413*
1,1,0.00354,0.00807,0.00413*
%
%ADD26ROUNDEDRECTD26*%
G04:AMPARAMS|DCode=27|XSize=19.69mil|YSize=11.81mil|CornerRadius=1.77mil|HoleSize=0mil|Usage=FLASHONLY|Rotation=90.000|XOffset=0mil|YOffset=0mil|HoleType=Round|Shape=RoundedRectangle|*
%AMROUNDEDRECTD27*
21,1,0.01969,0.00827,0,0,90.0*
21,1,0.01615,0.01181,0,0,90.0*
1,1,0.00354,0.00413,0.00807*
1,1,0.00354,0.00413,-0.00807*
1,1,0.00354,-0.00413,-0.00807*
1,1,0.00354,-0.00413,0.00807*
%
%ADD27ROUNDEDRECTD27*%
G04:AMPARAMS|DCode=28|XSize=19.69mil|YSize=19.69mil|CornerRadius=2.95mil|HoleSize=0mil|Usage=FLASHONLY|Rotation=0.000|XOffset=0mil|YOffset=0mil|HoleType=Round|Shape=RoundedRectangle|*
%AMROUNDEDRECTD28*
21,1,0.01969,0.01378,0,0,0.0*
21,1,0.01378,0.01969,0,0,0.0*
1,1,0.00591,0.00689,-0.00689*
1,1,0.00591,-0.00689,-0.00689*
1,1,0.00591,-0.00689,0.00689*
1,1,0.00591,0.00689,0.00689*
%
%ADD28ROUNDEDRECTD28*%
%ADD29R,0.02362X0.03150*%
%ADD30R,0.02559X0.04134*%
%ADD31R,0.02362X0.04331*%
%ADD32R,0.06693X0.04331*%
%ADD33O,0.08661X0.02362*%
%ADD34R,0.02362X0.06299*%
%ADD35R,0.05118X0.05906*%
%ADD36R,0.09449X0.04331*%
%ADD37R,0.05906X0.05118*%
%ADD38R,0.04331X0.09449*%
D11*
X188468Y194961D02*
D03*
X191696D02*
D03*
X217012Y186693D02*
D03*
X220240D02*
D03*
X155004Y212481D02*
D03*
X158232D02*
D03*
X143074Y202441D02*
D03*
X139846D02*
D03*
X137169D02*
D03*
X133941D02*
D03*
X192602Y207166D02*
D03*
X195830D02*
D03*
X131938Y170454D02*
D03*
X128710D02*
D03*
X173783Y182756D02*
D03*
X170555D02*
D03*
X173783Y186299D02*
D03*
X170555D02*
D03*
X206775Y185512D02*
D03*
X210003D02*
D03*
X206263Y226063D02*
D03*
X203035D02*
D03*
X218074Y213465D02*
D03*
X214846D02*
D03*
X123610Y178736D02*
D03*
X120382D02*
D03*
X139642Y89961D02*
D03*
X136414D02*
D03*
X138382Y102047D02*
D03*
X141610D02*
D03*
X138154Y124535D02*
D03*
X141382D02*
D03*
X133579Y121693D02*
D03*
X130351D02*
D03*
D12*
X204059Y195000D02*
D03*
Y191772D02*
D03*
X149334Y196300D02*
D03*
Y199528D02*
D03*
X197366Y218622D02*
D03*
Y215394D02*
D03*
X193626Y221969D02*
D03*
Y218741D02*
D03*
X204846Y200827D02*
D03*
Y204055D02*
D03*
Y209567D02*
D03*
Y206339D02*
D03*
X135705Y97480D02*
D03*
Y94252D02*
D03*
X140705Y82520D02*
D03*
Y85748D02*
D03*
X176138Y116850D02*
D03*
Y113622D02*
D03*
X176098Y106535D02*
D03*
Y103307D02*
D03*
X176165Y99653D02*
D03*
Y96425D02*
D03*
Y82409D02*
D03*
Y85637D02*
D03*
X162319Y117047D02*
D03*
Y120275D02*
D03*
X183224Y157047D02*
D03*
Y153819D02*
D03*
X198547Y200827D02*
D03*
Y204055D02*
D03*
D13*
X182956Y194607D02*
D03*
X180674Y196889D02*
D03*
X173390Y204173D02*
D03*
X175672Y201891D02*
D03*
D14*
X107190Y171336D02*
D03*
X113096D02*
D03*
Y180136D02*
D03*
X107190D02*
D03*
X113096Y175736D02*
D03*
X107190D02*
D03*
D15*
X220200Y219961D02*
D03*
Y216811D02*
D03*
X156224Y187874D02*
D03*
Y184724D02*
D03*
X138507Y199095D02*
D03*
Y195945D02*
D03*
X143232Y199095D02*
D03*
Y195945D02*
D03*
X134177Y199095D02*
D03*
Y195945D02*
D03*
X200515Y194961D02*
D03*
Y191811D02*
D03*
X244216Y215040D02*
D03*
Y211890D02*
D03*
X239098Y220945D02*
D03*
Y217795D02*
D03*
X216067Y219961D02*
D03*
Y216811D02*
D03*
X212326Y219961D02*
D03*
Y216811D02*
D03*
X197366Y224489D02*
D03*
Y221339D02*
D03*
X226106D02*
D03*
Y218189D02*
D03*
X209964Y192205D02*
D03*
Y189055D02*
D03*
Y211496D02*
D03*
Y208346D02*
D03*
X201696Y200866D02*
D03*
Y204016D02*
D03*
Y206378D02*
D03*
Y209528D02*
D03*
X198547Y206378D02*
D03*
Y209528D02*
D03*
X140082Y94397D02*
D03*
Y97547D02*
D03*
X135902Y85591D02*
D03*
Y82441D02*
D03*
X132319Y75709D02*
D03*
Y78859D02*
D03*
X176138Y89685D02*
D03*
Y92835D02*
D03*
D16*
X139885Y205591D02*
D03*
X143035D02*
D03*
X133980D02*
D03*
X137130D02*
D03*
X151697Y212481D02*
D03*
X148547D02*
D03*
X194216Y194961D02*
D03*
X197366D02*
D03*
X232799Y221732D02*
D03*
X229649D02*
D03*
X206421Y181575D02*
D03*
X203271D02*
D03*
X213508D02*
D03*
X210358D02*
D03*
X192641Y204016D02*
D03*
X195791D02*
D03*
X133500Y116654D02*
D03*
X130350D02*
D03*
D17*
X180396Y206141D02*
D03*
X178114Y203859D02*
D03*
X177444Y209094D02*
D03*
X175162Y206812D02*
D03*
D18*
X180701Y201327D02*
D03*
X182929Y203555D02*
D03*
X185684Y192532D02*
D03*
X183456Y190304D02*
D03*
D19*
X159964Y187874D02*
D03*
Y182756D02*
D03*
X245791Y219567D02*
D03*
Y224685D02*
D03*
X196138Y108386D02*
D03*
Y113504D02*
D03*
D20*
X165082Y199291D02*
D03*
Y201260D02*
D03*
Y203229D02*
D03*
Y205197D02*
D03*
X153271Y199291D02*
D03*
Y201260D02*
D03*
Y203229D02*
D03*
Y205197D02*
D03*
D21*
X162129Y196339D02*
D03*
X160161D02*
D03*
X158192D02*
D03*
X156224D02*
D03*
Y208150D02*
D03*
X158192D02*
D03*
X160161D02*
D03*
X162129D02*
D03*
D22*
X159176Y202244D02*
D03*
D23*
X189246Y205640D02*
D03*
X186982D02*
D03*
X188114Y210266D02*
D03*
D24*
X189443Y207953D02*
D03*
X186785D02*
D03*
D25*
X183063Y199224D02*
D03*
X185291Y196996D02*
D03*
D26*
X213901Y207363D02*
D03*
Y205394D02*
D03*
Y203426D02*
D03*
Y201457D02*
D03*
Y199489D02*
D03*
Y197520D02*
D03*
Y195552D02*
D03*
Y193583D02*
D03*
X240673D02*
D03*
Y195552D02*
D03*
Y197520D02*
D03*
Y199489D02*
D03*
Y201457D02*
D03*
Y203426D02*
D03*
Y205394D02*
D03*
Y207363D02*
D03*
D27*
X216460Y191024D02*
D03*
X218429D02*
D03*
X220397D02*
D03*
X222366D02*
D03*
X224334D02*
D03*
X226303D02*
D03*
X228271D02*
D03*
X230240D02*
D03*
X232208D02*
D03*
X234177D02*
D03*
X236145D02*
D03*
X238114D02*
D03*
Y209922D02*
D03*
X236145D02*
D03*
X234177D02*
D03*
X232208D02*
D03*
X230240D02*
D03*
X228271D02*
D03*
X226303D02*
D03*
X224334D02*
D03*
X222366D02*
D03*
X220397D02*
D03*
X218429D02*
D03*
X216460D02*
D03*
D28*
X218941Y204804D02*
D03*
X223114Y200473D02*
D03*
X227287Y204804D02*
D03*
X223114D02*
D03*
X218941Y200473D02*
D03*
X227287D02*
D03*
X218941Y196142D02*
D03*
X223114D02*
D03*
X227287D02*
D03*
X231460D02*
D03*
Y200473D02*
D03*
Y204804D02*
D03*
X235633Y196142D02*
D03*
Y200473D02*
D03*
Y204804D02*
D03*
D29*
X201500Y216615D02*
D03*
X208586D02*
D03*
Y221339D02*
D03*
X201500D02*
D03*
D30*
X222986Y160919D02*
D03*
Y144581D02*
D03*
X214522Y160919D02*
D03*
Y144581D02*
D03*
D31*
X229649Y217402D02*
D03*
X235161D02*
D03*
D32*
X122970Y84331D02*
D03*
Y73701D02*
D03*
X100172Y84016D02*
D03*
Y94646D02*
D03*
D33*
X167791Y76575D02*
D03*
Y81575D02*
D03*
Y86575D02*
D03*
Y91575D02*
D03*
Y96575D02*
D03*
Y101575D02*
D03*
Y106575D02*
D03*
X148894Y76575D02*
D03*
Y81575D02*
D03*
Y86575D02*
D03*
Y91575D02*
D03*
Y96575D02*
D03*
Y101575D02*
D03*
Y106575D02*
D03*
D34*
X284051Y193071D02*
D03*
X303736D02*
D03*
X293894D02*
D03*
Y215905D02*
D03*
X303736D02*
D03*
X284051D02*
D03*
D35*
X178421Y144370D02*
D03*
X167004D02*
D03*
D36*
X172713Y129409D02*
D03*
D37*
X192280Y100039D02*
D03*
Y88622D02*
D03*
D38*
X207240Y94331D02*
D03*
M02*
