G04 Layer_Color=32896*
%FSLAX25Y25*%
%MOIN*%
G70*
G01*
G75*
%ADD45C,0.00787*%
%ADD46C,0.01969*%
%ADD102C,0.00394*%
%ADD103C,0.00100*%
%ADD104C,0.00500*%
%ADD105C,0.00606*%
D45*
X111374Y213386D02*
G03*
X111374Y213386I-3937J0D01*
G01*
D46*
X162242Y139488D02*
Y148672D01*
X133303Y87084D02*
X142487D01*
X137895Y91676D02*
Y82493D01*
X273266Y82008D02*
Y91191D01*
X297358Y143659D02*
X306542D01*
X301950Y148251D02*
Y139067D01*
D102*
X343657Y221260D02*
G03*
X343657Y221260I-9843J0D01*
G01*
Y71653D02*
G03*
X343657Y71653I-9843J0D01*
G01*
X56256D02*
G03*
X56256Y71653I-9843J0D01*
G01*
X89720Y211417D02*
X103500D01*
X89720D02*
Y215354D01*
X103500D01*
X89720Y202559D02*
Y224213D01*
X38539Y202559D02*
Y224213D01*
X89720D01*
X38539Y202559D02*
X89720D01*
X130528Y166142D02*
X328028D01*
X131028Y126772D02*
X328028D01*
X106532Y72835D02*
X304031D01*
X106532Y112205D02*
X303532D01*
D103*
X59624Y92644D02*
Y93744D01*
X59524Y91544D02*
Y94744D01*
X59424Y91044D02*
Y95244D01*
X59324Y90644D02*
Y95744D01*
X59224Y90244D02*
Y96044D01*
X59124Y89944D02*
Y96344D01*
X59024Y89644D02*
Y96644D01*
X58924Y89344D02*
Y96944D01*
X58824Y89144D02*
Y97144D01*
X58724Y88944D02*
Y97444D01*
X58624Y88744D02*
Y97644D01*
X58524Y88544D02*
Y97844D01*
X58424Y88344D02*
Y98044D01*
X58324Y88144D02*
Y98144D01*
X58224Y87944D02*
Y98344D01*
X58124Y87744D02*
Y98544D01*
X58024Y87644D02*
Y98644D01*
X57924Y87444D02*
Y98844D01*
X57824Y87344D02*
Y98944D01*
X57724Y87144D02*
Y99144D01*
X57624Y87044D02*
Y99244D01*
X57524Y86944D02*
Y99444D01*
X57424Y86744D02*
Y99544D01*
X57324Y86644D02*
Y99644D01*
X57224Y86544D02*
Y99744D01*
X57124Y86444D02*
Y99844D01*
X57024Y86344D02*
Y100044D01*
X56924Y86244D02*
Y100144D01*
X56824Y86144D02*
Y100244D01*
X56724Y85944D02*
Y100344D01*
X56624Y85844D02*
Y100444D01*
X56524Y85744D02*
Y100544D01*
X56424Y85744D02*
Y100644D01*
X56324Y85644D02*
Y100744D01*
X56224Y85544D02*
Y100844D01*
X56124Y85444D02*
Y100844D01*
X56024Y85344D02*
Y100944D01*
X55924Y85244D02*
Y101044D01*
X55824Y85144D02*
Y101144D01*
X55724Y85044D02*
Y101244D01*
X55624Y85044D02*
Y101344D01*
X55524Y84944D02*
Y101344D01*
X55424Y84844D02*
Y101444D01*
X55324Y84744D02*
Y101544D01*
X55224Y84744D02*
Y101644D01*
X55124Y84644D02*
Y101644D01*
X55024Y84544D02*
Y101744D01*
X54924Y84544D02*
Y101844D01*
X54824Y84444D02*
Y101844D01*
X54724Y84344D02*
Y101944D01*
X54624Y84344D02*
Y101944D01*
X54524Y84244D02*
Y102044D01*
X54424Y84244D02*
Y102144D01*
X54324Y84144D02*
Y95644D01*
Y97044D02*
Y102144D01*
X54224Y84144D02*
Y87544D01*
Y89244D02*
Y90844D01*
Y92444D02*
Y95344D01*
Y97444D02*
Y102244D01*
X54124Y84044D02*
Y87544D01*
Y89344D02*
Y90844D01*
Y92444D02*
Y95144D01*
Y97644D02*
Y102244D01*
X54024Y84044D02*
Y87544D01*
Y89344D02*
Y90844D01*
Y92444D02*
Y94944D01*
Y97844D02*
Y102344D01*
X53924Y83944D02*
Y87544D01*
Y89344D02*
Y90844D01*
Y92444D02*
Y94744D01*
Y97944D02*
Y102344D01*
X53824Y83944D02*
Y87544D01*
Y89344D02*
Y90844D01*
Y92444D02*
Y94644D01*
Y98044D02*
Y102444D01*
X53724Y83844D02*
Y87544D01*
Y89444D02*
Y90844D01*
Y92444D02*
Y94544D01*
Y98144D02*
Y102444D01*
X53624Y83844D02*
Y87544D01*
Y89444D02*
Y90844D01*
Y92444D02*
Y94444D01*
Y98244D02*
Y102544D01*
X53524Y83744D02*
Y87544D01*
Y89444D02*
Y90844D01*
Y92444D02*
Y94444D01*
Y98344D02*
Y102544D01*
X53424Y83744D02*
Y87544D01*
Y89444D02*
Y90844D01*
Y92444D02*
Y94344D01*
Y98444D02*
Y102644D01*
X53324Y83644D02*
Y87544D01*
Y89544D02*
Y90844D01*
Y92444D02*
Y94244D01*
Y98444D02*
Y102644D01*
X53224Y83644D02*
Y87544D01*
Y89544D02*
Y90844D01*
Y92444D02*
Y94244D01*
Y98544D02*
Y102644D01*
X53124Y83544D02*
Y87544D01*
Y89544D02*
Y90844D01*
Y92444D02*
Y94144D01*
Y98544D02*
Y102744D01*
X53024Y83544D02*
Y87544D01*
Y89544D02*
Y90844D01*
Y92444D02*
Y94144D01*
Y98644D02*
Y102744D01*
X52924Y83544D02*
Y87544D01*
Y89544D02*
Y90844D01*
Y92444D02*
Y94144D01*
Y98644D02*
Y102844D01*
X52824Y83444D02*
Y87544D01*
Y89644D02*
Y90844D01*
Y92444D02*
Y94044D01*
Y98644D02*
Y102844D01*
X52724Y83444D02*
Y87544D01*
Y89644D02*
Y90844D01*
Y92444D02*
Y94044D01*
Y96144D02*
Y96544D01*
Y98744D02*
Y102844D01*
X52624Y83444D02*
Y87544D01*
Y89644D02*
Y90844D01*
Y92444D02*
Y94044D01*
Y95944D02*
Y96744D01*
Y98744D02*
Y102944D01*
X52524Y83344D02*
Y87544D01*
Y89644D02*
Y90844D01*
Y92444D02*
Y94044D01*
Y95844D02*
Y96844D01*
Y98744D02*
Y102944D01*
X52424Y83344D02*
Y87544D01*
Y89744D02*
Y90844D01*
Y92444D02*
Y94044D01*
Y95844D02*
Y96944D01*
Y98744D02*
Y102944D01*
X52324Y83344D02*
Y87544D01*
Y89744D02*
Y90844D01*
Y92444D02*
Y94044D01*
Y95744D02*
Y96944D01*
Y98744D02*
Y103044D01*
X52224Y83244D02*
Y87544D01*
Y89744D02*
Y90844D01*
Y92444D02*
Y94044D01*
Y95744D02*
Y96944D01*
Y98744D02*
Y103044D01*
X52124Y83244D02*
Y87544D01*
Y89744D02*
Y90844D01*
Y92444D02*
Y94044D01*
Y95744D02*
Y96944D01*
Y98744D02*
Y103044D01*
X52024Y83244D02*
Y87544D01*
Y89844D02*
Y90844D01*
Y92444D02*
Y94044D01*
Y95744D02*
Y96944D01*
Y98744D02*
Y103044D01*
X51924Y83244D02*
Y87544D01*
Y89844D02*
Y90844D01*
Y92444D02*
Y94044D01*
Y95744D02*
Y96944D01*
Y98744D02*
Y103144D01*
X51824Y83144D02*
Y87544D01*
Y89844D02*
Y90844D01*
Y92444D02*
Y94044D01*
Y95744D02*
Y96944D01*
Y98744D02*
Y103144D01*
X51724Y83144D02*
Y87544D01*
Y89844D02*
Y90844D01*
Y92444D02*
Y94044D01*
Y95744D02*
Y96944D01*
Y98744D02*
Y103144D01*
X51624Y83144D02*
Y87544D01*
Y89944D02*
Y90844D01*
Y92444D02*
Y94044D01*
Y95744D02*
Y96944D01*
Y98744D02*
Y103144D01*
X51524Y83144D02*
Y87544D01*
Y89944D02*
Y90844D01*
Y92444D02*
Y94044D01*
Y95744D02*
Y96944D01*
Y98744D02*
Y103244D01*
X51424Y83044D02*
Y87544D01*
Y89944D02*
Y90844D01*
Y92444D02*
Y94044D01*
Y95744D02*
Y96944D01*
Y98744D02*
Y103244D01*
X51324Y83044D02*
Y87544D01*
Y89944D02*
Y90844D01*
Y92444D02*
Y94044D01*
Y95744D02*
Y96944D01*
Y98744D02*
Y103244D01*
X51224Y83044D02*
Y87544D01*
Y89944D02*
Y90844D01*
Y92444D02*
Y94044D01*
Y95744D02*
Y96944D01*
Y98744D02*
Y103244D01*
X51124Y83044D02*
Y87544D01*
Y90044D02*
Y90844D01*
Y92444D02*
Y94044D01*
Y95744D02*
Y96944D01*
Y98744D02*
Y103244D01*
X51024Y83044D02*
Y87544D01*
Y90044D02*
Y90844D01*
Y92444D02*
Y94044D01*
Y95744D02*
Y96944D01*
Y98744D02*
Y103344D01*
X50924Y82944D02*
Y87544D01*
Y90044D02*
Y90844D01*
Y92444D02*
Y94044D01*
Y95744D02*
Y96944D01*
Y98744D02*
Y103344D01*
X50824Y82944D02*
Y87544D01*
Y90044D02*
Y90844D01*
Y92444D02*
Y94044D01*
Y95744D02*
Y96944D01*
Y98744D02*
Y103344D01*
X50724Y82944D02*
Y87544D01*
Y90144D02*
Y90844D01*
Y92444D02*
Y94044D01*
Y95744D02*
Y96944D01*
Y98744D02*
Y103344D01*
X50624Y82944D02*
Y87544D01*
Y90144D02*
Y90844D01*
Y92444D02*
Y94044D01*
Y95744D02*
Y96944D01*
Y98744D02*
Y103344D01*
X50524Y82944D02*
Y87544D01*
Y90144D02*
Y90844D01*
Y92444D02*
Y94044D01*
Y95744D02*
Y96944D01*
Y98744D02*
Y103344D01*
X50424Y82944D02*
Y87544D01*
Y90144D02*
Y90844D01*
Y92444D02*
Y94044D01*
Y95744D02*
Y96944D01*
Y98744D02*
Y103344D01*
X50324Y82944D02*
Y87544D01*
Y90244D02*
Y90844D01*
Y92444D02*
Y94044D01*
Y95744D02*
Y96944D01*
Y98744D02*
Y103444D01*
X50224Y82944D02*
Y87544D01*
Y90244D02*
Y90844D01*
Y92444D02*
Y94044D01*
Y95744D02*
Y96944D01*
Y98744D02*
Y103444D01*
X50124Y82944D02*
Y87544D01*
Y90244D02*
Y90844D01*
Y92444D02*
Y94044D01*
Y95744D02*
Y96944D01*
Y98744D02*
Y103444D01*
X50024Y82944D02*
Y87544D01*
Y90244D02*
Y90844D01*
Y92444D02*
Y94044D01*
Y95744D02*
Y96944D01*
Y98744D02*
Y103444D01*
X49924Y82844D02*
Y87544D01*
Y90244D02*
Y90844D01*
Y92444D02*
Y94044D01*
Y95744D02*
Y96944D01*
Y98744D02*
Y103444D01*
X49824Y82844D02*
Y87544D01*
Y90344D02*
Y90844D01*
Y92444D02*
Y94044D01*
Y95744D02*
Y96944D01*
Y98744D02*
Y103444D01*
X49724Y82844D02*
Y87544D01*
Y90344D02*
Y90844D01*
Y92444D02*
Y94044D01*
Y95744D02*
Y96944D01*
Y98744D02*
Y103444D01*
X49624Y82844D02*
Y87544D01*
Y90344D02*
Y90844D01*
Y92444D02*
Y94044D01*
Y95744D02*
Y96944D01*
Y98744D02*
Y103444D01*
X49524Y82844D02*
Y87544D01*
Y90344D02*
Y90844D01*
Y92444D02*
Y94044D01*
Y95744D02*
Y96944D01*
Y98744D02*
Y103444D01*
X49424Y82844D02*
Y87544D01*
Y90444D02*
Y90844D01*
Y92444D02*
Y94044D01*
Y95744D02*
Y96944D01*
Y98744D02*
Y103444D01*
X49324Y82844D02*
Y87544D01*
Y89244D02*
Y89344D01*
Y90444D02*
Y90844D01*
Y92444D02*
Y94044D01*
Y95744D02*
Y96944D01*
Y98744D02*
Y103444D01*
X49224Y82844D02*
Y87544D01*
Y89144D02*
Y89444D01*
Y90444D02*
Y90844D01*
Y92444D02*
Y94044D01*
Y95744D02*
Y96944D01*
Y98744D02*
Y103444D01*
X49124Y82844D02*
Y87544D01*
Y89144D02*
Y89444D01*
Y90444D02*
Y90844D01*
Y92444D02*
Y94044D01*
Y95744D02*
Y96944D01*
Y98744D02*
Y103444D01*
X49024Y82844D02*
Y87544D01*
Y89144D02*
Y89544D01*
Y90544D02*
Y90844D01*
Y92444D02*
Y94044D01*
Y95744D02*
Y96944D01*
Y98744D02*
Y103444D01*
X48924Y82844D02*
Y87544D01*
Y89144D02*
Y89544D01*
Y90544D02*
Y90844D01*
Y92444D02*
Y94044D01*
Y95744D02*
Y96944D01*
Y98744D02*
Y103444D01*
X48824Y82844D02*
Y87544D01*
Y89144D02*
Y89544D01*
Y90644D02*
Y90844D01*
Y92444D02*
Y94044D01*
Y95744D02*
Y96944D01*
Y98744D02*
Y103444D01*
X48724Y82844D02*
Y87544D01*
Y89144D02*
Y89544D01*
Y92444D02*
Y94044D01*
Y95744D02*
Y96944D01*
Y98744D02*
Y103444D01*
X48624Y82944D02*
Y87544D01*
Y89144D02*
Y89644D01*
Y92444D02*
Y94044D01*
Y95744D02*
Y96944D01*
Y98744D02*
Y103444D01*
X48524Y82944D02*
Y87544D01*
Y89144D02*
Y89644D01*
Y92444D02*
Y94044D01*
Y95744D02*
Y96944D01*
Y98744D02*
Y103444D01*
X48424Y82944D02*
Y87544D01*
Y89144D02*
Y89644D01*
Y92444D02*
Y94044D01*
Y95744D02*
Y96944D01*
Y98744D02*
Y103444D01*
X48324Y82944D02*
Y87544D01*
Y89144D02*
Y89644D01*
Y92444D02*
Y94044D01*
Y95744D02*
Y96944D01*
Y98744D02*
Y103344D01*
X48224Y82944D02*
Y87544D01*
Y89144D02*
Y89744D01*
Y92444D02*
Y94044D01*
Y95744D02*
Y96944D01*
Y98744D02*
Y103344D01*
X48124Y82944D02*
Y87544D01*
Y89144D02*
Y89744D01*
Y92444D02*
Y94044D01*
Y95744D02*
Y96944D01*
Y98744D02*
Y103344D01*
X48024Y82944D02*
Y87544D01*
Y89144D02*
Y89744D01*
Y92444D02*
Y94044D01*
Y95744D02*
Y96944D01*
Y98744D02*
Y103344D01*
X47924Y82944D02*
Y87544D01*
Y89144D02*
Y89744D01*
Y92444D02*
Y94044D01*
Y95744D02*
Y96944D01*
Y98744D02*
Y103344D01*
X47824Y82944D02*
Y87544D01*
Y89144D02*
Y89744D01*
Y92444D02*
Y94044D01*
Y95744D02*
Y96944D01*
Y98744D02*
Y103344D01*
X47724Y83044D02*
Y87544D01*
Y89144D02*
Y89844D01*
Y92444D02*
Y94044D01*
Y95744D02*
Y96944D01*
Y98744D02*
Y103344D01*
X47624Y83044D02*
Y87544D01*
Y89144D02*
Y89844D01*
Y92444D02*
Y94044D01*
Y95744D02*
Y96944D01*
Y98744D02*
Y103244D01*
X47524Y83044D02*
Y87544D01*
Y89144D02*
Y89844D01*
Y92444D02*
Y94044D01*
Y95744D02*
Y96944D01*
Y98744D02*
Y103244D01*
X47424Y83044D02*
Y87544D01*
Y89144D02*
Y89844D01*
Y92444D02*
Y94044D01*
Y95744D02*
Y96944D01*
Y98744D02*
Y103244D01*
X47324Y83044D02*
Y87544D01*
Y89144D02*
Y89944D01*
Y92444D02*
Y94044D01*
Y95744D02*
Y96944D01*
Y98744D02*
Y103244D01*
X47224Y83144D02*
Y87544D01*
Y89144D02*
Y89944D01*
Y92444D02*
Y94044D01*
Y95744D02*
Y96944D01*
Y98744D02*
Y103244D01*
X47124Y83144D02*
Y87544D01*
Y89144D02*
Y89944D01*
Y92444D02*
Y94044D01*
Y95744D02*
Y96944D01*
Y98744D02*
Y103244D01*
X47024Y83144D02*
Y87544D01*
Y89144D02*
Y89944D01*
Y92444D02*
Y94044D01*
Y95744D02*
Y96944D01*
Y98744D02*
Y103144D01*
X46924Y83144D02*
Y87544D01*
Y89144D02*
Y89944D01*
Y92444D02*
Y94044D01*
Y95744D02*
Y96944D01*
Y98744D02*
Y103144D01*
X46824Y83144D02*
Y87544D01*
Y89144D02*
Y90044D01*
Y92444D02*
Y94044D01*
Y95744D02*
Y96944D01*
Y98744D02*
Y103144D01*
X46724Y83244D02*
Y87544D01*
Y89144D02*
Y90044D01*
Y92444D02*
Y94044D01*
Y95744D02*
Y96944D01*
Y98744D02*
Y103144D01*
X46624Y83244D02*
Y87544D01*
Y89144D02*
Y90044D01*
Y92444D02*
Y94044D01*
Y95744D02*
Y96944D01*
Y98744D02*
Y103044D01*
X46524Y83244D02*
Y87544D01*
Y89144D02*
Y90044D01*
Y92444D02*
Y94044D01*
Y95744D02*
Y96944D01*
Y98744D02*
Y103044D01*
X46424Y83344D02*
Y87544D01*
Y89144D02*
Y90144D01*
Y92444D02*
Y94044D01*
Y95744D02*
Y96944D01*
Y98744D02*
Y103044D01*
X46324Y83344D02*
Y87544D01*
Y89144D02*
Y90144D01*
Y92444D02*
Y94044D01*
Y95844D02*
Y96944D01*
Y98744D02*
Y102944D01*
X46224Y83344D02*
Y87544D01*
Y89144D02*
Y90144D01*
Y92444D02*
Y94044D01*
Y95844D02*
Y96844D01*
Y98744D02*
Y102944D01*
X46124Y83344D02*
Y87544D01*
Y89144D02*
Y90144D01*
Y92444D02*
Y94044D01*
Y95944D02*
Y96744D01*
Y98744D02*
Y102944D01*
X46024Y83444D02*
Y87544D01*
Y89144D02*
Y90144D01*
Y92444D02*
Y94044D01*
Y96044D02*
Y96644D01*
Y98744D02*
Y102844D01*
X45924Y83444D02*
Y87544D01*
Y89144D02*
Y90244D01*
Y92444D02*
Y94044D01*
Y98644D02*
Y102844D01*
X45824Y83544D02*
Y87544D01*
Y89144D02*
Y90244D01*
Y92444D02*
Y94044D01*
Y98644D02*
Y102844D01*
X45724Y83544D02*
Y87544D01*
Y89144D02*
Y90244D01*
Y92444D02*
Y94144D01*
Y98644D02*
Y102744D01*
X45624Y83544D02*
Y87544D01*
Y89144D02*
Y90244D01*
Y92444D02*
Y94144D01*
Y98644D02*
Y102744D01*
X45524Y83644D02*
Y87544D01*
Y89144D02*
Y90344D01*
Y92444D02*
Y94144D01*
Y98544D02*
Y102744D01*
X45424Y83644D02*
Y87544D01*
Y89144D02*
Y90344D01*
Y92444D02*
Y94244D01*
Y98544D02*
Y102644D01*
X45324Y83744D02*
Y87544D01*
Y89144D02*
Y90344D01*
Y92444D02*
Y94344D01*
Y98444D02*
Y102644D01*
X45224Y83744D02*
Y87544D01*
Y89144D02*
Y90344D01*
Y92444D02*
Y94344D01*
Y98344D02*
Y102544D01*
X45124Y83744D02*
Y87544D01*
Y89144D02*
Y90344D01*
Y92444D02*
Y94444D01*
Y98344D02*
Y102544D01*
X45024Y83844D02*
Y87544D01*
Y89144D02*
Y90444D01*
Y92444D02*
Y94544D01*
Y98244D02*
Y102444D01*
X44924Y83844D02*
Y87544D01*
Y89144D02*
Y90444D01*
Y92444D02*
Y94644D01*
Y98144D02*
Y102444D01*
X44824Y83944D02*
Y87544D01*
Y89144D02*
Y90444D01*
Y92444D02*
Y94744D01*
Y98044D02*
Y102344D01*
X44724Y83944D02*
Y87544D01*
Y89144D02*
Y90444D01*
Y92444D02*
Y94844D01*
Y97844D02*
Y102344D01*
X44624Y84044D02*
Y87544D01*
Y89144D02*
Y90544D01*
Y92444D02*
Y95044D01*
Y97744D02*
Y102244D01*
X44524Y84044D02*
Y87544D01*
Y89144D02*
Y90544D01*
Y92444D02*
Y95244D01*
Y97444D02*
Y102244D01*
X44424Y84144D02*
Y95544D01*
Y97144D02*
Y102144D01*
X44324Y84144D02*
Y102144D01*
X44224Y84244D02*
Y102044D01*
X44124Y84344D02*
Y102044D01*
X44024Y84344D02*
Y101944D01*
X43924Y84444D02*
Y101844D01*
X43824Y84444D02*
Y101844D01*
X43724Y84544D02*
Y101744D01*
X43624Y84644D02*
Y101644D01*
X43524Y84744D02*
Y101644D01*
X43424Y84744D02*
Y101544D01*
X43324Y84844D02*
Y101444D01*
X43224Y84944D02*
Y101444D01*
X43124Y84944D02*
Y101344D01*
X43024Y85044D02*
Y101244D01*
X42924Y85144D02*
Y101144D01*
X42824Y85244D02*
Y101044D01*
X42724Y85344D02*
Y101044D01*
X42624Y85444D02*
Y100944D01*
X42524Y85444D02*
Y100844D01*
X42424Y85544D02*
Y100744D01*
X42324Y85644D02*
Y100644D01*
X42224Y85744D02*
Y100544D01*
X42124Y85844D02*
Y100444D01*
X42024Y85944D02*
Y100344D01*
X41924Y86044D02*
Y100244D01*
X41824Y86144D02*
Y100144D01*
X41724Y86244D02*
Y100044D01*
X41624Y86344D02*
Y99944D01*
X41524Y86544D02*
Y99844D01*
X41424Y86644D02*
Y99644D01*
X41324Y86744D02*
Y99544D01*
X41224Y86844D02*
Y99444D01*
X41124Y87044D02*
Y99344D01*
X41024Y87144D02*
Y99144D01*
X40924Y87244D02*
Y99044D01*
X40824Y87444D02*
Y98844D01*
X40724Y87544D02*
Y98744D01*
X40624Y87744D02*
Y98544D01*
X40524Y87944D02*
Y98444D01*
X40424Y88044D02*
Y98244D01*
X40324Y88244D02*
Y98044D01*
X40224Y88444D02*
Y97844D01*
X40124Y88644D02*
Y97644D01*
X40024Y88844D02*
Y97444D01*
X39924Y89044D02*
Y97244D01*
X39824Y89344D02*
Y97044D01*
X39724Y89544D02*
Y96744D01*
X39624Y89844D02*
Y96444D01*
X39524Y90144D02*
Y96144D01*
X39424Y90544D02*
Y95844D01*
X39324Y90844D02*
Y95444D01*
X39224Y91444D02*
Y94944D01*
X39124Y92044D02*
Y94244D01*
D104*
X249334Y225669D02*
X274925D01*
X276894D01*
Y223701D02*
Y225669D01*
Y186299D02*
Y223701D01*
X249334Y186299D02*
X276894D01*
X249334D02*
Y225669D01*
X274925D02*
X276894Y223701D01*
D105*
X62057Y113581D02*
X66780D01*
X62057D02*
Y110657D01*
X64306Y113581D02*
Y111782D01*
X63631Y108993D02*
X63856Y109442D01*
X64306Y109892D01*
X64981Y110117D01*
X65430D01*
X66105Y109892D01*
X66555Y109442D01*
X66780Y108993D01*
Y108318D01*
X66555Y107868D01*
X66105Y107418D01*
X65430Y107193D01*
X64981D01*
X64306Y107418D01*
X63856Y107868D01*
X63631Y108318D01*
Y108993D01*
X62057Y106158D02*
X66780Y103010D01*
X62057D02*
X66780Y106158D01*
X68354Y101952D02*
Y98354D01*
X62057Y97746D02*
X65430D01*
X66105Y97521D01*
X66555Y97072D01*
X66780Y96397D01*
Y95947D01*
X66555Y95272D01*
X66105Y94822D01*
X65430Y94597D01*
X62057D01*
X62731Y90144D02*
X62282Y90594D01*
X62057Y91269D01*
Y92168D01*
X62282Y92843D01*
X62731Y93293D01*
X63181D01*
X63631Y93068D01*
X63856Y92843D01*
X64081Y92393D01*
X64531Y91044D01*
X64756Y90594D01*
X64981Y90369D01*
X65430Y90144D01*
X66105D01*
X66555Y90594D01*
X66780Y91269D01*
Y92168D01*
X66555Y92843D01*
X66105Y93293D01*
X68354Y89087D02*
Y85488D01*
X62057Y84881D02*
X66780Y83081D01*
X62057Y81282D02*
X66780Y83081D01*
X66330Y80450D02*
X66555Y80675D01*
X66780Y80450D01*
X66555Y80225D01*
X66330Y80450D01*
X62956Y79190D02*
X62731Y78740D01*
X62057Y78066D01*
X66780D01*
X66330Y75501D02*
X66555Y75726D01*
X66780Y75501D01*
X66555Y75276D01*
X66330Y75501D01*
X62057Y72892D02*
X62282Y73567D01*
X62956Y74017D01*
X64081Y74242D01*
X64756D01*
X65880Y74017D01*
X66555Y73567D01*
X66780Y72892D01*
Y72442D01*
X66555Y71768D01*
X65880Y71318D01*
X64756Y71093D01*
X64081D01*
X62956Y71318D01*
X62282Y71768D01*
X62057Y72442D01*
Y72892D01*
X72747Y111032D02*
X76026D01*
X76682Y110376D01*
Y109064D01*
X76026Y108408D01*
X72747D01*
Y107096D02*
Y104472D01*
Y105784D01*
X76682D01*
X72747Y103160D02*
X76682D01*
Y101192D01*
X76026Y100536D01*
X73403D01*
X72747Y101192D01*
Y103160D01*
X73403Y96601D02*
X72747Y97257D01*
Y98568D01*
X73403Y99225D01*
X76026D01*
X76682Y98568D01*
Y97257D01*
X76026Y96601D01*
X73403Y91353D02*
X72747Y90697D01*
Y89385D01*
X73403Y88729D01*
X76026D01*
X76682Y89385D01*
Y90697D01*
X76026Y91353D01*
X73403D01*
X76682Y85449D02*
X72747D01*
X74714Y87417D01*
Y84793D01*
X76682Y83482D02*
X74059Y80858D01*
X76682Y79546D02*
Y78234D01*
Y78890D01*
X72747D01*
X73403Y79546D01*
X72747Y76266D02*
Y73642D01*
X73403D01*
X76026Y76266D01*
X76682D01*
X326885Y86535D02*
X323933D01*
Y88011D01*
X324425Y88503D01*
X324917D01*
X325409Y88011D01*
Y86535D01*
Y88011D01*
X325901Y88503D01*
X326393D01*
X326885Y88011D01*
Y86535D01*
X325901Y89979D02*
Y90963D01*
X325409Y91455D01*
X323933D01*
Y89979D01*
X324425Y89487D01*
X324917Y89979D01*
Y91455D01*
X326393Y92931D02*
X325901D01*
Y92439D01*
Y93423D01*
Y92931D01*
X324425D01*
X323933Y93423D01*
X326393Y95391D02*
X325901D01*
Y94899D01*
Y95883D01*
Y95391D01*
X324425D01*
X323933Y95883D01*
Y99327D02*
Y97359D01*
X325901Y99327D01*
X326393D01*
X326885Y98835D01*
Y97851D01*
X326393Y97359D01*
X316965Y171889D02*
Y168937D01*
X315489D01*
X314997Y169429D01*
Y169921D01*
X315489Y170413D01*
X316965D01*
X315489D01*
X314997Y170905D01*
Y171397D01*
X315489Y171889D01*
X316965D01*
X313521Y170905D02*
X312537D01*
X312045Y170413D01*
Y168937D01*
X313521D01*
X314013Y169429D01*
X313521Y169921D01*
X312045D01*
X310569Y171397D02*
Y170905D01*
X311061D01*
X310077D01*
X310569D01*
Y169429D01*
X310077Y168937D01*
X308109Y171397D02*
Y170905D01*
X308601D01*
X307617D01*
X308109D01*
Y169429D01*
X307617Y168937D01*
X306141D02*
X305157D01*
X305649D01*
Y171889D01*
X306141Y171397D01*
X248170Y221154D02*
X245218Y223122D01*
X248170D02*
X245218Y221154D01*
Y224106D02*
Y225090D01*
Y224598D01*
X248170D01*
X247678Y224106D01*
M02*
