G04 Layer_Physical_Order=3*
G04 Layer_Color=16440176*
%FSLAX25Y25*%
%MOIN*%
G70*
G01*
G75*
%ADD56C,0.07874*%
%ADD58C,0.02362*%
%ADD59C,0.02165*%
G36*
X143646Y170917D02*
Y167291D01*
Y130982D01*
X143599Y130748D01*
X143646Y130514D01*
Y121996D01*
X134700Y113050D01*
X140290Y107460D01*
X143184Y110354D01*
X143646Y110162D01*
Y63031D01*
X140656D01*
X140504Y63531D01*
X140702Y63664D01*
X141184Y64385D01*
X141354Y65236D01*
X141184Y66087D01*
X140702Y66809D01*
X139981Y67291D01*
X139130Y67460D01*
X138279Y67291D01*
X137557Y66809D01*
X137075Y66087D01*
X136906Y65236D01*
X137075Y64385D01*
X137557Y63664D01*
X137756Y63531D01*
X137604Y63031D01*
X125457D01*
X125100Y63531D01*
X125212Y64095D01*
X125043Y64946D01*
X124561Y65667D01*
X123839Y66149D01*
X122988Y66318D01*
X122137Y66149D01*
X121416Y65667D01*
X120934Y64946D01*
X120764Y64095D01*
X120876Y63531D01*
X120520Y63031D01*
X95275D01*
Y177232D01*
X125195D01*
X125761Y176854D01*
X126574Y176692D01*
X127386Y176854D01*
X127953Y177232D01*
X137331D01*
X143646Y170917D01*
D02*
G37*
G36*
X345559Y118774D02*
X297898D01*
Y175767D01*
X298398Y176174D01*
X298854Y176083D01*
X299705Y176252D01*
X300427Y176735D01*
X300909Y177456D01*
X301078Y178307D01*
X300909Y179158D01*
X300427Y179880D01*
X299705Y180362D01*
X298854Y180531D01*
X298398Y180440D01*
X297898Y180847D01*
Y229213D01*
X345559D01*
Y118774D01*
D02*
G37*
G36*
X296878Y180847D02*
X296889Y180795D01*
X296884Y180743D01*
X296927Y180601D01*
X296956Y180457D01*
X296985Y180413D01*
X297001Y180362D01*
X297038Y180318D01*
X297282Y179880D01*
X296800Y179158D01*
X296677Y178542D01*
X296631Y178307D01*
X296742Y177745D01*
D01*
X296800Y177456D01*
X297282Y176735D01*
X297038Y176296D01*
X297001Y176252D01*
X296985Y176201D01*
X296956Y176157D01*
X296927Y176013D01*
X296884Y175872D01*
X296889Y175819D01*
X296878Y175767D01*
Y140405D01*
X296378Y140230D01*
X295768Y140637D01*
X294917Y140806D01*
X294066Y140637D01*
X293345Y140155D01*
X292863Y139434D01*
X292693Y138583D01*
X292863Y137732D01*
X293345Y137010D01*
X294066Y136528D01*
X294917Y136359D01*
X295768Y136528D01*
X296378Y136936D01*
X296878Y136760D01*
Y125235D01*
X296378Y124968D01*
X296083Y125165D01*
X295232Y125334D01*
X294381Y125165D01*
X293660Y124683D01*
X293178Y123961D01*
X293008Y123110D01*
X293178Y122259D01*
X293660Y121538D01*
X294381Y121056D01*
X295232Y120886D01*
X296083Y121056D01*
X296378Y121253D01*
X296878Y120986D01*
Y118774D01*
X296956Y118384D01*
X297177Y118053D01*
X297508Y117832D01*
X297898Y117755D01*
X345559D01*
X345587Y117732D01*
Y63031D01*
X270995D01*
X270879Y63531D01*
X271490Y63939D01*
X271972Y64661D01*
X272141Y65512D01*
X271972Y66363D01*
X271490Y67084D01*
X270768Y67566D01*
X269917Y67736D01*
X269066Y67566D01*
X268345Y67084D01*
X267863Y66363D01*
X267693Y65512D01*
X267863Y64661D01*
X268345Y63939D01*
X268955Y63531D01*
X268840Y63031D01*
X243441D01*
X243174Y63531D01*
X243507Y64031D01*
X243676Y64882D01*
X243507Y65733D01*
X243025Y66454D01*
X242304Y66936D01*
X241453Y67106D01*
X240602Y66936D01*
X239880Y66454D01*
X239398Y65733D01*
X239229Y64882D01*
X239398Y64031D01*
X239732Y63531D01*
X239465Y63031D01*
X216748D01*
X216481Y63531D01*
X216657Y63795D01*
X216826Y64646D01*
X216657Y65497D01*
X216175Y66218D01*
X215453Y66700D01*
X214602Y66869D01*
X213751Y66700D01*
X213030Y66218D01*
X212548Y65497D01*
X212379Y64646D01*
X212548Y63795D01*
X212724Y63531D01*
X212457Y63031D01*
X192861D01*
X192709Y63531D01*
X193025Y63743D01*
X193507Y64464D01*
X193676Y65315D01*
X193507Y66166D01*
X193025Y66887D01*
X192304Y67370D01*
X191453Y67539D01*
X190602Y67370D01*
X189880Y66887D01*
X189398Y66166D01*
X189229Y65315D01*
X189398Y64464D01*
X189880Y63743D01*
X190196Y63531D01*
X190045Y63031D01*
X162683D01*
X162532Y63531D01*
X162671Y63624D01*
X163153Y64346D01*
X163322Y65197D01*
X163153Y66048D01*
X162671Y66769D01*
X161949Y67251D01*
X161098Y67421D01*
X160247Y67251D01*
X159526Y66769D01*
X159044Y66048D01*
X158875Y65197D01*
X159044Y64346D01*
X159526Y63624D01*
X159665Y63531D01*
X159514Y63031D01*
X144665D01*
Y110162D01*
X144588Y110553D01*
X144367Y110883D01*
X144335Y111506D01*
X150056Y117226D01*
X144665Y122616D01*
Y128343D01*
X145165Y128655D01*
X145823Y128524D01*
X146674Y128693D01*
X147395Y129175D01*
X147877Y129897D01*
X148047Y130748D01*
X147877Y131599D01*
X147395Y132320D01*
X146674Y132803D01*
X145823Y132972D01*
X145165Y132841D01*
X144665Y133153D01*
Y167291D01*
Y170297D01*
X150056Y175688D01*
X148498Y177245D01*
X147276Y178467D01*
X140290Y185453D01*
X134700Y179863D01*
X135849Y178714D01*
X135658Y178252D01*
X128979D01*
X128662Y178638D01*
X128697Y178816D01*
X128535Y179628D01*
X128075Y180317D01*
X127386Y180777D01*
X126574Y180939D01*
X125761Y180777D01*
X125072Y180317D01*
X124612Y179628D01*
X124450Y178816D01*
X124485Y178638D01*
X124168Y178252D01*
X110665D01*
Y201405D01*
X111165Y201673D01*
X111630Y201362D01*
X112218Y201245D01*
X112248Y201094D01*
X112709Y200405D01*
X113398Y199945D01*
X114052Y199814D01*
X114135Y199674D01*
X113825Y199236D01*
X113808Y199229D01*
X113683Y199254D01*
X112870Y199092D01*
X112181Y198632D01*
X111721Y197943D01*
X111560Y197130D01*
X111721Y196318D01*
X112181Y195629D01*
X112870Y195169D01*
X113683Y195007D01*
X114496Y195169D01*
X115184Y195629D01*
X115645Y196318D01*
X115806Y197130D01*
X115645Y197943D01*
X115372Y198352D01*
X115672Y198802D01*
X116198Y198697D01*
X116710Y198799D01*
X116844Y198598D01*
X117533Y198138D01*
X118346Y197976D01*
X119159Y198138D01*
X119217Y198177D01*
X119774Y197804D01*
X120587Y197643D01*
X120935Y197712D01*
X121235Y197262D01*
X120978Y196877D01*
X120817Y196065D01*
X120978Y195252D01*
X121439Y194563D01*
X122127Y194103D01*
X122940Y193941D01*
X123753Y194103D01*
X124442Y194563D01*
X124902Y195252D01*
X125064Y196065D01*
X124902Y196877D01*
X124722Y197147D01*
X125022Y197597D01*
X125116Y197578D01*
X125929Y197740D01*
X126249Y197954D01*
X126569Y197740D01*
X127382Y197578D01*
X128194Y197740D01*
X128515Y197954D01*
X128834Y197740D01*
X129068Y197693D01*
X129170Y197178D01*
X129630Y196489D01*
X130319Y196029D01*
X131132Y195867D01*
X131945Y196029D01*
X132633Y196489D01*
X133094Y197178D01*
X133256Y197991D01*
X133094Y198803D01*
X132633Y199492D01*
X131945Y199953D01*
X131711Y199999D01*
X131609Y200514D01*
X131149Y201203D01*
X130460Y201663D01*
X129647Y201825D01*
X128834Y201663D01*
X128515Y201450D01*
X128194Y201663D01*
X127382Y201825D01*
X126569Y201663D01*
X126249Y201450D01*
X125929Y201663D01*
X125116Y201825D01*
X124304Y201663D01*
X123984Y201450D01*
X123664Y201663D01*
X122851Y201825D01*
X122038Y201663D01*
X121767Y201482D01*
X121399Y201728D01*
X120587Y201890D01*
X119774Y201728D01*
X119716Y201689D01*
X119159Y202062D01*
X118346Y202223D01*
X117834Y202121D01*
X117700Y202322D01*
X117011Y202783D01*
X116198Y202944D01*
X116042Y202913D01*
X115712Y203408D01*
X115023Y203868D01*
X114435Y203985D01*
X114405Y204136D01*
X113944Y204825D01*
X113256Y205286D01*
X112859Y205364D01*
X112788Y205723D01*
X112328Y206412D01*
X111639Y206872D01*
X110826Y207034D01*
X110665Y207166D01*
Y209194D01*
X111165Y209346D01*
X111226Y209255D01*
X111915Y208795D01*
X112293Y208720D01*
X112368Y208342D01*
X112828Y207653D01*
X113517Y207193D01*
X113894Y207118D01*
X113970Y206740D01*
X114430Y206051D01*
X115119Y205591D01*
X115712Y205473D01*
X115741Y205328D01*
X116201Y204639D01*
X116890Y204179D01*
X117703Y204017D01*
X118116Y204099D01*
X118309Y203811D01*
X118998Y203350D01*
X119811Y203189D01*
X120624Y203350D01*
X120843Y203497D01*
X121260Y203219D01*
X122073Y203057D01*
X122885Y203219D01*
X123205Y203432D01*
X123525Y203219D01*
X124338Y203057D01*
X125151Y203219D01*
X125470Y203432D01*
X125791Y203219D01*
X126603Y203057D01*
X127416Y203219D01*
X127736Y203432D01*
X128056Y203219D01*
X128869Y203057D01*
X129681Y203219D01*
X130370Y203679D01*
X130465Y203820D01*
X131039Y203706D01*
X131851Y203868D01*
X132540Y204328D01*
X133001Y205017D01*
X133162Y205830D01*
X133001Y206642D01*
X133358Y206767D01*
X133415Y206778D01*
X133685Y206959D01*
X133954Y206778D01*
X134767Y206617D01*
X135580Y206778D01*
X135948Y207024D01*
X136316Y206778D01*
X137129Y206617D01*
X137942Y206778D01*
X138409Y207090D01*
X138876Y206778D01*
X139689Y206617D01*
X140502Y206778D01*
X140870Y207024D01*
X141238Y206778D01*
X142051Y206617D01*
X142864Y206778D01*
X143085Y206926D01*
X143600Y206582D01*
X144413Y206421D01*
X144668Y206471D01*
X145077Y205860D01*
X145765Y205400D01*
X146578Y205239D01*
X147391Y205400D01*
X148080Y205860D01*
X148307Y206200D01*
X148324Y206188D01*
X149137Y206027D01*
X149950Y206188D01*
X150638Y206648D01*
X151099Y207337D01*
X151260Y208150D01*
X151099Y208963D01*
X150638Y209651D01*
X149950Y210112D01*
X149137Y210273D01*
X148324Y210112D01*
X147635Y209651D01*
X147408Y209312D01*
X147391Y209324D01*
X146578Y209485D01*
X146323Y209435D01*
X145914Y210046D01*
X145278Y210471D01*
X145222Y210521D01*
X145103Y211040D01*
X145391Y211471D01*
X145552Y212284D01*
X145480Y212649D01*
X145652Y212783D01*
X145940Y212897D01*
X146553Y212487D01*
X147366Y212326D01*
X148179Y212487D01*
X148867Y212948D01*
X149328Y213636D01*
X149489Y214449D01*
X149328Y215262D01*
X148867Y215950D01*
X148179Y216411D01*
X147366Y216572D01*
X146553Y216411D01*
X145864Y215950D01*
X145404Y215262D01*
X145243Y214449D01*
X145315Y214084D01*
X145142Y213950D01*
X144855Y213836D01*
X144242Y214246D01*
X143429Y214407D01*
X143047Y214331D01*
X142599Y214646D01*
X142438Y215459D01*
X141978Y216147D01*
X141289Y216608D01*
X140476Y216769D01*
X139663Y216608D01*
X138974Y216147D01*
X138514Y215459D01*
X138353Y214646D01*
X138514Y213833D01*
X138974Y213144D01*
X139663Y212684D01*
X140476Y212523D01*
X140858Y212599D01*
X141306Y212284D01*
X141467Y211471D01*
X141644Y211206D01*
X141453Y210745D01*
X141238Y210702D01*
X140870Y210456D01*
X140502Y210702D01*
X139689Y210863D01*
X138946Y210716D01*
X138701Y210898D01*
X138540Y211079D01*
X138662Y211693D01*
X138501Y212506D01*
X138040Y213194D01*
X137352Y213655D01*
X136539Y213816D01*
X136401Y213789D01*
X136124Y214205D01*
X136139Y214227D01*
X136300Y215040D01*
X136139Y215853D01*
X135679Y216542D01*
X134990Y217002D01*
X134177Y217163D01*
X133364Y217002D01*
X132676Y216542D01*
X132215Y215853D01*
X132054Y215040D01*
X132215Y214227D01*
X132676Y213539D01*
X133364Y213078D01*
X134177Y212917D01*
X134315Y212944D01*
X134592Y212528D01*
X134577Y212506D01*
X134416Y211693D01*
X134490Y211318D01*
X134119Y210735D01*
X133954Y210702D01*
X133685Y210522D01*
X133415Y210702D01*
X132602Y210863D01*
X131789Y210702D01*
X131100Y210242D01*
X130640Y209553D01*
X130479Y208740D01*
X130553Y208366D01*
X130226Y207791D01*
X129537Y207331D01*
X129443Y207190D01*
X128869Y207304D01*
X128056Y207142D01*
X127736Y206928D01*
X127416Y207142D01*
X126603Y207304D01*
X125791Y207142D01*
X125470Y206928D01*
X125151Y207142D01*
X124338Y207304D01*
X123525Y207142D01*
X123205Y206928D01*
X122885Y207142D01*
X122073Y207304D01*
X121260Y207142D01*
X121040Y206995D01*
X120624Y207274D01*
X119811Y207435D01*
X119397Y207353D01*
X119204Y207642D01*
X118515Y208102D01*
X117922Y208221D01*
X117893Y208366D01*
X117433Y209054D01*
X116744Y209515D01*
X116367Y209590D01*
X116291Y209967D01*
X115831Y210656D01*
X115142Y211117D01*
X114765Y211192D01*
X114690Y211569D01*
X114229Y212258D01*
X114106Y212340D01*
X114224Y212933D01*
X114062Y213746D01*
X113689Y214305D01*
X113727Y214361D01*
X113888Y215174D01*
X113727Y215986D01*
X113266Y216675D01*
X112577Y217136D01*
X111765Y217297D01*
X111165Y217178D01*
X110665Y217499D01*
Y229213D01*
X296878D01*
Y180847D01*
D02*
G37*
%LPC*%
G36*
X126520Y133870D02*
Y129457D01*
X130933D01*
X130830Y130245D01*
X130332Y131447D01*
X129541Y132478D01*
X128509Y133269D01*
X127308Y133767D01*
X126520Y133870D01*
D02*
G37*
G36*
X125520D02*
X124731Y133767D01*
X123530Y133269D01*
X122499Y132478D01*
X121707Y131447D01*
X121210Y130245D01*
X121106Y129457D01*
X125520D01*
Y133870D01*
D02*
G37*
G36*
X130933Y128457D02*
X126520D01*
Y124043D01*
X127308Y124147D01*
X128509Y124644D01*
X129541Y125436D01*
X130332Y126467D01*
X130830Y127668D01*
X130933Y128457D01*
D02*
G37*
G36*
X125520D02*
X121106D01*
X121210Y127668D01*
X121707Y126467D01*
X122499Y125436D01*
X123530Y124644D01*
X124731Y124147D01*
X125520Y124043D01*
Y128457D01*
D02*
G37*
G36*
X137528Y151371D02*
X136739Y151267D01*
X135538Y150769D01*
X134506Y149978D01*
X133715Y148946D01*
X133218Y147746D01*
X133114Y146957D01*
X137528D01*
Y151371D01*
D02*
G37*
G36*
X138528D02*
Y146957D01*
X142941D01*
X142838Y147746D01*
X142340Y148946D01*
X141549Y149978D01*
X140517Y150769D01*
X139316Y151267D01*
X138528Y151371D01*
D02*
G37*
G36*
X103988Y142876D02*
X103085Y142757D01*
X102243Y142409D01*
X101520Y141854D01*
X100965Y141131D01*
X100616Y140289D01*
X100497Y139386D01*
X100616Y138482D01*
X100965Y137640D01*
X101520Y136917D01*
X102243Y136363D01*
X103085Y136014D01*
X103988Y135895D01*
X104891Y136014D01*
X105733Y136363D01*
X106456Y136917D01*
X107011Y137640D01*
X107360Y138482D01*
X107478Y139386D01*
X107360Y140289D01*
X107011Y141131D01*
X106456Y141854D01*
X105733Y142409D01*
X104891Y142757D01*
X103988Y142876D01*
D02*
G37*
G36*
X138264Y136043D02*
X137413Y135873D01*
X136691Y135391D01*
X136209Y134670D01*
X136040Y133819D01*
X136209Y132968D01*
X136691Y132246D01*
X137413Y131764D01*
X138264Y131595D01*
X139115Y131764D01*
X139836Y132246D01*
X140318Y132968D01*
X140488Y133819D01*
X140318Y134670D01*
X139836Y135391D01*
X139115Y135873D01*
X138264Y136043D01*
D02*
G37*
G36*
X137528Y145957D02*
X133114D01*
X133218Y145168D01*
X133715Y143967D01*
X134506Y142936D01*
X135538Y142144D01*
X136739Y141647D01*
X137528Y141543D01*
Y145957D01*
D02*
G37*
G36*
X142941D02*
X138528D01*
Y141543D01*
X139316Y141647D01*
X140517Y142144D01*
X141549Y142936D01*
X142340Y143967D01*
X142838Y145168D01*
X142941Y145957D01*
D02*
G37*
G36*
X118130Y142876D02*
X117227Y142757D01*
X116385Y142409D01*
X115662Y141854D01*
X115107Y141131D01*
X114759Y140289D01*
X114640Y139386D01*
X114759Y138482D01*
X115107Y137640D01*
X115662Y136917D01*
X116385Y136363D01*
X117227Y136014D01*
X118130Y135895D01*
X119034Y136014D01*
X119875Y136363D01*
X120598Y136917D01*
X121153Y137640D01*
X121502Y138482D01*
X121621Y139386D01*
X121502Y140289D01*
X121153Y141131D01*
X120598Y141854D01*
X119875Y142409D01*
X119034Y142757D01*
X118130Y142876D01*
D02*
G37*
G36*
X101031Y79934D02*
X100243Y79830D01*
X99042Y79332D01*
X98010Y78541D01*
X97219Y77509D01*
X96722Y76309D01*
X96618Y75520D01*
X101031D01*
Y79934D01*
D02*
G37*
G36*
X102032D02*
Y75520D01*
X106445D01*
X106341Y76309D01*
X105844Y77509D01*
X105053Y78541D01*
X104021Y79332D01*
X102820Y79830D01*
X102032Y79934D01*
D02*
G37*
G36*
X113039Y92020D02*
X108626D01*
X108729Y91231D01*
X109227Y90030D01*
X110018Y88999D01*
X111050Y88207D01*
X112250Y87710D01*
X113039Y87606D01*
Y92020D01*
D02*
G37*
G36*
X122752Y91515D02*
X121901Y91346D01*
X121179Y90864D01*
X120697Y90142D01*
X120528Y89291D01*
X120697Y88440D01*
X121179Y87719D01*
X121901Y87237D01*
X122752Y87068D01*
X123603Y87237D01*
X124325Y87719D01*
X124806Y88440D01*
X124976Y89291D01*
X124806Y90142D01*
X124325Y90864D01*
X123603Y91346D01*
X122752Y91515D01*
D02*
G37*
G36*
X139091Y81235D02*
X138240Y81066D01*
X137518Y80584D01*
X137036Y79862D01*
X136867Y79011D01*
X137036Y78160D01*
X137518Y77439D01*
X138240Y76956D01*
X139091Y76787D01*
X139942Y76956D01*
X140663Y77439D01*
X141145Y78160D01*
X141314Y79011D01*
X141145Y79862D01*
X140663Y80584D01*
X139942Y81066D01*
X139091Y81235D01*
D02*
G37*
G36*
X128539Y86476D02*
X127688Y86306D01*
X126967Y85824D01*
X126485Y85103D01*
X126316Y84252D01*
X126485Y83401D01*
X126967Y82679D01*
X127688Y82197D01*
X128539Y82028D01*
X129390Y82197D01*
X129737Y82429D01*
X130292Y82199D01*
X130304Y82141D01*
X130786Y81420D01*
X131507Y80938D01*
X132358Y80768D01*
X133209Y80938D01*
X133931Y81420D01*
X134413Y82141D01*
X134582Y82992D01*
X134413Y83843D01*
X133931Y84565D01*
X133209Y85047D01*
X132358Y85216D01*
X131507Y85047D01*
X131161Y84815D01*
X130605Y85045D01*
X130594Y85103D01*
X130112Y85824D01*
X129390Y86306D01*
X128539Y86476D01*
D02*
G37*
G36*
X101031Y74520D02*
X96618D01*
X96722Y73731D01*
X97219Y72530D01*
X98010Y71499D01*
X99042Y70707D01*
X100243Y70210D01*
X101031Y70106D01*
Y74520D01*
D02*
G37*
G36*
X139209Y75964D02*
X138358Y75795D01*
X137636Y75313D01*
X137154Y74591D01*
X136985Y73740D01*
X137154Y72889D01*
X137636Y72168D01*
X138358Y71686D01*
X139209Y71516D01*
X140060Y71686D01*
X140781Y72168D01*
X141263Y72889D01*
X141432Y73740D01*
X141263Y74591D01*
X140781Y75313D01*
X140060Y75795D01*
X139209Y75964D01*
D02*
G37*
G36*
X129051Y75137D02*
X128200Y74968D01*
X127479Y74486D01*
X126997Y73764D01*
X126827Y72913D01*
X126997Y72062D01*
X127479Y71341D01*
X128200Y70859D01*
X129051Y70689D01*
X129902Y70859D01*
X130624Y71341D01*
X131106Y72062D01*
X131275Y72913D01*
X131106Y73764D01*
X130624Y74486D01*
X129902Y74968D01*
X129051Y75137D01*
D02*
G37*
G36*
X106445Y74520D02*
X102032D01*
Y70106D01*
X102820Y70210D01*
X104021Y70707D01*
X105053Y71499D01*
X105844Y72530D01*
X106341Y73731D01*
X106445Y74520D01*
D02*
G37*
G36*
X116177Y74704D02*
X115326Y74535D01*
X114605Y74053D01*
X114123Y73331D01*
X113953Y72480D01*
X114123Y71629D01*
X114605Y70908D01*
X115326Y70426D01*
X116177Y70257D01*
X117028Y70426D01*
X117750Y70908D01*
X118232Y71629D01*
X118401Y72480D01*
X118232Y73331D01*
X117750Y74053D01*
X117028Y74535D01*
X116177Y74704D01*
D02*
G37*
G36*
X101031Y109520D02*
X96618D01*
X96722Y108731D01*
X97219Y107530D01*
X98010Y106499D01*
X99042Y105707D01*
X100243Y105210D01*
X101031Y105106D01*
Y109520D01*
D02*
G37*
G36*
X102032Y114934D02*
Y110520D01*
X106445D01*
X106341Y111309D01*
X105844Y112510D01*
X105053Y113541D01*
X104021Y114332D01*
X102820Y114830D01*
X102032Y114934D01*
D02*
G37*
G36*
X106445Y109520D02*
X102032D01*
Y105106D01*
X102820Y105210D01*
X104021Y105707D01*
X105053Y106499D01*
X105844Y107530D01*
X106341Y108731D01*
X106445Y109520D01*
D02*
G37*
G36*
X101031Y114934D02*
X100243Y114830D01*
X99042Y114332D01*
X98010Y113541D01*
X97219Y112510D01*
X96722Y111309D01*
X96618Y110520D01*
X101031D01*
Y114934D01*
D02*
G37*
G36*
X133185Y92342D02*
X132334Y92173D01*
X131613Y91691D01*
X131131Y90969D01*
X130961Y90118D01*
X131131Y89267D01*
X131613Y88546D01*
X132334Y88064D01*
X133185Y87894D01*
X134036Y88064D01*
X134757Y88546D01*
X135240Y89267D01*
X135409Y90118D01*
X135240Y90969D01*
X134757Y91691D01*
X134036Y92173D01*
X133185Y92342D01*
D02*
G37*
G36*
X118453Y92020D02*
X114039D01*
Y87606D01*
X114828Y87710D01*
X116029Y88207D01*
X117060Y88999D01*
X117852Y90030D01*
X118349Y91231D01*
X118453Y92020D01*
D02*
G37*
G36*
X105744Y92263D02*
X104893Y92094D01*
X104172Y91612D01*
X103690Y90890D01*
X103520Y90039D01*
X103690Y89188D01*
X104172Y88467D01*
X104893Y87985D01*
X105744Y87815D01*
X106595Y87985D01*
X107317Y88467D01*
X107799Y89188D01*
X107968Y90039D01*
X107799Y90890D01*
X107317Y91612D01*
X106595Y92094D01*
X105744Y92263D01*
D02*
G37*
G36*
X100429Y100925D02*
X99578Y100755D01*
X98857Y100273D01*
X98375Y99552D01*
X98205Y98701D01*
X98375Y97850D01*
X98857Y97128D01*
X99578Y96646D01*
X100429Y96477D01*
X101280Y96646D01*
X102002Y97128D01*
X102484Y97850D01*
X102653Y98701D01*
X102484Y99552D01*
X102002Y100273D01*
X101280Y100755D01*
X100429Y100925D01*
D02*
G37*
G36*
X133146Y104541D02*
X132295Y104371D01*
X131573Y103889D01*
X131091Y103168D01*
X130922Y102317D01*
X131091Y101466D01*
X131573Y100744D01*
X132295Y100262D01*
X133146Y100093D01*
X133997Y100262D01*
X134718Y100744D01*
X135200Y101466D01*
X135370Y102317D01*
X135200Y103168D01*
X134718Y103889D01*
X133997Y104371D01*
X133146Y104541D01*
D02*
G37*
G36*
X130902Y99547D02*
X130051Y99377D01*
X129329Y98895D01*
X128847Y98174D01*
X128678Y97323D01*
X128847Y96472D01*
X129329Y95750D01*
X130051Y95268D01*
X130902Y95099D01*
X131753Y95268D01*
X132474Y95750D01*
X132956Y96472D01*
X133125Y97323D01*
X132956Y98174D01*
X132474Y98895D01*
X131753Y99377D01*
X130902Y99547D01*
D02*
G37*
G36*
X113039Y97434D02*
X112250Y97330D01*
X111050Y96832D01*
X110018Y96041D01*
X109227Y95009D01*
X108729Y93809D01*
X108626Y93020D01*
X113039D01*
Y97434D01*
D02*
G37*
G36*
X114039D02*
Y93020D01*
X118453D01*
X118349Y93809D01*
X117852Y95009D01*
X117060Y96041D01*
X116029Y96832D01*
X114828Y97330D01*
X114039Y97434D01*
D02*
G37*
G36*
X125520Y168870D02*
X124731Y168767D01*
X123530Y168269D01*
X122499Y167478D01*
X121707Y166446D01*
X121210Y165245D01*
X121106Y164457D01*
X125520D01*
Y168870D01*
D02*
G37*
G36*
X126520D02*
Y164457D01*
X130933D01*
X130830Y165245D01*
X130332Y166446D01*
X129541Y167478D01*
X128509Y168269D01*
X127308Y168767D01*
X126520Y168870D01*
D02*
G37*
G36*
X130933Y163457D02*
X126520D01*
Y159043D01*
X127308Y159147D01*
X128509Y159644D01*
X129541Y160436D01*
X130332Y161467D01*
X130830Y162668D01*
X130933Y163457D01*
D02*
G37*
G36*
X103988Y158422D02*
X99094Y153528D01*
X103988Y148634D01*
X108882Y153528D01*
X103988Y158422D01*
D02*
G37*
G36*
X125520Y163457D02*
X121106D01*
X121210Y162668D01*
X121707Y161467D01*
X122499Y160436D01*
X123530Y159644D01*
X124731Y159147D01*
X125520Y159043D01*
Y163457D01*
D02*
G37*
G36*
X135763Y172441D02*
X134951Y172280D01*
X134262Y171819D01*
X133801Y171131D01*
X133640Y170318D01*
X133801Y169505D01*
X134262Y168816D01*
X134951Y168356D01*
X135763Y168195D01*
X136576Y168356D01*
X137265Y168816D01*
X137725Y169505D01*
X137887Y170318D01*
X137725Y171131D01*
X137265Y171819D01*
X136576Y172280D01*
X135763Y172441D01*
D02*
G37*
G36*
X125752Y175866D02*
X124939Y175704D01*
X124250Y175244D01*
X123790Y174555D01*
X123628Y173742D01*
X123790Y172930D01*
X124250Y172241D01*
X124939Y171780D01*
X125752Y171619D01*
X126565Y171780D01*
X127253Y172241D01*
X127714Y172930D01*
X127875Y173742D01*
X127714Y174555D01*
X127253Y175244D01*
X126565Y175704D01*
X125752Y175866D01*
D02*
G37*
G36*
X337941Y128457D02*
X333528D01*
Y124043D01*
X334316Y124147D01*
X335517Y124644D01*
X336549Y125436D01*
X337340Y126467D01*
X337838Y127668D01*
X337941Y128457D01*
D02*
G37*
G36*
X332528Y133870D02*
X331739Y133767D01*
X330538Y133269D01*
X329506Y132478D01*
X328715Y131447D01*
X328218Y130245D01*
X328114Y129457D01*
X332528D01*
Y133870D01*
D02*
G37*
G36*
X304720Y131988D02*
X303870Y131818D01*
X303148Y131336D01*
X302666Y130615D01*
X302497Y129764D01*
X302666Y128913D01*
X303148Y128191D01*
X303870Y127709D01*
X304720Y127540D01*
X305572Y127709D01*
X306293Y128191D01*
X306775Y128913D01*
X306944Y129764D01*
X306775Y130615D01*
X306293Y131336D01*
X305572Y131818D01*
X304720Y131988D01*
D02*
G37*
G36*
X332528Y128457D02*
X328114D01*
X328218Y127668D01*
X328715Y126467D01*
X329506Y125436D01*
X330538Y124644D01*
X331739Y124147D01*
X332528Y124043D01*
Y128457D01*
D02*
G37*
G36*
X333528Y133870D02*
Y129457D01*
X337941D01*
X337838Y130245D01*
X337340Y131447D01*
X336549Y132478D01*
X335517Y133269D01*
X334316Y133767D01*
X333528Y133870D01*
D02*
G37*
G36*
X320520Y151371D02*
X319731Y151267D01*
X318530Y150769D01*
X317499Y149978D01*
X316707Y148946D01*
X316210Y147746D01*
X316106Y146957D01*
X320520D01*
Y151371D01*
D02*
G37*
G36*
Y145957D02*
X316106D01*
X316210Y145168D01*
X316707Y143967D01*
X317499Y142936D01*
X318530Y142144D01*
X319731Y141647D01*
X320520Y141543D01*
Y145957D01*
D02*
G37*
G36*
X321520Y151371D02*
Y146957D01*
X325934D01*
X325830Y147746D01*
X325332Y148946D01*
X324541Y149978D01*
X323510Y150769D01*
X322308Y151267D01*
X321520Y151371D01*
D02*
G37*
G36*
X342201Y136712D02*
X341350Y136543D01*
X340628Y136061D01*
X340146Y135339D01*
X339977Y134488D01*
X340146Y133637D01*
X340628Y132916D01*
X341350Y132434D01*
X342201Y132264D01*
X343052Y132434D01*
X343773Y132916D01*
X344255Y133637D01*
X344425Y134488D01*
X344255Y135339D01*
X343773Y136061D01*
X343052Y136543D01*
X342201Y136712D01*
D02*
G37*
G36*
X325934Y145957D02*
X321520D01*
Y141543D01*
X322308Y141647D01*
X323510Y142144D01*
X324541Y142936D01*
X325332Y143967D01*
X325830Y145168D01*
X325934Y145957D01*
D02*
G37*
G36*
X334209Y209074D02*
X333358Y208905D01*
X332636Y208423D01*
X332154Y207701D01*
X331985Y206850D01*
X332154Y205999D01*
X332636Y205278D01*
X333358Y204796D01*
X334209Y204627D01*
X335060Y204796D01*
X335781Y205278D01*
X336263Y205999D01*
X336433Y206850D01*
X336263Y207701D01*
X335781Y208423D01*
X335060Y208905D01*
X334209Y209074D01*
D02*
G37*
G36*
X313815Y209192D02*
X312964Y209023D01*
X312243Y208541D01*
X311760Y207820D01*
X311591Y206968D01*
X311760Y206118D01*
X312243Y205396D01*
X312964Y204914D01*
X313815Y204745D01*
X314666Y204914D01*
X315387Y205396D01*
X315869Y206118D01*
X316039Y206968D01*
X315869Y207820D01*
X315387Y208541D01*
X314666Y209023D01*
X313815Y209192D01*
D02*
G37*
G36*
X324248Y212342D02*
X323397Y212173D01*
X322676Y211691D01*
X322194Y210969D01*
X322024Y210118D01*
X322194Y209267D01*
X322676Y208546D01*
X323397Y208064D01*
X324248Y207894D01*
X325099Y208064D01*
X325820Y208546D01*
X326303Y209267D01*
X326472Y210118D01*
X326303Y210969D01*
X325820Y211691D01*
X325099Y212173D01*
X324248Y212342D01*
D02*
G37*
G36*
X341098Y200295D02*
X340247Y200125D01*
X339526Y199643D01*
X339044Y198922D01*
X338875Y198071D01*
X339044Y197220D01*
X339526Y196498D01*
X340247Y196016D01*
X341098Y195847D01*
X341949Y196016D01*
X342671Y196498D01*
X343153Y197220D01*
X343322Y198071D01*
X343153Y198922D01*
X342671Y199643D01*
X341949Y200125D01*
X341098Y200295D01*
D02*
G37*
G36*
X322358Y199980D02*
X321507Y199810D01*
X320786Y199328D01*
X320304Y198607D01*
X320134Y197756D01*
X320304Y196905D01*
X320786Y196183D01*
X321507Y195701D01*
X322358Y195532D01*
X323209Y195701D01*
X323931Y196183D01*
X324413Y196905D01*
X324582Y197756D01*
X324413Y198607D01*
X323931Y199328D01*
X323209Y199810D01*
X322358Y199980D01*
D02*
G37*
G36*
X313815Y227696D02*
X312964Y227527D01*
X312243Y227045D01*
X311760Y226324D01*
X311591Y225472D01*
X311760Y224621D01*
X312243Y223900D01*
X312964Y223418D01*
X313815Y223249D01*
X314666Y223418D01*
X315387Y223900D01*
X315869Y224621D01*
X316039Y225472D01*
X315869Y226324D01*
X315387Y227045D01*
X314666Y227527D01*
X313815Y227696D01*
D02*
G37*
G36*
X333815Y228397D02*
X332423Y228259D01*
X331084Y227853D01*
X329850Y227194D01*
X328768Y226306D01*
X327881Y225225D01*
X327221Y223991D01*
X326815Y222652D01*
X326678Y221260D01*
X326815Y219867D01*
X327221Y218529D01*
X327881Y217295D01*
X328768Y216213D01*
X329850Y215326D01*
X331084Y214666D01*
X332423Y214260D01*
X333815Y214123D01*
X335207Y214260D01*
X336546Y214666D01*
X337780Y215326D01*
X338861Y216213D01*
X339749Y217295D01*
X340408Y218529D01*
X340815Y219867D01*
X340952Y221260D01*
X340815Y222652D01*
X340408Y223991D01*
X339749Y225225D01*
X338861Y226306D01*
X337780Y227194D01*
X336546Y227853D01*
X335207Y228259D01*
X333815Y228397D01*
D02*
G37*
G36*
X337941Y163457D02*
X333528D01*
Y159043D01*
X334316Y159147D01*
X335517Y159644D01*
X336549Y160436D01*
X337340Y161467D01*
X337838Y162668D01*
X337941Y163457D01*
D02*
G37*
G36*
X304563Y165058D02*
X303712Y164889D01*
X302991Y164407D01*
X302508Y163686D01*
X302339Y162835D01*
X302508Y161984D01*
X302991Y161262D01*
X303712Y160780D01*
X304563Y160611D01*
X305414Y160780D01*
X306135Y161262D01*
X306617Y161984D01*
X306787Y162835D01*
X306617Y163686D01*
X306135Y164407D01*
X305414Y164889D01*
X304563Y165058D01*
D02*
G37*
G36*
X333528Y168870D02*
Y164457D01*
X337941D01*
X337838Y165245D01*
X337340Y166446D01*
X336549Y167478D01*
X335517Y168269D01*
X334316Y168767D01*
X333528Y168870D01*
D02*
G37*
G36*
X332528D02*
X331739Y168767D01*
X330538Y168269D01*
X329506Y167478D01*
X328715Y166446D01*
X328218Y165245D01*
X328114Y164457D01*
X332528D01*
Y168870D01*
D02*
G37*
G36*
Y163457D02*
X328114D01*
X328218Y162668D01*
X328715Y161467D01*
X329506Y160436D01*
X330538Y159644D01*
X331739Y159147D01*
X332528Y159043D01*
Y163457D01*
D02*
G37*
G36*
X341768Y160570D02*
X340917Y160401D01*
X340195Y159919D01*
X339713Y159197D01*
X339544Y158346D01*
X339713Y157495D01*
X340195Y156774D01*
X340917Y156292D01*
X341768Y156123D01*
X342619Y156292D01*
X343340Y156774D01*
X343822Y157495D01*
X343991Y158346D01*
X343822Y159197D01*
X343340Y159919D01*
X342619Y160401D01*
X341768Y160570D01*
D02*
G37*
G36*
X333894Y189665D02*
X333043Y189496D01*
X332321Y189013D01*
X331839Y188292D01*
X331670Y187441D01*
X331839Y186590D01*
X332321Y185869D01*
X333043Y185386D01*
X333894Y185217D01*
X334745Y185386D01*
X335466Y185869D01*
X335948Y186590D01*
X336118Y187441D01*
X335948Y188292D01*
X335466Y189013D01*
X334745Y189496D01*
X333894Y189665D01*
D02*
G37*
G36*
X313815Y190688D02*
X312964Y190519D01*
X312243Y190037D01*
X311760Y189316D01*
X311591Y188465D01*
X311760Y187613D01*
X312243Y186892D01*
X312964Y186410D01*
X313815Y186241D01*
X314666Y186410D01*
X315387Y186892D01*
X315869Y187613D01*
X316039Y188465D01*
X315869Y189316D01*
X315387Y190037D01*
X314666Y190519D01*
X313815Y190688D01*
D02*
G37*
G36*
X283185Y131830D02*
X282334Y131661D01*
X281613Y131179D01*
X281131Y130457D01*
X280961Y129606D01*
X281131Y128755D01*
X281613Y128034D01*
X282334Y127552D01*
X283185Y127383D01*
X284036Y127552D01*
X284757Y128034D01*
X285240Y128755D01*
X285409Y129606D01*
X285240Y130457D01*
X284757Y131179D01*
X284036Y131661D01*
X283185Y131830D01*
D02*
G37*
G36*
X243894Y131830D02*
X243043Y131661D01*
X242321Y131179D01*
X241839Y130457D01*
X241670Y129606D01*
X241839Y128755D01*
X242321Y128034D01*
X243043Y127552D01*
X243894Y127383D01*
X244745Y127552D01*
X245466Y128034D01*
X245948Y128755D01*
X246117Y129606D01*
X245948Y130457D01*
X245466Y131179D01*
X244745Y131661D01*
X243894Y131830D01*
D02*
G37*
G36*
X171843Y115288D02*
Y113664D01*
X173467D01*
X173398Y114015D01*
X172916Y114736D01*
X172194Y115218D01*
X171843Y115288D01*
D02*
G37*
G36*
X267004Y121200D02*
X266153Y121031D01*
X265431Y120549D01*
X264949Y119827D01*
X264780Y118976D01*
X264949Y118125D01*
X265431Y117404D01*
X266153Y116922D01*
X267004Y116753D01*
X267855Y116922D01*
X268576Y117404D01*
X269058Y118125D01*
X269228Y118976D01*
X269058Y119827D01*
X268576Y120549D01*
X267855Y121031D01*
X267004Y121200D01*
D02*
G37*
G36*
X170843Y115288D02*
X170492Y115218D01*
X169771Y114736D01*
X169289Y114015D01*
X169219Y113664D01*
X170843D01*
Y115288D01*
D02*
G37*
G36*
X173467Y112664D02*
X171843D01*
Y111040D01*
X172194Y111109D01*
X172916Y111592D01*
X173398Y112313D01*
X173467Y112664D01*
D02*
G37*
G36*
X150350Y115190D02*
X149615Y115044D01*
X148991Y114627D01*
X148574Y114004D01*
X148428Y113268D01*
X148574Y112532D01*
X148991Y111908D01*
X149615Y111491D01*
X150350Y111345D01*
X151086Y111491D01*
X151710Y111908D01*
X152127Y112532D01*
X152273Y113268D01*
X152127Y114004D01*
X151710Y114627D01*
X151086Y115044D01*
X150350Y115190D01*
D02*
G37*
G36*
X239642Y121318D02*
X238791Y121149D01*
X238069Y120667D01*
X237587Y119946D01*
X237418Y119095D01*
X237587Y118244D01*
X238069Y117522D01*
X238791Y117040D01*
X239642Y116871D01*
X240493Y117040D01*
X241214Y117522D01*
X241696Y118244D01*
X241865Y119095D01*
X241696Y119946D01*
X241214Y120667D01*
X240493Y121149D01*
X239642Y121318D01*
D02*
G37*
G36*
X188303Y123444D02*
X187452Y123275D01*
X186731Y122793D01*
X186249Y122072D01*
X186079Y121221D01*
X186249Y120370D01*
X186731Y119648D01*
X187452Y119166D01*
X188303Y118997D01*
X189154Y119166D01*
X189876Y119648D01*
X190358Y120370D01*
X190527Y121221D01*
X190358Y122072D01*
X189876Y122793D01*
X189154Y123275D01*
X188303Y123444D01*
D02*
G37*
G36*
X218754Y147874D02*
X217942Y147712D01*
X217253Y147252D01*
X216793Y146563D01*
X216631Y145750D01*
X216793Y144938D01*
X217253Y144249D01*
X217942Y143788D01*
X218754Y143627D01*
X219567Y143788D01*
X220256Y144249D01*
X220716Y144938D01*
X220878Y145750D01*
X220716Y146563D01*
X220256Y147252D01*
X219567Y147712D01*
X218754Y147874D01*
D02*
G37*
G36*
X260641Y146957D02*
X259790Y146788D01*
X259068Y146306D01*
X258586Y145585D01*
X258417Y144734D01*
X258586Y143883D01*
X259068Y143161D01*
X259790Y142679D01*
X260641Y142510D01*
X261492Y142679D01*
X262213Y143161D01*
X262695Y143883D01*
X262865Y144734D01*
X262695Y145585D01*
X262213Y146306D01*
X261492Y146788D01*
X260641Y146957D01*
D02*
G37*
G36*
X183579Y152303D02*
X182728Y152133D01*
X182006Y151651D01*
X181524Y150930D01*
X181355Y150079D01*
X181524Y149228D01*
X182006Y148506D01*
X182728Y148024D01*
X183579Y147855D01*
X184430Y148024D01*
X185151Y148506D01*
X185633Y149228D01*
X185803Y150079D01*
X185633Y150930D01*
X185151Y151651D01*
X184430Y152133D01*
X183579Y152303D01*
D02*
G37*
G36*
X221254Y152374D02*
X220442Y152212D01*
X219753Y151752D01*
X219293Y151063D01*
X219131Y150250D01*
X219293Y149438D01*
X219753Y148749D01*
X220442Y148288D01*
X221254Y148127D01*
X222067Y148288D01*
X222756Y148749D01*
X223216Y149438D01*
X223378Y150250D01*
X223216Y151063D01*
X222756Y151752D01*
X222067Y152212D01*
X221254Y152374D01*
D02*
G37*
G36*
X238099Y151746D02*
X237248Y151577D01*
X236526Y151095D01*
X236044Y150373D01*
X235875Y149522D01*
X236044Y148671D01*
X236526Y147950D01*
X237248Y147468D01*
X238099Y147299D01*
X238950Y147468D01*
X239671Y147950D01*
X240153Y148671D01*
X240322Y149522D01*
X240153Y150373D01*
X239671Y151095D01*
X238950Y151577D01*
X238099Y151746D01*
D02*
G37*
G36*
X206080Y137782D02*
X205229Y137612D01*
X204507Y137130D01*
X204025Y136409D01*
X203856Y135558D01*
X204025Y134707D01*
X204507Y133985D01*
X205229Y133503D01*
X206080Y133334D01*
X206931Y133503D01*
X207652Y133985D01*
X208134Y134707D01*
X208303Y135558D01*
X208134Y136409D01*
X207652Y137130D01*
X206931Y137612D01*
X206080Y137782D01*
D02*
G37*
G36*
X172831Y136003D02*
X171980Y135834D01*
X171258Y135352D01*
X170776Y134631D01*
X170607Y133780D01*
X170776Y132929D01*
X171258Y132207D01*
X171980Y131725D01*
X172831Y131556D01*
X173682Y131725D01*
X174403Y132207D01*
X174885Y132929D01*
X175055Y133780D01*
X174885Y134631D01*
X174403Y135352D01*
X173682Y135834D01*
X172831Y136003D01*
D02*
G37*
G36*
X173972Y141673D02*
X173121Y141503D01*
X172400Y141021D01*
X171918Y140300D01*
X171749Y139449D01*
X171918Y138598D01*
X172400Y137876D01*
X173121Y137394D01*
X173972Y137225D01*
X174823Y137394D01*
X175545Y137876D01*
X176027Y138598D01*
X176196Y139449D01*
X176027Y140300D01*
X175545Y141021D01*
X174823Y141503D01*
X173972Y141673D01*
D02*
G37*
G36*
X175127Y79140D02*
X174276Y78971D01*
X173554Y78489D01*
X173072Y77768D01*
X172903Y76917D01*
X173072Y76066D01*
X173554Y75344D01*
X174276Y74862D01*
X175127Y74693D01*
X175978Y74862D01*
X176699Y75344D01*
X177181Y76066D01*
X177350Y76917D01*
X177181Y77768D01*
X176699Y78489D01*
X175978Y78971D01*
X175127Y79140D01*
D02*
G37*
G36*
X229720Y77027D02*
X228870Y76858D01*
X228148Y76376D01*
X227666Y75654D01*
X227497Y74803D01*
X227666Y73952D01*
X228148Y73231D01*
X228870Y72749D01*
X229720Y72579D01*
X230572Y72749D01*
X231293Y73231D01*
X231775Y73952D01*
X231944Y74803D01*
X231775Y75654D01*
X231293Y76376D01*
X230572Y76858D01*
X229720Y77027D01*
D02*
G37*
G36*
X253500Y77106D02*
X252649Y76936D01*
X251927Y76454D01*
X251445Y75733D01*
X251276Y74882D01*
X251445Y74031D01*
X251927Y73309D01*
X252649Y72827D01*
X253500Y72658D01*
X254351Y72827D01*
X255072Y73309D01*
X255555Y74031D01*
X255724Y74882D01*
X255555Y75733D01*
X255072Y76454D01*
X254351Y76936D01*
X253500Y77106D01*
D02*
G37*
G36*
X296532Y97499D02*
X295243Y97330D01*
X294042Y96832D01*
X293010Y96041D01*
X292219Y95009D01*
X291722Y93809D01*
X291552Y92520D01*
X291722Y91231D01*
X292219Y90030D01*
X293010Y88999D01*
X294042Y88207D01*
X295243Y87710D01*
X296532Y87540D01*
X297820Y87710D01*
X299021Y88207D01*
X300053Y88999D01*
X300844Y90030D01*
X301341Y91231D01*
X301511Y92520D01*
X301341Y93809D01*
X300844Y95009D01*
X300053Y96041D01*
X299021Y96832D01*
X297820Y97330D01*
X296532Y97499D01*
D02*
G37*
G36*
X308539Y79999D02*
X307251Y79830D01*
X306050Y79332D01*
X305018Y78541D01*
X304227Y77509D01*
X303729Y76309D01*
X303560Y75020D01*
X303729Y73731D01*
X304227Y72530D01*
X305018Y71499D01*
X306050Y70707D01*
X307251Y70210D01*
X308539Y70040D01*
X309828Y70210D01*
X311029Y70707D01*
X312060Y71499D01*
X312852Y72530D01*
X313349Y73731D01*
X313519Y75020D01*
X313349Y76309D01*
X312852Y77509D01*
X312060Y78541D01*
X311029Y79332D01*
X309828Y79830D01*
X308539Y79999D01*
D02*
G37*
G36*
X149406Y71830D02*
X148555Y71661D01*
X147833Y71179D01*
X147351Y70457D01*
X147182Y69606D01*
X147351Y68755D01*
X147833Y68034D01*
X148555Y67552D01*
X149406Y67383D01*
X150257Y67552D01*
X150978Y68034D01*
X151460Y68755D01*
X151629Y69606D01*
X151460Y70457D01*
X150978Y71179D01*
X150257Y71661D01*
X149406Y71830D01*
D02*
G37*
G36*
X333776Y78751D02*
X332383Y78614D01*
X331045Y78208D01*
X329811Y77548D01*
X328729Y76661D01*
X327842Y75579D01*
X327182Y74345D01*
X326776Y73006D01*
X326639Y71614D01*
X326776Y70222D01*
X327182Y68883D01*
X327842Y67649D01*
X328729Y66568D01*
X329811Y65680D01*
X331045Y65021D01*
X332383Y64615D01*
X333776Y64477D01*
X335168Y64615D01*
X336507Y65021D01*
X337740Y65680D01*
X338822Y66568D01*
X339710Y67649D01*
X340369Y68883D01*
X340775Y70222D01*
X340912Y71614D01*
X340775Y73006D01*
X340369Y74345D01*
X339710Y75579D01*
X338822Y76661D01*
X337740Y77548D01*
X336507Y78208D01*
X335168Y78614D01*
X333776Y78751D01*
D02*
G37*
G36*
X176728Y71279D02*
X175877Y71110D01*
X175156Y70628D01*
X174674Y69906D01*
X174504Y69055D01*
X174674Y68204D01*
X175156Y67483D01*
X175877Y67001D01*
X176728Y66831D01*
X177579Y67001D01*
X178301Y67483D01*
X178783Y68204D01*
X178952Y69055D01*
X178783Y69906D01*
X178301Y70628D01*
X177579Y71110D01*
X176728Y71279D01*
D02*
G37*
G36*
X280114Y76751D02*
X279263Y76582D01*
X278542Y76100D01*
X278060Y75379D01*
X277890Y74528D01*
X278060Y73677D01*
X278542Y72955D01*
X279263Y72473D01*
X280114Y72304D01*
X280965Y72473D01*
X281687Y72955D01*
X282169Y73677D01*
X282338Y74528D01*
X282169Y75379D01*
X281687Y76100D01*
X280965Y76582D01*
X280114Y76751D01*
D02*
G37*
G36*
X308539Y114999D02*
X307251Y114830D01*
X306050Y114332D01*
X305018Y113541D01*
X304227Y112510D01*
X303729Y111309D01*
X303560Y110020D01*
X303729Y108731D01*
X304227Y107530D01*
X305018Y106499D01*
X306050Y105707D01*
X307251Y105210D01*
X308539Y105040D01*
X309828Y105210D01*
X311029Y105707D01*
X312060Y106499D01*
X312852Y107530D01*
X313349Y108731D01*
X313519Y110020D01*
X313349Y111309D01*
X312852Y112510D01*
X312060Y113541D01*
X311029Y114332D01*
X309828Y114830D01*
X308539Y114999D01*
D02*
G37*
G36*
X277673Y107972D02*
X276822Y107803D01*
X276101Y107320D01*
X275619Y106599D01*
X275449Y105748D01*
X275619Y104897D01*
X276101Y104175D01*
X276822Y103693D01*
X277673Y103524D01*
X278524Y103693D01*
X279246Y104175D01*
X279728Y104897D01*
X279897Y105748D01*
X279728Y106599D01*
X279246Y107320D01*
X278524Y107803D01*
X277673Y107972D01*
D02*
G37*
G36*
X229248Y107854D02*
X228397Y107685D01*
X227676Y107202D01*
X227193Y106481D01*
X227024Y105630D01*
X227193Y104779D01*
X227676Y104057D01*
X228397Y103575D01*
X229248Y103406D01*
X230099Y103575D01*
X230820Y104057D01*
X231303Y104779D01*
X231472Y105630D01*
X231303Y106481D01*
X230820Y107202D01*
X230099Y107685D01*
X229248Y107854D01*
D02*
G37*
G36*
X252988Y107972D02*
X252137Y107803D01*
X251416Y107320D01*
X250934Y106599D01*
X250764Y105748D01*
X250934Y104897D01*
X251416Y104175D01*
X252137Y103693D01*
X252988Y103524D01*
X253839Y103693D01*
X254561Y104175D01*
X255043Y104897D01*
X255212Y105748D01*
X255043Y106599D01*
X254561Y107320D01*
X253839Y107803D01*
X252988Y107972D01*
D02*
G37*
G36*
X162279Y115334D02*
X161428Y115165D01*
X160707Y114683D01*
X160225Y113961D01*
X160056Y113110D01*
X160225Y112259D01*
X160707Y111538D01*
X161428Y111056D01*
X162279Y110886D01*
X163130Y111056D01*
X163852Y111538D01*
X164334Y112259D01*
X164503Y113110D01*
X164334Y113961D01*
X163852Y114683D01*
X163130Y115165D01*
X162279Y115334D01*
D02*
G37*
G36*
X170843Y112664D02*
X169219D01*
X169289Y112313D01*
X169771Y111592D01*
X170492Y111109D01*
X170843Y111040D01*
Y112664D01*
D02*
G37*
G36*
X239524Y93050D02*
X238673Y92881D01*
X237951Y92399D01*
X237469Y91678D01*
X237300Y90827D01*
X237469Y89976D01*
X237951Y89254D01*
X238673Y88772D01*
X239524Y88603D01*
X240375Y88772D01*
X241096Y89254D01*
X241578Y89976D01*
X241747Y90827D01*
X241578Y91678D01*
X241096Y92399D01*
X240375Y92881D01*
X239524Y93050D01*
D02*
G37*
G36*
X264248Y93326D02*
X263397Y93157D01*
X262676Y92675D01*
X262193Y91953D01*
X262024Y91102D01*
X262193Y90251D01*
X262676Y89530D01*
X263397Y89048D01*
X264248Y88879D01*
X265099Y89048D01*
X265821Y89530D01*
X266303Y90251D01*
X266472Y91102D01*
X266303Y91953D01*
X265821Y92675D01*
X265099Y93157D01*
X264248Y93326D01*
D02*
G37*
G36*
X248668Y211379D02*
X247855Y211217D01*
X247166Y210757D01*
X246706Y210068D01*
X246544Y209256D01*
X246706Y208443D01*
X247166Y207754D01*
X247855Y207294D01*
X248668Y207132D01*
X249480Y207294D01*
X250169Y207754D01*
X250629Y208443D01*
X250791Y209256D01*
X250629Y210068D01*
X250169Y210757D01*
X249480Y211217D01*
X248668Y211379D01*
D02*
G37*
G36*
X242248Y211454D02*
X241435Y211293D01*
X240746Y210833D01*
X240286Y210144D01*
X240125Y209331D01*
X240286Y208518D01*
X240746Y207829D01*
X241435Y207369D01*
X242248Y207208D01*
X243061Y207369D01*
X243749Y207829D01*
X244210Y208518D01*
X244371Y209331D01*
X244210Y210144D01*
X243749Y210833D01*
X243061Y211293D01*
X242248Y211454D01*
D02*
G37*
G36*
X235948Y208895D02*
X235135Y208734D01*
X234447Y208274D01*
X234061Y207696D01*
X233901Y207659D01*
X233665D01*
X233505Y207696D01*
X233120Y208274D01*
X232431Y208734D01*
X231618Y208895D01*
X230805Y208734D01*
X230117Y208274D01*
X229730Y207696D01*
X229567Y207658D01*
X229338D01*
X229175Y207696D01*
X228788Y208274D01*
X228100Y208734D01*
X227287Y208895D01*
X226474Y208734D01*
X225785Y208274D01*
X225399Y207696D01*
X225236Y207658D01*
X225007D01*
X224844Y207696D01*
X224458Y208274D01*
X223769Y208734D01*
X222956Y208895D01*
X222143Y208734D01*
X221455Y208274D01*
X221288Y208025D01*
X220687D01*
X220520Y208274D01*
X219832Y208734D01*
X219019Y208895D01*
X218206Y208734D01*
X217517Y208274D01*
X217057Y207585D01*
X216896Y206772D01*
X217057Y205959D01*
X217517Y205271D01*
X217766Y205104D01*
Y204503D01*
X217517Y204337D01*
X217057Y203648D01*
X216896Y202835D01*
X217057Y202022D01*
X217517Y201333D01*
X218095Y200947D01*
X218133Y200784D01*
Y200555D01*
X218095Y200392D01*
X217517Y200006D01*
X217057Y199317D01*
X216896Y198504D01*
X217057Y197691D01*
X217517Y197002D01*
X218095Y196616D01*
X218133Y196453D01*
Y196224D01*
X218095Y196061D01*
X217517Y195675D01*
X217057Y194986D01*
X216896Y194173D01*
X217057Y193360D01*
X217517Y192672D01*
X218206Y192211D01*
X219019Y192050D01*
X219832Y192211D01*
X220520Y192672D01*
X220687Y192920D01*
X221288D01*
X221455Y192672D01*
X222143Y192211D01*
X222956Y192050D01*
X223769Y192211D01*
X224458Y192672D01*
X224844Y193249D01*
X225007Y193287D01*
X225236D01*
X225399Y193249D01*
X225785Y192672D01*
X226474Y192211D01*
X227287Y192050D01*
X228100Y192211D01*
X228788Y192672D01*
X229175Y193249D01*
X229338Y193287D01*
X229567D01*
X229730Y193249D01*
X230117Y192672D01*
X230805Y192211D01*
X231618Y192050D01*
X232431Y192211D01*
X233120Y192672D01*
X233286Y192920D01*
X233887D01*
X234053Y192672D01*
X234742Y192211D01*
X235555Y192050D01*
X236368Y192211D01*
X237056Y192672D01*
X237517Y193360D01*
X237678Y194173D01*
X237517Y194986D01*
X237056Y195675D01*
X236576Y195996D01*
X236681Y196527D01*
X236761Y196542D01*
X237450Y197002D01*
X237910Y197691D01*
X238071Y198504D01*
X237910Y199317D01*
X237450Y200006D01*
X236872Y200392D01*
X236834Y200555D01*
Y200784D01*
X236872Y200947D01*
X237450Y201333D01*
X237910Y202022D01*
X238071Y202835D01*
X237910Y203648D01*
X237450Y204337D01*
X237201Y204503D01*
Y205104D01*
X237450Y205271D01*
X237910Y205959D01*
X238071Y206772D01*
X237910Y207585D01*
X237450Y208274D01*
X236761Y208734D01*
X235948Y208895D01*
D02*
G37*
G36*
X234570Y215391D02*
X233757Y215230D01*
X233068Y214770D01*
X232608Y214081D01*
X232447Y213268D01*
X232608Y212455D01*
X233068Y211767D01*
X233757Y211306D01*
X234570Y211145D01*
X235383Y211306D01*
X236071Y211767D01*
X236532Y212455D01*
X236693Y213268D01*
X236532Y214081D01*
X236071Y214770D01*
X235383Y215230D01*
X234570Y215391D01*
D02*
G37*
G36*
X226500Y216966D02*
X225687Y216805D01*
X224998Y216344D01*
X224538Y215656D01*
X224377Y214843D01*
X224538Y214030D01*
X224998Y213341D01*
X225687Y212881D01*
X226500Y212720D01*
X227313Y212881D01*
X228001Y213341D01*
X228462Y214030D01*
X228623Y214843D01*
X228462Y215656D01*
X228001Y216344D01*
X227313Y216805D01*
X226500Y216966D01*
D02*
G37*
G36*
X125712Y215194D02*
X124899Y215033D01*
X124211Y214573D01*
X123750Y213884D01*
X123589Y213071D01*
X123750Y212258D01*
X124211Y211569D01*
X124899Y211109D01*
X125712Y210948D01*
X126525Y211109D01*
X127214Y211569D01*
X127674Y212258D01*
X127835Y213071D01*
X127674Y213884D01*
X127214Y214573D01*
X126525Y215033D01*
X125712Y215194D01*
D02*
G37*
G36*
X117146Y195857D02*
X116333Y195696D01*
X115645Y195235D01*
X115184Y194546D01*
X115023Y193734D01*
X115184Y192921D01*
X115645Y192232D01*
X116333Y191772D01*
X117146Y191611D01*
X117959Y191772D01*
X118648Y192232D01*
X119108Y192921D01*
X119270Y193734D01*
X119108Y194546D01*
X118648Y195235D01*
X117959Y195696D01*
X117146Y195857D01*
D02*
G37*
G36*
X279156Y195954D02*
X278343Y195792D01*
X277654Y195332D01*
X277194Y194643D01*
X277032Y193831D01*
X277194Y193018D01*
X277654Y192329D01*
X278343Y191869D01*
X279156Y191707D01*
X279968Y191869D01*
X280657Y192329D01*
X281118Y193018D01*
X281279Y193831D01*
X281118Y194643D01*
X280657Y195332D01*
X279968Y195792D01*
X279156Y195954D01*
D02*
G37*
G36*
X263205Y192368D02*
X262392Y192207D01*
X261703Y191747D01*
X261243Y191058D01*
X261082Y190245D01*
X261243Y189433D01*
X261553Y188970D01*
X261252Y188520D01*
X261049Y188560D01*
X260236Y188398D01*
X259576Y187957D01*
X258916Y188398D01*
X258103Y188560D01*
X257291Y188398D01*
X256630Y187957D01*
X255970Y188398D01*
X255158Y188560D01*
X254345Y188398D01*
X253685Y187957D01*
X253025Y188398D01*
X252212Y188560D01*
X251399Y188398D01*
X250711Y187938D01*
X250250Y187249D01*
X250089Y186436D01*
X250250Y185624D01*
X250711Y184935D01*
X251399Y184475D01*
X252212Y184313D01*
X252864Y184443D01*
X253059Y183972D01*
X252816Y183809D01*
X252356Y183120D01*
X252194Y182308D01*
X252356Y181495D01*
X252816Y180806D01*
X253505Y180346D01*
X254317Y180184D01*
X255130Y180346D01*
X255819Y180806D01*
X256279Y181495D01*
X256441Y182308D01*
X256279Y183120D01*
X255819Y183809D01*
X255674Y183906D01*
X255780Y184437D01*
X255970Y184475D01*
X256630Y184916D01*
X257291Y184475D01*
X258103Y184313D01*
X258916Y184475D01*
X259576Y184916D01*
X260236Y184475D01*
X261049Y184313D01*
X261861Y184475D01*
X262550Y184935D01*
X263011Y185624D01*
X263172Y186436D01*
X263011Y187249D01*
X262701Y187712D01*
X263002Y188162D01*
X263205Y188122D01*
X264018Y188283D01*
X264706Y188744D01*
X265167Y189433D01*
X265328Y190245D01*
X265167Y191058D01*
X264706Y191747D01*
X264018Y192207D01*
X263205Y192368D01*
D02*
G37*
G36*
X124538Y193459D02*
X123725Y193297D01*
X123036Y192837D01*
X122576Y192148D01*
X122414Y191335D01*
X122576Y190523D01*
X123036Y189834D01*
X123725Y189374D01*
X124538Y189212D01*
X125350Y189374D01*
X126039Y189834D01*
X126499Y190523D01*
X126661Y191335D01*
X126499Y192148D01*
X126039Y192837D01*
X125350Y193297D01*
X124538Y193459D01*
D02*
G37*
G36*
X248585Y196444D02*
X247773Y196283D01*
X247084Y195823D01*
X246623Y195134D01*
X246462Y194321D01*
X246623Y193509D01*
X247084Y192820D01*
X247773Y192359D01*
X248585Y192198D01*
X249398Y192359D01*
X250087Y192820D01*
X250547Y193509D01*
X250709Y194321D01*
X250547Y195134D01*
X250087Y195823D01*
X249398Y196283D01*
X248585Y196444D01*
D02*
G37*
G36*
X248792Y203767D02*
X247980Y203605D01*
X247291Y203145D01*
X246831Y202456D01*
X246669Y201643D01*
X246831Y200831D01*
X247291Y200142D01*
X247980Y199681D01*
X248792Y199520D01*
X249605Y199681D01*
X250294Y200142D01*
X250754Y200831D01*
X250916Y201643D01*
X250754Y202456D01*
X250294Y203145D01*
X249605Y203605D01*
X248792Y203767D01*
D02*
G37*
G36*
X263107Y216092D02*
X262294Y215931D01*
X261606Y215471D01*
X261145Y214782D01*
X260984Y213969D01*
X261145Y213156D01*
X261606Y212468D01*
X262024Y212188D01*
X262028Y211589D01*
X261613Y211312D01*
X261153Y210623D01*
X260992Y209810D01*
X261153Y208998D01*
X261613Y208309D01*
X261708Y208246D01*
Y207644D01*
X261445Y207468D01*
X260985Y206779D01*
X260823Y205967D01*
X260985Y205154D01*
X261445Y204465D01*
X261883Y204173D01*
X261898Y203581D01*
X261599Y203381D01*
X261139Y202693D01*
X260977Y201880D01*
X261139Y201067D01*
X261599Y200378D01*
X262192Y199983D01*
X262220Y199666D01*
X262218Y199626D01*
X262173Y199439D01*
X261548Y199021D01*
X261088Y198333D01*
X260926Y197520D01*
X261088Y196707D01*
X261548Y196019D01*
X262237Y195558D01*
X263050Y195397D01*
X263862Y195558D01*
X264551Y196019D01*
X265011Y196707D01*
X265173Y197520D01*
X265011Y198333D01*
X264551Y199021D01*
X263959Y199417D01*
X263930Y199734D01*
X263932Y199774D01*
X263977Y199961D01*
X264602Y200378D01*
X265062Y201067D01*
X265224Y201880D01*
X265062Y202693D01*
X264602Y203381D01*
X264164Y203674D01*
X264149Y204266D01*
X264448Y204465D01*
X264908Y205154D01*
X265070Y205967D01*
X264908Y206779D01*
X264448Y207468D01*
X264353Y207532D01*
Y208133D01*
X264616Y208309D01*
X265077Y208998D01*
X265238Y209810D01*
X265077Y210623D01*
X264616Y211312D01*
X264198Y211592D01*
X264194Y212190D01*
X264609Y212468D01*
X265069Y213156D01*
X265230Y213969D01*
X265069Y214782D01*
X264609Y215471D01*
X263920Y215931D01*
X263107Y216092D01*
D02*
G37*
G36*
X117248Y217556D02*
X116435Y217395D01*
X115746Y216934D01*
X115286Y216246D01*
X115125Y215433D01*
X115286Y214620D01*
X115746Y213931D01*
X116435Y213471D01*
X117248Y213310D01*
X118061Y213471D01*
X118749Y213931D01*
X119210Y214620D01*
X119371Y215433D01*
X119210Y216246D01*
X118749Y216934D01*
X118061Y217395D01*
X117248Y217556D01*
D02*
G37*
G36*
X220200Y223855D02*
X219387Y223694D01*
X218699Y223234D01*
X218434Y222838D01*
X217833D01*
X217568Y223234D01*
X216880Y223694D01*
X216067Y223855D01*
X215254Y223694D01*
X214565Y223234D01*
X214105Y222545D01*
X213944Y221732D01*
X214105Y220919D01*
X214565Y220231D01*
X215254Y219770D01*
X216067Y219609D01*
X216880Y219770D01*
X217568Y220231D01*
X217833Y220626D01*
X218434D01*
X218699Y220231D01*
X219387Y219770D01*
X220200Y219609D01*
X221013Y219770D01*
X221702Y220231D01*
X222023Y220711D01*
X222553Y220606D01*
X222569Y220526D01*
X223029Y219837D01*
X223718Y219377D01*
X224531Y219216D01*
X225344Y219377D01*
X226032Y219837D01*
X226493Y220526D01*
X226654Y221339D01*
X226493Y222152D01*
X226032Y222840D01*
X225344Y223301D01*
X224531Y223462D01*
X223718Y223301D01*
X223029Y222840D01*
X222708Y222360D01*
X222178Y222465D01*
X222162Y222545D01*
X221702Y223234D01*
X221013Y223694D01*
X220200Y223855D01*
D02*
G37*
G36*
X136933Y227399D02*
X136120Y227238D01*
X135432Y226778D01*
X134971Y226089D01*
X134810Y225276D01*
X134971Y224463D01*
X135432Y223775D01*
X136120Y223314D01*
X136933Y223153D01*
X137746Y223314D01*
X138435Y223775D01*
X138895Y224463D01*
X139056Y225276D01*
X138895Y226089D01*
X138435Y226778D01*
X137746Y227238D01*
X136933Y227399D01*
D02*
G37*
G36*
X115476Y227005D02*
X114663Y226844D01*
X113974Y226383D01*
X113514Y225695D01*
X113353Y224882D01*
X113514Y224069D01*
X113974Y223380D01*
X114663Y222920D01*
X115476Y222759D01*
X116289Y222920D01*
X116978Y223380D01*
X117438Y224069D01*
X117599Y224882D01*
X117438Y225695D01*
X116978Y226383D01*
X116289Y226844D01*
X115476Y227005D01*
D02*
G37*
G36*
X144807D02*
X143994Y226844D01*
X143306Y226383D01*
X142845Y225695D01*
X142684Y224882D01*
X142845Y224069D01*
X143306Y223380D01*
X143994Y222920D01*
X144807Y222759D01*
X145620Y222920D01*
X146309Y223380D01*
X146769Y224069D01*
X146930Y224882D01*
X146769Y225695D01*
X146309Y226383D01*
X145620Y226844D01*
X144807Y227005D01*
D02*
G37*
G36*
X242248Y228580D02*
X241435Y228419D01*
X240746Y227958D01*
X240580Y227710D01*
X239979D01*
X239812Y227958D01*
X239124Y228419D01*
X238311Y228580D01*
X237498Y228419D01*
X236809Y227958D01*
X236349Y227270D01*
X236188Y226457D01*
X236349Y225644D01*
X236809Y224956D01*
X237498Y224495D01*
X238311Y224334D01*
X239124Y224495D01*
X239812Y224956D01*
X239979Y225204D01*
X240580D01*
X240746Y224956D01*
X241435Y224495D01*
X242248Y224334D01*
X243061Y224495D01*
X243749Y224956D01*
X244210Y225644D01*
X244371Y226457D01*
X244210Y227270D01*
X243749Y227958D01*
X243061Y228419D01*
X242248Y228580D01*
D02*
G37*
G36*
X255396Y228714D02*
X254583Y228553D01*
X254039Y228189D01*
X253591Y227958D01*
X252903Y228419D01*
X252090Y228580D01*
X251277Y228419D01*
X250588Y227958D01*
X250128Y227270D01*
X249967Y226457D01*
X250128Y225644D01*
X250588Y224956D01*
X251277Y224495D01*
X252090Y224334D01*
X252903Y224495D01*
X253591Y224956D01*
X254163Y224910D01*
X254583Y224629D01*
X255396Y224467D01*
X256208Y224629D01*
X256891Y225085D01*
X256980Y224953D01*
X257668Y224492D01*
X258481Y224331D01*
X259294Y224492D01*
X259687Y224755D01*
X260183Y224715D01*
X260283Y224598D01*
X260666Y224024D01*
X261073Y223752D01*
X260797Y223339D01*
X260635Y222526D01*
X260797Y221713D01*
X261257Y221025D01*
X261946Y220564D01*
X262759Y220403D01*
X263572Y220564D01*
X264260Y221025D01*
X264721Y221713D01*
X264882Y222526D01*
X264721Y223339D01*
X264260Y224028D01*
X263853Y224300D01*
X264129Y224713D01*
X264290Y225526D01*
X264129Y226339D01*
X263669Y227027D01*
X262980Y227488D01*
X262167Y227649D01*
X261354Y227488D01*
X260961Y227225D01*
X260465Y227265D01*
X260366Y227382D01*
X259983Y227956D01*
X259294Y228416D01*
X258481Y228578D01*
X257668Y228416D01*
X256986Y227960D01*
X256897Y228092D01*
X256208Y228553D01*
X255396Y228714D01*
D02*
G37*
G36*
X164295Y227596D02*
X163482Y227435D01*
X162794Y226975D01*
X162333Y226286D01*
X162172Y225473D01*
X162333Y224660D01*
X162592Y224273D01*
X162291Y223823D01*
X162129Y223855D01*
X161316Y223694D01*
X160627Y223234D01*
X160167Y222545D01*
X160006Y221732D01*
X160167Y220919D01*
X160627Y220231D01*
X161249Y219815D01*
X161242Y219546D01*
X161166Y219315D01*
X156708D01*
X156318Y219238D01*
X155987Y219017D01*
X155766Y218686D01*
X155688Y218296D01*
Y217154D01*
X155708Y217055D01*
X155708Y216955D01*
X155746Y216862D01*
X155766Y216764D01*
X155822Y216680D01*
X155860Y216587D01*
X155916Y216532D01*
X156241Y216045D01*
X156324Y215630D01*
X156241Y215215D01*
X155916Y214728D01*
X155860Y214672D01*
X155822Y214580D01*
X155766Y214496D01*
X155746Y214398D01*
X155745Y214394D01*
X153952D01*
X153562Y214317D01*
X153231Y214096D01*
X153010Y213765D01*
X152932Y213375D01*
Y198728D01*
X152546Y198411D01*
X152287Y198462D01*
X151474Y198301D01*
X150786Y197840D01*
X150325Y197152D01*
X150164Y196339D01*
X150182Y196245D01*
X149757Y195819D01*
X149334Y195903D01*
X148666Y195771D01*
X148321Y196023D01*
X148231Y196150D01*
X148308Y196536D01*
X148147Y197349D01*
X147704Y198012D01*
X148147Y198675D01*
X148308Y199488D01*
X148147Y200301D01*
X147687Y200990D01*
X146998Y201450D01*
X146185Y201611D01*
X145372Y201450D01*
X144684Y200990D01*
X144223Y200301D01*
X144062Y199488D01*
X144223Y198675D01*
X144667Y198012D01*
X144223Y197349D01*
X144062Y196536D01*
X144223Y195723D01*
X144535Y195256D01*
X144223Y194790D01*
X144062Y193977D01*
X144170Y193431D01*
X143724Y193132D01*
X143371Y193368D01*
X143028Y193754D01*
X143189Y194567D01*
X143028Y195380D01*
X142568Y196069D01*
X141879Y196529D01*
X141066Y196690D01*
X140253Y196529D01*
X139565Y196069D01*
X139104Y195380D01*
X138943Y194567D01*
X139039Y194083D01*
X138860Y193987D01*
X138416Y194316D01*
X138465Y194567D01*
X138304Y195380D01*
X137844Y196069D01*
X137155Y196529D01*
X136342Y196690D01*
X135529Y196529D01*
X134841Y196069D01*
X134380Y195380D01*
X134219Y194567D01*
X134321Y194052D01*
X133905Y193635D01*
X133389Y193737D01*
X132576Y193576D01*
X132028Y193811D01*
X131961Y194147D01*
X131501Y194836D01*
X130812Y195296D01*
X129999Y195458D01*
X129187Y195296D01*
X128498Y194836D01*
X128038Y194147D01*
X127876Y193334D01*
X128038Y192522D01*
X128498Y191833D01*
X129187Y191373D01*
X129999Y191211D01*
X130812Y191373D01*
X131360Y191138D01*
X131427Y190801D01*
X131887Y190112D01*
X132576Y189652D01*
X133389Y189491D01*
X134202Y189652D01*
X134865Y190096D01*
X135529Y189652D01*
X136342Y189491D01*
X137155Y189652D01*
X137819Y190096D01*
X138482Y189652D01*
X139295Y189491D01*
X140108Y189652D01*
X140771Y190096D01*
X141435Y189652D01*
X142248Y189491D01*
X143061Y189652D01*
X143724Y190095D01*
X144387Y189652D01*
X145200Y189491D01*
X146013Y189652D01*
X146286Y189835D01*
X146646Y189474D01*
X146538Y189313D01*
X146377Y188500D01*
X146538Y187687D01*
X146999Y186998D01*
X147687Y186538D01*
X148500Y186377D01*
X149313Y186538D01*
X150002Y186998D01*
X150135Y187199D01*
X150293Y187093D01*
X151106Y186932D01*
X151919Y187093D01*
X152608Y187554D01*
X153068Y188242D01*
X153229Y189055D01*
X153068Y189868D01*
X152756Y190334D01*
X153068Y190801D01*
X153083Y190876D01*
X153562Y191158D01*
X153952Y191080D01*
X155706D01*
X155788Y191096D01*
X155842Y191091D01*
X155868Y191100D01*
X155905D01*
X155934Y191105D01*
X156027Y191144D01*
X156096Y191158D01*
X156132Y191182D01*
X156222Y191209D01*
X156258Y191240D01*
X156301Y191258D01*
X156691Y191490D01*
X157379Y191030D01*
X158192Y190869D01*
X159005Y191030D01*
X159694Y191490D01*
X160090Y191297D01*
X160221Y191243D01*
X160345Y191174D01*
X160403Y191167D01*
X160458Y191145D01*
X160599D01*
X160715Y191131D01*
X160874Y191100D01*
X160974D01*
X161073Y191080D01*
X161338D01*
X161372Y190998D01*
X161428Y190942D01*
X161753Y190455D01*
X161836Y190040D01*
X161753Y189625D01*
X161428Y189138D01*
X161372Y189083D01*
X161334Y188990D01*
X161278Y188906D01*
X161258Y188808D01*
X161220Y188715D01*
X161220Y188615D01*
X161200Y188516D01*
Y187769D01*
X161278Y187378D01*
X161499Y187048D01*
X161830Y186827D01*
X162220Y186749D01*
X179999D01*
X180150Y186249D01*
X180116Y186226D01*
X179656Y185538D01*
X179495Y184725D01*
X179656Y183912D01*
X180116Y183223D01*
X180805Y182763D01*
X181618Y182602D01*
X182431Y182763D01*
X183119Y183223D01*
X183580Y183912D01*
X183741Y184725D01*
X183580Y185538D01*
X183119Y186226D01*
X183086Y186249D01*
X183238Y186749D01*
X185578D01*
X185656Y186508D01*
X185661Y186249D01*
X185038Y185833D01*
X184577Y185144D01*
X184416Y184331D01*
X184577Y183518D01*
X185038Y182829D01*
X185726Y182369D01*
X186539Y182208D01*
X187352Y182369D01*
X188040Y182829D01*
X188501Y183518D01*
X188662Y184331D01*
X188501Y185144D01*
X188040Y185833D01*
X187417Y186249D01*
X187422Y186508D01*
X187500Y186749D01*
X189095D01*
X189444Y186249D01*
X189337Y185709D01*
X189498Y184896D01*
X189959Y184207D01*
X190647Y183747D01*
X190714Y183734D01*
X190944Y183178D01*
X190679Y182782D01*
X190518Y181969D01*
X190679Y181156D01*
X191139Y180467D01*
X191828Y180007D01*
X192641Y179846D01*
X193454Y180007D01*
X194019Y180385D01*
X194584Y180007D01*
X195397Y179846D01*
X196210Y180007D01*
X196775Y180385D01*
X197340Y180007D01*
X198153Y179846D01*
X198966Y180007D01*
X199531Y180385D01*
X200096Y180007D01*
X200909Y179846D01*
X201722Y180007D01*
X202411Y180467D01*
X202871Y181156D01*
X203032Y181969D01*
X202871Y182782D01*
X202735Y182985D01*
X203035Y183435D01*
X203271Y183389D01*
X204084Y183550D01*
X204772Y184011D01*
X205233Y184699D01*
X205394Y185512D01*
X205233Y186325D01*
X204772Y187013D01*
X204323Y187314D01*
X204518Y187785D01*
X204846Y187720D01*
X205659Y187881D01*
X206347Y188341D01*
X206808Y189030D01*
X206969Y189843D01*
X206956Y189912D01*
X207628Y190046D01*
X208316Y190506D01*
X208777Y191195D01*
X208938Y192008D01*
X208777Y192821D01*
X208316Y193509D01*
X207628Y193970D01*
X206815Y194131D01*
X206002Y193970D01*
X205313Y193509D01*
X204853Y192821D01*
X204692Y192008D01*
X204705Y191938D01*
X204033Y191805D01*
X203370Y191362D01*
X203297Y191411D01*
X202484Y191572D01*
X201671Y191411D01*
X201106Y191033D01*
X200541Y191411D01*
X199728Y191572D01*
X199090Y191446D01*
X198934Y192231D01*
X198474Y192920D01*
X197785Y193380D01*
X196972Y193541D01*
X196720Y193749D01*
Y195721D01*
X197106Y196038D01*
X197366Y195987D01*
X198179Y196148D01*
X198744Y196526D01*
X199309Y196148D01*
X200122Y195987D01*
X200935Y196148D01*
X201500Y196526D01*
X202065Y196148D01*
X202878Y195987D01*
X203691Y196148D01*
X204256Y196526D01*
X204820Y196148D01*
X205633Y195987D01*
X206446Y196148D01*
X207135Y196608D01*
X207595Y197297D01*
X207731Y197981D01*
X208415Y198117D01*
X209103Y198577D01*
X209564Y199266D01*
X209725Y200079D01*
X209564Y200892D01*
X209103Y201581D01*
X208415Y202041D01*
X207602Y202202D01*
X206789Y202041D01*
X206101Y201581D01*
X205640Y200892D01*
X205504Y200208D01*
X204820Y200072D01*
X204256Y199694D01*
X203691Y200072D01*
X202878Y200233D01*
X202065Y200072D01*
X201500Y199694D01*
X200935Y200072D01*
X200122Y200233D01*
X199309Y200072D01*
X198744Y199694D01*
X198179Y200072D01*
X197366Y200233D01*
X197106Y200182D01*
X196720Y200499D01*
Y200600D01*
X196733Y200670D01*
X196720Y200740D01*
Y210311D01*
X197220Y210661D01*
X197759Y210554D01*
X198572Y210715D01*
X199137Y211093D01*
X199702Y210715D01*
X200515Y210554D01*
X201328Y210715D01*
X201893Y211093D01*
X202458Y210715D01*
X203271Y210554D01*
X204084Y210715D01*
X204649Y211093D01*
X205214Y210715D01*
X206027Y210554D01*
X206840Y210715D01*
X207405Y211093D01*
X207970Y210715D01*
X208783Y210554D01*
X209596Y210715D01*
X210254Y211155D01*
X210380Y211120D01*
X210718Y210924D01*
X210597Y210315D01*
X210758Y209502D01*
X211219Y208814D01*
X211907Y208353D01*
X212720Y208192D01*
X213533Y208353D01*
X214222Y208814D01*
X214682Y209502D01*
X214843Y210315D01*
X214682Y211128D01*
X214222Y211817D01*
X213533Y212277D01*
X212720Y212438D01*
X211907Y212277D01*
X211249Y211837D01*
X211123Y211872D01*
X210785Y212068D01*
X210906Y212677D01*
X210745Y213490D01*
X210284Y214178D01*
X209596Y214639D01*
X208783Y214800D01*
X207970Y214639D01*
X207405Y214261D01*
X206840Y214639D01*
X206027Y214800D01*
X205214Y214639D01*
X204649Y214261D01*
X204084Y214639D01*
X203271Y214800D01*
X202458Y214639D01*
X201893Y214261D01*
X201328Y214639D01*
X200515Y214800D01*
X199702Y214639D01*
X199137Y214261D01*
X198572Y214639D01*
X197759Y214800D01*
X196946Y214639D01*
X196642Y214435D01*
X196541Y214465D01*
X196474Y214531D01*
X196421Y214610D01*
X196333Y214669D01*
X196257Y214743D01*
X196226Y214892D01*
X196572Y215408D01*
X196733Y216221D01*
X196572Y217034D01*
X196112Y217723D01*
X195423Y218183D01*
X194610Y218344D01*
X194329Y218289D01*
X194008Y218686D01*
X193925Y218810D01*
X193854Y218942D01*
X193815Y218974D01*
X193787Y219017D01*
X193663Y219100D01*
X193547Y219195D01*
X193499Y219210D01*
X193456Y219238D01*
X193309Y219267D01*
X193166Y219310D01*
X193116Y219305D01*
X193066Y219315D01*
X188159D01*
X188007Y219815D01*
X188040Y219837D01*
X188501Y220526D01*
X188662Y221339D01*
X188501Y222152D01*
X188040Y222840D01*
X187352Y223301D01*
X186539Y223462D01*
X185726Y223301D01*
X185038Y222840D01*
X184719Y222364D01*
X184202Y222710D01*
X183389Y222871D01*
X182576Y222710D01*
X182240Y222485D01*
X182134Y222643D01*
X181446Y223104D01*
X180633Y223265D01*
X179820Y223104D01*
X179327Y222774D01*
X179131Y222643D01*
X178580Y222718D01*
X178297Y222907D01*
X177484Y223068D01*
X176671Y222907D01*
X176160Y222565D01*
X175811Y222486D01*
X175461Y222565D01*
X174950Y222907D01*
X174137Y223068D01*
X173324Y222907D01*
X172635Y222446D01*
X172175Y221758D01*
X172014Y220945D01*
X172175Y220132D01*
X172387Y219815D01*
X172120Y219315D01*
X171671D01*
X171622Y219305D01*
X171572Y219310D01*
X171428Y219267D01*
X171281Y219238D01*
X171239Y219210D01*
X171191Y219195D01*
X171148Y219160D01*
X170718Y218903D01*
X170029Y219364D01*
X169216Y219525D01*
X168403Y219364D01*
X167715Y218903D01*
X167429Y219074D01*
X167264Y219313D01*
X167338Y219688D01*
X167635Y220132D01*
X167796Y220945D01*
X167635Y221758D01*
X167174Y222446D01*
X166486Y222907D01*
X165673Y223068D01*
X164860Y222907D01*
X164545Y222696D01*
X164100Y222548D01*
X163904Y222824D01*
X163832Y222932D01*
X164133Y223382D01*
X164295Y223350D01*
X165108Y223511D01*
X165796Y223972D01*
X166257Y224660D01*
X166418Y225473D01*
X166257Y226286D01*
X165796Y226975D01*
X165108Y227435D01*
X164295Y227596D01*
D02*
G37*
G36*
X158586Y227793D02*
X157773Y227632D01*
X157085Y227171D01*
X156754Y226677D01*
X156202Y226633D01*
X156175Y226642D01*
X155954Y226975D01*
X155265Y227435D01*
X154452Y227596D01*
X153639Y227435D01*
X152951Y226975D01*
X152490Y226286D01*
X152329Y225473D01*
X152490Y224660D01*
X152951Y223972D01*
X153639Y223511D01*
X154452Y223350D01*
X155265Y223511D01*
X155954Y223972D01*
X156284Y224466D01*
X156836Y224510D01*
X156863Y224501D01*
X157085Y224168D01*
X157773Y223708D01*
X158586Y223547D01*
X159399Y223708D01*
X160088Y224168D01*
X160548Y224857D01*
X160709Y225670D01*
X160548Y226483D01*
X160088Y227171D01*
X159399Y227632D01*
X158586Y227793D01*
D02*
G37*
G36*
X144413Y220312D02*
X143600Y220151D01*
X142912Y219690D01*
X142451Y219002D01*
X142290Y218189D01*
X142451Y217376D01*
X142912Y216687D01*
X143600Y216227D01*
X144413Y216066D01*
X145226Y216227D01*
X145914Y216687D01*
X146375Y217376D01*
X146536Y218189D01*
X146375Y219002D01*
X145914Y219690D01*
X145226Y220151D01*
X144413Y220312D01*
D02*
G37*
G36*
X130633Y221100D02*
X129820Y220939D01*
X129131Y220479D01*
X128671Y219790D01*
X128510Y218977D01*
X128671Y218164D01*
X129131Y217476D01*
X129820Y217015D01*
X130633Y216854D01*
X131446Y217015D01*
X132134Y217476D01*
X132595Y218164D01*
X132756Y218977D01*
X132595Y219790D01*
X132134Y220479D01*
X131446Y220939D01*
X130633Y221100D01*
D02*
G37*
G36*
X217444Y217753D02*
X216631Y217592D01*
X215943Y217131D01*
X215482Y216443D01*
X215321Y215630D01*
X215482Y214817D01*
X215943Y214128D01*
X216631Y213668D01*
X217444Y213507D01*
X218257Y213668D01*
X218946Y214128D01*
X219406Y214817D01*
X219567Y215630D01*
X219406Y216443D01*
X218946Y217131D01*
X218257Y217592D01*
X217444Y217753D01*
D02*
G37*
G36*
X139689Y221493D02*
X138876Y221332D01*
X138188Y220871D01*
X137727Y220183D01*
X137566Y219370D01*
X137727Y218557D01*
X138188Y217868D01*
X138876Y217408D01*
X139689Y217247D01*
X140502Y217408D01*
X141191Y217868D01*
X141651Y218557D01*
X141812Y219370D01*
X141651Y220183D01*
X141191Y220871D01*
X140502Y221332D01*
X139689Y221493D01*
D02*
G37*
G36*
X122563Y224446D02*
X121750Y224285D01*
X121062Y223825D01*
X120601Y223136D01*
X120440Y222323D01*
X120601Y221510D01*
X121062Y220821D01*
X121750Y220361D01*
X122563Y220200D01*
X123376Y220361D01*
X124065Y220821D01*
X124525Y221510D01*
X124686Y222323D01*
X124525Y223136D01*
X124065Y223825D01*
X123376Y224285D01*
X122563Y224446D01*
D02*
G37*
G36*
X129255Y226808D02*
X128442Y226647D01*
X127753Y226186D01*
X127293Y225498D01*
X127132Y224685D01*
X127293Y223872D01*
X127753Y223183D01*
X128442Y222723D01*
X129255Y222562D01*
X130068Y222723D01*
X130756Y223183D01*
X131217Y223872D01*
X131378Y224685D01*
X131217Y225498D01*
X130756Y226186D01*
X130068Y226647D01*
X129255Y226808D01*
D02*
G37*
G36*
X242248Y221690D02*
X241435Y221529D01*
X240746Y221069D01*
X240286Y220380D01*
X240125Y219567D01*
X240286Y218754D01*
X240746Y218066D01*
X241435Y217605D01*
X242248Y217444D01*
X243061Y217605D01*
X243749Y218066D01*
X244210Y218754D01*
X244371Y219567D01*
X244210Y220380D01*
X243749Y221069D01*
X243061Y221529D01*
X242248Y221690D01*
D02*
G37*
G36*
X234767Y223659D02*
X233954Y223498D01*
X233265Y223038D01*
X232805Y222349D01*
X232644Y221536D01*
X232805Y220723D01*
X233265Y220035D01*
X233954Y219574D01*
X234767Y219413D01*
X235580Y219574D01*
X236268Y220035D01*
X236729Y220723D01*
X236890Y221536D01*
X236729Y222349D01*
X236268Y223038D01*
X235580Y223498D01*
X234767Y223659D01*
D02*
G37*
G36*
X212917Y192753D02*
X212104Y192592D01*
X211416Y192131D01*
X210955Y191443D01*
X210794Y190630D01*
X210955Y189817D01*
X211416Y189128D01*
X212104Y188668D01*
X212917Y188507D01*
X213730Y188668D01*
X214419Y189128D01*
X214879Y189817D01*
X215040Y190630D01*
X214879Y191443D01*
X214419Y192131D01*
X213730Y192592D01*
X212917Y192753D01*
D02*
G37*
G36*
X218791Y165932D02*
X217979Y165771D01*
X217290Y165311D01*
X216829Y164622D01*
X216668Y163809D01*
X216829Y162996D01*
X217290Y162308D01*
X217611Y162092D01*
Y161491D01*
X217253Y161252D01*
X216988Y160855D01*
X216387D01*
X216157Y161199D01*
X215468Y161659D01*
X214655Y161821D01*
X213843Y161659D01*
X213154Y161199D01*
X212694Y160510D01*
X212532Y159698D01*
X212694Y158885D01*
X213154Y158196D01*
X213843Y157736D01*
X214655Y157574D01*
X215468Y157736D01*
X216157Y158196D01*
X216422Y158593D01*
X217023D01*
X217253Y158249D01*
X217942Y157788D01*
X218754Y157627D01*
X219567Y157788D01*
X220256Y158249D01*
X220716Y158938D01*
X220878Y159750D01*
X220716Y160563D01*
X220256Y161252D01*
X219934Y161467D01*
Y162068D01*
X220293Y162308D01*
X220753Y162996D01*
X220915Y163809D01*
X220753Y164622D01*
X220293Y165311D01*
X219604Y165771D01*
X218791Y165932D01*
D02*
G37*
G36*
X184500Y165724D02*
X183649Y165554D01*
X182928Y165073D01*
X182446Y164351D01*
X182276Y163500D01*
X182446Y162649D01*
X182928Y161927D01*
X183649Y161445D01*
X184500Y161276D01*
X185351Y161445D01*
X186073Y161927D01*
X186555Y162649D01*
X186724Y163500D01*
X186555Y164351D01*
X186073Y165073D01*
X185351Y165554D01*
X184500Y165724D01*
D02*
G37*
G36*
X192045Y170681D02*
X191233Y170519D01*
X190544Y170059D01*
X190084Y169370D01*
X189922Y168557D01*
X190084Y167745D01*
X190544Y167056D01*
X191233Y166595D01*
X192045Y166434D01*
X192858Y166595D01*
X193547Y167056D01*
X194007Y167745D01*
X194169Y168557D01*
X194007Y169370D01*
X193547Y170059D01*
X192858Y170519D01*
X192045Y170681D01*
D02*
G37*
G36*
X216254Y155874D02*
X215442Y155712D01*
X214753Y155252D01*
X214293Y154563D01*
X214131Y153750D01*
X214293Y152938D01*
X214753Y152249D01*
X215442Y151788D01*
X216254Y151627D01*
X217067Y151788D01*
X217756Y152249D01*
X218216Y152938D01*
X218378Y153750D01*
X218216Y154563D01*
X217756Y155252D01*
X217067Y155712D01*
X216254Y155874D01*
D02*
G37*
G36*
X294091Y156633D02*
X293240Y156464D01*
X292518Y155982D01*
X292036Y155260D01*
X291867Y154409D01*
X292036Y153558D01*
X292518Y152837D01*
X293240Y152355D01*
X294091Y152186D01*
X294942Y152355D01*
X295663Y152837D01*
X296145Y153558D01*
X296314Y154409D01*
X296145Y155260D01*
X295663Y155982D01*
X294942Y156464D01*
X294091Y156633D01*
D02*
G37*
G36*
X275803Y153542D02*
X274953Y153372D01*
X274231Y152890D01*
X273749Y152169D01*
X273580Y151318D01*
X273749Y150467D01*
X274231Y149745D01*
X274953Y149263D01*
X275803Y149094D01*
X276655Y149263D01*
X277376Y149745D01*
X277858Y150467D01*
X278027Y151318D01*
X277858Y152169D01*
X277376Y152890D01*
X276655Y153372D01*
X275803Y153542D01*
D02*
G37*
G36*
X258447Y159925D02*
X257596Y159756D01*
X256875Y159274D01*
X256393Y158553D01*
X256224Y157702D01*
X256393Y156851D01*
X256875Y156129D01*
X257596Y155647D01*
X258447Y155478D01*
X259298Y155647D01*
X260020Y156129D01*
X260502Y156851D01*
X260671Y157702D01*
X260502Y158553D01*
X260020Y159274D01*
X259298Y159756D01*
X258447Y159925D01*
D02*
G37*
G36*
X199397Y160624D02*
X198546Y160454D01*
X197824Y159973D01*
X197342Y159251D01*
X197173Y158400D01*
X197342Y157549D01*
X197824Y156827D01*
X198546Y156345D01*
X199397Y156176D01*
X200248Y156345D01*
X200969Y156827D01*
X201451Y157549D01*
X201620Y158400D01*
X201451Y159251D01*
X200969Y159973D01*
X200248Y160454D01*
X199397Y160624D01*
D02*
G37*
G36*
X227481Y174756D02*
X226669Y174594D01*
X225980Y174134D01*
X225519Y173445D01*
X225358Y172632D01*
X225519Y171819D01*
X225980Y171131D01*
X226338Y170891D01*
Y170290D01*
X225992Y170059D01*
X225532Y169370D01*
X225370Y168557D01*
X225532Y167745D01*
X225992Y167056D01*
X226681Y166595D01*
X227493Y166434D01*
X228306Y166595D01*
X228995Y167056D01*
X229455Y167745D01*
X229617Y168557D01*
X229455Y169370D01*
X228995Y170059D01*
X228637Y170298D01*
Y170899D01*
X228983Y171131D01*
X229443Y171819D01*
X229605Y172632D01*
X229443Y173445D01*
X228983Y174134D01*
X228294Y174594D01*
X227481Y174756D01*
D02*
G37*
G36*
X219019Y184285D02*
X218283Y184138D01*
X217659Y183722D01*
X217243Y183098D01*
X217096Y182362D01*
X217243Y181626D01*
X217659Y181002D01*
X218283Y180586D01*
X219019Y180439D01*
X219755Y180586D01*
X220378Y181002D01*
X220795Y181626D01*
X220942Y182362D01*
X220795Y183098D01*
X220378Y183722D01*
X219755Y184138D01*
X219019Y184285D01*
D02*
G37*
G36*
X263901Y181926D02*
X263088Y181765D01*
X262400Y181305D01*
X261939Y180616D01*
X261414Y180540D01*
X261247Y180790D01*
X260558Y181250D01*
X259746Y181412D01*
X258933Y181250D01*
X258244Y180790D01*
X257784Y180101D01*
X257622Y179288D01*
X257694Y178929D01*
X257784Y178476D01*
X258244Y177787D01*
X258933Y177326D01*
X259746Y177165D01*
X260558Y177326D01*
X261247Y177787D01*
X261708Y178476D01*
X262232Y178551D01*
X262400Y178302D01*
X263088Y177841D01*
X263901Y177680D01*
X264714Y177841D01*
X265403Y178302D01*
X265822Y178929D01*
X265863Y178990D01*
X266024Y179803D01*
X265863Y180616D01*
X265403Y181305D01*
X264714Y181765D01*
X263901Y181926D01*
D02*
G37*
G36*
X236548Y182308D02*
X235830Y182090D01*
X235250Y181614D01*
X234896Y180953D01*
X234823Y180206D01*
X235040Y179488D01*
X235516Y178908D01*
X236177Y178554D01*
X236924Y178481D01*
X237642Y178698D01*
X237923Y178929D01*
X238222Y179174D01*
X238576Y179835D01*
X238650Y180582D01*
X238432Y181300D01*
X237956Y181880D01*
X237295Y182234D01*
X236548Y182308D01*
D02*
G37*
G36*
X165279Y185667D02*
X164466Y185506D01*
X163777Y185046D01*
X163317Y184357D01*
X163255Y184042D01*
X162694Y183931D01*
X162005Y183470D01*
X161545Y182782D01*
X161384Y181969D01*
X161545Y181156D01*
X162005Y180467D01*
X162694Y180007D01*
X163507Y179846D01*
X164320Y180007D01*
X164876Y180379D01*
X165491Y180358D01*
X165550Y180271D01*
X166238Y179810D01*
X167051Y179649D01*
X167864Y179810D01*
X168552Y180271D01*
X169013Y180959D01*
X169174Y181772D01*
X169013Y182585D01*
X168552Y183273D01*
X167864Y183734D01*
X167344Y183837D01*
X167241Y184357D01*
X166780Y185046D01*
X166092Y185506D01*
X165279Y185667D01*
D02*
G37*
G36*
X152090Y186257D02*
X151277Y186096D01*
X150589Y185635D01*
X150128Y184947D01*
X149967Y184134D01*
X150128Y183321D01*
X150589Y182633D01*
X151277Y182172D01*
X152090Y182011D01*
X152903Y182172D01*
X153299Y182437D01*
X153855Y182207D01*
X153868Y182140D01*
X154329Y181451D01*
X155017Y180991D01*
X155830Y180830D01*
X156643Y180991D01*
X157332Y181451D01*
X157792Y182140D01*
X157953Y182953D01*
X157792Y183766D01*
X157332Y184455D01*
X156643Y184915D01*
X155830Y185076D01*
X155017Y184915D01*
X154621Y184650D01*
X154065Y184880D01*
X154052Y184947D01*
X153592Y185635D01*
X152903Y186096D01*
X152090Y186257D01*
D02*
G37*
G36*
X276500Y182123D02*
X275687Y181962D01*
X274998Y181501D01*
X274446Y181575D01*
X274163Y181765D01*
X273350Y181926D01*
X272537Y181765D01*
X271849Y181305D01*
X271584Y180908D01*
X270982D01*
X270718Y181305D01*
X270029Y181765D01*
X269216Y181926D01*
X268403Y181765D01*
X267715Y181305D01*
X267254Y180616D01*
X267093Y179803D01*
X267254Y178990D01*
X267295Y178929D01*
X267371Y178816D01*
X267715Y178302D01*
X268403Y177841D01*
X268887Y177745D01*
X269216Y177680D01*
X270029Y177841D01*
X270718Y178302D01*
X270999Y178723D01*
X271567D01*
X271849Y178302D01*
X272537Y177841D01*
X273350Y177680D01*
X274163Y177841D01*
X274851Y178302D01*
X275404Y178228D01*
X275687Y178038D01*
X276500Y177877D01*
X277313Y178038D01*
X278001Y178498D01*
X278152Y178723D01*
X278462Y179187D01*
X278623Y180000D01*
X278462Y180813D01*
X278001Y181501D01*
X277313Y181962D01*
X276500Y182123D01*
D02*
G37*
G36*
X267086Y186848D02*
X266274Y186687D01*
X265585Y186226D01*
X265125Y185538D01*
X264963Y184725D01*
X265125Y183912D01*
X265585Y183223D01*
X266274Y182763D01*
X267086Y182602D01*
X267899Y182763D01*
X268588Y183223D01*
X269048Y183912D01*
X269210Y184725D01*
X269048Y185538D01*
X268588Y186226D01*
X267899Y186687D01*
X267086Y186848D01*
D02*
G37*
G36*
X231618Y182317D02*
X230882Y182170D01*
X230258Y181754D01*
X229842Y181130D01*
X229695Y180394D01*
X229842Y179658D01*
X230258Y179034D01*
X230882Y178618D01*
X231618Y178471D01*
X232354Y178618D01*
X232820Y178929D01*
X232978Y179034D01*
X233394Y179658D01*
X233541Y180394D01*
X233394Y181130D01*
X232978Y181754D01*
X232354Y182170D01*
X231618Y182317D01*
D02*
G37*
G36*
X195330Y174756D02*
X194518Y174594D01*
X193829Y174134D01*
X193368Y173445D01*
X193207Y172632D01*
X193368Y171819D01*
X193829Y171131D01*
X194518Y170670D01*
X195330Y170509D01*
X196143Y170670D01*
X196832Y171131D01*
X197292Y171819D01*
X197454Y172632D01*
X197292Y173445D01*
X196832Y174134D01*
X196143Y174594D01*
X195330Y174756D01*
D02*
G37*
G36*
X250567Y175287D02*
X249716Y175118D01*
X248995Y174636D01*
X248513Y173914D01*
X248343Y173063D01*
X248513Y172212D01*
X248995Y171491D01*
X249716Y171008D01*
X250567Y170839D01*
X251418Y171008D01*
X252140Y171491D01*
X252622Y172212D01*
X252791Y173063D01*
X252622Y173914D01*
X252140Y174636D01*
X251418Y175118D01*
X250567Y175287D01*
D02*
G37*
G36*
X161845Y174756D02*
X161032Y174594D01*
X160343Y174134D01*
X159883Y173445D01*
X159721Y172632D01*
X159883Y171819D01*
X160343Y171131D01*
X161032Y170670D01*
X161845Y170509D01*
X162657Y170670D01*
X163346Y171131D01*
X163807Y171819D01*
X163968Y172632D01*
X163807Y173445D01*
X163346Y174134D01*
X162657Y174594D01*
X161845Y174756D01*
D02*
G37*
G36*
X226893Y182317D02*
X226157Y182170D01*
X225533Y181754D01*
X225117Y181130D01*
X224970Y180394D01*
X225117Y179658D01*
X225533Y179034D01*
X226157Y178618D01*
X226893Y178471D01*
X227629Y178618D01*
X228095Y178929D01*
X228253Y179034D01*
X228669Y179658D01*
X228816Y180394D01*
X228669Y181130D01*
X228253Y181754D01*
X227629Y182170D01*
X226893Y182317D01*
D02*
G37*
G36*
X242641Y186254D02*
X241905Y186107D01*
X241281Y185691D01*
X240865Y185067D01*
X240718Y184331D01*
X240865Y183595D01*
X241281Y182972D01*
X241534Y182802D01*
X241494Y182538D01*
X241384Y182302D01*
X240724Y182170D01*
X240101Y181754D01*
X239684Y181130D01*
X239537Y180394D01*
X239684Y179658D01*
X240101Y179034D01*
X240724Y178618D01*
X241460Y178471D01*
X242196Y178618D01*
X242662Y178929D01*
X242772Y179002D01*
X243109Y178498D01*
X243797Y178038D01*
X244610Y177877D01*
X245423Y178038D01*
X246111Y178498D01*
X246262Y178723D01*
X246572Y179187D01*
X246733Y180000D01*
X246572Y180813D01*
X246468Y180967D01*
X246899Y181254D01*
X247359Y181943D01*
X247520Y182756D01*
X247359Y183569D01*
X246899Y184257D01*
X246210Y184718D01*
X245397Y184879D01*
X244584Y184718D01*
X244425Y185028D01*
X244417Y185067D01*
X244001Y185691D01*
X243377Y186107D01*
X242641Y186254D01*
D02*
G37*
%LPD*%
G36*
X193218Y217796D02*
X193108Y217723D01*
X192648Y217034D01*
X192487Y216221D01*
X192648Y215408D01*
X193108Y214720D01*
X193797Y214259D01*
X194610Y214098D01*
X195200Y214215D01*
X195700Y213889D01*
Y187769D01*
X162220D01*
Y188516D01*
X162253Y188539D01*
X162714Y189227D01*
X162875Y190040D01*
X162714Y190853D01*
X162253Y191542D01*
X162220Y191564D01*
Y192100D01*
X161073D01*
X160752Y192163D01*
X160657Y192145D01*
X160295Y192451D01*
X160237Y192600D01*
X160315Y192992D01*
X160154Y193805D01*
X159694Y194493D01*
X159005Y194954D01*
X158192Y195115D01*
X157379Y194954D01*
X156691Y194493D01*
X156230Y193805D01*
X156069Y192992D01*
X156136Y192651D01*
X156121Y192582D01*
X155735Y192105D01*
X155706Y192100D01*
X153952D01*
Y213375D01*
X156708D01*
Y214106D01*
X156741Y214128D01*
X157202Y214817D01*
X157363Y215630D01*
X157202Y216443D01*
X156741Y217131D01*
X156708Y217154D01*
Y218296D01*
X166761D01*
X167171Y217796D01*
X167093Y217402D01*
X167254Y216589D01*
X167715Y215900D01*
X168403Y215440D01*
X169216Y215279D01*
X170029Y215440D01*
X170718Y215900D01*
X171178Y216589D01*
X171339Y217402D01*
X171261Y217796D01*
X171671Y218296D01*
X193066D01*
X193218Y217796D01*
D02*
G37*
%LPC*%
G36*
X167641Y202989D02*
X166828Y202828D01*
X166139Y202367D01*
X165679Y201679D01*
X165518Y200866D01*
X165679Y200053D01*
X166057Y199488D01*
X165679Y198923D01*
X165518Y198110D01*
X165679Y197297D01*
X166139Y196608D01*
X166828Y196148D01*
X167641Y195987D01*
X168454Y196148D01*
X169142Y196608D01*
X169603Y197297D01*
X169764Y198110D01*
X169603Y198923D01*
X169225Y199488D01*
X169603Y200053D01*
X169764Y200866D01*
X169603Y201679D01*
X169142Y202367D01*
X168454Y202828D01*
X167641Y202989D01*
D02*
G37*
G36*
X188114Y214407D02*
X187301Y214246D01*
X186612Y213786D01*
X186152Y213097D01*
X185991Y212284D01*
X186152Y211471D01*
X186612Y210783D01*
X187301Y210322D01*
X188114Y210161D01*
X188927Y210322D01*
X189615Y210783D01*
X190076Y211471D01*
X190237Y212284D01*
X190076Y213097D01*
X189615Y213786D01*
X188927Y214246D01*
X188114Y214407D01*
D02*
G37*
%LPD*%
D56*
X126020Y128957D02*
D03*
Y163957D02*
D03*
X333028Y128957D02*
D03*
Y163957D02*
D03*
X321020Y146457D02*
D03*
X138028D02*
D03*
X101532Y110020D02*
D03*
Y75020D02*
D03*
X113539Y92520D02*
D03*
D58*
X171343Y113164D02*
D03*
X290519Y192761D02*
D03*
Y196737D02*
D03*
Y200714D02*
D03*
Y204690D02*
D03*
Y208667D02*
D03*
Y212643D02*
D03*
Y216619D02*
D03*
X307135Y216693D02*
D03*
Y212716D02*
D03*
Y208740D02*
D03*
Y204764D02*
D03*
Y200787D02*
D03*
Y196811D02*
D03*
Y192834D02*
D03*
D59*
X189098Y190827D02*
D03*
X174728Y198307D02*
D03*
X177484Y198898D02*
D03*
X174334Y195158D02*
D03*
X172956Y192795D02*
D03*
X170988Y190630D02*
D03*
X194610Y200670D02*
D03*
X191854Y198504D02*
D03*
X186539Y203622D02*
D03*
X161539Y204213D02*
D03*
Y200670D02*
D03*
X159177D02*
D03*
X156815D02*
D03*
X134767Y208740D02*
D03*
X132602D02*
D03*
X177681Y216221D02*
D03*
X168232Y190040D02*
D03*
X194413Y191614D02*
D03*
X165082Y195551D02*
D03*
X177484Y192795D02*
D03*
X165673Y190040D02*
D03*
X159177Y204213D02*
D03*
X194610Y198110D02*
D03*
X191854Y191418D02*
D03*
X191657Y212677D02*
D03*
X189098Y198898D02*
D03*
X192051Y200866D02*
D03*
X193035Y210709D02*
D03*
X194413Y212677D02*
D03*
X174925Y210906D02*
D03*
X186539Y201063D02*
D03*
X171972Y215236D02*
D03*
X161342Y213268D02*
D03*
X180240Y191614D02*
D03*
X187129Y216221D02*
D03*
X184177D02*
D03*
X181027D02*
D03*
X156815Y204213D02*
D03*
X189492Y202638D02*
D03*
X183783Y209528D02*
D03*
X169216Y212481D02*
D03*
X187129Y189252D02*
D03*
X174728Y216221D02*
D03*
X159374Y216811D02*
D03*
X169019Y209725D02*
D03*
X179059Y211496D02*
D03*
X182011D02*
D03*
X181224Y208937D02*
D03*
X184570Y207166D02*
D03*
X169019Y206969D02*
D03*
X174925Y189843D02*
D03*
X224531Y217795D02*
D03*
X156027Y190040D02*
D03*
X176696Y182559D02*
D03*
X158389Y189252D02*
D03*
X160752Y190040D02*
D03*
X153468Y217205D02*
D03*
X155240Y215630D02*
D03*
X151696D02*
D03*
X274391Y217818D02*
D03*
X248941Y219370D02*
D03*
X272029Y217818D02*
D03*
X269273D02*
D03*
X266517D02*
D03*
M02*
