G04 Layer_Physical_Order=2*
G04 Layer_Color=36540*
%FSLAX25Y25*%
%MOIN*%
G70*
G01*
G75*
%ADD53C,0.04921*%
%ADD56C,0.07874*%
%ADD57C,0.02362*%
%ADD58C,0.02362*%
%ADD59C,0.02165*%
%ADD60C,0.02165*%
G36*
X345468Y178927D02*
X345468Y117050D01*
X345468Y63031D01*
X270995D01*
X270879Y63531D01*
X271490Y63939D01*
X271972Y64661D01*
X272042Y65012D01*
X267793D01*
X267863Y64661D01*
X268345Y63939D01*
X268955Y63531D01*
X268840Y63031D01*
X243441D01*
X243174Y63531D01*
X243507Y64031D01*
X243577Y64382D01*
X239328D01*
X239398Y64031D01*
X239732Y63531D01*
X239465Y63031D01*
X216748D01*
X216481Y63531D01*
X216657Y63795D01*
X216727Y64146D01*
X212478D01*
X212548Y63795D01*
X212724Y63531D01*
X212457Y63031D01*
X192861D01*
X192709Y63531D01*
X193025Y63743D01*
X193507Y64464D01*
X193577Y64815D01*
X189328D01*
X189398Y64464D01*
X189880Y63743D01*
X190196Y63531D01*
X190045Y63031D01*
X162683D01*
X162532Y63531D01*
X162671Y63624D01*
X163153Y64346D01*
X163223Y64697D01*
X158974D01*
X159044Y64346D01*
X159526Y63624D01*
X159665Y63531D01*
X159514Y63031D01*
X140656D01*
X140504Y63531D01*
X140702Y63664D01*
X141184Y64385D01*
X141254Y64736D01*
X137006D01*
X137075Y64385D01*
X137557Y63664D01*
X137756Y63531D01*
X137604Y63031D01*
X125457D01*
X125100Y63531D01*
X125113Y63595D01*
X120864D01*
X120876Y63531D01*
X120520Y63031D01*
X95350D01*
X95350Y178927D01*
X98441D01*
X110665Y178927D01*
Y211879D01*
X110904Y212457D01*
X111027Y213386D01*
X110904Y214315D01*
X110665Y214893D01*
Y229213D01*
X345468D01*
Y178927D01*
D02*
G37*
%LPC*%
G36*
X308039Y109520D02*
X303626D01*
X303729Y108731D01*
X304227Y107530D01*
X305018Y106499D01*
X306050Y105707D01*
X307251Y105210D01*
X308039Y105106D01*
Y109520D01*
D02*
G37*
G36*
X313453D02*
X309039D01*
Y105106D01*
X309828Y105210D01*
X311029Y105707D01*
X312060Y106499D01*
X312852Y107530D01*
X313349Y108731D01*
X313453Y109520D01*
D02*
G37*
G36*
X228748Y107754D02*
X228397Y107685D01*
X227676Y107202D01*
X227193Y106481D01*
X227124Y106130D01*
X228748D01*
Y107754D01*
D02*
G37*
G36*
X101532Y114999D02*
X100243Y114830D01*
X99042Y114332D01*
X98010Y113541D01*
X97219Y112510D01*
X96722Y111309D01*
X96552Y110020D01*
X96722Y108731D01*
X97219Y107530D01*
X98010Y106499D01*
X99042Y105707D01*
X100243Y105210D01*
X101532Y105040D01*
X102820Y105210D01*
X104021Y105707D01*
X105053Y106499D01*
X105844Y107530D01*
X106341Y108731D01*
X106511Y110020D01*
X106341Y111309D01*
X105844Y112510D01*
X105053Y113541D01*
X104021Y114332D01*
X102820Y114830D01*
X101532Y114999D01*
D02*
G37*
G36*
X255113Y105248D02*
X253488D01*
Y103624D01*
X253839Y103693D01*
X254561Y104175D01*
X255043Y104897D01*
X255113Y105248D01*
D02*
G37*
G36*
X277173D02*
X275549D01*
X275619Y104897D01*
X276101Y104175D01*
X276822Y103693D01*
X277173Y103624D01*
Y105248D01*
D02*
G37*
G36*
X279798D02*
X278173D01*
Y103624D01*
X278524Y103693D01*
X279246Y104175D01*
X279728Y104897D01*
X279798Y105248D01*
D02*
G37*
G36*
X229748Y107754D02*
Y106130D01*
X231372D01*
X231303Y106481D01*
X230820Y107202D01*
X230099Y107685D01*
X229748Y107754D01*
D02*
G37*
G36*
X144466Y122816D02*
X134700Y113050D01*
X140290Y107460D01*
X150056Y117226D01*
X144466Y122816D01*
D02*
G37*
G36*
X308039Y114934D02*
X307251Y114830D01*
X306050Y114332D01*
X305018Y113541D01*
X304227Y112510D01*
X303729Y111309D01*
X303626Y110520D01*
X308039D01*
Y114934D01*
D02*
G37*
G36*
X309039D02*
Y110520D01*
X313453D01*
X313349Y111309D01*
X312852Y112510D01*
X312060Y113541D01*
X311029Y114332D01*
X309828Y114830D01*
X309039Y114934D01*
D02*
G37*
G36*
X278173Y107872D02*
Y106248D01*
X279798D01*
X279728Y106599D01*
X279246Y107320D01*
X278524Y107803D01*
X278173Y107872D01*
D02*
G37*
G36*
X252488D02*
X252137Y107803D01*
X251416Y107320D01*
X250934Y106599D01*
X250864Y106248D01*
X252488D01*
Y107872D01*
D02*
G37*
G36*
X253488D02*
Y106248D01*
X255113D01*
X255043Y106599D01*
X254561Y107320D01*
X253839Y107803D01*
X253488Y107872D01*
D02*
G37*
G36*
X277173D02*
X276822Y107803D01*
X276101Y107320D01*
X275619Y106599D01*
X275549Y106248D01*
X277173D01*
Y107872D01*
D02*
G37*
G36*
X252488Y105248D02*
X250864D01*
X250934Y104897D01*
X251416Y104175D01*
X252137Y103693D01*
X252488Y103624D01*
Y105248D01*
D02*
G37*
G36*
X239024Y92951D02*
X238673Y92881D01*
X237951Y92399D01*
X237469Y91678D01*
X237399Y91327D01*
X239024D01*
Y92951D01*
D02*
G37*
G36*
X240024D02*
Y91327D01*
X241648D01*
X241578Y91678D01*
X241096Y92399D01*
X240375Y92881D01*
X240024Y92951D01*
D02*
G37*
G36*
X263748Y93227D02*
X263397Y93157D01*
X262676Y92675D01*
X262193Y91953D01*
X262124Y91602D01*
X263748D01*
Y93227D01*
D02*
G37*
G36*
X266372Y90602D02*
X264748D01*
Y88978D01*
X265099Y89048D01*
X265821Y89530D01*
X266303Y90251D01*
X266372Y90602D01*
D02*
G37*
G36*
X239024Y90327D02*
X237399D01*
X237469Y89976D01*
X237951Y89254D01*
X238673Y88772D01*
X239024Y88702D01*
Y90327D01*
D02*
G37*
G36*
X241648D02*
X240024D01*
Y88702D01*
X240375Y88772D01*
X241096Y89254D01*
X241578Y89976D01*
X241648Y90327D01*
D02*
G37*
G36*
X263748Y90602D02*
X262124D01*
X262193Y90251D01*
X262676Y89530D01*
X263397Y89048D01*
X263748Y88978D01*
Y90602D01*
D02*
G37*
G36*
X264748Y93227D02*
Y91602D01*
X266372D01*
X266303Y91953D01*
X265821Y92675D01*
X265099Y93157D01*
X264748Y93227D01*
D02*
G37*
G36*
X133146Y104541D02*
X132295Y104371D01*
X131573Y103889D01*
X131091Y103168D01*
X130922Y102317D01*
X131091Y101466D01*
X131573Y100744D01*
X132295Y100262D01*
X133146Y100093D01*
X133997Y100262D01*
X134718Y100744D01*
X135200Y101466D01*
X135370Y102317D01*
X135200Y103168D01*
X134718Y103889D01*
X133997Y104371D01*
X133146Y104541D01*
D02*
G37*
G36*
X228748Y105130D02*
X227124D01*
X227193Y104779D01*
X227676Y104057D01*
X228397Y103575D01*
X228748Y103506D01*
Y105130D01*
D02*
G37*
G36*
X231372D02*
X229748D01*
Y103506D01*
X230099Y103575D01*
X230820Y104057D01*
X231303Y104779D01*
X231372Y105130D01*
D02*
G37*
G36*
X100429Y100925D02*
X99578Y100755D01*
X98857Y100273D01*
X98375Y99552D01*
X98205Y98701D01*
X98375Y97850D01*
X98857Y97128D01*
X99578Y96646D01*
X100429Y96477D01*
X101280Y96646D01*
X102002Y97128D01*
X102484Y97850D01*
X102653Y98701D01*
X102484Y99552D01*
X102002Y100273D01*
X101280Y100755D01*
X100429Y100925D01*
D02*
G37*
G36*
X296031Y97434D02*
X295243Y97330D01*
X294042Y96832D01*
X293010Y96041D01*
X292219Y95009D01*
X291722Y93809D01*
X291618Y93020D01*
X296031D01*
Y97434D01*
D02*
G37*
G36*
X297031D02*
Y93020D01*
X301445D01*
X301341Y93809D01*
X300844Y95009D01*
X300053Y96041D01*
X299021Y96832D01*
X297820Y97330D01*
X297031Y97434D01*
D02*
G37*
G36*
X130902Y99547D02*
X130051Y99377D01*
X129329Y98895D01*
X128847Y98174D01*
X128678Y97323D01*
X128847Y96472D01*
X129329Y95750D01*
X130051Y95268D01*
X130902Y95099D01*
X131753Y95268D01*
X132474Y95750D01*
X132956Y96472D01*
X133125Y97323D01*
X132956Y98174D01*
X132474Y98895D01*
X131753Y99377D01*
X130902Y99547D01*
D02*
G37*
G36*
X333028Y133936D02*
X331739Y133767D01*
X330538Y133269D01*
X329506Y132478D01*
X328715Y131447D01*
X328218Y130245D01*
X328048Y128957D01*
X328218Y127668D01*
X328715Y126467D01*
X329506Y125436D01*
X330538Y124644D01*
X331739Y124147D01*
X333028Y123977D01*
X334316Y124147D01*
X335517Y124644D01*
X336549Y125436D01*
X337340Y126467D01*
X337838Y127668D01*
X338007Y128957D01*
X337838Y130245D01*
X337340Y131447D01*
X336549Y132478D01*
X335517Y133269D01*
X334316Y133767D01*
X333028Y133936D01*
D02*
G37*
G36*
X243394Y129106D02*
X241769D01*
X241839Y128755D01*
X242321Y128034D01*
X243043Y127552D01*
X243394Y127482D01*
Y129106D01*
D02*
G37*
G36*
X246018D02*
X244394D01*
Y127482D01*
X244745Y127552D01*
X245466Y128034D01*
X245948Y128755D01*
X246018Y129106D01*
D02*
G37*
G36*
X126020Y133936D02*
X124731Y133767D01*
X123530Y133269D01*
X122499Y132478D01*
X121707Y131447D01*
X121210Y130245D01*
X121040Y128957D01*
X121210Y127668D01*
X121707Y126467D01*
X122499Y125436D01*
X123530Y124644D01*
X124731Y124147D01*
X126020Y123977D01*
X127308Y124147D01*
X128509Y124644D01*
X129541Y125436D01*
X130332Y126467D01*
X130830Y127668D01*
X130999Y128957D01*
X130830Y130245D01*
X130332Y131447D01*
X129541Y132478D01*
X128509Y133269D01*
X127308Y133767D01*
X126020Y133936D01*
D02*
G37*
G36*
X188803Y123345D02*
Y121721D01*
X190427D01*
X190358Y122072D01*
X189876Y122793D01*
X189154Y123275D01*
X188803Y123345D01*
D02*
G37*
G36*
X294732Y125235D02*
X294381Y125165D01*
X293660Y124683D01*
X293178Y123961D01*
X293108Y123610D01*
X294732D01*
Y125235D01*
D02*
G37*
G36*
X295732D02*
Y123610D01*
X297357D01*
X297287Y123961D01*
X296805Y124683D01*
X296083Y125165D01*
X295732Y125235D01*
D02*
G37*
G36*
X282685Y129106D02*
X281061D01*
X281131Y128755D01*
X281613Y128034D01*
X282334Y127552D01*
X282685Y127482D01*
Y129106D01*
D02*
G37*
G36*
X243394Y131731D02*
X243043Y131661D01*
X242321Y131179D01*
X241839Y130457D01*
X241769Y130106D01*
X243394D01*
Y131731D01*
D02*
G37*
G36*
X244394D02*
Y130106D01*
X246018D01*
X245948Y130457D01*
X245466Y131179D01*
X244745Y131661D01*
X244394Y131731D01*
D02*
G37*
G36*
X282685Y131731D02*
X282334Y131661D01*
X281613Y131179D01*
X281131Y130457D01*
X281061Y130106D01*
X282685D01*
Y131731D01*
D02*
G37*
G36*
X145823Y132972D02*
X144972Y132803D01*
X144250Y132320D01*
X143768Y131599D01*
X143599Y130748D01*
X143768Y129897D01*
X144250Y129175D01*
X144972Y128693D01*
X145823Y128524D01*
X146674Y128693D01*
X147395Y129175D01*
X147877Y129897D01*
X148047Y130748D01*
X147877Y131599D01*
X147395Y132320D01*
X146674Y132803D01*
X145823Y132972D01*
D02*
G37*
G36*
X285309Y129106D02*
X283685D01*
Y127482D01*
X284036Y127552D01*
X284757Y128034D01*
X285240Y128755D01*
X285309Y129106D01*
D02*
G37*
G36*
X304221Y129264D02*
X302596D01*
X302666Y128913D01*
X303148Y128191D01*
X303870Y127709D01*
X304221Y127639D01*
Y129264D01*
D02*
G37*
G36*
X306845D02*
X305221D01*
Y127639D01*
X305572Y127709D01*
X306293Y128191D01*
X306775Y128913D01*
X306845Y129264D01*
D02*
G37*
G36*
X187803Y123345D02*
X187452Y123275D01*
X186731Y122793D01*
X186249Y122072D01*
X186179Y121721D01*
X187803D01*
Y123345D01*
D02*
G37*
G36*
X269128Y118476D02*
X267504D01*
Y116852D01*
X267855Y116922D01*
X268576Y117404D01*
X269058Y118125D01*
X269128Y118476D01*
D02*
G37*
G36*
X239142Y118595D02*
X237517D01*
X237587Y118244D01*
X238069Y117522D01*
X238791Y117040D01*
X239142Y116970D01*
Y118595D01*
D02*
G37*
G36*
X241766D02*
X240142D01*
Y116970D01*
X240493Y117040D01*
X241214Y117522D01*
X241696Y118244D01*
X241766Y118595D01*
D02*
G37*
G36*
X266504Y118476D02*
X264880D01*
X264949Y118125D01*
X265431Y117404D01*
X266153Y116922D01*
X266504Y116852D01*
Y118476D01*
D02*
G37*
G36*
X162279Y115334D02*
X161428Y115165D01*
X160707Y114683D01*
X160225Y113961D01*
X160056Y113110D01*
X160225Y112259D01*
X160707Y111538D01*
X161428Y111056D01*
X162279Y110886D01*
X163130Y111056D01*
X163852Y111538D01*
X164334Y112259D01*
X164503Y113110D01*
X164334Y113961D01*
X163852Y114683D01*
X163130Y115165D01*
X162279Y115334D01*
D02*
G37*
G36*
X171343Y115388D02*
X170492Y115218D01*
X169771Y114736D01*
X169289Y114015D01*
X169119Y113164D01*
X169289Y112313D01*
X169771Y111592D01*
X170492Y111109D01*
X171343Y110940D01*
X172194Y111109D01*
X172916Y111592D01*
X173398Y112313D01*
X173567Y113164D01*
X173398Y114015D01*
X172916Y114736D01*
X172194Y115218D01*
X171343Y115388D01*
D02*
G37*
G36*
X150350Y115190D02*
X149615Y115044D01*
X148991Y114627D01*
X148574Y114004D01*
X148428Y113268D01*
X148574Y112532D01*
X148991Y111908D01*
X149615Y111491D01*
X150350Y111345D01*
X151086Y111491D01*
X151710Y111908D01*
X152127Y112532D01*
X152273Y113268D01*
X152127Y114004D01*
X151710Y114627D01*
X151086Y115044D01*
X150350Y115190D01*
D02*
G37*
G36*
X187803Y120721D02*
X186179D01*
X186249Y120370D01*
X186731Y119648D01*
X187452Y119166D01*
X187803Y119096D01*
Y120721D01*
D02*
G37*
G36*
X240142Y121219D02*
Y119595D01*
X241766D01*
X241696Y119946D01*
X241214Y120667D01*
X240493Y121149D01*
X240142Y121219D01*
D02*
G37*
G36*
X294732Y122610D02*
X293108D01*
X293178Y122259D01*
X293660Y121538D01*
X294381Y121056D01*
X294732Y120986D01*
Y122610D01*
D02*
G37*
G36*
X297357D02*
X295732D01*
Y120986D01*
X296083Y121056D01*
X296805Y121538D01*
X297287Y122259D01*
X297357Y122610D01*
D02*
G37*
G36*
X239142Y121219D02*
X238791Y121149D01*
X238069Y120667D01*
X237587Y119946D01*
X237517Y119595D01*
X239142D01*
Y121219D01*
D02*
G37*
G36*
X190427Y120721D02*
X188803D01*
Y119096D01*
X189154Y119166D01*
X189876Y119648D01*
X190358Y120370D01*
X190427Y120721D01*
D02*
G37*
G36*
X266504Y121101D02*
X266153Y121031D01*
X265431Y120549D01*
X264949Y119827D01*
X264880Y119476D01*
X266504D01*
Y121101D01*
D02*
G37*
G36*
X267504D02*
Y119476D01*
X269128D01*
X269058Y119827D01*
X268576Y120549D01*
X267855Y121031D01*
X267504Y121101D01*
D02*
G37*
G36*
X101532Y79999D02*
X100243Y79830D01*
X99042Y79332D01*
X98010Y78541D01*
X97219Y77509D01*
X96722Y76309D01*
X96552Y75020D01*
X96722Y73731D01*
X97219Y72530D01*
X98010Y71499D01*
X99042Y70707D01*
X100243Y70210D01*
X101532Y70040D01*
X102820Y70210D01*
X104021Y70707D01*
X105053Y71499D01*
X105844Y72530D01*
X106341Y73731D01*
X106511Y75020D01*
X106341Y76309D01*
X105844Y77509D01*
X105053Y78541D01*
X104021Y79332D01*
X102820Y79830D01*
X101532Y79999D01*
D02*
G37*
G36*
X308039Y74520D02*
X303626D01*
X303729Y73731D01*
X304227Y72530D01*
X305018Y71499D01*
X306050Y70707D01*
X307251Y70210D01*
X308039Y70106D01*
Y74520D01*
D02*
G37*
G36*
X313453D02*
X309039D01*
Y70106D01*
X309828Y70210D01*
X311029Y70707D01*
X312060Y71499D01*
X312852Y72530D01*
X313349Y73731D01*
X313453Y74520D01*
D02*
G37*
G36*
X177228Y71179D02*
Y69555D01*
X178853D01*
X178783Y69906D01*
X178301Y70628D01*
X177579Y71110D01*
X177228Y71179D01*
D02*
G37*
G36*
X178853Y68555D02*
X177228D01*
Y66931D01*
X177579Y67001D01*
X178301Y67483D01*
X178783Y68204D01*
X178853Y68555D01*
D02*
G37*
G36*
X149406Y71830D02*
X148555Y71661D01*
X147833Y71179D01*
X147351Y70457D01*
X147182Y69606D01*
X147351Y68755D01*
X147833Y68034D01*
X148555Y67552D01*
X149406Y67383D01*
X150257Y67552D01*
X150978Y68034D01*
X151460Y68755D01*
X151629Y69606D01*
X151460Y70457D01*
X150978Y71179D01*
X150257Y71661D01*
X149406Y71830D01*
D02*
G37*
G36*
X176228Y71179D02*
X175877Y71110D01*
X175156Y70628D01*
X174674Y69906D01*
X174604Y69555D01*
X176228D01*
Y71179D01*
D02*
G37*
G36*
X115677Y71980D02*
X114053D01*
X114123Y71629D01*
X114605Y70908D01*
X115326Y70426D01*
X115677Y70356D01*
Y71980D01*
D02*
G37*
G36*
X141333Y73240D02*
X139709D01*
Y71616D01*
X140060Y71686D01*
X140781Y72168D01*
X141263Y72889D01*
X141333Y73240D01*
D02*
G37*
G36*
X279614Y74028D02*
X277990D01*
X278060Y73677D01*
X278542Y72955D01*
X279263Y72473D01*
X279614Y72403D01*
Y74028D01*
D02*
G37*
G36*
X282239D02*
X280614D01*
Y72403D01*
X280965Y72473D01*
X281687Y72955D01*
X282169Y73677D01*
X282239Y74028D01*
D02*
G37*
G36*
X138709Y73240D02*
X137084D01*
X137154Y72889D01*
X137636Y72168D01*
X138358Y71686D01*
X138709Y71616D01*
Y73240D01*
D02*
G37*
G36*
X118301Y71980D02*
X116677D01*
Y70356D01*
X117028Y70426D01*
X117750Y70908D01*
X118232Y71629D01*
X118301Y71980D01*
D02*
G37*
G36*
X128551Y72413D02*
X126927D01*
X126997Y72062D01*
X127479Y71341D01*
X128200Y70859D01*
X128551Y70789D01*
Y72413D01*
D02*
G37*
G36*
X131175D02*
X129551D01*
Y70789D01*
X129902Y70859D01*
X130624Y71341D01*
X131106Y72062D01*
X131175Y72413D01*
D02*
G37*
G36*
X176228Y68555D02*
X174604D01*
X174674Y68204D01*
X175156Y67483D01*
X175877Y67001D01*
X176228Y66931D01*
Y68555D01*
D02*
G37*
G36*
X215102Y66770D02*
Y65146D01*
X216727D01*
X216657Y65497D01*
X216175Y66218D01*
X215453Y66700D01*
X215102Y66770D01*
D02*
G37*
G36*
X240953Y67006D02*
X240602Y66936D01*
X239880Y66454D01*
X239398Y65733D01*
X239328Y65382D01*
X240953D01*
Y67006D01*
D02*
G37*
G36*
X241953D02*
Y65382D01*
X243577D01*
X243507Y65733D01*
X243025Y66454D01*
X242304Y66936D01*
X241953Y67006D01*
D02*
G37*
G36*
X214102Y66770D02*
X213751Y66700D01*
X213030Y66218D01*
X212548Y65497D01*
X212478Y65146D01*
X214102D01*
Y66770D01*
D02*
G37*
G36*
X333776Y78751D02*
X332383Y78614D01*
X331045Y78208D01*
X329811Y77548D01*
X328729Y76661D01*
X327842Y75579D01*
X327182Y74345D01*
X326776Y73006D01*
X326639Y71614D01*
X326776Y70222D01*
X327182Y68883D01*
X327842Y67649D01*
X328729Y66568D01*
X329811Y65680D01*
X331045Y65021D01*
X332383Y64615D01*
X333776Y64477D01*
X335168Y64615D01*
X336507Y65021D01*
X337740Y65680D01*
X338822Y66568D01*
X339710Y67649D01*
X340369Y68883D01*
X340775Y70222D01*
X340912Y71614D01*
X340775Y73006D01*
X340369Y74345D01*
X339710Y75579D01*
X338822Y76661D01*
X337740Y77548D01*
X336507Y78208D01*
X335168Y78614D01*
X333776Y78751D01*
D02*
G37*
G36*
X122488Y66219D02*
X122137Y66149D01*
X121416Y65667D01*
X120934Y64946D01*
X120864Y64595D01*
X122488D01*
Y66219D01*
D02*
G37*
G36*
X123488D02*
Y64595D01*
X125113D01*
X125043Y64946D01*
X124561Y65667D01*
X123839Y66149D01*
X123488Y66219D01*
D02*
G37*
G36*
X160598Y67321D02*
X160247Y67251D01*
X159526Y66769D01*
X159044Y66048D01*
X158974Y65697D01*
X160598D01*
Y67321D01*
D02*
G37*
G36*
X191953Y67439D02*
Y65815D01*
X193577D01*
X193507Y66166D01*
X193025Y66887D01*
X192304Y67370D01*
X191953Y67439D01*
D02*
G37*
G36*
X269417Y67636D02*
X269066Y67566D01*
X268345Y67084D01*
X267863Y66363D01*
X267793Y66012D01*
X269417D01*
Y67636D01*
D02*
G37*
G36*
X270417D02*
Y66012D01*
X272042D01*
X271972Y66363D01*
X271490Y67084D01*
X270768Y67566D01*
X270417Y67636D01*
D02*
G37*
G36*
X190953Y67439D02*
X190602Y67370D01*
X189880Y66887D01*
X189398Y66166D01*
X189328Y65815D01*
X190953D01*
Y67439D01*
D02*
G37*
G36*
X161598Y67321D02*
Y65697D01*
X163223D01*
X163153Y66048D01*
X162671Y66769D01*
X161949Y67251D01*
X161598Y67321D01*
D02*
G37*
G36*
X138630Y67361D02*
X138279Y67291D01*
X137557Y66809D01*
X137075Y66087D01*
X137006Y65736D01*
X138630D01*
Y67361D01*
D02*
G37*
G36*
X139630D02*
Y65736D01*
X141254D01*
X141184Y66087D01*
X140702Y66809D01*
X139981Y67291D01*
X139630Y67361D01*
D02*
G37*
G36*
X129039Y86376D02*
Y84252D01*
Y82127D01*
X129390Y82197D01*
X129737Y82429D01*
X130292Y82199D01*
X130304Y82141D01*
X130786Y81420D01*
X131507Y80938D01*
X131858Y80868D01*
Y82992D01*
Y85116D01*
X131507Y85047D01*
X131161Y84815D01*
X130605Y85045D01*
X130594Y85103D01*
X130112Y85824D01*
X129390Y86306D01*
X129039Y86376D01*
D02*
G37*
G36*
X134483Y82492D02*
X132858D01*
Y80868D01*
X133209Y80938D01*
X133931Y81420D01*
X134413Y82141D01*
X134483Y82492D01*
D02*
G37*
G36*
X128039Y83752D02*
X126415D01*
X126485Y83401D01*
X126967Y82679D01*
X127688Y82197D01*
X128039Y82127D01*
Y83752D01*
D02*
G37*
G36*
X139091Y81235D02*
X138240Y81066D01*
X137518Y80584D01*
X137036Y79862D01*
X136867Y79011D01*
X137036Y78160D01*
X137518Y77439D01*
X138240Y76956D01*
X139091Y76787D01*
X139942Y76956D01*
X140663Y77439D01*
X141145Y78160D01*
X141314Y79011D01*
X141145Y79862D01*
X140663Y80584D01*
X139942Y81066D01*
X139091Y81235D01*
D02*
G37*
G36*
X254000Y77006D02*
Y75382D01*
X255624D01*
X255555Y75733D01*
X255072Y76454D01*
X254351Y76936D01*
X254000Y77006D01*
D02*
G37*
G36*
X308039Y79934D02*
X307251Y79830D01*
X306050Y79332D01*
X305018Y78541D01*
X304227Y77509D01*
X303729Y76309D01*
X303626Y75520D01*
X308039D01*
Y79934D01*
D02*
G37*
G36*
X309039D02*
Y75520D01*
X313453D01*
X313349Y76309D01*
X312852Y77509D01*
X312060Y78541D01*
X311029Y79332D01*
X309828Y79830D01*
X309039Y79934D01*
D02*
G37*
G36*
X132858Y85116D02*
Y83492D01*
X134483D01*
X134413Y83843D01*
X133931Y84565D01*
X133209Y85047D01*
X132858Y85116D01*
D02*
G37*
G36*
X301445Y92020D02*
X297031D01*
Y87606D01*
X297820Y87710D01*
X299021Y88207D01*
X300053Y88999D01*
X300844Y90030D01*
X301341Y91231D01*
X301445Y92020D01*
D02*
G37*
G36*
X105744Y92263D02*
X104893Y92094D01*
X104172Y91612D01*
X103690Y90890D01*
X103520Y90039D01*
X103690Y89188D01*
X104172Y88467D01*
X104893Y87985D01*
X105744Y87815D01*
X106595Y87985D01*
X107317Y88467D01*
X107799Y89188D01*
X107968Y90039D01*
X107799Y90890D01*
X107317Y91612D01*
X106595Y92094D01*
X105744Y92263D01*
D02*
G37*
G36*
X133185Y92342D02*
X132334Y92173D01*
X131613Y91691D01*
X131131Y90969D01*
X130961Y90118D01*
X131131Y89267D01*
X131613Y88546D01*
X132334Y88064D01*
X133185Y87894D01*
X134036Y88064D01*
X134757Y88546D01*
X135240Y89267D01*
X135409Y90118D01*
X135240Y90969D01*
X134757Y91691D01*
X134036Y92173D01*
X133185Y92342D01*
D02*
G37*
G36*
X296031Y92020D02*
X291618D01*
X291722Y91231D01*
X292219Y90030D01*
X293010Y88999D01*
X294042Y88207D01*
X295243Y87710D01*
X296031Y87606D01*
Y92020D01*
D02*
G37*
G36*
X128039Y86376D02*
X127688Y86306D01*
X126967Y85824D01*
X126485Y85103D01*
X126415Y84752D01*
X128039D01*
Y86376D01*
D02*
G37*
G36*
X122752Y91515D02*
X121901Y91346D01*
X121179Y90864D01*
X120697Y90142D01*
X120528Y89291D01*
X120697Y88440D01*
X121179Y87719D01*
X121901Y87237D01*
X122752Y87068D01*
X123603Y87237D01*
X124325Y87719D01*
X124806Y88440D01*
X124976Y89291D01*
X124806Y90142D01*
X124325Y90864D01*
X123603Y91346D01*
X122752Y91515D01*
D02*
G37*
G36*
X113539Y97499D02*
X112250Y97330D01*
X111050Y96832D01*
X110018Y96041D01*
X109227Y95009D01*
X108729Y93809D01*
X108560Y92520D01*
X108729Y91231D01*
X109227Y90030D01*
X110018Y88999D01*
X111050Y88207D01*
X112250Y87710D01*
X113539Y87540D01*
X114828Y87710D01*
X116029Y88207D01*
X117060Y88999D01*
X117852Y90030D01*
X118349Y91231D01*
X118519Y92520D01*
X118349Y93809D01*
X117852Y95009D01*
X117060Y96041D01*
X116029Y96832D01*
X114828Y97330D01*
X113539Y97499D01*
D02*
G37*
G36*
X253000Y77006D02*
X252649Y76936D01*
X251927Y76454D01*
X251445Y75733D01*
X251376Y75382D01*
X253000D01*
Y77006D01*
D02*
G37*
G36*
X115677Y74605D02*
X115326Y74535D01*
X114605Y74053D01*
X114123Y73331D01*
X114053Y72980D01*
X115677D01*
Y74605D01*
D02*
G37*
G36*
X116677D02*
Y72980D01*
X118301D01*
X118232Y73331D01*
X117750Y74053D01*
X117028Y74535D01*
X116677Y74605D01*
D02*
G37*
G36*
X128551Y75038D02*
X128200Y74968D01*
X127479Y74486D01*
X126997Y73764D01*
X126927Y73413D01*
X128551D01*
Y75038D01*
D02*
G37*
G36*
X255624Y74382D02*
X254000D01*
Y72758D01*
X254351Y72827D01*
X255072Y73309D01*
X255555Y74031D01*
X255624Y74382D01*
D02*
G37*
G36*
X229221Y74303D02*
X227596D01*
X227666Y73952D01*
X228148Y73231D01*
X228870Y72749D01*
X229221Y72679D01*
Y74303D01*
D02*
G37*
G36*
X231845D02*
X230221D01*
Y72679D01*
X230572Y72749D01*
X231293Y73231D01*
X231775Y73952D01*
X231845Y74303D01*
D02*
G37*
G36*
X253000Y74382D02*
X251376D01*
X251445Y74031D01*
X251927Y73309D01*
X252649Y72827D01*
X253000Y72758D01*
Y74382D01*
D02*
G37*
G36*
X129551Y75038D02*
Y73413D01*
X131175D01*
X131106Y73764D01*
X130624Y74486D01*
X129902Y74968D01*
X129551Y75038D01*
D02*
G37*
G36*
X280614Y76652D02*
Y75028D01*
X282239D01*
X282169Y75379D01*
X281687Y76100D01*
X280965Y76582D01*
X280614Y76652D01*
D02*
G37*
G36*
X229221Y76928D02*
X228870Y76858D01*
X228148Y76376D01*
X227666Y75654D01*
X227596Y75303D01*
X229221D01*
Y76928D01*
D02*
G37*
G36*
X230221D02*
Y75303D01*
X231845D01*
X231775Y75654D01*
X231293Y76376D01*
X230572Y76858D01*
X230221Y76928D01*
D02*
G37*
G36*
X279614Y76652D02*
X279263Y76582D01*
X278542Y76100D01*
X278060Y75379D01*
X277990Y75028D01*
X279614D01*
Y76652D01*
D02*
G37*
G36*
X138709Y75864D02*
X138358Y75795D01*
X137636Y75313D01*
X137154Y74591D01*
X137084Y74240D01*
X138709D01*
Y75864D01*
D02*
G37*
G36*
X139709D02*
Y74240D01*
X141333D01*
X141263Y74591D01*
X140781Y75313D01*
X140060Y75795D01*
X139709Y75864D01*
D02*
G37*
G36*
X175127Y79140D02*
X174276Y78971D01*
X173554Y78489D01*
X173072Y77768D01*
X172903Y76917D01*
X173072Y76066D01*
X173554Y75344D01*
X174276Y74862D01*
X175127Y74693D01*
X175978Y74862D01*
X176699Y75344D01*
X177181Y76066D01*
X177350Y76917D01*
X177181Y77768D01*
X176699Y78489D01*
X175978Y78971D01*
X175127Y79140D01*
D02*
G37*
G36*
X250067Y172563D02*
X248443D01*
X248513Y172212D01*
X248995Y171491D01*
X249716Y171008D01*
X250067Y170939D01*
Y172563D01*
D02*
G37*
G36*
X252692D02*
X251067D01*
Y170939D01*
X251418Y171008D01*
X252140Y171491D01*
X252622Y172212D01*
X252692Y172563D01*
D02*
G37*
G36*
X125752Y175866D02*
X124939Y175704D01*
X124250Y175244D01*
X123790Y174555D01*
X123628Y173742D01*
X123790Y172930D01*
X124250Y172241D01*
X124939Y171780D01*
X125752Y171619D01*
X126565Y171780D01*
X127253Y172241D01*
X127714Y172930D01*
X127875Y173742D01*
X127714Y174555D01*
X127253Y175244D01*
X126565Y175704D01*
X125752Y175866D01*
D02*
G37*
G36*
X136263Y172342D02*
Y170818D01*
X137787D01*
X137725Y171131D01*
X137265Y171819D01*
X136576Y172280D01*
X136263Y172342D01*
D02*
G37*
G36*
X161845Y174756D02*
X161032Y174594D01*
X160343Y174134D01*
X159883Y173445D01*
X159721Y172632D01*
X159883Y171819D01*
X160343Y171131D01*
X161032Y170670D01*
X161845Y170509D01*
X162657Y170670D01*
X163346Y171131D01*
X163807Y171819D01*
X163968Y172632D01*
X163807Y173445D01*
X163346Y174134D01*
X162657Y174594D01*
X161845Y174756D01*
D02*
G37*
G36*
X195330D02*
X194518Y174594D01*
X193829Y174134D01*
X193368Y173445D01*
X193207Y172632D01*
X193368Y171819D01*
X193829Y171131D01*
X194518Y170670D01*
X195330Y170509D01*
X196143Y170670D01*
X196832Y171131D01*
X197292Y171819D01*
X197454Y172632D01*
X197292Y173445D01*
X196832Y174134D01*
X196143Y174594D01*
X195330Y174756D01*
D02*
G37*
G36*
X135263Y172342D02*
X134951Y172280D01*
X134262Y171819D01*
X133801Y171131D01*
X133739Y170818D01*
X135263D01*
Y172342D01*
D02*
G37*
G36*
X250067Y175187D02*
X249716Y175118D01*
X248995Y174636D01*
X248513Y173914D01*
X248443Y173563D01*
X250067D01*
Y175187D01*
D02*
G37*
G36*
X127972Y177245D02*
X127074D01*
Y176792D01*
X127386Y176854D01*
X127972Y177245D01*
D02*
G37*
G36*
X226893Y182317D02*
X226157Y182170D01*
X225533Y181754D01*
X225117Y181130D01*
X224970Y180394D01*
X225117Y179658D01*
X225533Y179034D01*
X225695Y178927D01*
D01*
X225998Y178724D01*
X226157Y178618D01*
X226893Y178471D01*
X227629Y178618D01*
X228091Y178927D01*
D01*
X228253Y179034D01*
X228669Y179658D01*
X228816Y180394D01*
X228669Y181130D01*
X228253Y181754D01*
X227629Y182170D01*
X226893Y182317D01*
D02*
G37*
G36*
X231618D02*
X230882Y182170D01*
X230258Y181754D01*
X229842Y181130D01*
X229695Y180394D01*
X229842Y179658D01*
X230258Y179034D01*
X230420Y178927D01*
X230420Y178927D01*
X230882Y178618D01*
X231618Y178471D01*
X232354Y178618D01*
X232474Y178698D01*
X232978Y179034D01*
X233394Y179658D01*
X233541Y180394D01*
X233394Y181130D01*
X232978Y181754D01*
X232354Y182170D01*
X231618Y182317D01*
D02*
G37*
G36*
X126074Y177245D02*
X125175D01*
X125761Y176854D01*
X126074Y176792D01*
Y177245D01*
D02*
G37*
G36*
X251067Y175187D02*
Y173563D01*
X252692D01*
X252622Y173914D01*
X252140Y174636D01*
X251418Y175118D01*
X251067Y175187D01*
D02*
G37*
G36*
X298354Y177245D02*
X296941D01*
X297282Y176735D01*
X298003Y176252D01*
X298354Y176183D01*
Y177245D01*
D02*
G37*
G36*
X300768D02*
X299354D01*
Y176183D01*
X299705Y176252D01*
X300427Y176735D01*
X300768Y177245D01*
D02*
G37*
G36*
X140290Y185453D02*
X134700Y179863D01*
X135636Y178927D01*
D01*
X144466Y170097D01*
X150056Y175688D01*
X148498Y177245D01*
X147278Y178465D01*
D01*
X140290Y185453D01*
D02*
G37*
G36*
X306687Y162335D02*
X305063D01*
Y160710D01*
X305414Y160780D01*
X306135Y161262D01*
X306617Y161984D01*
X306687Y162335D01*
D02*
G37*
G36*
X220815Y163309D02*
X216767D01*
X216829Y162996D01*
X217290Y162308D01*
X217611Y162092D01*
Y161491D01*
X217253Y161252D01*
X216988Y160855D01*
X216387D01*
X216157Y161199D01*
X215468Y161659D01*
X215155Y161722D01*
Y159698D01*
Y157674D01*
X215468Y157736D01*
X216157Y158196D01*
X216422Y158593D01*
X217023D01*
X217253Y158249D01*
X217942Y157788D01*
X218254Y157726D01*
Y159750D01*
X218754D01*
Y160250D01*
X220778D01*
X220716Y160563D01*
X220256Y161252D01*
X219934Y161467D01*
Y162068D01*
X220293Y162308D01*
X220753Y162996D01*
X220815Y163309D01*
D02*
G37*
G36*
X184500Y165724D02*
X183649Y165554D01*
X182928Y165073D01*
X182446Y164351D01*
X182276Y163500D01*
X182446Y162649D01*
X182928Y161927D01*
X183649Y161445D01*
X184500Y161276D01*
X185351Y161445D01*
X186073Y161927D01*
X186555Y162649D01*
X186724Y163500D01*
X186555Y164351D01*
X186073Y165073D01*
X185351Y165554D01*
X184500Y165724D01*
D02*
G37*
G36*
X304063Y162335D02*
X302439D01*
X302508Y161984D01*
X302991Y161262D01*
X303712Y160780D01*
X304063Y160710D01*
Y162335D01*
D02*
G37*
G36*
X126020Y168936D02*
X124731Y168767D01*
X123530Y168269D01*
X122499Y167478D01*
X121707Y166446D01*
X121210Y165245D01*
X121040Y163957D01*
X121210Y162668D01*
X121707Y161467D01*
X122499Y160436D01*
X123530Y159644D01*
X124731Y159147D01*
X126020Y158977D01*
X127308Y159147D01*
X128509Y159644D01*
X129541Y160436D01*
X130332Y161467D01*
X130830Y162668D01*
X130999Y163957D01*
X130830Y165245D01*
X130332Y166446D01*
X129541Y167478D01*
X128509Y168269D01*
X127308Y168767D01*
X126020Y168936D01*
D02*
G37*
G36*
X333028D02*
X331739Y168767D01*
X330538Y168269D01*
X329506Y167478D01*
X328715Y166446D01*
X328218Y165245D01*
X328048Y163957D01*
X328218Y162668D01*
X328715Y161467D01*
X329506Y160436D01*
X330538Y159644D01*
X331739Y159147D01*
X333028Y158977D01*
X334316Y159147D01*
X335517Y159644D01*
X336549Y160436D01*
X337340Y161467D01*
X337838Y162668D01*
X338007Y163957D01*
X337838Y165245D01*
X337340Y166446D01*
X336549Y167478D01*
X335517Y168269D01*
X334316Y168767D01*
X333028Y168936D01*
D02*
G37*
G36*
X214155Y161722D02*
X213843Y161659D01*
X213154Y161199D01*
X212694Y160510D01*
X212631Y160198D01*
X214155D01*
Y161722D01*
D02*
G37*
G36*
X304063Y164959D02*
X303712Y164889D01*
X302991Y164407D01*
X302508Y163686D01*
X302439Y163335D01*
X304063D01*
Y164959D01*
D02*
G37*
G36*
X227481Y174756D02*
X226669Y174594D01*
X225980Y174134D01*
X225519Y173445D01*
X225358Y172632D01*
X225519Y171819D01*
X225980Y171131D01*
X226338Y170891D01*
Y170290D01*
X225992Y170059D01*
X225532Y169370D01*
X225370Y168557D01*
X225532Y167745D01*
X225992Y167056D01*
X226681Y166595D01*
X227493Y166434D01*
X228306Y166595D01*
X228995Y167056D01*
X229455Y167745D01*
X229617Y168557D01*
X229455Y169370D01*
X228995Y170059D01*
X228637Y170298D01*
Y170899D01*
X228983Y171131D01*
X229443Y171819D01*
X229605Y172632D01*
X229443Y173445D01*
X228983Y174134D01*
X228294Y174594D01*
X227481Y174756D01*
D02*
G37*
G36*
X135263Y169818D02*
X133739D01*
X133801Y169505D01*
X134262Y168816D01*
X134951Y168356D01*
X135263Y168294D01*
Y169818D01*
D02*
G37*
G36*
X137787D02*
X136263D01*
Y168294D01*
X136576Y168356D01*
X137265Y168816D01*
X137725Y169505D01*
X137787Y169818D01*
D02*
G37*
G36*
X192045Y170681D02*
X191233Y170519D01*
X190544Y170059D01*
X190084Y169370D01*
X189922Y168557D01*
X190084Y167745D01*
X190544Y167056D01*
X191233Y166595D01*
X192045Y166434D01*
X192858Y166595D01*
X193547Y167056D01*
X194007Y167745D01*
X194169Y168557D01*
X194007Y169370D01*
X193547Y170059D01*
X192858Y170519D01*
X192045Y170681D01*
D02*
G37*
G36*
X305063Y164959D02*
Y163335D01*
X306687D01*
X306617Y163686D01*
X306135Y164407D01*
X305414Y164889D01*
X305063Y164959D01*
D02*
G37*
G36*
X218291Y165833D02*
X217979Y165771D01*
X217290Y165311D01*
X216829Y164622D01*
X216767Y164309D01*
X218291D01*
Y165833D01*
D02*
G37*
G36*
X219291D02*
Y164309D01*
X220815D01*
X220753Y164622D01*
X220293Y165311D01*
X219604Y165771D01*
X219291Y165833D01*
D02*
G37*
G36*
X263107Y216092D02*
X262294Y215931D01*
X261606Y215471D01*
X261145Y214782D01*
X260984Y213969D01*
X261145Y213156D01*
X261606Y212468D01*
X262294Y212007D01*
X263107Y211846D01*
X263920Y212007D01*
X264609Y212468D01*
X265069Y213156D01*
X265230Y213969D01*
X265069Y214782D01*
X264609Y215471D01*
X263920Y215931D01*
X263107Y216092D01*
D02*
G37*
G36*
X224531Y219918D02*
X223718Y219757D01*
X223029Y219297D01*
X222569Y218608D01*
X222408Y217795D01*
X222569Y216982D01*
X223029Y216294D01*
X223718Y215833D01*
X224088Y215760D01*
X224529Y215658D01*
X224451Y215216D01*
X224377Y214843D01*
X224538Y214030D01*
X224998Y213341D01*
X225687Y212881D01*
X226500Y212720D01*
X227313Y212881D01*
X228001Y213341D01*
X228462Y214030D01*
X228623Y214843D01*
X228462Y215656D01*
X228001Y216344D01*
X227313Y216805D01*
X226943Y216878D01*
X226502Y216980D01*
X226580Y217422D01*
X226654Y217795D01*
X226493Y218608D01*
X226032Y219297D01*
X225344Y219757D01*
X224531Y219918D01*
D02*
G37*
G36*
X153468Y219328D02*
X152655Y219167D01*
X151967Y218706D01*
X151506Y218018D01*
X151444Y217703D01*
X150883Y217592D01*
X150195Y217131D01*
X149734Y216443D01*
X149573Y215630D01*
X149734Y214817D01*
X150195Y214128D01*
X150883Y213668D01*
X151696Y213507D01*
X152509Y213668D01*
X153198Y214128D01*
X153218Y214159D01*
X153718D01*
X153738Y214128D01*
X154427Y213668D01*
X155240Y213507D01*
X156053Y213668D01*
X156741Y214128D01*
X157202Y214817D01*
X157363Y215630D01*
X157202Y216443D01*
X156741Y217131D01*
X156053Y217592D01*
X155492Y217703D01*
X155430Y218018D01*
X154970Y218706D01*
X154281Y219167D01*
X153468Y219328D01*
D02*
G37*
G36*
X234570Y215391D02*
X233757Y215230D01*
X233068Y214770D01*
X232608Y214081D01*
X232447Y213268D01*
X232608Y212455D01*
X233068Y211767D01*
X233757Y211306D01*
X234570Y211145D01*
X235383Y211306D01*
X236071Y211767D01*
X236532Y212455D01*
X236693Y213268D01*
X236532Y214081D01*
X236071Y214770D01*
X235383Y215230D01*
X234570Y215391D01*
D02*
G37*
G36*
X262947Y208090D02*
X262134Y207929D01*
X261445Y207468D01*
X260985Y206779D01*
X260823Y205967D01*
X260985Y205154D01*
X261445Y204465D01*
X262134Y204005D01*
X262947Y203843D01*
X263759Y204005D01*
X264448Y204465D01*
X264908Y205154D01*
X265070Y205967D01*
X264908Y206779D01*
X264448Y207468D01*
X263759Y207929D01*
X262947Y208090D01*
D02*
G37*
G36*
X248668Y211379D02*
X247855Y211217D01*
X247166Y210757D01*
X246706Y210068D01*
X246544Y209256D01*
X246706Y208443D01*
X247166Y207754D01*
X247855Y207294D01*
X248668Y207132D01*
X249480Y207294D01*
X250169Y207754D01*
X250629Y208443D01*
X250791Y209256D01*
X250629Y210068D01*
X250169Y210757D01*
X249480Y211217D01*
X248668Y211379D01*
D02*
G37*
G36*
X188114Y214407D02*
X187301Y214246D01*
X186612Y213786D01*
X186152Y213097D01*
X185991Y212284D01*
X186152Y211471D01*
X186612Y210783D01*
X187301Y210322D01*
X188114Y210161D01*
X188927Y210322D01*
X189615Y210783D01*
X190076Y211471D01*
X190237Y212284D01*
X190076Y213097D01*
X189615Y213786D01*
X188927Y214246D01*
X188114Y214407D01*
D02*
G37*
G36*
X217444Y217753D02*
X216631Y217592D01*
X215943Y217131D01*
X215482Y216443D01*
X215321Y215630D01*
X215482Y214817D01*
X215943Y214128D01*
X216631Y213668D01*
X217444Y213507D01*
X218257Y213668D01*
X218946Y214128D01*
X219406Y214817D01*
X219567Y215630D01*
X219406Y216443D01*
X218946Y217131D01*
X218257Y217592D01*
X217444Y217753D01*
D02*
G37*
G36*
X165673Y223068D02*
X164860Y222907D01*
X164172Y222446D01*
X163711Y221758D01*
X163550Y220945D01*
X163711Y220132D01*
X164172Y219443D01*
X164860Y218983D01*
X165673Y218822D01*
X166486Y218983D01*
X167174Y219443D01*
X167635Y220132D01*
X167796Y220945D01*
X167635Y221758D01*
X167174Y222446D01*
X166486Y222907D01*
X165673Y223068D01*
D02*
G37*
G36*
X274391Y219942D02*
X273578Y219780D01*
X273210Y219534D01*
X272841Y219780D01*
X272029Y219942D01*
X271216Y219780D01*
X270651Y219402D01*
X270085Y219780D01*
X269273Y219942D01*
X268460Y219780D01*
X267895Y219402D01*
X267329Y219780D01*
X266517Y219942D01*
X265704Y219780D01*
X265015Y219320D01*
X264555Y218631D01*
X264393Y217818D01*
X264555Y217006D01*
X265015Y216317D01*
X265704Y215857D01*
X266517Y215695D01*
X267329Y215857D01*
X267895Y216234D01*
X268460Y215857D01*
X269273Y215695D01*
X270085Y215857D01*
X270651Y216234D01*
X271216Y215857D01*
X272029Y215695D01*
X272841Y215857D01*
X273210Y216103D01*
X273578Y215857D01*
X274391Y215695D01*
X275203Y215857D01*
X275892Y216317D01*
X276353Y217006D01*
X276514Y217818D01*
X276353Y218631D01*
X275892Y219320D01*
X275203Y219780D01*
X274391Y219942D01*
D02*
G37*
G36*
X242248Y228580D02*
X241435Y228419D01*
X240746Y227958D01*
X240580Y227710D01*
X239979D01*
X239812Y227958D01*
X239124Y228419D01*
X238311Y228580D01*
X237498Y228419D01*
X236809Y227958D01*
X236349Y227270D01*
X236188Y226457D01*
X236349Y225644D01*
X236809Y224956D01*
X237498Y224495D01*
X238311Y224334D01*
X239124Y224495D01*
X239812Y224956D01*
X239979Y225204D01*
X240580D01*
X240746Y224956D01*
X241435Y224495D01*
X242248Y224334D01*
X243061Y224495D01*
X243749Y224956D01*
X244210Y225644D01*
X244371Y226457D01*
X244210Y227270D01*
X243749Y227958D01*
X243061Y228419D01*
X242248Y228580D01*
D02*
G37*
G36*
X248941Y221493D02*
X248128Y221332D01*
X247440Y220871D01*
X246979Y220183D01*
X246818Y219370D01*
X246979Y218557D01*
X247440Y217868D01*
X248128Y217408D01*
X248941Y217247D01*
X249754Y217408D01*
X250443Y217868D01*
X250903Y218557D01*
X251064Y219370D01*
X250903Y220183D01*
X250443Y220871D01*
X249754Y221332D01*
X248941Y221493D01*
D02*
G37*
G36*
X194610Y218344D02*
X193797Y218183D01*
X193108Y217723D01*
X192648Y217034D01*
X192487Y216221D01*
X192648Y215408D01*
X193108Y214720D01*
X193797Y214259D01*
X194610Y214098D01*
X195423Y214259D01*
X196112Y214720D01*
X196572Y215408D01*
X196733Y216221D01*
X196572Y217034D01*
X196112Y217723D01*
X195423Y218183D01*
X194610Y218344D01*
D02*
G37*
G36*
X333815Y228397D02*
X332423Y228259D01*
X331084Y227853D01*
X329850Y227194D01*
X328768Y226306D01*
X327881Y225225D01*
X327221Y223991D01*
X326815Y222652D01*
X326678Y221260D01*
X326815Y219867D01*
X327221Y218529D01*
X327881Y217295D01*
X328768Y216213D01*
X329850Y215326D01*
X331084Y214666D01*
X332423Y214260D01*
X333815Y214123D01*
X335207Y214260D01*
X336546Y214666D01*
X337780Y215326D01*
X338861Y216213D01*
X339749Y217295D01*
X340408Y218529D01*
X340815Y219867D01*
X340952Y221260D01*
X340815Y222652D01*
X340408Y223991D01*
X339749Y225225D01*
X338861Y226306D01*
X337780Y227194D01*
X336546Y227853D01*
X335207Y228259D01*
X333815Y228397D01*
D02*
G37*
G36*
X169216Y219525D02*
X168403Y219364D01*
X167715Y218903D01*
X167254Y218215D01*
X167093Y217402D01*
X167254Y216589D01*
X167715Y215900D01*
X168403Y215440D01*
X169216Y215279D01*
X170029Y215440D01*
X170718Y215900D01*
X171178Y216589D01*
X171339Y217402D01*
X171178Y218215D01*
X170718Y218903D01*
X170029Y219364D01*
X169216Y219525D01*
D02*
G37*
G36*
X248792Y203767D02*
X247980Y203605D01*
X247291Y203145D01*
X246831Y202456D01*
X246669Y201643D01*
X246831Y200831D01*
X247291Y200142D01*
X247980Y199681D01*
X248792Y199520D01*
X249605Y199681D01*
X250294Y200142D01*
X250754Y200831D01*
X250916Y201643D01*
X250754Y202456D01*
X250294Y203145D01*
X249605Y203605D01*
X248792Y203767D01*
D02*
G37*
G36*
X219019Y184285D02*
X218283Y184138D01*
X217659Y183722D01*
X217243Y183098D01*
X217096Y182362D01*
X217243Y181626D01*
X217659Y181002D01*
X218283Y180586D01*
X219019Y180439D01*
X219755Y180586D01*
X220378Y181002D01*
X220795Y181626D01*
X220942Y182362D01*
X220795Y183098D01*
X220378Y183722D01*
X219755Y184138D01*
X219019Y184285D01*
D02*
G37*
G36*
X267086Y186848D02*
X266274Y186687D01*
X265585Y186226D01*
X265125Y185538D01*
X264963Y184725D01*
X265125Y183912D01*
X265585Y183223D01*
X266274Y182763D01*
X267086Y182602D01*
X267899Y182763D01*
X268588Y183223D01*
X269048Y183912D01*
X269210Y184725D01*
X269048Y185538D01*
X268588Y186226D01*
X267899Y186687D01*
X267086Y186848D01*
D02*
G37*
G36*
X203271Y187635D02*
X202458Y187474D01*
X201769Y187013D01*
X201309Y186325D01*
X201148Y185512D01*
X201309Y184699D01*
X201769Y184011D01*
X202458Y183550D01*
X203271Y183389D01*
X204084Y183550D01*
X204772Y184011D01*
X205233Y184699D01*
X205394Y185512D01*
X205233Y186325D01*
X204772Y187013D01*
X204084Y187474D01*
X203271Y187635D01*
D02*
G37*
G36*
X176696Y184682D02*
X175883Y184521D01*
X175195Y184061D01*
X174734Y183372D01*
X174573Y182559D01*
X174734Y181746D01*
X175195Y181058D01*
X175883Y180597D01*
X176696Y180436D01*
X177509Y180597D01*
X178198Y181058D01*
X178658Y181746D01*
X178819Y182559D01*
X178658Y183372D01*
X178198Y184061D01*
X177509Y184521D01*
X176696Y184682D01*
D02*
G37*
G36*
X242641Y186254D02*
X241905Y186107D01*
X241281Y185691D01*
X240865Y185067D01*
X240718Y184331D01*
X240865Y183595D01*
X241281Y182972D01*
X241534Y182802D01*
X241494Y182538D01*
X241384Y182302D01*
X240724Y182170D01*
X240101Y181754D01*
X239684Y181130D01*
X239537Y180394D01*
X239684Y179658D01*
X240101Y179034D01*
X240262Y178927D01*
D01*
X240565Y178724D01*
X240724Y178618D01*
X241460Y178471D01*
X242196Y178618D01*
X242658Y178927D01*
D01*
X242819Y179034D01*
X243236Y179658D01*
X243383Y180394D01*
X243236Y181130D01*
X242819Y181754D01*
X242567Y181922D01*
X242607Y182187D01*
X242717Y182423D01*
X243377Y182555D01*
X244001Y182972D01*
X244417Y183595D01*
X244564Y184331D01*
X244417Y185067D01*
X244001Y185691D01*
X243377Y186107D01*
X242641Y186254D01*
D02*
G37*
G36*
X236548Y182308D02*
X235830Y182090D01*
X235250Y181614D01*
X234896Y180953D01*
X234823Y180206D01*
X235040Y179488D01*
X235501Y178927D01*
X235501Y178927D01*
X235516Y178908D01*
X236177Y178554D01*
X236924Y178481D01*
X237642Y178698D01*
X237785Y178816D01*
X238222Y179174D01*
X238576Y179835D01*
X238650Y180582D01*
X238432Y181300D01*
X237956Y181880D01*
X237295Y182234D01*
X236548Y182308D01*
D02*
G37*
G36*
X254317Y184431D02*
X253505Y184269D01*
X252816Y183809D01*
X252356Y183120D01*
X252194Y182308D01*
X252356Y181495D01*
X252816Y180806D01*
X253505Y180346D01*
X254317Y180184D01*
X255130Y180346D01*
X255819Y180806D01*
X256279Y181495D01*
X256441Y182308D01*
X256279Y183120D01*
X255819Y183809D01*
X255130Y184269D01*
X254317Y184431D01*
D02*
G37*
G36*
X158192Y195115D02*
X157379Y194954D01*
X156691Y194493D01*
X156230Y193805D01*
X156069Y192992D01*
X156136Y192651D01*
X156027Y192163D01*
X155214Y192002D01*
X154525Y191542D01*
X154065Y190853D01*
X153904Y190040D01*
X154065Y189227D01*
X154525Y188539D01*
X155214Y188078D01*
X156027Y187917D01*
X156689Y188048D01*
X156887Y187750D01*
X157576Y187290D01*
X158389Y187129D01*
X159202Y187290D01*
X159890Y187750D01*
X160090Y188048D01*
X160752Y187917D01*
X161565Y188078D01*
X162253Y188539D01*
X162714Y189227D01*
X162875Y190040D01*
X162714Y190853D01*
X162253Y191542D01*
X161565Y192002D01*
X160752Y192163D01*
X160657Y192145D01*
X160231Y192570D01*
X160315Y192992D01*
X160154Y193805D01*
X159694Y194493D01*
X159005Y194954D01*
X158192Y195115D01*
D02*
G37*
G36*
X248585Y196444D02*
X247773Y196283D01*
X247084Y195823D01*
X246623Y195134D01*
X246462Y194321D01*
X246623Y193509D01*
X247084Y192820D01*
X247773Y192359D01*
X248585Y192198D01*
X249398Y192359D01*
X250087Y192820D01*
X250547Y193509D01*
X250709Y194321D01*
X250547Y195134D01*
X250087Y195823D01*
X249398Y196283D01*
X248585Y196444D01*
D02*
G37*
G36*
X263050Y199643D02*
X262237Y199482D01*
X261548Y199021D01*
X261088Y198333D01*
X260926Y197520D01*
X261088Y196707D01*
X261548Y196019D01*
X262237Y195558D01*
X263050Y195397D01*
X263862Y195558D01*
X264551Y196019D01*
X265011Y196707D01*
X265173Y197520D01*
X265011Y198333D01*
X264551Y199021D01*
X263862Y199482D01*
X263050Y199643D01*
D02*
G37*
G36*
X167641Y202989D02*
X166828Y202828D01*
X166139Y202367D01*
X165679Y201679D01*
X165518Y200866D01*
X165679Y200053D01*
X166057Y199488D01*
X165679Y198923D01*
X165518Y198110D01*
X165679Y197297D01*
X166139Y196608D01*
X166828Y196148D01*
X167641Y195987D01*
X168454Y196148D01*
X169142Y196608D01*
X169603Y197297D01*
X169764Y198110D01*
X169603Y198923D01*
X169225Y199488D01*
X169603Y200053D01*
X169764Y200866D01*
X169603Y201679D01*
X169142Y202367D01*
X168454Y202828D01*
X167641Y202989D01*
D02*
G37*
G36*
X279156Y195954D02*
X278343Y195792D01*
X277654Y195332D01*
X277194Y194643D01*
X277032Y193831D01*
X277194Y193018D01*
X277654Y192329D01*
X278343Y191869D01*
X279156Y191707D01*
X279968Y191869D01*
X280657Y192329D01*
X281118Y193018D01*
X281279Y193831D01*
X281118Y194643D01*
X280657Y195332D01*
X279968Y195792D01*
X279156Y195954D01*
D02*
G37*
G36*
X263205Y192368D02*
X262392Y192207D01*
X261703Y191747D01*
X261243Y191058D01*
X261082Y190245D01*
X261243Y189433D01*
X261703Y188744D01*
X262392Y188283D01*
X263205Y188122D01*
X264018Y188283D01*
X264706Y188744D01*
X265167Y189433D01*
X265328Y190245D01*
X265167Y191058D01*
X264706Y191747D01*
X264018Y192207D01*
X263205Y192368D01*
D02*
G37*
G36*
X290519Y218843D02*
X289668Y218674D01*
X288947Y218192D01*
X288464Y217471D01*
X288295Y216619D01*
X288464Y215769D01*
X288947Y215047D01*
X289195Y214881D01*
Y214381D01*
X288947Y214215D01*
X288464Y213494D01*
X288295Y212643D01*
X288464Y211792D01*
X288947Y211071D01*
X289195Y210905D01*
Y210405D01*
X288947Y210239D01*
X288464Y209518D01*
X288295Y208667D01*
X288464Y207816D01*
X288947Y207094D01*
X289195Y206928D01*
Y206428D01*
X288947Y206263D01*
X288464Y205541D01*
X288295Y204690D01*
X288464Y203839D01*
X288947Y203118D01*
X289195Y202952D01*
Y202452D01*
X288947Y202286D01*
X288464Y201565D01*
X288295Y200714D01*
X288464Y199863D01*
X288947Y199141D01*
X289195Y198975D01*
Y198475D01*
X288947Y198310D01*
X288464Y197588D01*
X288295Y196737D01*
X288464Y195886D01*
X288947Y195165D01*
X289195Y194999D01*
Y194499D01*
X288947Y194333D01*
X288464Y193612D01*
X288295Y192761D01*
X288464Y191910D01*
X288947Y191188D01*
X289668Y190706D01*
X290519Y190537D01*
X291370Y190706D01*
X292091Y191188D01*
X292573Y191910D01*
X292743Y192761D01*
X292573Y193612D01*
X292091Y194333D01*
X291843Y194499D01*
Y194999D01*
X292091Y195165D01*
X292573Y195886D01*
X292743Y196737D01*
X292573Y197588D01*
X292091Y198310D01*
X291843Y198475D01*
Y198975D01*
X292091Y199141D01*
X292573Y199863D01*
X292743Y200714D01*
X292573Y201565D01*
X292091Y202286D01*
X291843Y202452D01*
Y202952D01*
X292091Y203118D01*
X292573Y203839D01*
X292743Y204690D01*
X292573Y205541D01*
X292091Y206263D01*
X291843Y206428D01*
Y206928D01*
X292091Y207094D01*
X292573Y207816D01*
X292743Y208667D01*
X292573Y209518D01*
X292091Y210239D01*
X291843Y210405D01*
Y210905D01*
X292091Y211071D01*
X292573Y211792D01*
X292743Y212643D01*
X292573Y213494D01*
X292091Y214215D01*
X291843Y214381D01*
Y214881D01*
X292091Y215047D01*
X292573Y215769D01*
X292743Y216619D01*
X292573Y217471D01*
X292091Y218192D01*
X291370Y218674D01*
X290519Y218843D01*
D02*
G37*
G36*
X307135Y218917D02*
X306284Y218747D01*
X305563Y218265D01*
X305081Y217544D01*
X304911Y216693D01*
X305081Y215842D01*
X305563Y215120D01*
X305811Y214955D01*
Y214455D01*
X305563Y214289D01*
X305081Y213567D01*
X304911Y212716D01*
X305081Y211865D01*
X305563Y211144D01*
X305811Y210978D01*
Y210478D01*
X305563Y210312D01*
X305081Y209591D01*
X304911Y208740D01*
X305081Y207889D01*
X305563Y207168D01*
X305811Y207002D01*
Y206502D01*
X305563Y206336D01*
X305081Y205614D01*
X304911Y204764D01*
X305081Y203912D01*
X305563Y203191D01*
X305811Y203025D01*
Y202525D01*
X305563Y202360D01*
X305081Y201638D01*
X304911Y200787D01*
X305081Y199936D01*
X305563Y199215D01*
X305811Y199049D01*
Y198549D01*
X305563Y198383D01*
X305081Y197662D01*
X304911Y196811D01*
X305081Y195960D01*
X305563Y195238D01*
X305811Y195072D01*
Y194572D01*
X305563Y194406D01*
X305081Y193685D01*
X304911Y192834D01*
X305081Y191983D01*
X305563Y191262D01*
X306284Y190780D01*
X307135Y190610D01*
X307986Y190780D01*
X308708Y191262D01*
X309190Y191983D01*
X309359Y192834D01*
X309190Y193685D01*
X308708Y194406D01*
X308459Y194572D01*
Y195072D01*
X308708Y195238D01*
X309190Y195960D01*
X309359Y196811D01*
X309190Y197662D01*
X308708Y198383D01*
X308459Y198549D01*
Y199049D01*
X308708Y199215D01*
X309190Y199936D01*
X309359Y200787D01*
X309190Y201638D01*
X308708Y202360D01*
X308459Y202525D01*
Y203025D01*
X308708Y203191D01*
X309190Y203912D01*
X309359Y204764D01*
X309190Y205614D01*
X308708Y206336D01*
X308459Y206502D01*
Y207002D01*
X308708Y207168D01*
X309190Y207889D01*
X309359Y208740D01*
X309190Y209591D01*
X308708Y210312D01*
X308459Y210478D01*
Y210978D01*
X308708Y211144D01*
X309190Y211865D01*
X309359Y212716D01*
X309190Y213567D01*
X308708Y214289D01*
X308459Y214455D01*
Y214955D01*
X308708Y215120D01*
X309190Y215842D01*
X309359Y216693D01*
X309190Y217544D01*
X308708Y218265D01*
X307986Y218747D01*
X307135Y218917D01*
D02*
G37*
G36*
X199897Y160524D02*
Y158900D01*
X201521D01*
X201451Y159251D01*
X200969Y159973D01*
X200248Y160454D01*
X199897Y160524D01*
D02*
G37*
G36*
X138028Y151436D02*
X136739Y151267D01*
X135538Y150769D01*
X134506Y149978D01*
X133715Y148946D01*
X133218Y147746D01*
X133048Y146457D01*
X133218Y145168D01*
X133715Y143967D01*
X134506Y142936D01*
X135538Y142144D01*
X136739Y141647D01*
X138028Y141477D01*
X139316Y141647D01*
X140517Y142144D01*
X141549Y142936D01*
X142340Y143967D01*
X142838Y145168D01*
X143007Y146457D01*
X142838Y147746D01*
X142340Y148946D01*
X141549Y149978D01*
X140517Y150769D01*
X139316Y151267D01*
X138028Y151436D01*
D02*
G37*
G36*
X321020D02*
X319731Y151267D01*
X318530Y150769D01*
X317499Y149978D01*
X316707Y148946D01*
X316210Y147746D01*
X316040Y146457D01*
X316210Y145168D01*
X316707Y143967D01*
X317499Y142936D01*
X318530Y142144D01*
X319731Y141647D01*
X321020Y141477D01*
X322308Y141647D01*
X323510Y142144D01*
X324541Y142936D01*
X325332Y143967D01*
X325830Y145168D01*
X325999Y146457D01*
X325830Y147746D01*
X325332Y148946D01*
X324541Y149978D01*
X323510Y150769D01*
X322308Y151267D01*
X321020Y151436D01*
D02*
G37*
G36*
X260141Y144234D02*
X258517D01*
X258586Y143883D01*
X259068Y143161D01*
X259790Y142679D01*
X260141Y142609D01*
Y144234D01*
D02*
G37*
G36*
X118130Y142876D02*
X117227Y142757D01*
X116385Y142409D01*
X116062Y142161D01*
X118130Y140093D01*
X120198Y142161D01*
X119875Y142409D01*
X119034Y142757D01*
X118130Y142876D01*
D02*
G37*
G36*
X115355Y141454D02*
X115107Y141131D01*
X114759Y140289D01*
X114640Y139386D01*
X114759Y138482D01*
X115107Y137640D01*
X115355Y137318D01*
X117423Y139386D01*
X115355Y141454D01*
D02*
G37*
G36*
X294417Y140707D02*
X294066Y140637D01*
X293345Y140155D01*
X292863Y139434D01*
X292793Y139083D01*
X294417D01*
Y140707D01*
D02*
G37*
G36*
X295417D02*
Y139083D01*
X297042D01*
X296972Y139434D01*
X296490Y140155D01*
X295768Y140637D01*
X295417Y140707D01*
D02*
G37*
G36*
X262765Y144234D02*
X261141D01*
Y142609D01*
X261492Y142679D01*
X262213Y143161D01*
X262695Y143883D01*
X262765Y144234D01*
D02*
G37*
G36*
X218254Y147774D02*
X217942Y147712D01*
X217253Y147252D01*
X216793Y146563D01*
X216730Y146250D01*
X218254D01*
Y147774D01*
D02*
G37*
G36*
X219254D02*
Y146250D01*
X220778D01*
X220716Y146563D01*
X220256Y147252D01*
X219567Y147712D01*
X219254Y147774D01*
D02*
G37*
G36*
X237599Y149022D02*
X235974D01*
X236044Y148671D01*
X236526Y147950D01*
X237248Y147468D01*
X237599Y147398D01*
Y149022D01*
D02*
G37*
G36*
X261141Y146858D02*
Y145234D01*
X262765D01*
X262695Y145585D01*
X262213Y146306D01*
X261492Y146788D01*
X261141Y146858D01*
D02*
G37*
G36*
X218254Y145250D02*
X216730D01*
X216793Y144938D01*
X217253Y144249D01*
X217942Y143788D01*
X218254Y143726D01*
Y145250D01*
D02*
G37*
G36*
X220778D02*
X219254D01*
Y143726D01*
X219567Y143788D01*
X220256Y144249D01*
X220716Y144938D01*
X220778Y145250D01*
D02*
G37*
G36*
X260141Y146858D02*
X259790Y146788D01*
X259068Y146306D01*
X258586Y145585D01*
X258517Y145234D01*
X260141D01*
Y146858D01*
D02*
G37*
G36*
X120905Y141454D02*
X118837Y139386D01*
X120905Y137318D01*
X121153Y137640D01*
X121502Y138482D01*
X121621Y139386D01*
X121502Y140289D01*
X121153Y141131D01*
X120905Y141454D01*
D02*
G37*
G36*
X138264Y136043D02*
X137413Y135873D01*
X136691Y135391D01*
X136209Y134670D01*
X136040Y133819D01*
X136209Y132968D01*
X136691Y132246D01*
X137413Y131764D01*
X138264Y131595D01*
X139115Y131764D01*
X139836Y132246D01*
X140318Y132968D01*
X140488Y133819D01*
X140318Y134670D01*
X139836Y135391D01*
X139115Y135873D01*
X138264Y136043D01*
D02*
G37*
G36*
X342201Y136712D02*
X341350Y136543D01*
X340628Y136061D01*
X340146Y135339D01*
X339977Y134488D01*
X340146Y133637D01*
X340628Y132916D01*
X341350Y132434D01*
X342201Y132264D01*
X343052Y132434D01*
X343773Y132916D01*
X344255Y133637D01*
X344425Y134488D01*
X344255Y135339D01*
X343773Y136061D01*
X343052Y136543D01*
X342201Y136712D01*
D02*
G37*
G36*
X205580Y135058D02*
X203955D01*
X204025Y134707D01*
X204507Y133985D01*
X205229Y133503D01*
X205580Y133433D01*
Y135058D01*
D02*
G37*
G36*
X172831Y136003D02*
X171980Y135834D01*
X171258Y135352D01*
X170776Y134631D01*
X170607Y133780D01*
X170776Y132929D01*
X171258Y132207D01*
X171980Y131725D01*
X172831Y131556D01*
X173682Y131725D01*
X174403Y132207D01*
X174885Y132929D01*
X175055Y133780D01*
X174885Y134631D01*
X174403Y135352D01*
X173682Y135834D01*
X172831Y136003D01*
D02*
G37*
G36*
X283685Y131731D02*
Y130106D01*
X285309D01*
X285240Y130457D01*
X284757Y131179D01*
X284036Y131661D01*
X283685Y131731D01*
D02*
G37*
G36*
X304221Y131888D02*
X303870Y131818D01*
X303148Y131336D01*
X302666Y130615D01*
X302596Y130264D01*
X304221D01*
Y131888D01*
D02*
G37*
G36*
X305221D02*
Y130264D01*
X306845D01*
X306775Y130615D01*
X306293Y131336D01*
X305572Y131818D01*
X305221Y131888D01*
D02*
G37*
G36*
X208204Y135058D02*
X206580D01*
Y133433D01*
X206931Y133503D01*
X207652Y133985D01*
X208134Y134707D01*
X208204Y135058D01*
D02*
G37*
G36*
X294417Y138083D02*
X292793D01*
X292863Y137732D01*
X293345Y137010D01*
X294066Y136528D01*
X294417Y136458D01*
Y138083D01*
D02*
G37*
G36*
X297042D02*
X295417D01*
Y136458D01*
X295768Y136528D01*
X296490Y137010D01*
X296972Y137732D01*
X297042Y138083D01*
D02*
G37*
G36*
X173972Y141673D02*
X173121Y141503D01*
X172400Y141021D01*
X171918Y140300D01*
X171749Y139449D01*
X171918Y138598D01*
X172400Y137876D01*
X173121Y137394D01*
X173972Y137225D01*
X174823Y137394D01*
X175545Y137876D01*
X176027Y138598D01*
X176196Y139449D01*
X176027Y140300D01*
X175545Y141021D01*
X174823Y141503D01*
X173972Y141673D01*
D02*
G37*
G36*
X206580Y137682D02*
Y136058D01*
X208204D01*
X208134Y136409D01*
X207652Y137130D01*
X206931Y137612D01*
X206580Y137682D01*
D02*
G37*
G36*
X103988Y142876D02*
X103085Y142757D01*
X102243Y142409D01*
X101520Y141854D01*
X100965Y141131D01*
X100616Y140289D01*
X100497Y139386D01*
X100616Y138482D01*
X100965Y137640D01*
X101520Y136917D01*
X102243Y136363D01*
X103085Y136014D01*
X103988Y135895D01*
X104891Y136014D01*
X105733Y136363D01*
X106456Y136917D01*
X107011Y137640D01*
X107360Y138482D01*
X107478Y139386D01*
X107360Y140289D01*
X107011Y141131D01*
X106456Y141854D01*
X105733Y142409D01*
X104891Y142757D01*
X103988Y142876D01*
D02*
G37*
G36*
X118130Y138679D02*
X116062Y136610D01*
X116385Y136363D01*
X117227Y136014D01*
X118130Y135895D01*
X119034Y136014D01*
X119875Y136363D01*
X120198Y136610D01*
X118130Y138679D01*
D02*
G37*
G36*
X205580Y137682D02*
X205229Y137612D01*
X204507Y137130D01*
X204025Y136409D01*
X203955Y136058D01*
X205580D01*
Y137682D01*
D02*
G37*
G36*
X294591Y156534D02*
Y154909D01*
X296215D01*
X296145Y155260D01*
X295663Y155982D01*
X294942Y156464D01*
X294591Y156534D01*
D02*
G37*
G36*
X257947Y157202D02*
X256323D01*
X256393Y156851D01*
X256875Y156129D01*
X257596Y155647D01*
X257947Y155577D01*
Y157202D01*
D02*
G37*
G36*
X260572D02*
X258947D01*
Y155577D01*
X259298Y155647D01*
X260020Y156129D01*
X260502Y156851D01*
X260572Y157202D01*
D02*
G37*
G36*
X293591Y156534D02*
X293240Y156464D01*
X292518Y155982D01*
X292036Y155260D01*
X291966Y154909D01*
X293591D01*
Y156534D01*
D02*
G37*
G36*
X296215Y153909D02*
X294591D01*
Y152285D01*
X294942Y152355D01*
X295663Y152837D01*
X296145Y153558D01*
X296215Y153909D01*
D02*
G37*
G36*
X215754Y155774D02*
X215442Y155712D01*
X214753Y155252D01*
X214293Y154563D01*
X214230Y154250D01*
X215754D01*
Y155774D01*
D02*
G37*
G36*
X216754D02*
Y154250D01*
X218278D01*
X218216Y154563D01*
X217756Y155252D01*
X217067Y155712D01*
X216754Y155774D01*
D02*
G37*
G36*
X341768Y160570D02*
X340917Y160401D01*
X340195Y159919D01*
X339713Y159197D01*
X339544Y158346D01*
X339713Y157495D01*
X340195Y156774D01*
X340917Y156292D01*
X341768Y156123D01*
X342619Y156292D01*
X343340Y156774D01*
X343822Y157495D01*
X343991Y158346D01*
X343822Y159197D01*
X343340Y159919D01*
X342619Y160401D01*
X341768Y160570D01*
D02*
G37*
G36*
X257947Y159826D02*
X257596Y159756D01*
X256875Y159274D01*
X256393Y158553D01*
X256323Y158202D01*
X257947D01*
Y159826D01*
D02*
G37*
G36*
X258947D02*
Y158202D01*
X260572D01*
X260502Y158553D01*
X260020Y159274D01*
X259298Y159756D01*
X258947Y159826D01*
D02*
G37*
G36*
X198897Y160524D02*
X198546Y160454D01*
X197824Y159973D01*
X197342Y159251D01*
X197272Y158900D01*
X198897D01*
Y160524D01*
D02*
G37*
G36*
X220778Y159250D02*
X219254D01*
Y157726D01*
X219567Y157788D01*
X220256Y158249D01*
X220716Y158938D01*
X220778Y159250D01*
D02*
G37*
G36*
X198897Y157900D02*
X197272D01*
X197342Y157549D01*
X197824Y156827D01*
X198546Y156345D01*
X198897Y156276D01*
Y157900D01*
D02*
G37*
G36*
X201521D02*
X199897D01*
Y156276D01*
X200248Y156345D01*
X200969Y156827D01*
X201451Y157549D01*
X201521Y157900D01*
D02*
G37*
G36*
X214155Y159198D02*
X212631D01*
X212694Y158885D01*
X213154Y158196D01*
X213843Y157736D01*
X214155Y157674D01*
Y159198D01*
D02*
G37*
G36*
X293591Y153909D02*
X291966D01*
X292036Y153558D01*
X292518Y152837D01*
X293240Y152355D01*
X293591Y152285D01*
Y153909D01*
D02*
G37*
G36*
X103988Y158422D02*
X99094Y153528D01*
X103988Y148634D01*
X108882Y153528D01*
X103988Y158422D01*
D02*
G37*
G36*
X275304Y150818D02*
X273679D01*
X273749Y150467D01*
X274231Y149745D01*
X274953Y149263D01*
X275304Y149193D01*
Y150818D01*
D02*
G37*
G36*
X277928D02*
X276304D01*
Y149193D01*
X276655Y149263D01*
X277376Y149745D01*
X277858Y150467D01*
X277928Y150818D01*
D02*
G37*
G36*
X223278Y149750D02*
X221754D01*
Y148226D01*
X222067Y148288D01*
X222756Y148749D01*
X223216Y149438D01*
X223278Y149750D01*
D02*
G37*
G36*
X240223Y149022D02*
X238599D01*
Y147398D01*
X238950Y147468D01*
X239671Y147950D01*
X240153Y148671D01*
X240223Y149022D01*
D02*
G37*
G36*
X183579Y152303D02*
X182728Y152133D01*
X182006Y151651D01*
X181524Y150930D01*
X181355Y150079D01*
X181524Y149228D01*
X182006Y148506D01*
X182728Y148024D01*
X183579Y147855D01*
X184430Y148024D01*
X185151Y148506D01*
X185633Y149228D01*
X185803Y150079D01*
X185633Y150930D01*
X185151Y151651D01*
X184430Y152133D01*
X183579Y152303D01*
D02*
G37*
G36*
X220754Y149750D02*
X219230D01*
X219293Y149438D01*
X219753Y148749D01*
X220442Y148288D01*
X220754Y148226D01*
Y149750D01*
D02*
G37*
G36*
X237599Y151647D02*
X237248Y151577D01*
X236526Y151095D01*
X236044Y150373D01*
X235974Y150022D01*
X237599D01*
Y151647D01*
D02*
G37*
G36*
X218278Y153250D02*
X216754D01*
Y151726D01*
X217067Y151788D01*
X217756Y152249D01*
X218216Y152938D01*
X218278Y153250D01*
D02*
G37*
G36*
X275304Y153442D02*
X274953Y153372D01*
X274231Y152890D01*
X273749Y152169D01*
X273679Y151818D01*
X275304D01*
Y153442D01*
D02*
G37*
G36*
X276304D02*
Y151818D01*
X277928D01*
X277858Y152169D01*
X277376Y152890D01*
X276655Y153372D01*
X276304Y153442D01*
D02*
G37*
G36*
X215754Y153250D02*
X214230D01*
X214293Y152938D01*
X214753Y152249D01*
X215442Y151788D01*
X215754Y151726D01*
Y153250D01*
D02*
G37*
G36*
X238599Y151647D02*
Y150022D01*
X240223D01*
X240153Y150373D01*
X239671Y151095D01*
X238950Y151577D01*
X238599Y151647D01*
D02*
G37*
G36*
X220754Y152274D02*
X220442Y152212D01*
X219753Y151752D01*
X219293Y151063D01*
X219230Y150750D01*
X220754D01*
Y152274D01*
D02*
G37*
G36*
X221754D02*
Y150750D01*
X223278D01*
X223216Y151063D01*
X222756Y151752D01*
X222067Y152212D01*
X221754Y152274D01*
D02*
G37*
%LPD*%
D53*
X118130Y139386D02*
D03*
D56*
X308539Y110020D02*
D03*
Y75020D02*
D03*
X296532Y92520D02*
D03*
D57*
X295232Y123110D02*
D03*
X116177Y72480D02*
D03*
X122988Y64095D02*
D03*
X176728Y69055D02*
D03*
X294917Y138583D02*
D03*
X267004Y118976D02*
D03*
X243894Y129606D02*
D03*
X269917Y65512D02*
D03*
X264248Y91102D02*
D03*
X277673Y105748D02*
D03*
X252988D02*
D03*
X229248Y105630D02*
D03*
X253500Y74882D02*
D03*
X229720Y74803D02*
D03*
X333894Y187441D02*
D03*
X334209Y206850D02*
D03*
X341098Y198071D02*
D03*
X322358Y197756D02*
D03*
X313815Y206968D02*
D03*
X324248Y210118D02*
D03*
X313815Y188465D02*
D03*
Y225472D02*
D03*
X298854Y178307D02*
D03*
X132358Y82992D02*
D03*
X128539Y84252D02*
D03*
X129051Y72913D02*
D03*
X260641Y144734D02*
D03*
X258447Y157702D02*
D03*
X238099Y149522D02*
D03*
X275803Y151318D02*
D03*
X206080Y135558D02*
D03*
X199397Y158400D02*
D03*
X250567Y173063D02*
D03*
D58*
X283185Y129606D02*
D03*
X188303Y121221D02*
D03*
X239642Y119095D02*
D03*
X241453Y64882D02*
D03*
X280114Y74528D02*
D03*
X139130Y65236D02*
D03*
X161098Y65197D02*
D03*
X191453Y65315D02*
D03*
X139209Y73740D02*
D03*
X214602Y64646D02*
D03*
X239524Y90827D02*
D03*
X304720Y129764D02*
D03*
X294091Y154409D02*
D03*
X304563Y162835D02*
D03*
D59*
X263101Y201880D02*
D03*
X245397Y182756D02*
D03*
X276500Y180000D02*
D03*
X255396Y226591D02*
D03*
X258481Y226454D02*
D03*
X262167Y225526D02*
D03*
X252090Y226457D02*
D03*
X262759Y222526D02*
D03*
X212720Y210315D02*
D03*
X242248Y209331D02*
D03*
X263115Y209810D02*
D03*
X219019Y206772D02*
D03*
X222956D02*
D03*
X219019Y202835D02*
D03*
Y198504D02*
D03*
Y194173D02*
D03*
X222956Y198504D02*
D03*
Y194173D02*
D03*
Y202835D02*
D03*
X227287Y206772D02*
D03*
Y202835D02*
D03*
Y198504D02*
D03*
Y194173D02*
D03*
X231618Y206772D02*
D03*
X235948D02*
D03*
X231618Y202835D02*
D03*
X235948D02*
D03*
X231618Y198504D02*
D03*
X235948D02*
D03*
X231618Y194173D02*
D03*
X235555D02*
D03*
X133389Y191614D02*
D03*
X136342D02*
D03*
X139295D02*
D03*
X142248D02*
D03*
X145200D02*
D03*
X148153D02*
D03*
X151106D02*
D03*
Y189055D02*
D03*
X163507Y181969D02*
D03*
X155830Y182953D02*
D03*
X189098Y190827D02*
D03*
X174728Y198307D02*
D03*
X177484Y198898D02*
D03*
X174334Y195158D02*
D03*
X172956Y192795D02*
D03*
X170988Y190630D02*
D03*
X186539Y184331D02*
D03*
X196972Y191418D02*
D03*
X206815Y192008D02*
D03*
X212917Y190630D02*
D03*
X194610Y200670D02*
D03*
X191854Y198504D02*
D03*
X191460Y185709D02*
D03*
X186539Y203622D02*
D03*
X161539Y204213D02*
D03*
Y200670D02*
D03*
X159177D02*
D03*
X156815D02*
D03*
X149334Y193780D02*
D03*
X146185Y199488D02*
D03*
Y196536D02*
D03*
X149137Y208150D02*
D03*
X147366Y214449D02*
D03*
X146185Y193977D02*
D03*
X141066Y194567D02*
D03*
X142051Y208740D02*
D03*
X146578Y207362D02*
D03*
X143429Y212284D02*
D03*
X144413Y208544D02*
D03*
X139689Y208740D02*
D03*
X134767D02*
D03*
X144413Y218189D02*
D03*
X221254Y150250D02*
D03*
X132602Y208740D02*
D03*
X137129D02*
D03*
X140476Y214646D02*
D03*
X136539Y211693D02*
D03*
X130633Y218977D02*
D03*
X117248Y215433D02*
D03*
X162129Y221732D02*
D03*
X177681Y216221D02*
D03*
X208783Y212677D02*
D03*
X164295Y225473D02*
D03*
X154452D02*
D03*
X168232Y190040D02*
D03*
X194413Y191614D02*
D03*
X224531Y221339D02*
D03*
X129999Y193334D02*
D03*
X113683Y197130D02*
D03*
X117146Y193734D02*
D03*
X122940Y196065D02*
D03*
X124538Y191335D02*
D03*
X218754Y145750D02*
D03*
X216254Y153750D02*
D03*
X148500Y188500D02*
D03*
X165082Y195551D02*
D03*
X167051Y181772D02*
D03*
X165279Y183544D02*
D03*
X218754Y159750D02*
D03*
X177484Y192795D02*
D03*
X165673Y190040D02*
D03*
X159177Y204213D02*
D03*
X199728Y189449D02*
D03*
X202484D02*
D03*
X204846Y189843D02*
D03*
X197366Y198110D02*
D03*
X200122D02*
D03*
X202878D02*
D03*
X205633D02*
D03*
X207602Y200079D02*
D03*
X194610Y198110D02*
D03*
X191854Y191418D02*
D03*
X191657Y212677D02*
D03*
X189098Y198898D02*
D03*
X192051Y200866D02*
D03*
X193035Y210709D02*
D03*
X194413Y212677D02*
D03*
X197759D02*
D03*
X200515D02*
D03*
X203271D02*
D03*
X206027D02*
D03*
X174925Y210906D02*
D03*
X186539Y201063D02*
D03*
X174137Y220945D02*
D03*
X152287Y196339D02*
D03*
Y193780D02*
D03*
X273350Y179803D02*
D03*
X269216D02*
D03*
X263901D02*
D03*
X259746Y179288D02*
D03*
X244610Y180000D02*
D03*
X200122Y184725D02*
D03*
X200515Y187087D02*
D03*
X192641Y181969D02*
D03*
X136342Y194567D02*
D03*
X115476Y224882D02*
D03*
X134177Y215040D02*
D03*
X196775Y186103D02*
D03*
X242248Y219567D02*
D03*
X234767Y221536D02*
D03*
X220200Y221732D02*
D03*
X186539Y221339D02*
D03*
X180633Y221142D02*
D03*
X183389Y220748D02*
D03*
X171972Y215236D02*
D03*
X158586Y225670D02*
D03*
X258103Y186436D02*
D03*
X261049D02*
D03*
X161342Y213268D02*
D03*
X136933Y225276D02*
D03*
X180240Y191614D02*
D03*
X181618Y184725D02*
D03*
X195397Y181969D02*
D03*
X198153D02*
D03*
X200909D02*
D03*
X122563Y222323D02*
D03*
X139689Y219370D02*
D03*
X144807Y224882D02*
D03*
X129255Y224685D02*
D03*
X125712Y213071D02*
D03*
X187129Y216221D02*
D03*
X184177D02*
D03*
X181027D02*
D03*
X156815Y204213D02*
D03*
X189492Y202638D02*
D03*
X183783Y209528D02*
D03*
X169216Y212481D02*
D03*
X187129Y189252D02*
D03*
X174728Y216221D02*
D03*
X177484Y220945D02*
D03*
X159374Y216811D02*
D03*
X169019Y209725D02*
D03*
X179059Y211496D02*
D03*
X182011D02*
D03*
X181224Y208937D02*
D03*
X184570Y207166D02*
D03*
X169019Y206969D02*
D03*
X174925Y189843D02*
D03*
X216067Y221732D02*
D03*
X218791Y163809D02*
D03*
X214655Y159698D02*
D03*
X152090Y184134D02*
D03*
X135763Y170318D02*
D03*
X126574Y178816D02*
D03*
X252212Y186436D02*
D03*
X255158D02*
D03*
D60*
X111765Y215174D02*
D03*
X112100Y212933D02*
D03*
X112728Y210757D02*
D03*
X114330Y209155D02*
D03*
X115931Y207553D02*
D03*
X117703Y206141D02*
D03*
X119811Y205312D02*
D03*
X122073Y205180D02*
D03*
X124338D02*
D03*
X126603D02*
D03*
X128869D02*
D03*
X131039Y205830D02*
D03*
X131132Y197991D02*
D03*
X129647Y199702D02*
D03*
X127382D02*
D03*
X125116D02*
D03*
X122851D02*
D03*
X120587Y199766D02*
D03*
X118346Y200100D02*
D03*
X116198Y200821D02*
D03*
X114210Y201906D02*
D03*
X112443Y203324D02*
D03*
X110826Y204910D02*
D03*
M02*
