G04 Layer_Physical_Order=1*
G04 Layer_Color=255*
%FSLAX25Y25*%
%MOIN*%
G70*
G01*
G75*
%ADD10C,0.01138*%
%ADD11R,0.01417X0.02598*%
%ADD12R,0.02598X0.01417*%
G04:AMPARAMS|DCode=13|XSize=14.17mil|YSize=25.98mil|CornerRadius=0mil|HoleSize=0mil|Usage=FLASHONLY|Rotation=315.000|XOffset=0mil|YOffset=0mil|HoleType=Round|Shape=Rectangle|*
%AMROTATEDRECTD13*
4,1,4,-0.01420,-0.00418,0.00418,0.01420,0.01420,0.00418,-0.00418,-0.01420,-0.01420,-0.00418,0.0*
%
%ADD13ROTATEDRECTD13*%

%ADD14R,0.03150X0.03150*%
%ADD15R,0.01969X0.01575*%
%ADD16R,0.01575X0.01969*%
G04:AMPARAMS|DCode=17|XSize=14.17mil|YSize=25.98mil|CornerRadius=0mil|HoleSize=0mil|Usage=FLASHONLY|Rotation=225.000|XOffset=0mil|YOffset=0mil|HoleType=Round|Shape=Rectangle|*
%AMROTATEDRECTD17*
4,1,4,-0.00418,0.01420,0.01420,-0.00418,0.00418,-0.01420,-0.01420,0.00418,-0.00418,0.01420,0.0*
%
%ADD17ROTATEDRECTD17*%

G04:AMPARAMS|DCode=18|XSize=15.75mil|YSize=19.69mil|CornerRadius=0mil|HoleSize=0mil|Usage=FLASHONLY|Rotation=45.000|XOffset=0mil|YOffset=0mil|HoleType=Round|Shape=Rectangle|*
%AMROTATEDRECTD18*
4,1,4,0.00139,-0.01253,-0.01253,0.00139,-0.00139,0.01253,0.01253,-0.00139,0.00139,-0.01253,0.0*
%
%ADD18ROTATEDRECTD18*%

%ADD19R,0.03150X0.02559*%
%ADD20R,0.02362X0.00984*%
%ADD21R,0.00984X0.02362*%
%ADD22R,0.06693X0.06693*%
%ADD23R,0.01280X0.01673*%
%ADD24R,0.01673X0.00984*%
G04:AMPARAMS|DCode=25|XSize=15.75mil|YSize=19.69mil|CornerRadius=0mil|HoleSize=0mil|Usage=FLASHONLY|Rotation=315.000|XOffset=0mil|YOffset=0mil|HoleType=Round|Shape=Rectangle|*
%AMROTATEDRECTD25*
4,1,4,-0.01253,-0.00139,0.00139,0.01253,0.01253,0.00139,-0.00139,-0.01253,-0.01253,-0.00139,0.0*
%
%ADD25ROTATEDRECTD25*%

G04:AMPARAMS|DCode=26|XSize=19.69mil|YSize=11.81mil|CornerRadius=1.77mil|HoleSize=0mil|Usage=FLASHONLY|Rotation=0.000|XOffset=0mil|YOffset=0mil|HoleType=Round|Shape=RoundedRectangle|*
%AMROUNDEDRECTD26*
21,1,0.01969,0.00827,0,0,0.0*
21,1,0.01615,0.01181,0,0,0.0*
1,1,0.00354,0.00807,-0.00413*
1,1,0.00354,-0.00807,-0.00413*
1,1,0.00354,-0.00807,0.00413*
1,1,0.00354,0.00807,0.00413*
%
%ADD26ROUNDEDRECTD26*%
G04:AMPARAMS|DCode=27|XSize=19.69mil|YSize=11.81mil|CornerRadius=1.77mil|HoleSize=0mil|Usage=FLASHONLY|Rotation=90.000|XOffset=0mil|YOffset=0mil|HoleType=Round|Shape=RoundedRectangle|*
%AMROUNDEDRECTD27*
21,1,0.01969,0.00827,0,0,90.0*
21,1,0.01615,0.01181,0,0,90.0*
1,1,0.00354,0.00413,0.00807*
1,1,0.00354,0.00413,-0.00807*
1,1,0.00354,-0.00413,-0.00807*
1,1,0.00354,-0.00413,0.00807*
%
%ADD27ROUNDEDRECTD27*%
G04:AMPARAMS|DCode=28|XSize=19.69mil|YSize=19.69mil|CornerRadius=2.95mil|HoleSize=0mil|Usage=FLASHONLY|Rotation=0.000|XOffset=0mil|YOffset=0mil|HoleType=Round|Shape=RoundedRectangle|*
%AMROUNDEDRECTD28*
21,1,0.01969,0.01378,0,0,0.0*
21,1,0.01378,0.01969,0,0,0.0*
1,1,0.00591,0.00689,-0.00689*
1,1,0.00591,-0.00689,-0.00689*
1,1,0.00591,-0.00689,0.00689*
1,1,0.00591,0.00689,0.00689*
%
%ADD28ROUNDEDRECTD28*%
%ADD29R,0.02362X0.03150*%
%ADD30R,0.02559X0.04134*%
%ADD31R,0.02362X0.04331*%
%ADD32R,0.06693X0.04331*%
%ADD33O,0.08661X0.02362*%
%ADD34R,0.02362X0.06299*%
%ADD35R,0.05118X0.05906*%
%ADD36R,0.09449X0.04331*%
%ADD37R,0.05906X0.05118*%
%ADD38R,0.04331X0.09449*%
%ADD39C,0.00787*%
%ADD40C,0.01969*%
%ADD41C,0.00984*%
%ADD42C,0.01181*%
%ADD43C,0.01000*%
%ADD44C,0.01600*%
%ADD45C,0.00787*%
%ADD46C,0.01969*%
%ADD47C,0.01200*%
%ADD48C,0.00984*%
%ADD49C,0.03200*%
%ADD50R,0.05510X0.07813*%
%ADD51R,0.06323X0.29821*%
%ADD52C,0.01772*%
%ADD53C,0.04921*%
%ADD54P,0.06960X4X360.0*%
%ADD55C,0.05118*%
%ADD56C,0.07874*%
%ADD57C,0.02362*%
%ADD58C,0.02362*%
%ADD59C,0.02165*%
%ADD60C,0.02165*%
G36*
X247608Y182320D02*
Y181815D01*
X243038Y177245D01*
X236403D01*
X236212Y177707D01*
X237012Y178507D01*
X237642Y178698D01*
X238222Y179174D01*
X238576Y179835D01*
X238627Y180357D01*
X239142Y180550D01*
X239597Y180095D01*
X239684Y179658D01*
X240101Y179034D01*
X240724Y178618D01*
X241460Y178471D01*
X242196Y178618D01*
X242819Y179034D01*
X243236Y179658D01*
X243383Y180394D01*
X243236Y181130D01*
X242819Y181754D01*
X242567Y181922D01*
X242607Y182187D01*
X242717Y182423D01*
X243377Y182555D01*
X244001Y182972D01*
X244417Y183595D01*
X244564Y184331D01*
X244483Y184738D01*
X244944Y184984D01*
X247608Y182320D01*
D02*
G37*
G36*
X156700Y196527D02*
X156663Y196339D01*
Y194452D01*
X156230Y193805D01*
X156069Y192992D01*
X156230Y192179D01*
X156691Y191490D01*
X157379Y191030D01*
X158192Y190869D01*
X159005Y191030D01*
X159694Y191490D01*
X160154Y192179D01*
X160315Y192992D01*
X160268Y193231D01*
X160716Y193392D01*
X161048Y192896D01*
X161388Y192555D01*
Y187481D01*
X161445Y187190D01*
X161504Y186896D01*
X161504Y186896D01*
X161504Y186896D01*
X161507Y186891D01*
X161240Y186391D01*
X158209D01*
Y186512D01*
X154937D01*
Y197799D01*
X155452D01*
Y197824D01*
X156700D01*
Y196527D01*
D02*
G37*
G36*
X160637D02*
X160600Y196339D01*
Y193977D01*
X160602Y193965D01*
X160154Y193805D01*
X159721Y194452D01*
Y196339D01*
X159684Y196527D01*
Y197824D01*
X160637D01*
Y196527D01*
D02*
G37*
G36*
X137430Y182571D02*
X134722Y179863D01*
X135985Y178601D01*
X135533Y177509D01*
X122075D01*
Y181019D01*
X118690D01*
Y180417D01*
X115655D01*
Y182695D01*
X116173Y183662D01*
X136978D01*
X137430Y182571D01*
D02*
G37*
G36*
X227861Y220567D02*
X227468D01*
Y219976D01*
X224121D01*
X223787Y220338D01*
Y222522D01*
X223939Y222674D01*
X227861D01*
Y220567D01*
D02*
G37*
G36*
X238019Y229196D02*
X238266Y228713D01*
X238146Y228548D01*
X237498Y228419D01*
X236809Y227958D01*
X236756Y227878D01*
X207972D01*
Y228362D01*
X201326D01*
Y227558D01*
X201201Y227533D01*
X200916Y227476D01*
X200915Y227476D01*
X200915Y227476D01*
X200673Y227315D01*
X200419Y227145D01*
X199631Y226358D01*
X199631Y226358D01*
X199631Y226357D01*
X199470Y226117D01*
X199299Y225862D01*
X199299Y225862D01*
X199299Y225861D01*
X199241Y225571D01*
X199183Y225277D01*
X199183Y225276D01*
X199183Y225276D01*
Y223425D01*
X198683Y223209D01*
X198155Y223505D01*
X198052Y223111D01*
X195397D01*
Y220434D01*
X191343D01*
Y217048D01*
X191820D01*
X192373Y216221D01*
X193028Y214639D01*
X194101Y214194D01*
X195083Y213701D01*
X195083Y213701D01*
X195083Y213701D01*
X199649D01*
Y214056D01*
X203665D01*
Y218780D01*
Y220145D01*
X204684Y220742D01*
X206421Y219767D01*
Y218780D01*
X208180D01*
X208208Y218764D01*
X209244D01*
X209351Y218664D01*
X209470Y218619D01*
X209576Y218548D01*
X209747Y218514D01*
X209909Y218453D01*
X210063Y218353D01*
X210342Y218087D01*
Y217566D01*
X210357Y217558D01*
Y215039D01*
X210843D01*
X210989Y214781D01*
X211190Y214297D01*
X211286Y214257D01*
X211337Y214167D01*
X211912Y213718D01*
X211989Y213756D01*
X213138Y212859D01*
Y211497D01*
Y211166D01*
X213530D01*
X213585Y210979D01*
X213630Y210754D01*
X213670Y210695D01*
X213690Y210626D01*
X213834Y210448D01*
X213961Y210258D01*
X214714Y209504D01*
D01*
D01*
X214628Y209221D01*
X214572Y209036D01*
X214364Y208977D01*
X213094D01*
X212826Y208923D01*
X212666Y208891D01*
X211948D01*
Y210134D01*
X211939D01*
X211933Y210118D01*
X207995D01*
Y208345D01*
X207602Y208083D01*
X204944D01*
X204821Y208032D01*
X203665D01*
Y208150D01*
X197523D01*
Y209449D01*
X190919D01*
X190909Y209449D01*
X189738Y209474D01*
Y210804D01*
X190351Y212284D01*
X189696Y213866D01*
X188114Y214521D01*
X186532Y213866D01*
X185877Y212284D01*
X186490Y210804D01*
Y208445D01*
X187147D01*
X187622Y207461D01*
X187622Y207264D01*
Y205834D01*
X187541Y205640D01*
X187622Y205446D01*
Y203819D01*
X190624D01*
X190869Y203574D01*
Y202047D01*
X197563D01*
Y202362D01*
X199727D01*
Y202244D01*
X203665D01*
Y202362D01*
X206602D01*
X208637Y200327D01*
X208760Y199710D01*
X205754Y196704D01*
X205679D01*
X205660Y196713D01*
X204127Y196772D01*
X204101Y196763D01*
X204065Y196749D01*
X204030Y196763D01*
X202198Y196733D01*
X199138D01*
Y196930D01*
X193389D01*
Y197244D01*
X187827D01*
X185430Y199641D01*
X183203Y201869D01*
X182934Y201600D01*
X180562Y203972D01*
X180515Y203925D01*
X179375Y205064D01*
X179250Y205116D01*
X177973Y206394D01*
X177973Y206394D01*
X176378Y207990D01*
X176366Y208017D01*
X176339Y208029D01*
X174744Y209623D01*
X172350Y207229D01*
X173193Y206387D01*
X172184Y205378D01*
X172173Y205350D01*
X171733Y204910D01*
X165082D01*
X164587Y204705D01*
X162917D01*
Y201753D01*
Y198504D01*
X161420D01*
X161390Y198577D01*
X160637Y198889D01*
X159684D01*
X158931Y198577D01*
X158901Y198504D01*
X157483D01*
X157453Y198577D01*
X156700Y198889D01*
X155452D01*
X155436Y199980D01*
Y201753D01*
Y206673D01*
X153766D01*
X153271Y206878D01*
X149334D01*
X149334Y207089D01*
X146187Y205785D01*
X146097Y205568D01*
X144905Y205777D01*
X144807Y206023D01*
Y207560D01*
X132208D01*
Y206023D01*
X132010Y205527D01*
X132106Y205303D01*
X131656Y204122D01*
X121311D01*
Y204282D01*
X118189Y204903D01*
X115542Y206672D01*
X115429Y206559D01*
X110666Y211322D01*
Y211922D01*
X111272Y213386D01*
X110666Y214850D01*
Y229213D01*
X237993D01*
X238019Y229196D01*
D02*
G37*
G36*
X221820Y224574D02*
X221361Y224114D01*
X221206Y223883D01*
X221053Y223654D01*
X221053Y223653D01*
X221053Y223653D01*
X220999Y223378D01*
X220945Y223110D01*
Y218599D01*
X218215D01*
X218215Y218599D01*
X218052Y218599D01*
X217564Y218630D01*
X217461Y218652D01*
X217277Y218718D01*
X217172Y218713D01*
X217069Y218734D01*
X216877Y218698D01*
X216681Y218689D01*
X216586Y218644D01*
X216482Y218625D01*
X216417Y218599D01*
X214311D01*
Y221748D01*
X210767D01*
Y223914D01*
X207972D01*
Y225036D01*
X221629D01*
X221820Y224574D01*
D02*
G37*
G36*
X345468Y178925D02*
X345468Y117047D01*
X345469Y63031D01*
X270995D01*
X270879Y63531D01*
X271490Y63939D01*
X271972Y64661D01*
X272042Y65012D01*
X267793D01*
X267863Y64661D01*
X268345Y63939D01*
X268955Y63531D01*
X268840Y63031D01*
X243441D01*
X243174Y63531D01*
X243507Y64031D01*
X243577Y64382D01*
X239328D01*
X239398Y64031D01*
X239732Y63531D01*
X239465Y63031D01*
X216748D01*
X216481Y63531D01*
X216657Y63795D01*
X216727Y64146D01*
X212478D01*
X212548Y63795D01*
X212724Y63531D01*
X212457Y63031D01*
X192861D01*
X192709Y63531D01*
X193025Y63743D01*
X193507Y64464D01*
X193577Y64815D01*
X189328D01*
X189398Y64464D01*
X189880Y63743D01*
X190196Y63531D01*
X190045Y63031D01*
X162683D01*
X162532Y63531D01*
X162671Y63624D01*
X163153Y64346D01*
X163223Y64697D01*
X158974D01*
X159044Y64346D01*
X159526Y63624D01*
X159665Y63531D01*
X159514Y63031D01*
X140656D01*
X140504Y63531D01*
X140702Y63664D01*
X141184Y64385D01*
X141254Y64736D01*
X137006D01*
X137075Y64385D01*
X137557Y63664D01*
X137756Y63531D01*
X137604Y63031D01*
X125457D01*
X125100Y63531D01*
X125113Y63595D01*
X120864D01*
X120876Y63531D01*
X120520Y63031D01*
X95350D01*
X95350Y80790D01*
X95850Y80850D01*
X104518D01*
Y86432D01*
X105941Y87855D01*
X106595Y87985D01*
X107317Y88467D01*
X107799Y89188D01*
X107968Y90039D01*
X107799Y90890D01*
X107317Y91612D01*
X106595Y92094D01*
X105744Y92263D01*
X105018Y92119D01*
X104518Y92399D01*
Y97811D01*
X102986D01*
X102575Y98311D01*
X102653Y98701D01*
X102484Y99552D01*
X102002Y100273D01*
X101280Y100755D01*
X100429Y100925D01*
X99578Y100755D01*
X98857Y100273D01*
X98375Y99552D01*
X98205Y98701D01*
X98283Y98311D01*
X97873Y97811D01*
X95850D01*
X95825Y97811D01*
X95350Y97872D01*
X95350Y133465D01*
X95192Y178570D01*
X95545Y178924D01*
X104615Y178924D01*
Y177395D01*
X104290Y177331D01*
X103829Y177023D01*
X102427Y175621D01*
X102119Y175160D01*
X102011Y174617D01*
Y159480D01*
X102119Y158936D01*
X102427Y158475D01*
X103234Y157668D01*
X99094Y153528D01*
X103988Y148634D01*
X108191Y152837D01*
X108274Y152782D01*
X108817Y152674D01*
X108817Y152674D01*
X147912D01*
X154953Y145632D01*
Y89252D01*
X155061Y88708D01*
X155369Y88247D01*
X162511Y81105D01*
X162587Y80724D01*
X163069Y80002D01*
X163791Y79520D01*
X164642Y79351D01*
X170941D01*
X171792Y79520D01*
X172513Y80002D01*
X172995Y80724D01*
X173165Y81575D01*
X173034Y82232D01*
X173278Y82707D01*
X173356Y82785D01*
X173485Y82805D01*
X173866Y82458D01*
Y80701D01*
X178464D01*
Y83929D01*
Y85137D01*
X176165D01*
Y85637D01*
X175665D01*
Y87346D01*
X173866D01*
Y86264D01*
X173530Y86140D01*
X173152Y86511D01*
X173165Y86575D01*
X172995Y87426D01*
X172513Y88147D01*
X171792Y88629D01*
X170941Y88799D01*
X164642D01*
X163791Y88629D01*
X163069Y88147D01*
X162587Y87426D01*
X162418Y86575D01*
X162579Y85763D01*
X162557Y85734D01*
X162022Y85614D01*
X157795Y89841D01*
Y146221D01*
X157687Y146764D01*
X157379Y147225D01*
X149505Y155099D01*
X149044Y155407D01*
X148500Y155515D01*
X109406D01*
X104853Y160069D01*
Y168761D01*
X107502D01*
X108695Y167568D01*
X109214Y167222D01*
X109826Y167100D01*
X116013D01*
X116625Y167222D01*
X117144Y167568D01*
X118430Y168855D01*
X123637D01*
X123736Y168355D01*
X123530Y168269D01*
X122499Y167478D01*
X121707Y166446D01*
X121210Y165245D01*
X121040Y163957D01*
X121210Y162668D01*
X121707Y161467D01*
X122499Y160436D01*
X123530Y159644D01*
X124731Y159147D01*
X126020Y158977D01*
X127308Y159147D01*
X128509Y159644D01*
X129541Y160436D01*
X130332Y161467D01*
X130830Y162668D01*
X130999Y163957D01*
X130830Y165245D01*
X130332Y166446D01*
X129541Y167478D01*
X129275Y167682D01*
X129436Y168155D01*
X131438D01*
Y170454D01*
Y172753D01*
X128152D01*
X127778Y173253D01*
X127875Y173742D01*
X127805Y174097D01*
X128215Y174597D01*
X137441D01*
X159874Y152164D01*
Y126299D01*
X159983Y125756D01*
X160291Y125295D01*
X163139Y122446D01*
X162948Y121984D01*
X162819D01*
Y120275D01*
X162319D01*
Y119775D01*
X160020D01*
Y118567D01*
Y115339D01*
X160859D01*
Y114784D01*
X160707Y114683D01*
X160225Y113961D01*
X160056Y113110D01*
X160225Y112259D01*
X160707Y111538D01*
X160866Y111432D01*
Y100623D01*
X160974Y100079D01*
X161282Y99618D01*
X162942Y97957D01*
X162587Y97426D01*
X162418Y96575D01*
X162587Y95724D01*
X163069Y95002D01*
X163791Y94520D01*
X164642Y94351D01*
X170941D01*
X171792Y94520D01*
X172513Y95002D01*
X172995Y95724D01*
X173045Y95972D01*
X173523Y96117D01*
X173866Y95775D01*
Y94716D01*
X174153Y94622D01*
Y91047D01*
Y90185D01*
X176138D01*
X178122D01*
Y91493D01*
X187400D01*
X188327Y90566D01*
Y85063D01*
X196232D01*
Y92181D01*
X190730D01*
X188993Y93918D01*
X188952Y93945D01*
X189104Y94445D01*
X204075D01*
Y88606D01*
X210405D01*
Y100055D01*
X204075D01*
Y97287D01*
X196232D01*
Y103598D01*
X188327D01*
Y97287D01*
X182273D01*
X178902Y100657D01*
X178546Y100895D01*
X178464Y101361D01*
X178397Y101599D01*
X178398D01*
X178397Y101599D01*
Y104827D01*
Y108244D01*
X178188D01*
Y111599D01*
X193563D01*
Y111224D01*
X198713D01*
Y115783D01*
X193563D01*
Y115646D01*
X178437D01*
Y118559D01*
X173839D01*
Y118271D01*
X171333D01*
X162716Y126888D01*
Y152753D01*
X162716Y152753D01*
X162608Y153296D01*
X162300Y153758D01*
X162300Y153758D01*
X145213Y170845D01*
X149557Y175189D01*
X157270Y167476D01*
X157766Y167144D01*
X158352Y167028D01*
X190586D01*
X191233Y166595D01*
X192045Y166434D01*
X192858Y166595D01*
X193547Y167056D01*
X194007Y167745D01*
X194169Y168557D01*
X194007Y169370D01*
X193547Y170059D01*
X192858Y170519D01*
X192438Y170603D01*
X192487Y171103D01*
X193870D01*
X194518Y170670D01*
X195330Y170509D01*
X196143Y170670D01*
X196832Y171131D01*
X197292Y171819D01*
X197454Y172632D01*
X197292Y173445D01*
X196832Y174134D01*
X196143Y174594D01*
X195330Y174756D01*
X194518Y174594D01*
X193870Y174161D01*
X163305D01*
X162657Y174594D01*
X161845Y174756D01*
X161032Y174594D01*
X160343Y174134D01*
X159883Y173445D01*
X159721Y172632D01*
X159883Y171819D01*
X160343Y171131D01*
X161032Y170670D01*
X161452Y170587D01*
X161403Y170087D01*
X158985D01*
X150610Y178462D01*
X150642Y178540D01*
X142776Y186405D01*
X141640Y186875D01*
X141640Y186875D01*
X112322D01*
X111847Y186678D01*
X110666Y187427D01*
Y205024D01*
X111757Y205476D01*
X113051Y204181D01*
X112982Y204112D01*
X116804Y201558D01*
X121311Y200661D01*
Y200760D01*
X132208D01*
Y197323D01*
X136146D01*
Y197323D01*
X136538D01*
Y197323D01*
X140476D01*
Y197323D01*
X141263D01*
Y197323D01*
X145201D01*
Y199916D01*
X145964Y200317D01*
X147051Y199635D01*
Y197835D01*
X151106D01*
Y197815D01*
X153861D01*
X153872Y197799D01*
Y190238D01*
X153790Y190040D01*
X153872Y189842D01*
Y186512D01*
X154184Y185758D01*
X154937Y185446D01*
X157917D01*
X158209Y185325D01*
X161240D01*
X161389Y185387D01*
X161549Y185371D01*
X161752Y185537D01*
X161871Y185586D01*
X162962Y185163D01*
X163539Y184924D01*
X164097Y184693D01*
X164098Y184693D01*
X164098Y184693D01*
X168862D01*
Y180473D01*
X175476D01*
Y180473D01*
X175803Y180692D01*
X176696Y180322D01*
X178278Y180977D01*
X178933Y182559D01*
X178278Y184141D01*
X176696Y184796D01*
X176167Y184577D01*
X175476Y185039D01*
Y185039D01*
X172248D01*
Y188582D01*
X168862D01*
Y187906D01*
X164764D01*
X164523Y188146D01*
Y193189D01*
X164524Y193189D01*
X164053Y194325D01*
X163735Y194642D01*
Y196035D01*
X164498Y196642D01*
X164827Y196772D01*
X165476Y196503D01*
X165476Y196503D01*
X166119D01*
X167641Y195873D01*
X169223Y196528D01*
X169878Y198110D01*
X169307Y199488D01*
X169878Y200866D01*
X170334Y201548D01*
X172445D01*
X172686Y201648D01*
X175255Y199079D01*
X176848Y200673D01*
X176877Y200685D01*
X177105Y200912D01*
X178056Y201467D01*
X180429Y199094D01*
X180418Y199084D01*
X180447Y199056D01*
X179598Y198208D01*
X179426Y198136D01*
X179354Y197964D01*
X177862Y196472D01*
X180145Y194189D01*
X182539Y191795D01*
X183227Y192483D01*
X185823Y189887D01*
X188329Y192392D01*
Y192392D01*
X188447Y192678D01*
X193389D01*
Y192992D01*
X199138D01*
Y193189D01*
X202484D01*
Y193307D01*
X204988D01*
X205528Y193287D01*
X205574Y193304D01*
X205594Y193296D01*
X206327D01*
X206421Y193256D01*
X206432Y193261D01*
X206443Y193257D01*
X206814Y193416D01*
X207395Y193179D01*
X207995Y192630D01*
Y190433D01*
X211933D01*
X211939Y190418D01*
X211948D01*
Y191896D01*
X212292Y192239D01*
X212292Y192239D01*
X212643Y192765D01*
X212767Y193386D01*
X212767Y193386D01*
Y193501D01*
X213195Y193929D01*
X213901D01*
X213947Y193938D01*
X214708D01*
X215168Y194030D01*
X215557Y194290D01*
X215817Y194679D01*
X215909Y195139D01*
Y195965D01*
X215817Y196425D01*
X215557Y196814D01*
X215168Y197074D01*
X214708Y197166D01*
X213937D01*
X213901Y197173D01*
X212523D01*
X212523Y197173D01*
X212523D01*
X212039Y197076D01*
X211617Y197318D01*
X211613Y197369D01*
X212073Y197866D01*
X213901D01*
X213947Y197875D01*
X214708D01*
X215168Y197967D01*
X215557Y198227D01*
X215817Y198616D01*
X215909Y199076D01*
Y199902D01*
X215817Y200362D01*
X215743Y200473D01*
X215817Y200584D01*
X215909Y201044D01*
Y201870D01*
X215817Y202330D01*
X215742Y202442D01*
X215817Y202553D01*
X215909Y203013D01*
Y203839D01*
X215817Y204299D01*
X215557Y204688D01*
X215168Y204948D01*
X214708Y205040D01*
X213094D01*
X212634Y204948D01*
X212631Y204946D01*
X211540D01*
Y205833D01*
X212675D01*
X213094Y205749D01*
X214708D01*
X215168Y205841D01*
X215557Y206101D01*
X215817Y206490D01*
X215909Y206950D01*
Y207432D01*
X216016Y207807D01*
X216391Y207914D01*
X216873D01*
X217333Y208006D01*
X217444Y208081D01*
X217556Y208006D01*
X218016Y207914D01*
X218842D01*
X219302Y208006D01*
X219413Y208080D01*
X219524Y208006D01*
X219984Y207914D01*
X220810D01*
X221270Y208006D01*
X221381Y208081D01*
X221493Y208006D01*
X221953Y207914D01*
X222779D01*
X223239Y208006D01*
X223350Y208080D01*
X223461Y208006D01*
X223921Y207914D01*
X224747D01*
X225207Y208006D01*
X225319Y208081D01*
X225430Y208006D01*
X225890Y207914D01*
X226716D01*
X227176Y208006D01*
X227287Y208080D01*
X227398Y208006D01*
X227858Y207914D01*
X228684D01*
X229144Y208006D01*
X229256Y208081D01*
X229367Y208006D01*
X229827Y207914D01*
X230653D01*
X231113Y208006D01*
X231224Y208080D01*
X231335Y208006D01*
X231795Y207914D01*
X232621D01*
X233081Y208006D01*
X233192Y208081D01*
X233304Y208006D01*
X233764Y207914D01*
X234590D01*
X235050Y208006D01*
X235161Y208080D01*
X235272Y208006D01*
X235732Y207914D01*
X236558D01*
X237018Y208006D01*
X237129Y208081D01*
X237241Y208006D01*
X237701Y207914D01*
X238527D01*
X238987Y208006D01*
X239202Y208150D01*
X239277Y208200D01*
D01*
D01*
X239406Y208225D01*
X240002Y208623D01*
X240593Y209214D01*
X240991Y209810D01*
X241039Y210055D01*
X241300Y210315D01*
X241786Y210801D01*
D01*
X244189Y213205D01*
X244216D01*
X244456Y213252D01*
X246200D01*
Y214429D01*
X247088Y215316D01*
X247089Y215316D01*
X247089Y215316D01*
X247286Y215612D01*
X247486Y215911D01*
X247486Y215911D01*
X247487Y215912D01*
X247562Y216289D01*
X247626Y216613D01*
X247961Y216945D01*
X248744D01*
X249423Y217034D01*
X250055Y217296D01*
X250598Y217713D01*
X251015Y218256D01*
X251277Y218888D01*
X251366Y219567D01*
X251277Y220246D01*
X251015Y220878D01*
X250598Y221421D01*
X250055Y221838D01*
X249423Y222100D01*
X248744Y222189D01*
X245791D01*
X245112Y222100D01*
X244500Y221847D01*
X243216D01*
Y219927D01*
X243169Y219567D01*
X243216Y219207D01*
Y217287D01*
X243216Y217287D01*
X243119Y216828D01*
X242231D01*
Y216405D01*
X242131Y216338D01*
X237997Y212204D01*
X237814Y211930D01*
X237701D01*
X237241Y211838D01*
X237227Y211828D01*
X236712Y211970D01*
X236485Y212386D01*
X236532Y212455D01*
X236693Y213268D01*
X236600Y213737D01*
X236983Y214236D01*
X237342D01*
Y216007D01*
X241083D01*
Y219583D01*
X237342D01*
Y220567D01*
X232980D01*
Y217384D01*
X232292Y216696D01*
X231830Y216887D01*
Y220567D01*
X231436D01*
Y222674D01*
X239098D01*
X239642Y222782D01*
X240103Y223090D01*
X241496Y224483D01*
X242248Y224334D01*
X243061Y224495D01*
X243749Y224956D01*
X244210Y225644D01*
X244371Y226457D01*
X244353Y226552D01*
X244930Y227129D01*
X254572D01*
X254616Y227138D01*
X266722D01*
X273604Y220256D01*
X273484Y219806D01*
X272992Y219679D01*
X272841Y219780D01*
X272029Y219942D01*
X271216Y219780D01*
X271027Y219654D01*
X270275D01*
X270085Y219780D01*
X269273Y219942D01*
X268460Y219780D01*
X268271Y219654D01*
X267519D01*
X267329Y219780D01*
X266517Y219942D01*
X265704Y219780D01*
X265015Y219320D01*
X264555Y218631D01*
X264393Y217818D01*
X264555Y217006D01*
X265015Y216317D01*
X265704Y215857D01*
X266517Y215695D01*
X267329Y215857D01*
X267519Y215983D01*
X268271D01*
X268460Y215857D01*
X269273Y215695D01*
X270085Y215857D01*
X270275Y215983D01*
X271027D01*
X271216Y215857D01*
X272029Y215695D01*
X272841Y215857D01*
X273031Y215983D01*
X273389D01*
X273578Y215857D01*
X274391Y215695D01*
X274693Y215755D01*
X275079Y215438D01*
Y186888D01*
X271920Y183729D01*
X269481D01*
X269111Y184229D01*
X269210Y184725D01*
X269048Y185538D01*
X268588Y186226D01*
X267899Y186687D01*
X267086Y186848D01*
X266274Y186687D01*
X265585Y186226D01*
X265531Y186146D01*
X251497D01*
X249389Y188254D01*
X249580Y188716D01*
X261745D01*
X262392Y188283D01*
X263205Y188122D01*
X264018Y188283D01*
X264706Y188744D01*
X265167Y189433D01*
X265328Y190245D01*
X265167Y191058D01*
X264706Y191747D01*
X264018Y192207D01*
X263205Y192368D01*
X262392Y192207D01*
X261745Y191774D01*
X249717D01*
X249593Y191942D01*
X249731Y192582D01*
X250087Y192820D01*
X250547Y193509D01*
X250709Y194321D01*
X250547Y195134D01*
X250308Y195491D01*
X250576Y195991D01*
X261590D01*
X262237Y195558D01*
X263050Y195397D01*
X263862Y195558D01*
X264551Y196019D01*
X265011Y196707D01*
X265173Y197520D01*
X265011Y198333D01*
X264551Y199021D01*
X263862Y199482D01*
X263050Y199643D01*
X262237Y199482D01*
X261590Y199049D01*
X249519D01*
X249126Y199549D01*
X249135Y199588D01*
X249605Y199681D01*
X250294Y200142D01*
X250754Y200831D01*
X250916Y201643D01*
X250754Y202456D01*
X250294Y203145D01*
X249605Y203605D01*
X249391Y203648D01*
X249246Y204126D01*
X249574Y204455D01*
X261461D01*
X262134Y204005D01*
X262947Y203843D01*
X263759Y204005D01*
X264448Y204465D01*
X264908Y205154D01*
X265070Y205967D01*
X264908Y206779D01*
X264448Y207468D01*
X263759Y207929D01*
X262947Y208090D01*
X262134Y207929D01*
X261513Y207513D01*
X250610D01*
X250342Y208013D01*
X250629Y208443D01*
X250721Y208904D01*
X250747Y208943D01*
X250863Y209528D01*
X250747Y210113D01*
X250415Y210610D01*
X249970Y210907D01*
X249912Y211185D01*
X249951Y211504D01*
X250886Y212440D01*
X261647D01*
X262294Y212007D01*
X263107Y211846D01*
X263920Y212007D01*
X264609Y212468D01*
X265069Y213156D01*
X265230Y213969D01*
X265069Y214782D01*
X264609Y215471D01*
X263920Y215931D01*
X263107Y216092D01*
X262294Y215931D01*
X261647Y215498D01*
X250253D01*
X249668Y215382D01*
X249171Y215050D01*
X247701Y213580D01*
X247517Y213306D01*
X247337Y213170D01*
X241781Y206948D01*
X241480Y207008D01*
X239866D01*
X239406Y206916D01*
X239017Y206656D01*
X238757Y206267D01*
X238665Y205807D01*
Y204981D01*
X238757Y204521D01*
X238831Y204410D01*
X238757Y204299D01*
X238665Y203839D01*
Y203013D01*
X238757Y202553D01*
X238831Y202442D01*
X238757Y202330D01*
X238665Y201870D01*
Y201044D01*
X238757Y200584D01*
X238831Y200473D01*
X238757Y200362D01*
X238665Y199902D01*
Y199076D01*
X238757Y198616D01*
X238831Y198504D01*
X238757Y198393D01*
X238665Y197933D01*
Y197107D01*
X238757Y196647D01*
X238831Y196536D01*
X238757Y196425D01*
X238665Y195965D01*
Y195139D01*
X238757Y194679D01*
X238831Y194568D01*
X238757Y194456D01*
X238665Y193996D01*
Y193514D01*
X238558Y193139D01*
X238183Y193032D01*
X237701D01*
X237241Y192940D01*
X237129Y192866D01*
X237018Y192940D01*
X236558Y193032D01*
X235732D01*
X235272Y192940D01*
X235161Y192866D01*
X235050Y192940D01*
X234590Y193032D01*
X233764D01*
X233304Y192940D01*
X233192Y192866D01*
X233081Y192940D01*
X232621Y193032D01*
X231795D01*
X231335Y192940D01*
X231224Y192866D01*
X231113Y192940D01*
X230653Y193032D01*
X229827D01*
X229367Y192940D01*
X229256Y192866D01*
X229144Y192940D01*
X228684Y193032D01*
X227858D01*
X227398Y192940D01*
X227287Y192866D01*
X227176Y192940D01*
X226716Y193032D01*
X225890D01*
X225430Y192940D01*
X225319Y192866D01*
X225207Y192940D01*
X224747Y193032D01*
X223921D01*
X223461Y192940D01*
X223350Y192866D01*
X223239Y192940D01*
X222779Y193032D01*
X221953D01*
X221493Y192940D01*
X221381Y192866D01*
X221270Y192940D01*
X220810Y193032D01*
X219984D01*
X219524Y192940D01*
X219413Y192866D01*
X219302Y192940D01*
X218842Y193032D01*
X218016D01*
X217556Y192940D01*
X217444Y192866D01*
X217333Y192940D01*
X216873Y193032D01*
X216047D01*
X215587Y192940D01*
X215198Y192680D01*
X214938Y192291D01*
X214846Y191831D01*
Y191223D01*
X213074Y189450D01*
X211715Y188092D01*
X211623Y187953D01*
X211588Y187954D01*
X211522Y187795D01*
X205082D01*
Y187795D01*
X203901Y187488D01*
X203271Y187749D01*
X201689Y187094D01*
X201034Y185512D01*
X201689Y183930D01*
X203271Y183275D01*
X203468Y183356D01*
X204649Y182567D01*
Y179606D01*
X204969D01*
X205106Y179354D01*
X205260Y179590D01*
X208208D01*
Y183213D01*
X211693D01*
Y181969D01*
X211720Y181832D01*
Y179590D01*
X215296D01*
Y183560D01*
X214535D01*
Y183937D01*
X214427Y184481D01*
X214141Y184908D01*
Y186498D01*
X214842Y187199D01*
X215303Y187008D01*
Y184394D01*
X217766D01*
X217917Y183894D01*
X217659Y183722D01*
X217243Y183098D01*
X217096Y182362D01*
X217243Y181626D01*
X217659Y181002D01*
X218283Y180586D01*
X219019Y180439D01*
X219755Y180586D01*
X220124Y180833D01*
X220825D01*
X221235Y180333D01*
X221203Y180170D01*
Y177245D01*
Y164780D01*
X221024Y164717D01*
X220703Y164697D01*
X220293Y165311D01*
X219604Y165771D01*
X219291Y165833D01*
Y163809D01*
X218291D01*
Y165833D01*
X217979Y165771D01*
X217290Y165311D01*
X216829Y164622D01*
X216703Y163986D01*
X215022D01*
Y160919D01*
X214522D01*
Y160419D01*
X212243D01*
Y157852D01*
X213668D01*
X213843Y157736D01*
X214155Y157674D01*
Y159698D01*
X215155D01*
Y157674D01*
X215468Y157736D01*
X215642Y157852D01*
X216802D01*
Y158092D01*
X217302Y158216D01*
X217942Y157788D01*
X218254Y157726D01*
Y159750D01*
X219254D01*
Y157726D01*
X219567Y157788D01*
X220207Y158216D01*
X220707Y158092D01*
Y157852D01*
X225266D01*
Y163986D01*
X224261D01*
Y178924D01*
X225698D01*
X226157Y178618D01*
X226893Y178471D01*
X227629Y178618D01*
X228088Y178924D01*
X230423D01*
X230882Y178618D01*
X231618Y178471D01*
X232024Y178552D01*
X232270Y178091D01*
X228581Y174402D01*
X228294Y174594D01*
X227481Y174756D01*
X226669Y174594D01*
X225980Y174134D01*
X225519Y173445D01*
X225358Y172632D01*
X225519Y171819D01*
X225980Y171131D01*
X226338Y170891D01*
Y170290D01*
X225992Y170059D01*
X225532Y169370D01*
X225370Y168557D01*
X225532Y167745D01*
X225992Y167056D01*
X226681Y166595D01*
X227493Y166434D01*
X228306Y166595D01*
X228953Y167028D01*
X236513D01*
X237099Y167144D01*
X237595Y167476D01*
X247826Y177707D01*
X249043Y178924D01*
X250218Y180100D01*
X250550Y180596D01*
X250666Y181181D01*
Y182843D01*
X250766Y183033D01*
X251106Y183304D01*
X251923D01*
X252293Y182804D01*
X252194Y182308D01*
X252356Y181495D01*
X252816Y180806D01*
X253505Y180346D01*
X254317Y180184D01*
X255130Y180346D01*
X255819Y180806D01*
X255873Y180887D01*
X272509D01*
X273052Y180995D01*
X273513Y181303D01*
X277505Y185294D01*
X277813Y185755D01*
X277921Y186299D01*
Y191625D01*
X278421Y191853D01*
X279156Y191707D01*
X279968Y191869D01*
X280657Y192329D01*
X281118Y193018D01*
X281279Y193831D01*
X281118Y194643D01*
X280657Y195332D01*
X280577Y195386D01*
Y219173D01*
X280468Y219717D01*
X280160Y220178D01*
X271587Y228751D01*
X271779Y229213D01*
X345468D01*
Y178925D01*
D02*
G37*
%LPC*%
G36*
X165673Y223182D02*
X164091Y222527D01*
X163436Y220945D01*
X164091Y219363D01*
X165614Y218733D01*
X167003Y217342D01*
X167634Y215820D01*
X169216Y215165D01*
X170798Y215820D01*
X171453Y217402D01*
X170798Y218984D01*
X169275Y219615D01*
X167885Y221004D01*
X167255Y222527D01*
X165673Y223182D01*
D02*
G37*
G36*
X156307Y220059D02*
X150796D01*
X150043Y219747D01*
X149731Y218993D01*
Y216287D01*
X149459Y215630D01*
X149731Y214973D01*
Y211180D01*
X149925Y210711D01*
Y210512D01*
X150008D01*
X150043Y210427D01*
X150796Y210115D01*
X155471D01*
X156617Y209089D01*
X156637Y209024D01*
X156626Y208265D01*
X156586Y208170D01*
X156716Y207844D01*
Y205985D01*
X163605D01*
Y210315D01*
X159925D01*
Y214764D01*
X158303D01*
X157477Y215630D01*
X157372Y215884D01*
Y218993D01*
X157060Y219747D01*
X156307Y220059D01*
D02*
G37*
G36*
X240024Y92951D02*
Y91327D01*
X241648D01*
X241578Y91678D01*
X241096Y92399D01*
X240375Y92881D01*
X240024Y92951D01*
D02*
G37*
G36*
X266372Y90602D02*
X264748D01*
Y88978D01*
X265099Y89048D01*
X265821Y89530D01*
X266303Y90251D01*
X266372Y90602D01*
D02*
G37*
G36*
X263748D02*
X262124D01*
X262193Y90251D01*
X262676Y89530D01*
X263397Y89048D01*
X263748Y88978D01*
Y90602D01*
D02*
G37*
G36*
X239024Y92951D02*
X238673Y92881D01*
X237951Y92399D01*
X237469Y91678D01*
X237399Y91327D01*
X239024D01*
Y92951D01*
D02*
G37*
G36*
X170941Y93799D02*
X164642D01*
X163791Y93629D01*
X163069Y93147D01*
X162587Y92426D01*
X162418Y91575D01*
X162587Y90724D01*
X163069Y90002D01*
X163791Y89520D01*
X164642Y89351D01*
X170941D01*
X171792Y89520D01*
X172513Y90002D01*
X172995Y90724D01*
X173165Y91575D01*
X172995Y92426D01*
X172513Y93147D01*
X171792Y93629D01*
X170941Y93799D01*
D02*
G37*
G36*
X228748Y105130D02*
X227124D01*
X227193Y104779D01*
X227676Y104057D01*
X228397Y103575D01*
X228748Y103506D01*
Y105130D01*
D02*
G37*
G36*
X231372D02*
X229748D01*
Y103506D01*
X230099Y103575D01*
X230820Y104057D01*
X231303Y104779D01*
X231372Y105130D01*
D02*
G37*
G36*
X252488Y105248D02*
X250864D01*
X250934Y104897D01*
X251416Y104175D01*
X252137Y103693D01*
X252488Y103624D01*
Y105248D01*
D02*
G37*
G36*
X297031Y97434D02*
Y93020D01*
X301445D01*
X301341Y93809D01*
X300844Y95009D01*
X300053Y96041D01*
X299021Y96832D01*
X297820Y97330D01*
X297031Y97434D01*
D02*
G37*
G36*
X263748Y93227D02*
X263397Y93157D01*
X262676Y92675D01*
X262193Y91953D01*
X262124Y91602D01*
X263748D01*
Y93227D01*
D02*
G37*
G36*
X264748D02*
Y91602D01*
X266372D01*
X266303Y91953D01*
X265821Y92675D01*
X265099Y93157D01*
X264748Y93227D01*
D02*
G37*
G36*
X296031Y97434D02*
X295243Y97330D01*
X294042Y96832D01*
X293010Y96041D01*
X292219Y95009D01*
X291722Y93809D01*
X291618Y93020D01*
X296031D01*
Y97434D01*
D02*
G37*
G36*
X122752Y91515D02*
X121901Y91346D01*
X121179Y90864D01*
X120697Y90142D01*
X120528Y89291D01*
X120697Y88440D01*
X120994Y87996D01*
X120727Y87496D01*
X118624D01*
Y81165D01*
X127316D01*
Y81890D01*
X127816Y82172D01*
X128039Y82127D01*
Y84252D01*
Y86376D01*
X127816Y86332D01*
X127316Y86614D01*
Y87496D01*
X124777D01*
X124510Y87996D01*
X124806Y88440D01*
X124976Y89291D01*
X124806Y90142D01*
X124325Y90864D01*
X123603Y91346D01*
X122752Y91515D01*
D02*
G37*
G36*
X178464Y87346D02*
X176665D01*
Y86137D01*
X178464D01*
Y87346D01*
D02*
G37*
G36*
X113539Y97499D02*
X112250Y97330D01*
X111050Y96832D01*
X110018Y96041D01*
X109227Y95009D01*
X108729Y93809D01*
X108560Y92520D01*
X108729Y91231D01*
X109227Y90030D01*
X110018Y88999D01*
X111050Y88207D01*
X112250Y87710D01*
X113539Y87540D01*
X114828Y87710D01*
X116029Y88207D01*
X117060Y88999D01*
X117852Y90030D01*
X118349Y91231D01*
X118519Y92520D01*
X118349Y93809D01*
X117852Y95009D01*
X117060Y96041D01*
X116029Y96832D01*
X114828Y97330D01*
X113539Y97499D01*
D02*
G37*
G36*
X309039Y79934D02*
Y75520D01*
X313453D01*
X313349Y76309D01*
X312852Y77509D01*
X312060Y78541D01*
X311029Y79332D01*
X309828Y79830D01*
X309039Y79934D01*
D02*
G37*
G36*
X152043Y78799D02*
X149394D01*
Y77075D01*
X154168D01*
X154098Y77426D01*
X153616Y78147D01*
X152894Y78629D01*
X152043Y78799D01*
D02*
G37*
G36*
X175127Y79140D02*
X174276Y78971D01*
X173554Y78489D01*
X173453Y78338D01*
X172229D01*
X171792Y78629D01*
X170941Y78799D01*
X164642D01*
X163791Y78629D01*
X163069Y78147D01*
X162587Y77426D01*
X162418Y76575D01*
X162587Y75724D01*
X163069Y75002D01*
X163791Y74520D01*
X164642Y74351D01*
X170941D01*
X171792Y74520D01*
X172513Y75002D01*
X172843Y75496D01*
X173453D01*
X173554Y75344D01*
X174276Y74862D01*
X175127Y74693D01*
X175978Y74862D01*
X176699Y75344D01*
X177181Y76066D01*
X177350Y76917D01*
X177181Y77768D01*
X176699Y78489D01*
X175978Y78971D01*
X175127Y79140D01*
D02*
G37*
G36*
X178122Y89185D02*
X176638D01*
Y87897D01*
X178122D01*
Y89185D01*
D02*
G37*
G36*
X239024Y90327D02*
X237399D01*
X237469Y89976D01*
X237951Y89254D01*
X238673Y88772D01*
X239024Y88702D01*
Y90327D01*
D02*
G37*
G36*
X241648D02*
X240024D01*
Y88702D01*
X240375Y88772D01*
X241096Y89254D01*
X241578Y89976D01*
X241648Y90327D01*
D02*
G37*
G36*
X296031Y92020D02*
X291618D01*
X291722Y91231D01*
X292219Y90030D01*
X293010Y88999D01*
X294042Y88207D01*
X295243Y87710D01*
X296031Y87606D01*
Y92020D01*
D02*
G37*
G36*
X301445D02*
X297031D01*
Y87606D01*
X297820Y87710D01*
X299021Y88207D01*
X300053Y88999D01*
X300844Y90030D01*
X301341Y91231D01*
X301445Y92020D01*
D02*
G37*
G36*
X175638Y89185D02*
X174153D01*
Y87897D01*
X175638D01*
Y89185D01*
D02*
G37*
G36*
X198713Y110665D02*
X196638D01*
Y108886D01*
X198713D01*
Y110665D01*
D02*
G37*
G36*
X308039Y114934D02*
X307251Y114830D01*
X306050Y114332D01*
X305018Y113541D01*
X304227Y112510D01*
X303729Y111309D01*
X303626Y110520D01*
X308039D01*
Y114934D01*
D02*
G37*
G36*
X309039D02*
Y110520D01*
X313453D01*
X313349Y111309D01*
X312852Y112510D01*
X312060Y113541D01*
X311029Y114332D01*
X309828Y114830D01*
X309039Y114934D01*
D02*
G37*
G36*
X277173Y107872D02*
X276822Y107803D01*
X276101Y107320D01*
X275619Y106599D01*
X275549Y106248D01*
X277173D01*
Y107872D01*
D02*
G37*
G36*
X278173D02*
Y106248D01*
X279798D01*
X279728Y106599D01*
X279246Y107320D01*
X278524Y107803D01*
X278173Y107872D01*
D02*
G37*
G36*
X195638Y110665D02*
X193563D01*
Y108886D01*
X195638D01*
Y110665D01*
D02*
G37*
G36*
X241766Y118595D02*
X240142D01*
Y116970D01*
X240493Y117040D01*
X241214Y117522D01*
X241696Y118244D01*
X241766Y118595D01*
D02*
G37*
G36*
X187803Y120721D02*
X186179D01*
X186249Y120370D01*
X186731Y119648D01*
X187452Y119166D01*
X187803Y119096D01*
Y120721D01*
D02*
G37*
G36*
X190427D02*
X188803D01*
Y119096D01*
X189154Y119166D01*
X189876Y119648D01*
X190358Y120370D01*
X190427Y120721D01*
D02*
G37*
G36*
X266504Y118476D02*
X264880D01*
X264949Y118125D01*
X265431Y117404D01*
X266153Y116922D01*
X266504Y116852D01*
Y118476D01*
D02*
G37*
G36*
X269128D02*
X267504D01*
Y116852D01*
X267855Y116922D01*
X268576Y117404D01*
X269058Y118125D01*
X269128Y118476D01*
D02*
G37*
G36*
X239142Y118595D02*
X237517D01*
X237587Y118244D01*
X238069Y117522D01*
X238791Y117040D01*
X239142Y116970D01*
Y118595D01*
D02*
G37*
G36*
X101532Y114999D02*
X100243Y114830D01*
X99042Y114332D01*
X98010Y113541D01*
X97219Y112510D01*
X96722Y111309D01*
X96552Y110020D01*
X96722Y108731D01*
X97219Y107530D01*
X98010Y106499D01*
X99042Y105707D01*
X100243Y105210D01*
X101532Y105040D01*
X102820Y105210D01*
X104021Y105707D01*
X105053Y106499D01*
X105844Y107530D01*
X106341Y108731D01*
X106511Y110020D01*
X106341Y111309D01*
X105844Y112510D01*
X105053Y113541D01*
X104021Y114332D01*
X102820Y114830D01*
X101532Y114999D01*
D02*
G37*
G36*
X308039Y109520D02*
X303626D01*
X303729Y108731D01*
X304227Y107530D01*
X305018Y106499D01*
X306050Y105707D01*
X307251Y105210D01*
X308039Y105106D01*
Y109520D01*
D02*
G37*
G36*
X313453D02*
X309039D01*
Y105106D01*
X309828Y105210D01*
X311029Y105707D01*
X312060Y106499D01*
X312852Y107530D01*
X313349Y108731D01*
X313453Y109520D01*
D02*
G37*
G36*
X255113Y105248D02*
X253488D01*
Y103624D01*
X253839Y103693D01*
X254561Y104175D01*
X255043Y104897D01*
X255113Y105248D01*
D02*
G37*
G36*
X277173D02*
X275549D01*
X275619Y104897D01*
X276101Y104175D01*
X276822Y103693D01*
X277173Y103624D01*
Y105248D01*
D02*
G37*
G36*
X279798D02*
X278173D01*
Y103624D01*
X278524Y103693D01*
X279246Y104175D01*
X279728Y104897D01*
X279798Y105248D01*
D02*
G37*
G36*
X229748Y107754D02*
Y106130D01*
X231372D01*
X231303Y106481D01*
X230820Y107202D01*
X230099Y107685D01*
X229748Y107754D01*
D02*
G37*
G36*
X252488Y107872D02*
X252137Y107803D01*
X251416Y107320D01*
X250934Y106599D01*
X250864Y106248D01*
X252488D01*
Y107872D01*
D02*
G37*
G36*
X253488D02*
Y106248D01*
X255113D01*
X255043Y106599D01*
X254561Y107320D01*
X253839Y107803D01*
X253488Y107872D01*
D02*
G37*
G36*
X195638Y107886D02*
X193563D01*
Y106106D01*
X195638D01*
Y107886D01*
D02*
G37*
G36*
X198713D02*
X196638D01*
Y106106D01*
X198713D01*
Y107886D01*
D02*
G37*
G36*
X228748Y107754D02*
X228397Y107685D01*
X227676Y107202D01*
X227193Y106481D01*
X227124Y106130D01*
X228748D01*
Y107754D01*
D02*
G37*
G36*
X308039Y79934D02*
X307251Y79830D01*
X306050Y79332D01*
X305018Y78541D01*
X304227Y77509D01*
X303729Y76309D01*
X303626Y75520D01*
X308039D01*
Y79934D01*
D02*
G37*
G36*
X176228Y68555D02*
X174604D01*
X174674Y68204D01*
X175156Y67483D01*
X175877Y67001D01*
X176228Y66931D01*
Y68555D01*
D02*
G37*
G36*
X178853D02*
X177228D01*
Y66931D01*
X177579Y67001D01*
X178301Y67483D01*
X178783Y68204D01*
X178853Y68555D01*
D02*
G37*
G36*
X149406Y71830D02*
X148555Y71661D01*
X147833Y71179D01*
X147351Y70457D01*
X147182Y69606D01*
X147351Y68755D01*
X147833Y68034D01*
X148555Y67552D01*
X149406Y67383D01*
X150257Y67552D01*
X150978Y68034D01*
X151460Y68755D01*
X151629Y69606D01*
X151460Y70457D01*
X150978Y71179D01*
X150257Y71661D01*
X149406Y71830D01*
D02*
G37*
G36*
X191953Y67439D02*
Y65815D01*
X193577D01*
X193507Y66166D01*
X193025Y66887D01*
X192304Y67370D01*
X191953Y67439D01*
D02*
G37*
G36*
X269417Y67636D02*
X269066Y67566D01*
X268345Y67084D01*
X267863Y66363D01*
X267793Y66012D01*
X269417D01*
Y67636D01*
D02*
G37*
G36*
X270417D02*
Y66012D01*
X272042D01*
X271972Y66363D01*
X271490Y67084D01*
X270768Y67566D01*
X270417Y67636D01*
D02*
G37*
G36*
X308039Y74520D02*
X303626D01*
X303729Y73731D01*
X304227Y72530D01*
X305018Y71499D01*
X306050Y70707D01*
X307251Y70210D01*
X308039Y70106D01*
Y74520D01*
D02*
G37*
G36*
X313453D02*
X309039D01*
Y70106D01*
X309828Y70210D01*
X311029Y70707D01*
X312060Y71499D01*
X312852Y72530D01*
X313349Y73731D01*
X313453Y74520D01*
D02*
G37*
G36*
X115677Y71980D02*
X114053D01*
X114123Y71629D01*
X114605Y70908D01*
X115326Y70426D01*
X115677Y70356D01*
Y71980D01*
D02*
G37*
G36*
X176228Y71179D02*
X175877Y71110D01*
X175156Y70628D01*
X174674Y69906D01*
X174604Y69555D01*
X176228D01*
Y71179D01*
D02*
G37*
G36*
X177228D02*
Y69555D01*
X178853D01*
X178783Y69906D01*
X178301Y70628D01*
X177579Y71110D01*
X177228Y71179D01*
D02*
G37*
G36*
X101532Y79999D02*
X100243Y79830D01*
X99042Y79332D01*
X98010Y78541D01*
X97219Y77509D01*
X96722Y76309D01*
X96552Y75020D01*
X96722Y73731D01*
X97219Y72530D01*
X98010Y71499D01*
X99042Y70707D01*
X100243Y70210D01*
X101532Y70040D01*
X102820Y70210D01*
X104021Y70707D01*
X105053Y71499D01*
X105844Y72530D01*
X106341Y73731D01*
X106511Y75020D01*
X106341Y76309D01*
X105844Y77509D01*
X105053Y78541D01*
X104021Y79332D01*
X102820Y79830D01*
X101532Y79999D01*
D02*
G37*
G36*
X214102Y66770D02*
X213751Y66700D01*
X213030Y66218D01*
X212548Y65497D01*
X212478Y65146D01*
X214102D01*
Y66770D01*
D02*
G37*
G36*
X215102D02*
Y65146D01*
X216727D01*
X216657Y65497D01*
X216175Y66218D01*
X215453Y66700D01*
X215102Y66770D01*
D02*
G37*
G36*
X240953Y67006D02*
X240602Y66936D01*
X239880Y66454D01*
X239398Y65733D01*
X239328Y65382D01*
X240953D01*
Y67006D01*
D02*
G37*
G36*
X333776Y78751D02*
X332383Y78614D01*
X331045Y78208D01*
X329811Y77548D01*
X328729Y76661D01*
X327842Y75579D01*
X327182Y74345D01*
X326776Y73006D01*
X326639Y71614D01*
X326776Y70222D01*
X327182Y68883D01*
X327842Y67649D01*
X328729Y66568D01*
X329811Y65680D01*
X331045Y65021D01*
X332383Y64615D01*
X333776Y64477D01*
X335168Y64615D01*
X336507Y65021D01*
X337740Y65680D01*
X338822Y66568D01*
X339710Y67649D01*
X340369Y68883D01*
X340775Y70222D01*
X340912Y71614D01*
X340775Y73006D01*
X340369Y74345D01*
X339710Y75579D01*
X338822Y76661D01*
X337740Y77548D01*
X336507Y78208D01*
X335168Y78614D01*
X333776Y78751D01*
D02*
G37*
G36*
X122488Y66219D02*
X122137Y66149D01*
X121416Y65667D01*
X120934Y64946D01*
X120864Y64595D01*
X122488D01*
Y66219D01*
D02*
G37*
G36*
X123488D02*
Y64595D01*
X125113D01*
X125043Y64946D01*
X124561Y65667D01*
X123839Y66149D01*
X123488Y66219D01*
D02*
G37*
G36*
X138630Y67361D02*
X138279Y67291D01*
X137557Y66809D01*
X137075Y66087D01*
X137006Y65736D01*
X138630D01*
Y67361D01*
D02*
G37*
G36*
X139630D02*
Y65736D01*
X141254D01*
X141184Y66087D01*
X140702Y66809D01*
X139981Y67291D01*
X139630Y67361D01*
D02*
G37*
G36*
X190953Y67439D02*
X190602Y67370D01*
X189880Y66887D01*
X189398Y66166D01*
X189328Y65815D01*
X190953D01*
Y67439D01*
D02*
G37*
G36*
X241953Y67006D02*
Y65382D01*
X243577D01*
X243507Y65733D01*
X243025Y66454D01*
X242304Y66936D01*
X241953Y67006D01*
D02*
G37*
G36*
X160598Y67321D02*
X160247Y67251D01*
X159526Y66769D01*
X159044Y66048D01*
X158974Y65697D01*
X160598D01*
Y67321D01*
D02*
G37*
G36*
X161598D02*
Y65697D01*
X163223D01*
X163153Y66048D01*
X162671Y66769D01*
X161949Y67251D01*
X161598Y67321D01*
D02*
G37*
G36*
X148394Y76075D02*
X143620D01*
X143690Y75724D01*
X144172Y75002D01*
X144893Y74520D01*
X145744Y74351D01*
X148394D01*
Y76075D01*
D02*
G37*
G36*
X154168D02*
X149394D01*
Y74351D01*
X152043D01*
X152894Y74520D01*
X153616Y75002D01*
X154098Y75724D01*
X154168Y76075D01*
D02*
G37*
G36*
X131819Y75208D02*
X130334D01*
Y75199D01*
X130124Y75087D01*
X129834Y74981D01*
X129551Y75038D01*
Y73413D01*
X131175D01*
X131174Y73421D01*
X131557Y73921D01*
X131819D01*
Y75208D01*
D02*
G37*
G36*
X134303D02*
X132819D01*
Y73921D01*
X134303D01*
Y75208D01*
D02*
G37*
G36*
X138709Y75864D02*
X138358Y75795D01*
X137636Y75313D01*
X137154Y74591D01*
X137084Y74240D01*
X138709D01*
Y75864D01*
D02*
G37*
G36*
X139709D02*
Y74240D01*
X141333D01*
X141263Y74591D01*
X140781Y75313D01*
X140060Y75795D01*
X139709Y75864D01*
D02*
G37*
G36*
X230221Y76928D02*
Y75303D01*
X231845D01*
X231775Y75654D01*
X231293Y76376D01*
X230572Y76858D01*
X230221Y76928D01*
D02*
G37*
G36*
X253000Y77006D02*
X252649Y76936D01*
X251927Y76454D01*
X251445Y75733D01*
X251376Y75382D01*
X253000D01*
Y77006D01*
D02*
G37*
G36*
X254000D02*
Y75382D01*
X255624D01*
X255555Y75733D01*
X255072Y76454D01*
X254351Y76936D01*
X254000Y77006D01*
D02*
G37*
G36*
X279614Y76652D02*
X279263Y76582D01*
X278542Y76100D01*
X278060Y75379D01*
X277990Y75028D01*
X279614D01*
Y76652D01*
D02*
G37*
G36*
X280614D02*
Y75028D01*
X282239D01*
X282169Y75379D01*
X281687Y76100D01*
X280965Y76582D01*
X280614Y76652D01*
D02*
G37*
G36*
X229221Y76928D02*
X228870Y76858D01*
X228148Y76376D01*
X227666Y75654D01*
X227596Y75303D01*
X229221D01*
Y76928D01*
D02*
G37*
G36*
X141333Y73240D02*
X139709D01*
Y71616D01*
X140060Y71686D01*
X140781Y72168D01*
X141263Y72889D01*
X141333Y73240D01*
D02*
G37*
G36*
X279614Y74028D02*
X277990D01*
X278060Y73677D01*
X278542Y72955D01*
X279263Y72473D01*
X279614Y72403D01*
Y74028D01*
D02*
G37*
G36*
X282239D02*
X280614D01*
Y72403D01*
X280965Y72473D01*
X281687Y72955D01*
X282169Y73677D01*
X282239Y74028D01*
D02*
G37*
G36*
X127316Y76866D02*
X123470D01*
Y73701D01*
Y70535D01*
X127316D01*
Y70848D01*
X127816Y71115D01*
X128200Y70859D01*
X128551Y70789D01*
Y72913D01*
Y75038D01*
X128200Y74968D01*
X127816Y74712D01*
X127316Y74979D01*
Y76866D01*
D02*
G37*
G36*
X131175Y72413D02*
X129551D01*
Y70789D01*
X129902Y70859D01*
X130624Y71341D01*
X131106Y72062D01*
X131175Y72413D01*
D02*
G37*
G36*
X138709Y73240D02*
X137084D01*
X137154Y72889D01*
X137636Y72168D01*
X138358Y71686D01*
X138709Y71616D01*
Y73240D01*
D02*
G37*
G36*
X255624Y74382D02*
X254000D01*
Y72758D01*
X254351Y72827D01*
X255072Y73309D01*
X255555Y74031D01*
X255624Y74382D01*
D02*
G37*
G36*
X115677Y74605D02*
X115326Y74535D01*
X114605Y74053D01*
X114123Y73331D01*
X114053Y72980D01*
X115677D01*
Y74605D01*
D02*
G37*
G36*
X122470Y76866D02*
X118624D01*
Y73645D01*
X118124Y73493D01*
X117750Y74053D01*
X117028Y74535D01*
X116677Y74605D01*
Y72480D01*
Y70356D01*
X117028Y70426D01*
X117750Y70908D01*
X118124Y71468D01*
X118624Y71316D01*
Y70535D01*
X122470D01*
Y73701D01*
Y76866D01*
D02*
G37*
G36*
X229221Y74303D02*
X227596D01*
X227666Y73952D01*
X228148Y73231D01*
X228870Y72749D01*
X229221Y72679D01*
Y74303D01*
D02*
G37*
G36*
X231845D02*
X230221D01*
Y72679D01*
X230572Y72749D01*
X231293Y73231D01*
X231775Y73952D01*
X231845Y74303D01*
D02*
G37*
G36*
X253000Y74382D02*
X251376D01*
X251445Y74031D01*
X251927Y73309D01*
X252649Y72827D01*
X253000Y72758D01*
Y74382D01*
D02*
G37*
G36*
X266504Y121101D02*
X266153Y121031D01*
X265431Y120549D01*
X264949Y119827D01*
X264880Y119476D01*
X266504D01*
Y121101D01*
D02*
G37*
G36*
X293591Y156534D02*
X293240Y156464D01*
X292518Y155982D01*
X292036Y155260D01*
X291966Y154909D01*
X293591D01*
Y156534D01*
D02*
G37*
G36*
X294591D02*
Y154909D01*
X296215D01*
X296145Y155260D01*
X295663Y155982D01*
X294942Y156464D01*
X294591Y156534D01*
D02*
G37*
G36*
X257947Y157202D02*
X256323D01*
X256393Y156851D01*
X256875Y156129D01*
X257596Y155647D01*
X257947Y155577D01*
Y157202D01*
D02*
G37*
G36*
X296215Y153909D02*
X294591D01*
Y152285D01*
X294942Y152355D01*
X295663Y152837D01*
X296145Y153558D01*
X296215Y153909D01*
D02*
G37*
G36*
X215754Y155774D02*
X215442Y155712D01*
X214753Y155252D01*
X214293Y154563D01*
X214230Y154250D01*
X215754D01*
Y155774D01*
D02*
G37*
G36*
X216754D02*
Y154250D01*
X218278D01*
X218216Y154563D01*
X217756Y155252D01*
X217067Y155712D01*
X216754Y155774D01*
D02*
G37*
G36*
X201521Y157900D02*
X199897D01*
Y156276D01*
X200248Y156345D01*
X200969Y156827D01*
X201451Y157549D01*
X201521Y157900D01*
D02*
G37*
G36*
X257947Y159826D02*
X257596Y159756D01*
X256875Y159274D01*
X256393Y158553D01*
X256323Y158202D01*
X257947D01*
Y159826D01*
D02*
G37*
G36*
X258947D02*
Y158202D01*
X260572D01*
X260502Y158553D01*
X260020Y159274D01*
X259298Y159756D01*
X258947Y159826D01*
D02*
G37*
G36*
X260572Y157202D02*
X258947D01*
Y155577D01*
X259298Y155647D01*
X260020Y156129D01*
X260502Y156851D01*
X260572Y157202D01*
D02*
G37*
G36*
X341768Y160570D02*
X340917Y160401D01*
X340195Y159919D01*
X339713Y159197D01*
X339544Y158346D01*
X339713Y157495D01*
X340195Y156774D01*
X340917Y156292D01*
X341768Y156123D01*
X342619Y156292D01*
X343340Y156774D01*
X343822Y157495D01*
X343991Y158346D01*
X343822Y159197D01*
X343340Y159919D01*
X342619Y160401D01*
X341768Y160570D01*
D02*
G37*
G36*
X198897Y157900D02*
X197272D01*
X197342Y157549D01*
X197824Y156827D01*
X198546Y156345D01*
X198897Y156276D01*
Y157900D01*
D02*
G37*
G36*
X237599Y151647D02*
X237248Y151577D01*
X236526Y151095D01*
X236044Y150373D01*
X235974Y150022D01*
X237599D01*
Y151647D01*
D02*
G37*
G36*
X238599D02*
Y150022D01*
X240223D01*
X240153Y150373D01*
X239671Y151095D01*
X238950Y151577D01*
X238599Y151647D01*
D02*
G37*
G36*
X220754Y152274D02*
X220442Y152212D01*
X219753Y151752D01*
X219293Y151063D01*
X219230Y150750D01*
X220754D01*
Y152274D01*
D02*
G37*
G36*
X184500Y165724D02*
X183649Y165554D01*
X182928Y165073D01*
X182446Y164351D01*
X182276Y163500D01*
X182446Y162649D01*
X182878Y162001D01*
Y158994D01*
X182640Y158756D01*
X180925D01*
Y155339D01*
Y152111D01*
X181803D01*
Y151348D01*
X181524Y150930D01*
X181355Y150079D01*
X181524Y149228D01*
X181795Y148823D01*
X181527Y148323D01*
X174862D01*
Y142820D01*
X173651Y141609D01*
X173121Y141503D01*
X172400Y141021D01*
X171918Y140300D01*
X171749Y139449D01*
X171918Y138598D01*
X172400Y137876D01*
X173121Y137394D01*
X173972Y137225D01*
X174823Y137394D01*
X175545Y137876D01*
X176027Y138598D01*
X176196Y139449D01*
X176082Y140022D01*
X176478Y140417D01*
X181980D01*
Y147922D01*
X182480Y148189D01*
X182728Y148024D01*
X183579Y147855D01*
X184430Y148024D01*
X185151Y148506D01*
X185633Y149228D01*
X185803Y150079D01*
X185633Y150930D01*
X185178Y151611D01*
X185225Y151811D01*
X185364Y152111D01*
X185523D01*
Y157053D01*
X185647Y157176D01*
X185647Y157176D01*
X185998Y157702D01*
X186122Y158323D01*
X186122Y158323D01*
Y162001D01*
X186555Y162649D01*
X186724Y163500D01*
X186555Y164351D01*
X186073Y165073D01*
X185351Y165554D01*
X184500Y165724D01*
D02*
G37*
G36*
X275304Y150818D02*
X273679D01*
X273749Y150467D01*
X274231Y149745D01*
X274953Y149263D01*
X275304Y149193D01*
Y150818D01*
D02*
G37*
G36*
X277928D02*
X276304D01*
Y149193D01*
X276655Y149263D01*
X277376Y149745D01*
X277858Y150467D01*
X277928Y150818D01*
D02*
G37*
G36*
X275304Y153442D02*
X274953Y153372D01*
X274231Y152890D01*
X273749Y152169D01*
X273679Y151818D01*
X275304D01*
Y153442D01*
D02*
G37*
G36*
X276304D02*
Y151818D01*
X277928D01*
X277858Y152169D01*
X277376Y152890D01*
X276655Y153372D01*
X276304Y153442D01*
D02*
G37*
G36*
X293591Y153909D02*
X291966D01*
X292036Y153558D01*
X292518Y152837D01*
X293240Y152355D01*
X293591Y152285D01*
Y153909D01*
D02*
G37*
G36*
X221754Y152274D02*
Y150750D01*
X223278D01*
X223216Y151063D01*
X222756Y151752D01*
X222067Y152212D01*
X221754Y152274D01*
D02*
G37*
G36*
X215754Y153250D02*
X214230D01*
X214293Y152938D01*
X214753Y152249D01*
X215442Y151788D01*
X215754Y151726D01*
Y153250D01*
D02*
G37*
G36*
X218278D02*
X216754D01*
Y151726D01*
X217067Y151788D01*
X217756Y152249D01*
X218216Y152938D01*
X218278Y153250D01*
D02*
G37*
G36*
X298354Y177245D02*
X296941D01*
X297282Y176735D01*
X298003Y176252D01*
X298354Y176183D01*
Y177245D01*
D02*
G37*
G36*
X300768D02*
X299354D01*
Y176183D01*
X299705Y176252D01*
X300427Y176735D01*
X300768Y177245D01*
D02*
G37*
G36*
X308658Y220359D02*
X302334D01*
X301944Y220281D01*
X301613Y220060D01*
X301610Y220055D01*
X301555D01*
Y219973D01*
X301393Y219730D01*
X301315Y219339D01*
Y189518D01*
X301393Y189128D01*
X301613Y188798D01*
X301944Y188577D01*
X302334Y188499D01*
X308658D01*
X309048Y188577D01*
X309379Y188798D01*
X309599Y189128D01*
X309677Y189518D01*
Y219339D01*
X309599Y219730D01*
X309379Y220060D01*
X309048Y220281D01*
X308658Y220359D01*
D02*
G37*
G36*
X252692Y172563D02*
X251067D01*
Y170939D01*
X251418Y171008D01*
X252140Y171491D01*
X252622Y172212D01*
X252692Y172563D01*
D02*
G37*
G36*
X250067Y175187D02*
X249716Y175118D01*
X248995Y174636D01*
X248513Y173914D01*
X248443Y173563D01*
X250067D01*
Y175187D01*
D02*
G37*
G36*
X251067D02*
Y173563D01*
X252692D01*
X252622Y173914D01*
X252140Y174636D01*
X251418Y175118D01*
X251067Y175187D01*
D02*
G37*
G36*
X286232Y220055D02*
X281870D01*
Y211756D01*
X286232D01*
Y220055D01*
D02*
G37*
G36*
X333815Y228397D02*
X332423Y228259D01*
X331084Y227853D01*
X329850Y227194D01*
X328768Y226306D01*
X327881Y225225D01*
X327221Y223991D01*
X326815Y222652D01*
X326678Y221260D01*
X326815Y219867D01*
X327221Y218529D01*
X327881Y217295D01*
X328768Y216213D01*
X329850Y215326D01*
X331084Y214666D01*
X332423Y214260D01*
X333815Y214123D01*
X335207Y214260D01*
X336546Y214666D01*
X337780Y215326D01*
X338861Y216213D01*
X339749Y217295D01*
X340408Y218529D01*
X340815Y219867D01*
X340952Y221260D01*
X340815Y222652D01*
X340408Y223991D01*
X339749Y225225D01*
X338861Y226306D01*
X337780Y227194D01*
X336546Y227853D01*
X335207Y228259D01*
X333815Y228397D01*
D02*
G37*
G36*
X286232Y197221D02*
X281870D01*
Y188921D01*
X286232D01*
Y197221D01*
D02*
G37*
G36*
X295176Y220831D02*
X288853D01*
X288463Y220754D01*
X288132Y220533D01*
X287911Y220202D01*
X287833Y219812D01*
Y189991D01*
X287911Y189601D01*
X288132Y189270D01*
X288463Y189049D01*
X288853Y188971D01*
X291713D01*
Y188921D01*
X296075D01*
Y189536D01*
X296118Y189601D01*
X296196Y189991D01*
Y219812D01*
X296118Y220202D01*
X295897Y220533D01*
X295566Y220754D01*
X295176Y220831D01*
D02*
G37*
G36*
X304063Y162335D02*
X302439D01*
X302508Y161984D01*
X302991Y161262D01*
X303712Y160780D01*
X304063Y160710D01*
Y162335D01*
D02*
G37*
G36*
X306687D02*
X305063D01*
Y160710D01*
X305414Y160780D01*
X306135Y161262D01*
X306617Y161984D01*
X306687Y162335D01*
D02*
G37*
G36*
X214022Y163986D02*
X212243D01*
Y161419D01*
X214022D01*
Y163986D01*
D02*
G37*
G36*
X198897Y160524D02*
X198546Y160454D01*
X197824Y159973D01*
X197342Y159251D01*
X197272Y158900D01*
X198897D01*
Y160524D01*
D02*
G37*
G36*
X199897D02*
Y158900D01*
X201521D01*
X201451Y159251D01*
X200969Y159973D01*
X200248Y160454D01*
X199897Y160524D01*
D02*
G37*
G36*
X333028Y168936D02*
X331739Y168767D01*
X330538Y168269D01*
X329506Y167478D01*
X328715Y166446D01*
X328218Y165245D01*
X328048Y163957D01*
X328218Y162668D01*
X328715Y161467D01*
X329506Y160436D01*
X330538Y159644D01*
X331739Y159147D01*
X333028Y158977D01*
X334316Y159147D01*
X335517Y159644D01*
X336549Y160436D01*
X337340Y161467D01*
X337838Y162668D01*
X338007Y163957D01*
X337838Y165245D01*
X337340Y166446D01*
X336549Y167478D01*
X335517Y168269D01*
X334316Y168767D01*
X333028Y168936D01*
D02*
G37*
G36*
X137787Y169818D02*
X136263D01*
Y168294D01*
X136576Y168356D01*
X137265Y168816D01*
X137725Y169505D01*
X137787Y169818D01*
D02*
G37*
G36*
X136263Y172342D02*
Y170818D01*
X137787D01*
X137725Y171131D01*
X137265Y171819D01*
X136576Y172280D01*
X136263Y172342D01*
D02*
G37*
G36*
X250067Y172563D02*
X248443D01*
X248513Y172212D01*
X248995Y171491D01*
X249716Y171008D01*
X250067Y170939D01*
Y172563D01*
D02*
G37*
G36*
X304063Y164959D02*
X303712Y164889D01*
X302991Y164407D01*
X302508Y163686D01*
X302439Y163335D01*
X304063D01*
Y164959D01*
D02*
G37*
G36*
X305063D02*
Y163335D01*
X306687D01*
X306617Y163686D01*
X306135Y164407D01*
X305414Y164889D01*
X305063Y164959D01*
D02*
G37*
G36*
X133647Y172753D02*
X132438D01*
Y170454D01*
Y168155D01*
X133647D01*
Y168837D01*
X134147Y168989D01*
X134262Y168816D01*
X134951Y168356D01*
X135263Y168294D01*
Y170318D01*
Y172342D01*
X134951Y172280D01*
X134262Y171819D01*
X134147Y171648D01*
X133647Y171799D01*
Y172753D01*
D02*
G37*
G36*
X240223Y149022D02*
X238599D01*
Y147398D01*
X238950Y147468D01*
X239671Y147950D01*
X240153Y148671D01*
X240223Y149022D01*
D02*
G37*
G36*
X285309Y129106D02*
X283685D01*
Y127482D01*
X284036Y127552D01*
X284757Y128034D01*
X285240Y128755D01*
X285309Y129106D01*
D02*
G37*
G36*
X304221Y129264D02*
X302596D01*
X302666Y128913D01*
X303148Y128191D01*
X303870Y127709D01*
X304221Y127639D01*
Y129264D01*
D02*
G37*
G36*
X306845D02*
X305221D01*
Y127639D01*
X305572Y127709D01*
X306293Y128191D01*
X306775Y128913D01*
X306845Y129264D01*
D02*
G37*
G36*
X243394Y129106D02*
X241769D01*
X241839Y128755D01*
X242321Y128034D01*
X243043Y127552D01*
X243394Y127482D01*
Y129106D01*
D02*
G37*
G36*
X246018D02*
X244394D01*
Y127482D01*
X244745Y127552D01*
X245466Y128034D01*
X245948Y128755D01*
X246018Y129106D01*
D02*
G37*
G36*
X282685D02*
X281061D01*
X281131Y128755D01*
X281613Y128034D01*
X282334Y127552D01*
X282685Y127482D01*
Y129106D01*
D02*
G37*
G36*
Y131731D02*
X282334Y131661D01*
X281613Y131179D01*
X281131Y130457D01*
X281061Y130106D01*
X282685D01*
Y131731D01*
D02*
G37*
G36*
X283685D02*
Y130106D01*
X285309D01*
X285240Y130457D01*
X284757Y131179D01*
X284036Y131661D01*
X283685Y131731D01*
D02*
G37*
G36*
X304221Y131888D02*
X303870Y131818D01*
X303148Y131336D01*
X302666Y130615D01*
X302596Y130264D01*
X304221D01*
Y131888D01*
D02*
G37*
G36*
X103988Y142876D02*
X103085Y142757D01*
X102243Y142409D01*
X101520Y141854D01*
X100965Y141131D01*
X100616Y140289D01*
X100497Y139386D01*
X100616Y138482D01*
X100965Y137640D01*
X101520Y136917D01*
X102243Y136363D01*
X103085Y136014D01*
X103988Y135895D01*
X104156Y135917D01*
X126607Y113467D01*
Y90591D01*
X126715Y90047D01*
X127023Y89586D01*
X130214Y86394D01*
X130219Y86354D01*
X129909Y86096D01*
X129783Y86044D01*
X129390Y86306D01*
X129039Y86376D01*
Y84252D01*
Y82127D01*
X129390Y82197D01*
X129737Y82429D01*
X130292Y82199D01*
X130304Y82141D01*
X130786Y81420D01*
X131195Y81146D01*
X131044Y80646D01*
X130334D01*
Y77071D01*
Y76209D01*
X132319D01*
X134303D01*
Y77438D01*
X137520D01*
X138240Y76956D01*
X139091Y76787D01*
X139942Y76956D01*
X140663Y77439D01*
X140764Y77590D01*
X142983D01*
X143262Y77645D01*
X143307Y77622D01*
X143649Y77224D01*
X143620Y77075D01*
X148394D01*
Y78799D01*
X145851D01*
X145659Y79050D01*
X145583Y79276D01*
X145652Y79369D01*
X145744Y79351D01*
X152043D01*
X152894Y79520D01*
X153616Y80002D01*
X154098Y80724D01*
X154267Y81575D01*
X154098Y82426D01*
X153616Y83147D01*
X152894Y83629D01*
X152043Y83799D01*
X145744D01*
X144893Y83629D01*
X144172Y83147D01*
X143690Y82426D01*
X143602Y81987D01*
X143504Y81935D01*
X143362Y82020D01*
X140705D01*
Y83020D01*
X143004D01*
Y85154D01*
X144070D01*
X144172Y85002D01*
X144893Y84520D01*
X145744Y84351D01*
X152043D01*
X152894Y84520D01*
X153616Y85002D01*
X154098Y85724D01*
X154267Y86575D01*
X154098Y87426D01*
X153616Y88147D01*
X152894Y88629D01*
X152043Y88799D01*
X145744D01*
X144893Y88629D01*
X144172Y88147D01*
X144070Y87996D01*
X141788D01*
X141350Y88420D01*
Y92260D01*
X141705Y92609D01*
X142067D01*
Y92976D01*
X143527D01*
X143762Y92535D01*
X143690Y92426D01*
X143520Y91575D01*
X143690Y90724D01*
X144172Y90002D01*
X144893Y89520D01*
X145744Y89351D01*
X152043D01*
X152894Y89520D01*
X153616Y90002D01*
X154098Y90724D01*
X154267Y91575D01*
X154098Y92426D01*
X153616Y93147D01*
X152894Y93629D01*
X152043Y93799D01*
X149363D01*
X149328Y93851D01*
X149595Y94351D01*
X152043D01*
X152894Y94520D01*
X153616Y95002D01*
X154098Y95724D01*
X154267Y96575D01*
X154098Y97426D01*
X153616Y98147D01*
X152894Y98629D01*
X152043Y98799D01*
X145744D01*
X144893Y98629D01*
X144172Y98147D01*
X144070Y97996D01*
X142067D01*
Y99334D01*
X142274Y99748D01*
X143319D01*
Y100417D01*
X143895D01*
X144172Y100002D01*
X144893Y99520D01*
X145744Y99351D01*
X152043D01*
X152894Y99520D01*
X153616Y100002D01*
X154098Y100724D01*
X154267Y101575D01*
X154098Y102426D01*
X153616Y103147D01*
X152894Y103629D01*
X152043Y103799D01*
X145744D01*
X144893Y103629D01*
X144338Y103259D01*
X143319D01*
Y104346D01*
X141770D01*
X132165Y113952D01*
Y114669D01*
X135288D01*
Y115547D01*
X135441Y115649D01*
X142028Y122236D01*
X143090D01*
Y123114D01*
X143862D01*
X144205Y122757D01*
X144264Y122614D01*
X144205Y122555D01*
X144205D01*
X144196Y122546D01*
X134700Y113050D01*
X140290Y107460D01*
X148468Y115638D01*
X148930Y115446D01*
Y114536D01*
X148574Y114004D01*
X148449Y113376D01*
X147896Y112823D01*
X147588Y112362D01*
X147480Y111818D01*
Y108799D01*
X145744D01*
X144893Y108629D01*
X144172Y108147D01*
X143690Y107426D01*
X143520Y106575D01*
X143690Y105724D01*
X144172Y105002D01*
X144893Y104520D01*
X145744Y104351D01*
X152043D01*
X152894Y104520D01*
X153616Y105002D01*
X154098Y105724D01*
X154267Y106575D01*
X154098Y107426D01*
X153616Y108147D01*
X152894Y108629D01*
X152043Y108799D01*
X150322D01*
Y111230D01*
X150459Y111366D01*
X151086Y111491D01*
X151710Y111908D01*
X152127Y112532D01*
X152273Y113268D01*
X152127Y114004D01*
X151771Y114536D01*
Y119961D01*
X151663Y120504D01*
X151355Y120965D01*
X148413Y123908D01*
X148402Y123963D01*
X148094Y124424D01*
X146977Y125540D01*
X146516Y125848D01*
X145973Y125956D01*
X143090D01*
Y126834D01*
X141698D01*
X141506Y127296D01*
X143537Y129327D01*
X144149D01*
X144250Y129175D01*
X144972Y128693D01*
X145823Y128524D01*
X146674Y128693D01*
X147395Y129175D01*
X147877Y129897D01*
X148047Y130748D01*
X147877Y131599D01*
X147395Y132320D01*
X146674Y132803D01*
X145823Y132972D01*
X144972Y132803D01*
X144250Y132320D01*
X144149Y132169D01*
X142949D01*
X142949Y132169D01*
X142405Y132061D01*
X141944Y131753D01*
X137149Y126958D01*
X137067Y126834D01*
X136445D01*
Y124836D01*
X135747Y124138D01*
X135287Y123992D01*
Y123992D01*
X135287Y123992D01*
X132556D01*
X132365Y124454D01*
X139268Y131358D01*
X139268Y131358D01*
X139576Y131818D01*
X139635Y132112D01*
X139836Y132246D01*
X140318Y132968D01*
X140488Y133819D01*
X140318Y134670D01*
X139836Y135391D01*
X139115Y135873D01*
X138264Y136043D01*
X137413Y135873D01*
X136691Y135391D01*
X136209Y134670D01*
X136040Y133819D01*
X136209Y132968D01*
X136470Y132578D01*
X131237Y127345D01*
X130813Y127628D01*
X130830Y127668D01*
X130999Y128957D01*
X130830Y130245D01*
X130332Y131447D01*
X129541Y132478D01*
X128509Y133269D01*
X127308Y133767D01*
X126020Y133936D01*
X124731Y133767D01*
X123530Y133269D01*
X122499Y132478D01*
X121707Y131447D01*
X121210Y130245D01*
X121040Y128957D01*
X121210Y127668D01*
X121707Y126467D01*
X122499Y125436D01*
X123530Y124644D01*
X124731Y124147D01*
X126020Y123977D01*
X127308Y124147D01*
X128379Y124590D01*
X128642Y124407D01*
X128764Y124148D01*
X128715Y123992D01*
X128642D01*
Y119394D01*
X129008D01*
Y118638D01*
X128563D01*
Y116183D01*
X128101Y115991D01*
X106768Y137324D01*
X107011Y137640D01*
X107360Y138482D01*
X107478Y139386D01*
X107360Y140289D01*
X107011Y141131D01*
X106456Y141854D01*
X105733Y142409D01*
X104891Y142757D01*
X103988Y142876D01*
D02*
G37*
G36*
X243394Y131731D02*
X243043Y131661D01*
X242321Y131179D01*
X241839Y130457D01*
X241769Y130106D01*
X243394D01*
Y131731D01*
D02*
G37*
G36*
X244394D02*
Y130106D01*
X246018D01*
X245948Y130457D01*
X245466Y131179D01*
X244745Y131661D01*
X244394Y131731D01*
D02*
G37*
G36*
X161819Y121984D02*
X160020D01*
Y120775D01*
X161819D01*
Y121984D01*
D02*
G37*
G36*
X294732Y122610D02*
X293108D01*
X293178Y122259D01*
X293660Y121538D01*
X294381Y121056D01*
X294732Y120986D01*
Y122610D01*
D02*
G37*
G36*
X297357D02*
X295732D01*
Y120986D01*
X296083Y121056D01*
X296805Y121538D01*
X297287Y122259D01*
X297357Y122610D01*
D02*
G37*
G36*
X267504Y121101D02*
Y119476D01*
X269128D01*
X269058Y119827D01*
X268576Y120549D01*
X267855Y121031D01*
X267504Y121101D01*
D02*
G37*
G36*
X239142Y121219D02*
X238791Y121149D01*
X238069Y120667D01*
X237587Y119946D01*
X237517Y119595D01*
X239142D01*
Y121219D01*
D02*
G37*
G36*
X240142D02*
Y119595D01*
X241766D01*
X241696Y119946D01*
X241214Y120667D01*
X240493Y121149D01*
X240142Y121219D01*
D02*
G37*
G36*
X295732Y125235D02*
Y123610D01*
X297357D01*
X297287Y123961D01*
X296805Y124683D01*
X296083Y125165D01*
X295732Y125235D01*
D02*
G37*
G36*
X333028Y133936D02*
X331739Y133767D01*
X330538Y133269D01*
X329506Y132478D01*
X328715Y131447D01*
X328218Y130245D01*
X328048Y128957D01*
X328218Y127668D01*
X328715Y126467D01*
X329506Y125436D01*
X330538Y124644D01*
X331739Y124147D01*
X333028Y123977D01*
X334316Y124147D01*
X335517Y124644D01*
X336549Y125436D01*
X337340Y126467D01*
X337838Y127668D01*
X338007Y128957D01*
X337838Y130245D01*
X337340Y131447D01*
X336549Y132478D01*
X335517Y133269D01*
X334316Y133767D01*
X333028Y133936D01*
D02*
G37*
G36*
X172831Y136003D02*
X171980Y135834D01*
X171258Y135352D01*
X170776Y134631D01*
X170607Y133780D01*
X170747Y133075D01*
X170457Y132575D01*
X166988D01*
Y126244D01*
X178437D01*
Y132575D01*
X175205D01*
X174914Y133075D01*
X175055Y133780D01*
X174885Y134631D01*
X174403Y135352D01*
X173682Y135834D01*
X172831Y136003D01*
D02*
G37*
G36*
X187803Y123345D02*
X187452Y123275D01*
X186731Y122793D01*
X186249Y122072D01*
X186179Y121721D01*
X187803D01*
Y123345D01*
D02*
G37*
G36*
X188803D02*
Y121721D01*
X190427D01*
X190358Y122072D01*
X189876Y122793D01*
X189154Y123275D01*
X188803Y123345D01*
D02*
G37*
G36*
X294732Y125235D02*
X294381Y125165D01*
X293660Y124683D01*
X293178Y123961D01*
X293108Y123610D01*
X294732D01*
Y125235D01*
D02*
G37*
G36*
X138028Y151436D02*
X136739Y151267D01*
X135538Y150769D01*
X134506Y149978D01*
X133715Y148946D01*
X133218Y147746D01*
X133048Y146457D01*
X133218Y145168D01*
X133715Y143967D01*
X134506Y142936D01*
X135538Y142144D01*
X136739Y141647D01*
X138028Y141477D01*
X139316Y141647D01*
X140517Y142144D01*
X141549Y142936D01*
X142340Y143967D01*
X142838Y145168D01*
X143007Y146457D01*
X142838Y147746D01*
X142340Y148946D01*
X141549Y149978D01*
X140517Y150769D01*
X139316Y151267D01*
X138028Y151436D01*
D02*
G37*
G36*
X321020D02*
X319731Y151267D01*
X318530Y150769D01*
X317499Y149978D01*
X316707Y148946D01*
X316210Y147746D01*
X316040Y146457D01*
X316210Y145168D01*
X316707Y143967D01*
X317499Y142936D01*
X318530Y142144D01*
X319731Y141647D01*
X321020Y141477D01*
X322308Y141647D01*
X323510Y142144D01*
X324541Y142936D01*
X325332Y143967D01*
X325830Y145168D01*
X325999Y146457D01*
X325830Y147746D01*
X325332Y148946D01*
X324541Y149978D01*
X323510Y150769D01*
X322308Y151267D01*
X321020Y151436D01*
D02*
G37*
G36*
X260141Y144234D02*
X258517D01*
X258586Y143883D01*
X259068Y143161D01*
X259790Y142679D01*
X260141Y142609D01*
Y144234D01*
D02*
G37*
G36*
X295417Y140707D02*
Y139083D01*
X297042D01*
X296972Y139434D01*
X296490Y140155D01*
X295768Y140637D01*
X295417Y140707D01*
D02*
G37*
G36*
X118130Y142876D02*
X117227Y142757D01*
X116385Y142409D01*
X116062Y142161D01*
X118130Y140093D01*
X120198Y142161D01*
X119875Y142409D01*
X119034Y142757D01*
X118130Y142876D01*
D02*
G37*
G36*
X170563Y148323D02*
X163445D01*
Y140417D01*
X170563D01*
Y148323D01*
D02*
G37*
G36*
X223278Y149750D02*
X219230D01*
X219293Y149438D01*
X219753Y148749D01*
X220442Y148288D01*
X220895Y148198D01*
X221147Y148148D01*
X221097Y147648D01*
X220707D01*
Y147408D01*
X220207Y147284D01*
X219567Y147712D01*
X219254Y147774D01*
Y145750D01*
Y143726D01*
X219567Y143788D01*
X220207Y144216D01*
X220707Y144092D01*
Y141514D01*
X225266D01*
Y147648D01*
X221411D01*
X221362Y148148D01*
X221614Y148198D01*
X222067Y148288D01*
X222756Y148749D01*
X223216Y149438D01*
X223278Y149750D01*
D02*
G37*
G36*
X218254Y147774D02*
X217942Y147712D01*
X217302Y147284D01*
X216802Y147408D01*
Y147648D01*
X212243D01*
Y141514D01*
X216802D01*
Y144092D01*
X217302Y144216D01*
X217942Y143788D01*
X218254Y143726D01*
Y145750D01*
Y147774D01*
D02*
G37*
G36*
X237599Y149022D02*
X235974D01*
X236044Y148671D01*
X236526Y147950D01*
X237248Y147468D01*
X237599Y147398D01*
Y149022D01*
D02*
G37*
G36*
X262765Y144234D02*
X261141D01*
Y142609D01*
X261492Y142679D01*
X262213Y143161D01*
X262695Y143883D01*
X262765Y144234D01*
D02*
G37*
G36*
X260141Y146858D02*
X259790Y146788D01*
X259068Y146306D01*
X258586Y145585D01*
X258517Y145234D01*
X260141D01*
Y146858D01*
D02*
G37*
G36*
X261141D02*
Y145234D01*
X262765D01*
X262695Y145585D01*
X262213Y146306D01*
X261492Y146788D01*
X261141Y146858D01*
D02*
G37*
G36*
X208204Y135058D02*
X206580D01*
Y133433D01*
X206931Y133503D01*
X207652Y133985D01*
X208134Y134707D01*
X208204Y135058D01*
D02*
G37*
G36*
X118130Y138679D02*
X116062Y136610D01*
X116385Y136363D01*
X117227Y136014D01*
X118130Y135895D01*
X119034Y136014D01*
X119875Y136363D01*
X120198Y136610D01*
X118130Y138679D01*
D02*
G37*
G36*
X205580Y137682D02*
X205229Y137612D01*
X204507Y137130D01*
X204025Y136409D01*
X203955Y136058D01*
X205580D01*
Y137682D01*
D02*
G37*
G36*
X305221Y131888D02*
Y130264D01*
X306845D01*
X306775Y130615D01*
X306293Y131336D01*
X305572Y131818D01*
X305221Y131888D01*
D02*
G37*
G36*
X342201Y136712D02*
X341350Y136543D01*
X340628Y136061D01*
X340146Y135339D01*
X339977Y134488D01*
X340146Y133637D01*
X340628Y132916D01*
X341350Y132434D01*
X342201Y132264D01*
X343052Y132434D01*
X343773Y132916D01*
X344255Y133637D01*
X344425Y134488D01*
X344255Y135339D01*
X343773Y136061D01*
X343052Y136543D01*
X342201Y136712D01*
D02*
G37*
G36*
X205580Y135058D02*
X203955D01*
X204025Y134707D01*
X204507Y133985D01*
X205229Y133503D01*
X205580Y133433D01*
Y135058D01*
D02*
G37*
G36*
X120905Y141454D02*
X118837Y139386D01*
X120905Y137318D01*
X121153Y137640D01*
X121502Y138482D01*
X121621Y139386D01*
X121502Y140289D01*
X121153Y141131D01*
X120905Y141454D01*
D02*
G37*
G36*
X115355D02*
X115107Y141131D01*
X114759Y140289D01*
X114640Y139386D01*
X114759Y138482D01*
X115107Y137640D01*
X115355Y137318D01*
X117423Y139386D01*
X115355Y141454D01*
D02*
G37*
G36*
X294417Y140707D02*
X294066Y140637D01*
X293345Y140155D01*
X292863Y139434D01*
X292793Y139083D01*
X294417D01*
Y140707D01*
D02*
G37*
G36*
X206580Y137682D02*
Y136058D01*
X208204D01*
X208134Y136409D01*
X207652Y137130D01*
X206931Y137612D01*
X206580Y137682D01*
D02*
G37*
G36*
X294417Y138083D02*
X292793D01*
X292863Y137732D01*
X293345Y137010D01*
X294066Y136528D01*
X294417Y136458D01*
Y138083D01*
D02*
G37*
G36*
X297042D02*
X295417D01*
Y136458D01*
X295768Y136528D01*
X296490Y137010D01*
X296972Y137732D01*
X297042Y138083D01*
D02*
G37*
%LPD*%
D10*
X145200Y202441D02*
G03*
X146972Y203622I0J1919D01*
G01*
X149334Y205197D02*
G03*
X146972Y203622I0J-2559D01*
G01*
X150909Y203229D02*
G03*
X149334Y201654I0J-1575D01*
G01*
X114240Y205370D02*
G03*
X121311Y202441I7071J7071D01*
G01*
X165082Y203229D02*
X172445D01*
X149334Y205197D02*
X153271D01*
X150909Y203229D02*
X153271D01*
X106831Y212779D02*
X114240Y205370D01*
X154945Y215335D02*
X155240Y215630D01*
X155043D02*
X155240D01*
X151697Y215629D02*
X151892D01*
X109826Y168700D02*
X116013D01*
X107190Y171336D02*
X109826Y168700D01*
X113096Y180136D02*
X114496Y178736D01*
X120382D01*
X116013Y168700D02*
X117768Y170454D01*
X128710D01*
X160568Y190224D02*
X160752Y190040D01*
X160568Y190224D02*
Y195932D01*
X160161Y196339D02*
X160568Y195932D01*
X149334Y199587D02*
Y201654D01*
X143133Y202441D02*
X145200D01*
X121311D02*
X133881D01*
D11*
X188468Y194961D02*
D03*
X191696D02*
D03*
X217012Y186693D02*
D03*
X220240D02*
D03*
X155004Y212481D02*
D03*
X158232D02*
D03*
X143074Y202441D02*
D03*
X139846D02*
D03*
X137169D02*
D03*
X133941D02*
D03*
X192602Y207166D02*
D03*
X195830D02*
D03*
X131938Y170454D02*
D03*
X128710D02*
D03*
X173783Y182756D02*
D03*
X170555D02*
D03*
X173783Y186299D02*
D03*
X170555D02*
D03*
X206775Y185512D02*
D03*
X210003D02*
D03*
X206263Y226063D02*
D03*
X203035D02*
D03*
X218074Y213465D02*
D03*
X214846D02*
D03*
X123610Y178736D02*
D03*
X120382D02*
D03*
X139642Y89961D02*
D03*
X136414D02*
D03*
X138382Y102047D02*
D03*
X141610D02*
D03*
X138154Y124535D02*
D03*
X141382D02*
D03*
X133579Y121693D02*
D03*
X130351D02*
D03*
D12*
X204059Y195000D02*
D03*
Y191772D02*
D03*
X149334Y196300D02*
D03*
Y199528D02*
D03*
X197366Y218622D02*
D03*
Y215394D02*
D03*
X193626Y221969D02*
D03*
Y218741D02*
D03*
X204846Y200827D02*
D03*
Y204055D02*
D03*
Y209567D02*
D03*
Y206339D02*
D03*
X135705Y97480D02*
D03*
Y94252D02*
D03*
X140705Y82520D02*
D03*
Y85748D02*
D03*
X176138Y116850D02*
D03*
Y113622D02*
D03*
X176098Y106535D02*
D03*
Y103307D02*
D03*
X176165Y99653D02*
D03*
Y96425D02*
D03*
Y82409D02*
D03*
Y85637D02*
D03*
X162319Y117047D02*
D03*
Y120275D02*
D03*
X183224Y157047D02*
D03*
Y153819D02*
D03*
X198547Y200827D02*
D03*
Y204055D02*
D03*
D13*
X182956Y194607D02*
D03*
X180674Y196889D02*
D03*
X173390Y204173D02*
D03*
X175672Y201891D02*
D03*
D14*
X107190Y171336D02*
D03*
X113096D02*
D03*
Y180136D02*
D03*
X107190D02*
D03*
X113096Y175736D02*
D03*
X107190D02*
D03*
D15*
X220200Y219961D02*
D03*
Y216811D02*
D03*
X156224Y187874D02*
D03*
Y184724D02*
D03*
X138507Y199095D02*
D03*
Y195945D02*
D03*
X143232Y199095D02*
D03*
Y195945D02*
D03*
X134177Y199095D02*
D03*
Y195945D02*
D03*
X200515Y194961D02*
D03*
Y191811D02*
D03*
X244216Y215040D02*
D03*
Y211890D02*
D03*
X239098Y220945D02*
D03*
Y217795D02*
D03*
X216067Y219961D02*
D03*
Y216811D02*
D03*
X212326Y219961D02*
D03*
Y216811D02*
D03*
X197366Y224489D02*
D03*
Y221339D02*
D03*
X226106D02*
D03*
Y218189D02*
D03*
X209964Y192205D02*
D03*
Y189055D02*
D03*
Y211496D02*
D03*
Y208346D02*
D03*
X201696Y200866D02*
D03*
Y204016D02*
D03*
Y206378D02*
D03*
Y209528D02*
D03*
X198547Y206378D02*
D03*
Y209528D02*
D03*
X140082Y94397D02*
D03*
Y97547D02*
D03*
X135902Y85591D02*
D03*
Y82441D02*
D03*
X132319Y75709D02*
D03*
Y78859D02*
D03*
X176138Y89685D02*
D03*
Y92835D02*
D03*
D16*
X139885Y205591D02*
D03*
X143035D02*
D03*
X133980D02*
D03*
X137130D02*
D03*
X151697Y212481D02*
D03*
X148547D02*
D03*
X194216Y194961D02*
D03*
X197366D02*
D03*
X232799Y221732D02*
D03*
X229649D02*
D03*
X206421Y181575D02*
D03*
X203271D02*
D03*
X213508D02*
D03*
X210358D02*
D03*
X192641Y204016D02*
D03*
X195791D02*
D03*
X133500Y116654D02*
D03*
X130350D02*
D03*
D17*
X180396Y206141D02*
D03*
X178114Y203859D02*
D03*
X177444Y209094D02*
D03*
X175162Y206812D02*
D03*
D18*
X180701Y201327D02*
D03*
X182929Y203555D02*
D03*
X185684Y192532D02*
D03*
X183456Y190304D02*
D03*
D19*
X159964Y187874D02*
D03*
Y182756D02*
D03*
X245791Y219567D02*
D03*
Y224685D02*
D03*
X196138Y108386D02*
D03*
Y113504D02*
D03*
D20*
X165082Y199291D02*
D03*
Y201260D02*
D03*
Y203229D02*
D03*
Y205197D02*
D03*
X153271Y199291D02*
D03*
Y201260D02*
D03*
Y203229D02*
D03*
Y205197D02*
D03*
D21*
X162129Y196339D02*
D03*
X160161D02*
D03*
X158192D02*
D03*
X156224D02*
D03*
Y208150D02*
D03*
X158192D02*
D03*
X160161D02*
D03*
X162129D02*
D03*
D22*
X159176Y202244D02*
D03*
D23*
X189246Y205640D02*
D03*
X186982D02*
D03*
X188114Y210266D02*
D03*
D24*
X189443Y207953D02*
D03*
X186785D02*
D03*
D25*
X183063Y199224D02*
D03*
X185291Y196996D02*
D03*
D26*
X213901Y207363D02*
D03*
Y205394D02*
D03*
Y203426D02*
D03*
Y201457D02*
D03*
Y199489D02*
D03*
Y197520D02*
D03*
Y195552D02*
D03*
Y193583D02*
D03*
X240673D02*
D03*
Y195552D02*
D03*
Y197520D02*
D03*
Y199489D02*
D03*
Y201457D02*
D03*
Y203426D02*
D03*
Y205394D02*
D03*
Y207363D02*
D03*
D27*
X216460Y191024D02*
D03*
X218429D02*
D03*
X220397D02*
D03*
X222366D02*
D03*
X224334D02*
D03*
X226303D02*
D03*
X228271D02*
D03*
X230240D02*
D03*
X232208D02*
D03*
X234177D02*
D03*
X236145D02*
D03*
X238114D02*
D03*
Y209922D02*
D03*
X236145D02*
D03*
X234177D02*
D03*
X232208D02*
D03*
X230240D02*
D03*
X228271D02*
D03*
X226303D02*
D03*
X224334D02*
D03*
X222366D02*
D03*
X220397D02*
D03*
X218429D02*
D03*
X216460D02*
D03*
D28*
X218941Y204804D02*
D03*
X223114Y200473D02*
D03*
X227287Y204804D02*
D03*
X223114D02*
D03*
X218941Y200473D02*
D03*
X227287D02*
D03*
X218941Y196142D02*
D03*
X223114D02*
D03*
X227287D02*
D03*
X231460D02*
D03*
Y200473D02*
D03*
Y204804D02*
D03*
X235633Y196142D02*
D03*
Y200473D02*
D03*
Y204804D02*
D03*
D29*
X201500Y216615D02*
D03*
X208586D02*
D03*
Y221339D02*
D03*
X201500D02*
D03*
D30*
X222986Y160919D02*
D03*
Y144581D02*
D03*
X214522Y160919D02*
D03*
Y144581D02*
D03*
D31*
X229649Y217402D02*
D03*
X235161D02*
D03*
D32*
X122970Y84331D02*
D03*
Y73701D02*
D03*
X100172Y84016D02*
D03*
Y94646D02*
D03*
D33*
X167791Y76575D02*
D03*
Y81575D02*
D03*
Y86575D02*
D03*
Y91575D02*
D03*
Y96575D02*
D03*
Y101575D02*
D03*
Y106575D02*
D03*
X148894Y76575D02*
D03*
Y81575D02*
D03*
Y86575D02*
D03*
Y91575D02*
D03*
Y96575D02*
D03*
Y101575D02*
D03*
Y106575D02*
D03*
D34*
X284051Y193071D02*
D03*
X303736D02*
D03*
X293894D02*
D03*
Y215905D02*
D03*
X303736D02*
D03*
X284051D02*
D03*
D35*
X178421Y144370D02*
D03*
X167004D02*
D03*
D36*
X172713Y129409D02*
D03*
D37*
X192280Y100039D02*
D03*
Y88622D02*
D03*
D38*
X207240Y94331D02*
D03*
D39*
X224137Y210118D02*
X224334Y209921D01*
X204748Y209528D02*
X204846Y209626D01*
X176165Y85637D02*
Y89685D01*
Y99653D02*
Y103307D01*
X187988Y92913D02*
X192280Y88622D01*
X176165Y92913D02*
X187988D01*
X176165D02*
Y96425D01*
X172722Y84518D02*
X173874D01*
X170665Y86575D02*
X172722Y84518D01*
X167791Y86575D02*
X170665D01*
X175982Y82409D02*
X176165D01*
X173874Y84518D02*
X175982Y82409D01*
X130902Y97323D02*
X135547D01*
X135705Y97480D01*
X135771Y97547D01*
X140082D01*
X135705Y94252D02*
X135849Y94397D01*
X140082D01*
X146342D02*
X148901Y91838D01*
X140082Y94397D02*
X146342D01*
X139484Y93799D02*
X140082Y94397D01*
X139484Y90394D02*
Y93799D01*
X140082Y97547D02*
X141054Y96575D01*
X148894D01*
X148638Y86575D02*
X148894D01*
X141532D02*
X148638D01*
X128028Y90591D02*
X133027Y85591D01*
X135902D01*
X136059Y85748D01*
X140705D01*
X141532Y86575D01*
X141610Y101838D02*
X148894D01*
X130744Y113363D02*
Y116260D01*
Y113363D02*
X141610Y102497D01*
X130350Y116654D02*
X130744Y116260D01*
X133579Y121693D02*
X135311D01*
X148901Y106575D02*
Y111818D01*
X133500Y116654D02*
X134436D01*
X138154Y125953D02*
X142949Y130748D01*
X138154Y124535D02*
Y125953D01*
X135311Y121693D02*
X138154Y124535D01*
X134436Y116654D02*
X141382Y123599D01*
Y124535D01*
X145973D01*
X147089Y123419D01*
Y123222D02*
Y123419D01*
Y123222D02*
X150350Y119961D01*
X138264Y132362D02*
Y133819D01*
X130429Y124528D02*
X138264Y132362D01*
X133146Y102317D02*
X138382D01*
X128028Y90591D02*
Y114055D01*
X103988Y138095D02*
X128028Y114055D01*
X103988Y138095D02*
Y139386D01*
X172713Y129409D02*
X172831Y129527D01*
Y133780D01*
X173972Y139921D02*
X178421Y144370D01*
X173972Y139449D02*
Y139921D01*
X170744Y116850D02*
X176138D01*
X161295Y126299D02*
X170744Y116850D01*
X133185Y90118D02*
X133224Y90079D01*
X205705Y95866D02*
X207240Y94331D01*
X181684Y95866D02*
X205705D01*
X176165Y99653D02*
X177897D01*
X181684Y95866D01*
X175225Y96425D02*
X176165D01*
X172429Y99220D02*
X175225Y96425D01*
X170416Y99220D02*
X172429D01*
X148901Y111818D02*
X150350Y113268D01*
Y119961D01*
X141610Y102047D02*
Y102497D01*
X138382Y102047D02*
Y102317D01*
X122752Y85966D02*
X122813Y85905D01*
X122752Y85966D02*
Y89291D01*
X156374Y89252D02*
Y146221D01*
Y89252D02*
X164051Y81575D01*
X167791D01*
X148500Y154095D02*
X156374Y146221D01*
X142949Y130748D02*
X145823D01*
X222366Y209922D02*
Y223110D01*
Y209921D02*
Y209922D01*
X204059Y190630D02*
X204846Y189843D01*
Y198898D02*
X205633Y198110D01*
X194610Y200670D02*
X198448D01*
X201696Y209528D02*
X204748D01*
X242248Y209921D02*
X244216Y211890D01*
X242248Y209331D02*
Y209921D01*
X216460Y190827D02*
Y191024D01*
X212720Y187087D02*
X216460Y190827D01*
X212720Y185512D02*
Y187087D01*
Y184331D02*
X213114Y183937D01*
Y181969D02*
Y183937D01*
Y181969D02*
X213507Y181575D01*
X212720Y184331D02*
Y185512D01*
X210004D02*
X212720D01*
X238114Y191024D02*
X244610D01*
X245397Y190236D01*
X206815Y226457D02*
X238311D01*
X206421Y226063D02*
X206815Y226457D01*
X206263Y226063D02*
X206421D01*
X216952Y186693D02*
Y187579D01*
X218429Y189055D01*
Y191024D01*
X206775Y181575D02*
Y185512D01*
X206421Y181575D02*
X206775D01*
X203271Y185512D02*
X206775D01*
X241460Y226457D02*
X242248D01*
X239098Y224095D02*
X241460Y226457D01*
X223350Y224095D02*
X239098D01*
X222366Y223110D02*
X223350Y224095D01*
X224137Y210118D02*
Y217795D01*
X224531D01*
X225122Y218189D01*
X226106D01*
X220200Y209921D02*
X220397D01*
X108817Y154095D02*
X148500D01*
X104833Y176018D02*
X107128D01*
X103432Y174617D02*
X104833Y176018D01*
X103432Y159480D02*
X108817Y154095D01*
X103432Y159480D02*
Y174617D01*
X161295Y126299D02*
Y152753D01*
X138030Y176018D02*
X161295Y152753D01*
X250909Y184725D02*
X267086D01*
X245397Y190236D02*
X250909Y184725D01*
X272509Y182308D02*
X276500Y186299D01*
X254317Y182308D02*
X272509D01*
X267311Y228559D02*
X276500Y219370D01*
X254580Y228559D02*
X267311D01*
X254572Y228550D02*
X254580Y228559D01*
X244341Y228550D02*
X254572D01*
X242248Y226457D02*
X244341Y228550D01*
X238311Y226457D02*
X241816Y229962D01*
X268367D01*
X279156Y219173D01*
X276500Y186299D02*
Y219370D01*
X279156Y193831D02*
Y219173D01*
X204059Y190630D02*
Y191713D01*
X198448Y200670D02*
X198497Y200719D01*
X198547Y200768D01*
X204846Y198898D02*
Y200768D01*
X99542Y93504D02*
X100429Y94391D01*
Y98701D01*
X167798Y101838D02*
X170416Y99220D01*
X147968Y91838D02*
X148901D01*
X99975Y83898D02*
X105930Y89853D01*
X148638Y86575D02*
X148901Y86838D01*
X133224Y90079D02*
X136492D01*
X220200Y209921D02*
Y216811D01*
X113051Y176018D02*
X138030D01*
X130429Y116654D02*
Y124528D01*
D40*
X167798Y113000D02*
X176165D01*
Y106535D02*
Y113000D01*
X167798Y106838D02*
Y113000D01*
X176165D02*
Y113504D01*
X176138Y113622D02*
X176256Y113504D01*
X176138Y113622D02*
X196019D01*
X196138Y113504D01*
X132910Y82441D02*
X135902D01*
X132358Y82992D02*
X132910Y82441D01*
X129799Y82992D02*
X132358D01*
X128539Y84252D02*
X129799Y82992D01*
D41*
X191657Y210167D02*
Y212677D01*
X189443Y207953D02*
X191657Y210167D01*
X186785Y207953D02*
X189443D01*
D42*
X206421Y192205D02*
X211933Y197717D01*
X204846Y206280D02*
X204944Y206378D01*
X143074Y202441D02*
X143133D01*
X143035D02*
X143074D01*
X180631Y196931D02*
X180771D01*
X177641Y203859D02*
X178170D01*
X182805Y199224D01*
X133881Y202441D02*
X133881Y202441D01*
X138507Y202441D02*
Y205591D01*
Y202343D02*
Y202441D01*
X137130Y205591D02*
X138507D01*
X137129D02*
X137130D01*
X185290Y196858D02*
Y196997D01*
Y195816D02*
Y196858D01*
X211933Y197717D02*
X212720D01*
X149334Y193780D02*
X149433Y194173D01*
X212523Y195551D02*
X213901D01*
X211145Y194173D02*
X212523Y195551D01*
X211145Y193386D02*
Y194173D01*
X209964Y192205D02*
X211145Y193386D01*
X210948Y199488D02*
X213901D01*
X206421Y194961D02*
X210948Y199488D01*
X205594Y195000D02*
X206381D01*
X206421Y194961D01*
X200515D02*
Y195000D01*
X197366Y194961D02*
X200515D01*
X204944Y206378D02*
X207602D01*
X201795Y206280D02*
X204846D01*
X201696Y206378D02*
X201795Y206280D01*
X191263Y205591D02*
X192641Y204213D01*
X189295Y205591D02*
X191263D01*
X189246Y205640D02*
X189295Y205591D01*
X173390Y204173D02*
X175161Y205945D01*
Y206812D01*
X185290Y195816D02*
X186145Y194961D01*
X185684Y192531D02*
X186145Y192992D01*
Y194961D01*
X143035Y202441D02*
Y205591D01*
X143074Y199252D02*
X143133D01*
Y202441D01*
X138507Y199095D02*
Y202343D01*
Y205591D02*
X139885D01*
X133881Y202441D02*
Y205492D01*
X133980Y205591D01*
X133941Y199331D02*
Y202382D01*
X175672Y201890D02*
X177641Y203859D01*
X182805Y199224D02*
X183063D01*
X180771Y196931D02*
X183063Y199224D01*
X183224Y157047D02*
X184500Y158323D01*
Y163500D01*
X200515Y195000D02*
X204058Y195059D01*
X204059Y195059D01*
X182998Y194565D02*
X182998Y194565D01*
X185290Y196858D01*
X191755Y194961D02*
X194216D01*
X186145D02*
X188409D01*
X133881Y202441D02*
X133912Y202411D01*
X133941Y202382D01*
X137228Y202441D02*
X138507D01*
X137228D02*
X137326Y202433D01*
X138507Y202343D01*
Y202441D02*
X139787D01*
X149339Y196142D02*
X149433Y194173D01*
X149334Y196240D02*
X149339Y196142D01*
X192641Y204016D02*
Y204213D01*
X189246Y205640D02*
X191017D01*
X192543Y207166D01*
D43*
X173783Y182756D02*
X173980Y182559D01*
X158232Y208189D02*
X158291Y212480D01*
Y212480D02*
X158291Y212481D01*
X158291Y212480D02*
Y212480D01*
X217051Y217205D02*
X217086Y217065D01*
X217086Y217065D01*
X201303Y217205D02*
X201500Y216615D01*
X201500Y216614D01*
X226303Y209922D02*
Y214449D01*
Y209921D02*
Y209922D01*
X165082Y199291D02*
Y199292D01*
Y198504D02*
Y199291D01*
X232208Y209922D02*
Y211890D01*
Y209921D02*
Y209922D01*
X217086Y217065D02*
X217381Y215883D01*
X217444Y215630D01*
X217542Y215769D02*
X218074Y215394D01*
X217381Y215883D02*
X217542Y215769D01*
X216067Y216811D02*
X217381Y215883D01*
X218429Y209921D02*
Y209922D01*
X215043Y211339D02*
X216459Y209922D01*
X216460Y209921D01*
X228271Y209922D02*
Y213268D01*
Y209921D02*
Y209922D01*
X230240D02*
Y212481D01*
Y209921D02*
Y209922D01*
X156198Y208344D02*
X156224Y208347D01*
X153271Y207953D02*
X156198Y208344D01*
X156224Y208150D02*
Y208347D01*
Y204607D02*
X156815Y204213D01*
X156224Y204607D02*
Y208150D01*
X240673Y195551D02*
X247355D01*
X211342Y207362D02*
X213901D01*
X210752Y207559D02*
X211342Y207362D01*
X220397Y186851D02*
Y191024D01*
X240673Y201457D02*
X244413D01*
X248941Y205984D01*
X240673Y199488D02*
X246637D01*
X240673Y203425D02*
X243232D01*
X240673Y205394D02*
X242444D01*
X248478Y212151D01*
X240673Y193583D02*
X245355D01*
X240673Y197520D02*
X263050D01*
X230240Y212481D02*
X235161Y217402D01*
X229649D02*
Y221732D01*
X228271Y213268D02*
X229649Y214646D01*
Y217402D01*
X214846Y213465D02*
X215043Y211339D01*
X212326Y215433D02*
Y216811D01*
Y215433D02*
X214846Y213465D01*
X208586Y221339D02*
X209177D01*
X210161Y219961D01*
X212326D01*
X218074Y213465D02*
X218429Y213701D01*
X218074Y213465D02*
Y215394D01*
X197326Y215433D02*
X197366Y215394D01*
X216067Y216811D02*
X217051Y217205D01*
X195397Y215433D02*
X197326D01*
X194610Y216221D02*
X195397Y215433D01*
X236145Y189646D02*
Y191024D01*
Y189646D02*
X237523Y188268D01*
X243822D01*
X249137Y181181D02*
Y182953D01*
X243822Y188268D02*
X248941Y183150D01*
Y183347D01*
Y183150D02*
X249137Y182953D01*
X224334Y181772D02*
Y191024D01*
X234177Y188858D02*
Y191024D01*
Y188858D02*
X236736Y186299D01*
X240673D01*
X242641Y184331D01*
X232208Y188071D02*
Y191024D01*
Y188071D02*
X236736Y183544D01*
X238311D01*
X241460Y180394D01*
X230240Y186890D02*
Y191024D01*
Y186890D02*
X236736Y180394D01*
X228271Y185709D02*
Y191024D01*
Y185709D02*
X231618Y182362D01*
Y180394D02*
Y182362D01*
X226303Y184134D02*
Y191024D01*
Y184134D02*
X226893Y183544D01*
Y180394D02*
Y183544D01*
X197366Y221339D02*
X201500D01*
X200712Y221732D02*
X201500Y221339D01*
X200712Y221732D02*
Y225276D01*
X201500Y226063D01*
X203035D01*
X222366Y183347D02*
Y191024D01*
X221381Y182362D02*
X222366Y183347D01*
X219019Y182362D02*
X221381D01*
X173980Y182559D02*
X176696D01*
X232208Y211890D02*
X232799Y212481D01*
X233783D01*
X234570Y213268D01*
X165082Y201260D02*
X167248D01*
X167641Y200866D01*
X165673Y220945D02*
X169216Y217402D01*
X226303Y214449D02*
X226500Y214843D01*
X165082Y198504D02*
X165476Y198110D01*
X167641D01*
X172445Y203229D02*
X173390Y204173D01*
X188114Y210266D02*
Y212284D01*
X158192Y192992D02*
Y196339D01*
X143074Y199252D02*
X143232Y199095D01*
X133941Y199331D02*
X134177Y199095D01*
X162129Y193977D02*
Y196339D01*
Y193977D02*
X162917Y193189D01*
X170555Y182756D02*
Y186299D01*
X162917Y187481D02*
Y193189D01*
Y187481D02*
X164098Y186299D01*
X170555D01*
X158192Y208150D02*
X158232Y208189D01*
X193626Y218740D02*
X197248D01*
X197366Y218622D01*
X198311D01*
X199728Y217205D01*
X201303D01*
X236513Y168557D02*
X249137Y181181D01*
X227493Y168557D02*
X236513D01*
X158352D02*
X192045D01*
X222732Y180170D02*
X224334Y181772D01*
X222732Y160919D02*
Y180170D01*
X228974Y172632D02*
X236736Y180394D01*
X227481Y172632D02*
X228974D01*
X161845D02*
X195330D01*
X107190Y180136D02*
X112322Y185269D01*
X141640D01*
X158352Y168557D01*
X118746Y173742D02*
X125752D01*
X116339Y171336D02*
X118746Y173742D01*
X113096Y171336D02*
X116339D01*
X243232Y203425D02*
X248865Y209059D01*
X249334Y209528D01*
X248782Y212498D02*
X250253Y213969D01*
X263107D01*
X248941Y205984D02*
X262929D01*
X262947Y205967D01*
X246637Y199488D02*
X248792Y201643D01*
X247355Y195551D02*
X248585Y194321D01*
X245355Y193583D02*
X248693Y190245D01*
X263205D01*
X220299Y186693D02*
X220326Y186737D01*
X220397Y186851D01*
X204846Y206280D02*
X204890Y206252D01*
X205004Y206181D01*
X204846Y204114D02*
X204890Y204142D01*
X205004Y204213D01*
X209964Y208347D02*
X210752Y207559D01*
X218429Y209922D02*
Y213701D01*
D44*
X137129Y205591D02*
X137169Y205551D01*
X245791Y216614D02*
Y219567D01*
X244216Y215040D02*
X245791Y216614D01*
X238114Y209921D02*
X238704D01*
X239295Y210512D01*
Y210906D01*
X243429Y215040D01*
X244216D01*
X143035Y205591D02*
X143074Y205551D01*
X133941D02*
X133980Y205591D01*
X248744Y219567D02*
X248941Y219370D01*
X266517Y217818D02*
X269273D01*
X272029D01*
X274391D01*
D45*
X132319Y78859D02*
X138938D01*
X139091Y79011D01*
X183224Y150433D02*
X183579Y150079D01*
X183224Y150433D02*
Y153819D01*
X162279Y117008D02*
X162319Y117047D01*
X162279Y113110D02*
Y117008D01*
X148901Y81838D02*
X148928Y81811D01*
X142983Y79011D02*
X145350Y81378D01*
X148901Y81838D02*
Y81838D01*
X139091Y79011D02*
X142983D01*
X162287Y100623D02*
Y112251D01*
Y100623D02*
X166847Y96063D01*
X166308Y96838D02*
X167798D01*
X165712Y76917D02*
X175127D01*
D46*
X113539Y92126D02*
X113569Y92155D01*
D47*
X201697Y204056D02*
X201736Y204055D01*
X201697Y204056D02*
X201697D01*
X195791Y204016D02*
Y204055D01*
X201696Y204016D02*
X201736Y204055D01*
X235555Y217795D02*
X239098D01*
X235161Y217402D02*
X235555Y217795D01*
X198547Y206378D02*
X201696D01*
X201736Y206339D01*
X196618Y206378D02*
X198547D01*
X204059Y195059D02*
X204061Y195059D01*
X205594Y195000D01*
X198548Y204114D02*
X201697Y204056D01*
X195791Y204055D02*
X198546Y204114D01*
X198547Y204114D01*
X198548Y204114D01*
X198548D01*
X201736Y204055D02*
X204845Y204114D01*
X204845D01*
X204846Y204114D01*
X195935Y207117D02*
X196618Y206378D01*
X195889Y207166D02*
X195935Y207117D01*
D48*
X209767Y201457D02*
X213901D01*
X205004Y204213D02*
X207011D01*
X209767Y201457D01*
X210555Y203425D02*
X213901D01*
X207602Y206378D02*
X210555Y203425D01*
X204846Y206280D02*
X204866Y206331D01*
X204885Y206378D01*
D49*
X245791Y219567D02*
X248744D01*
D50*
X153551Y215087D02*
D03*
D51*
X292014Y204901D02*
D03*
X305496Y204429D02*
D03*
D52*
X219019Y182362D02*
D03*
X242641Y184331D02*
D03*
X241460Y180394D02*
D03*
X236736D02*
D03*
X231618D02*
D03*
X226893D02*
D03*
X150350Y113268D02*
D03*
D53*
X118130Y139386D02*
D03*
X103988D02*
D03*
D54*
Y153528D02*
D03*
D55*
X107437Y213386D02*
D03*
D56*
X126020Y128957D02*
D03*
Y163957D02*
D03*
X333028Y128957D02*
D03*
Y163957D02*
D03*
X321020Y146457D02*
D03*
X138028D02*
D03*
X308539Y110020D02*
D03*
Y75020D02*
D03*
X101532Y110020D02*
D03*
Y75020D02*
D03*
X113539Y92520D02*
D03*
X296532D02*
D03*
D57*
X105744Y90039D02*
D03*
X100429Y98701D02*
D03*
X295232Y123110D02*
D03*
X116177Y72480D02*
D03*
X122988Y64095D02*
D03*
X149406Y69606D02*
D03*
X176728Y69055D02*
D03*
X173972Y139449D02*
D03*
X172831Y133780D02*
D03*
X183579Y150079D02*
D03*
X138264Y133819D02*
D03*
X130902Y97323D02*
D03*
X133185Y90118D02*
D03*
X162279Y113110D02*
D03*
X294917Y138583D02*
D03*
X267004Y118976D02*
D03*
X243894Y129606D02*
D03*
X269917Y65512D02*
D03*
X264248Y91102D02*
D03*
X277673Y105748D02*
D03*
X252988D02*
D03*
X229248Y105630D02*
D03*
X253500Y74882D02*
D03*
X229720Y74803D02*
D03*
X333894Y187441D02*
D03*
X334209Y206850D02*
D03*
X341098Y198071D02*
D03*
X322358Y197756D02*
D03*
X313815Y206968D02*
D03*
X324248Y210118D02*
D03*
X313815Y188465D02*
D03*
Y225472D02*
D03*
X175127Y76917D02*
D03*
X133146Y102317D02*
D03*
X139091Y79011D02*
D03*
X122752Y89291D02*
D03*
X298854Y178307D02*
D03*
X132358Y82992D02*
D03*
X128539Y84252D02*
D03*
X129051Y72913D02*
D03*
X145823Y130748D02*
D03*
X184500Y163500D02*
D03*
X260641Y144734D02*
D03*
X258447Y157702D02*
D03*
X238099Y149522D02*
D03*
X275803Y151318D02*
D03*
X206080Y135558D02*
D03*
X199397Y158400D02*
D03*
X250567Y173063D02*
D03*
D58*
X283185Y129606D02*
D03*
X188303Y121221D02*
D03*
X239642Y119095D02*
D03*
X241453Y64882D02*
D03*
X280114Y74528D02*
D03*
X139130Y65236D02*
D03*
X161098Y65197D02*
D03*
X191453Y65315D02*
D03*
X139209Y73740D02*
D03*
X214602Y64646D02*
D03*
X239524Y90827D02*
D03*
X304720Y129764D02*
D03*
X294091Y154409D02*
D03*
X304563Y162835D02*
D03*
X342201Y134488D02*
D03*
X341768Y158346D02*
D03*
X171343Y113164D02*
D03*
X290519Y192761D02*
D03*
Y196737D02*
D03*
Y200714D02*
D03*
Y204690D02*
D03*
Y208667D02*
D03*
Y212643D02*
D03*
Y216619D02*
D03*
X307135Y216693D02*
D03*
Y212716D02*
D03*
Y208740D02*
D03*
Y204764D02*
D03*
Y200787D02*
D03*
Y196811D02*
D03*
Y192834D02*
D03*
D59*
X263101Y201880D02*
D03*
X245397Y182756D02*
D03*
X276500Y180000D02*
D03*
X255396Y226591D02*
D03*
X258481Y226454D02*
D03*
X262167Y225526D02*
D03*
X252090Y226457D02*
D03*
X262759Y222526D02*
D03*
X212720Y210315D02*
D03*
X242248Y209331D02*
D03*
X263115Y209810D02*
D03*
X219019Y206772D02*
D03*
X222956D02*
D03*
X219019Y202835D02*
D03*
Y198504D02*
D03*
Y194173D02*
D03*
X222956Y198504D02*
D03*
Y194173D02*
D03*
Y202835D02*
D03*
X227287Y206772D02*
D03*
Y202835D02*
D03*
Y198504D02*
D03*
Y194173D02*
D03*
X231618Y206772D02*
D03*
X235948D02*
D03*
X231618Y202835D02*
D03*
X235948D02*
D03*
X231618Y198504D02*
D03*
X235948D02*
D03*
X231618Y194173D02*
D03*
X235555D02*
D03*
X133389Y191614D02*
D03*
X136342D02*
D03*
X139295D02*
D03*
X142248D02*
D03*
X145200D02*
D03*
X148153D02*
D03*
X151106D02*
D03*
Y189055D02*
D03*
X163507Y181969D02*
D03*
X155830Y182953D02*
D03*
X189098Y190827D02*
D03*
X174728Y198307D02*
D03*
X177484Y198898D02*
D03*
X174334Y195158D02*
D03*
X172956Y192795D02*
D03*
X170988Y190630D02*
D03*
X186539Y184331D02*
D03*
X196972Y191418D02*
D03*
X206815Y192008D02*
D03*
X212917Y190630D02*
D03*
X194610Y200670D02*
D03*
X191854Y198504D02*
D03*
X191460Y185709D02*
D03*
X186539Y203622D02*
D03*
X161539Y204213D02*
D03*
Y200670D02*
D03*
X159177D02*
D03*
X156815D02*
D03*
X149334Y193780D02*
D03*
X146185Y199488D02*
D03*
Y196536D02*
D03*
X149137Y208150D02*
D03*
X147366Y214449D02*
D03*
X146185Y193977D02*
D03*
X141066Y194567D02*
D03*
X142051Y208740D02*
D03*
X146578Y207362D02*
D03*
X143429Y212284D02*
D03*
X144413Y208544D02*
D03*
X139689Y208740D02*
D03*
X134767D02*
D03*
X144413Y218189D02*
D03*
X221254Y150250D02*
D03*
X132602Y208740D02*
D03*
X137129D02*
D03*
X140476Y214646D02*
D03*
X136539Y211693D02*
D03*
X130633Y218977D02*
D03*
X117248Y215433D02*
D03*
X162129Y221732D02*
D03*
X177681Y216221D02*
D03*
X208783Y212677D02*
D03*
X164295Y225473D02*
D03*
X154452D02*
D03*
X168232Y190040D02*
D03*
X194413Y191614D02*
D03*
X224531Y221339D02*
D03*
X129999Y193334D02*
D03*
X113683Y197130D02*
D03*
X117146Y193734D02*
D03*
X122940Y196065D02*
D03*
X124538Y191335D02*
D03*
X218754Y145750D02*
D03*
X216254Y153750D02*
D03*
X148500Y188500D02*
D03*
X165082Y195551D02*
D03*
X167051Y181772D02*
D03*
X165279Y183544D02*
D03*
X218754Y159750D02*
D03*
X177484Y192795D02*
D03*
X165673Y190040D02*
D03*
X159177Y204213D02*
D03*
X199728Y189449D02*
D03*
X202484D02*
D03*
X204846Y189843D02*
D03*
X197366Y198110D02*
D03*
X200122D02*
D03*
X202878D02*
D03*
X205633D02*
D03*
X207602Y200079D02*
D03*
X194610Y198110D02*
D03*
X191854Y191418D02*
D03*
X191657Y212677D02*
D03*
X189098Y198898D02*
D03*
X192051Y200866D02*
D03*
X193035Y210709D02*
D03*
X194413Y212677D02*
D03*
X197759D02*
D03*
X200515D02*
D03*
X203271D02*
D03*
X206027D02*
D03*
X174925Y210906D02*
D03*
X186539Y201063D02*
D03*
X174137Y220945D02*
D03*
X152287Y196339D02*
D03*
Y193780D02*
D03*
X273350Y179803D02*
D03*
X269216D02*
D03*
X263901D02*
D03*
X259746Y179288D02*
D03*
X244610Y180000D02*
D03*
X200122Y184725D02*
D03*
X200515Y187087D02*
D03*
X192641Y181969D02*
D03*
X136342Y194567D02*
D03*
X115476Y224882D02*
D03*
X134177Y215040D02*
D03*
X196775Y186103D02*
D03*
X242248Y219567D02*
D03*
X234767Y221536D02*
D03*
X220200Y221732D02*
D03*
X186539Y221339D02*
D03*
X180633Y221142D02*
D03*
X183389Y220748D02*
D03*
X171972Y215236D02*
D03*
X158586Y225670D02*
D03*
X258103Y186436D02*
D03*
X261049D02*
D03*
X161342Y213268D02*
D03*
X136933Y225276D02*
D03*
X180240Y191614D02*
D03*
X181618Y184725D02*
D03*
X195397Y181969D02*
D03*
X198153D02*
D03*
X200909D02*
D03*
X122563Y222323D02*
D03*
X139689Y219370D02*
D03*
X144807Y224882D02*
D03*
X129255Y224685D02*
D03*
X125712Y213071D02*
D03*
X187129Y216221D02*
D03*
X184177D02*
D03*
X181027D02*
D03*
X156815Y204213D02*
D03*
X189492Y202638D02*
D03*
X183783Y209528D02*
D03*
X169216Y212481D02*
D03*
X187129Y189252D02*
D03*
X174728Y216221D02*
D03*
X177484Y220945D02*
D03*
X159374Y216811D02*
D03*
X169019Y209725D02*
D03*
X179059Y211496D02*
D03*
X182011D02*
D03*
X181224Y208937D02*
D03*
X184570Y207166D02*
D03*
X169019Y206969D02*
D03*
X174925Y189843D02*
D03*
X216067Y221732D02*
D03*
X248585Y194321D02*
D03*
X248792Y201643D02*
D03*
X263205Y190245D02*
D03*
X217444Y215630D02*
D03*
X194610Y216221D02*
D03*
X238311Y226457D02*
D03*
X203271Y185512D02*
D03*
X242248Y226457D02*
D03*
X224531Y217795D02*
D03*
X156027Y190040D02*
D03*
X176696Y182559D02*
D03*
X234570Y213268D02*
D03*
X167641Y200866D02*
D03*
X169216Y217402D02*
D03*
X165673Y220945D02*
D03*
X226500Y214843D02*
D03*
X167641Y198110D02*
D03*
X158192Y192992D02*
D03*
X188114Y212284D02*
D03*
X158389Y189252D02*
D03*
X160752Y190040D02*
D03*
X153468Y217205D02*
D03*
X155240Y215630D02*
D03*
X151696D02*
D03*
X218791Y163809D02*
D03*
X214655Y159698D02*
D03*
X152090Y184134D02*
D03*
X135763Y170318D02*
D03*
X126574Y178816D02*
D03*
X248668Y209256D02*
D03*
X263107Y213969D02*
D03*
X274391Y217818D02*
D03*
X248941Y219370D02*
D03*
X254317Y182308D02*
D03*
X262947Y205967D02*
D03*
X272029Y217818D02*
D03*
X269273D02*
D03*
X266517D02*
D03*
X263050Y197520D02*
D03*
X279156Y193831D02*
D03*
X267086Y184725D02*
D03*
X252212Y186436D02*
D03*
X255158D02*
D03*
D60*
X111765Y215174D02*
D03*
X112100Y212933D02*
D03*
X112728Y210757D02*
D03*
X114330Y209155D02*
D03*
X115931Y207553D02*
D03*
X117703Y206141D02*
D03*
X119811Y205312D02*
D03*
X122073Y205180D02*
D03*
X124338D02*
D03*
X126603D02*
D03*
X128869D02*
D03*
X131039Y205830D02*
D03*
X131132Y197991D02*
D03*
X129647Y199702D02*
D03*
X127382D02*
D03*
X125116D02*
D03*
X122851D02*
D03*
X120587Y199766D02*
D03*
X118346Y200100D02*
D03*
X116198Y200821D02*
D03*
X114210Y201906D02*
D03*
X112443Y203324D02*
D03*
X110826Y204910D02*
D03*
X227493Y168557D02*
D03*
X192045D02*
D03*
X227481Y172632D02*
D03*
X195330D02*
D03*
X161845D02*
D03*
X125752Y173742D02*
D03*
M02*
