M48
;Layer_Color=9474304
;FILE_FORMAT=2:5
INCH,LZ
;TYPE=PLATED
T1F00S00C0.01181
T2F00S00C0.02953
T3F00S00C0.03937
T4F00S00C0.05197
;TYPE=NON_PLATED
%
T01
X0122988Y0064095
X0129051Y0072913
X0139209Y007374
X0139091Y0079011
X0132358Y0082992
X0128539Y0084252
X0133185Y0090118
X0130902Y0097323
X0133146Y0102317
X0122752Y0089291
X0105744Y0090039
X0100429Y0098701
X0116177Y007248
X013913Y0065236
X0149406Y0069606
X015035Y0113268
X0145823Y0130748
X0138264Y0133819
X0172831Y013378
X0173972Y0139449
X0183579Y0150079
X0188303Y0121221
X0171343Y0113164
X0162279Y011311
X0175127Y0076917
X0176728Y0069055
X0191453Y0065315
X0214602Y0064646
X022972Y0074803
X0241453Y0064882
X02535Y0074882
X0269917Y0065512
X0280114Y0074528
X0264248Y0091102
X0239524Y0090827
X0229248Y010563
X0252988Y0105748
X0277673
X0267004Y0118976
X0283185Y0129606
X0295232Y012311
X0294917Y0138583
X0294091Y0154409
X0275803Y0151318
X0260641Y0144734
X0238099Y0149522
X0221254Y015025
X0218754Y014575
X0216254Y015375
X020608Y0135558
X0243894Y0129606
X0239642Y0119095
X030472Y0129764
X0161098Y0065197
X0342201Y0134488
X0341768Y0158346
X0333894Y0187441
X0341098Y0198071
X0334209Y020685
X0324248Y0210118
X0313815Y0206968
X0322358Y0197756
X0313815Y0188465
Y0225472
X0307135Y0216693
Y0212716
Y020874
Y0204764
Y0200787
Y0196811
Y0192834
X0290519Y0192761
Y0196737
Y0200714
Y020469
Y0208667
Y0212643
Y0216619
X0274391Y0217818
X0272029
X0269273
X0266517
X0263107Y0213969
X0263115Y020981
X0262947Y0205967
X0263101Y020188
X026305Y019752
X0263205Y0190245
X0261049Y0186436
X0258103
X0255158
X0252212
X0254317Y0182308
X0259746Y0179288
X0263901Y0179803
X0269216
X027335
X02765Y018
X0267086Y0184725
X0279156Y0193831
X0248585Y0194321
X0248792Y0201643
X0248668Y0209256
X0242248Y0209331
X0235948Y0206772
Y0202835
X0231618
Y0206772
X0227287
Y0202835
X0222956
Y0206772
X0219019
Y0202835
Y0198504
X0222956
Y0194173
X0219019
X0227287
Y0198504
X0231618
X0235948
X0235555Y0194173
X0231618
Y0180394
X0226893
X0227481Y0172632
X0227493Y0168557
X0218791Y0163809
X0218754Y015975
X0214655Y0159698
X0199397Y01584
X0192045Y0168557
X019533Y0172632
X0195397Y0181969
X0192641
X019146Y0185709
X0196775Y0186103
X0200515Y0187087
X0200122Y0184725
X0200909Y0181969
X0198153
X0203271Y0185512
X0202484Y0189449
X0199728
X0196972Y0191418
X0194413Y0191614
X0191854Y0191418
X0189098Y0190827
X0187129Y0189252
X0186539Y0184331
X0181618Y0184725
X0176696Y0182559
X0174925Y0189843
X0170988Y019063
X0168232Y019004
X0165673
X0160752
X0158389Y0189252
X0158192Y0192992
X0159177Y020067
X0161539
Y0204213
X0159177
X0156815
Y020067
X0167641Y0200866
Y019811
X0165082Y0195551
X0174334Y0195158
X0174728Y0198307
X0177484Y0198898
Y0192795
X018024Y0191614
X0172956Y0192795
X0167051Y0181772
X0165279Y0183544
X0163507Y0181969
X0161845Y0172632
X01845Y01635
X0186539Y0201063
Y0203622
X0189492Y0202638
X0189098Y0198898
X0191854Y0198504
X0192051Y0200866
X019461Y020067
Y019811
X0197366
X0200122
X0202878
X0205633
X0207602Y0200079
X0206815Y0192008
X0204846Y0189843
X0212917Y019063
X0219019Y0182362
X0236736Y0180394
X024146
X024461Y018
X0245397Y0182756
X0242641Y0184331
X0250567Y0173063
X0258447Y0157702
X0304563Y0162835
X0298854Y0178307
X0262759Y0222526
X0262167Y0225526
X0258481Y0226454
X0255396Y0226591
X025209Y0226457
X0242248
X0238311
X0234767Y0221536
X023457Y0213268
X02265Y0214843
X0224531Y0217795
Y0221339
X02202Y0221732
X0216067
X0217444Y021563
X021272Y0210315
X0208783Y0212677
X0206027
X0203271
X0200515
X0197759
X0194413
X0191657
X0193035Y0210709
X0188114Y0212284
X0187129Y0216221
X0184177
X0181027
X0177681
X0174728
X0171972Y0215236
X0169216Y0217402
Y0212481
X0169019Y0209725
Y0206969
X0174925Y0210906
X0179059Y0211496
X0182011
X0181224Y0208937
X0183783Y0209528
X018457Y0207166
X0183389Y0220748
X0180633Y0221142
X0177484Y0220945
X0174137
X0165673
X0162129Y0221732
X0164295Y0225473
X0158586Y022567
X0159374Y0216811
X0161342Y0213268
X0186539Y0221339
X019461Y0216221
X0242248Y0219567
X0248941Y021937
X015524Y021563
X0153468Y0217205
X0151696Y021563
X0147366Y0214449
X0143429Y0212284
X0144413Y0208544
X0142051Y020874
X0139689
X0137129
X0134767
X0132602
X0131039Y020583
X0128869Y020518
X0126603
X0124338
X0122073
X0119811Y0205312
X0117703Y0206141
X0115931Y0207553
X011433Y0209155
X0112728Y0210757
X01121Y0212933
X0111765Y0215174
X0117248Y0215433
X0125712Y0213071
X0134177Y021504
X0136539Y0211693
X0140476Y0214646
X0139689Y021937
X0144413Y0218189
X0144807Y0224882
X0136933Y0225276
X0129255Y0224685
X0130633Y0218977
X0122563Y0222323
X0115476Y0224882
X011421Y0201906
X0116198Y0200821
X0118346Y02001
X0120587Y0199766
X0122851Y0199702
X0125116
X0127382
X0129647
X0131132Y0197991
X0129999Y0193334
X0133389Y0191614
X0136342
X0139295
X0142248
X01452
X0148153
X0151106
Y0189055
X01485Y01885
X0149334Y019378
X0152287
Y0196339
X0146185Y0196536
Y0193977
Y0199488
X0146578Y0207362
X0149137Y020815
X0141066Y0194567
X0136342
X012294Y0196065
X0124538Y0191335
X0117146Y0193734
X0113683Y019713
X0112443Y0203324
X0110826Y020491
X0126574Y0178816
X0125752Y0173742
X0135763Y0170318
X015209Y0184134
X015583Y0182953
X0156027Y019004
X0154452Y0225473
T02
X0103988Y0139386
X011813
X0103988Y0153528
T03
X0107437Y0213386
T04
X0101532Y007502
X0113539Y009252
X0101532Y011002
X012602Y0128957
X0138028Y0146457
X0308539Y011002
X0296532Y009252
X0308539Y007502
X0333028Y0128957
X032102Y0146457
X0333028Y0163957
X012602
M30
